<?xml version="1.0" encoding="utf-8"?>
<!-- Generator: Adobe Illustrator 16.0.0, SVG Export Plug-In . SVG Version: 6.00 Build 0)  -->
<!DOCTYPE svg PUBLIC "-//W3C//DTD SVG 1.1//EN" "http://www.w3.org/Graphics/SVG/1.1/DTD/svg11.dtd">
<svg version="1.1" id="Layer_1" xmlns="http://www.w3.org/2000/svg" xmlns:xlink="http://www.w3.org/1999/xlink" x="0px" y="0px"
	 width="275px" height="182.692px" viewBox="0 0 275 182.692" enable-background="new 0 0 275 182.692" xml:space="preserve">
<g>
	<path fill-rule="evenodd" clip-rule="evenodd" fill="#FCEE21" d="M62.446,63.692c0.828,1.041-2.506,14.506-2.92,17.571
		c-0.92,6.818-2.039,14.118-1.359,21.31c0.527,5.587,0.412,12.436,2.584,17.562c2.684,6.334,11.316,6.9,16.965,7.506
		c5.537,0.592,12.096,2.697,17.479,1.578c7.877-1.637,17.25-4.746,24.447-8.792c3.99-2.245,2.902-3.724,2.529-7.824
		c-0.428-4.705,0.27-9.177,0.719-13.774c0.869-8.95,2.098-19.336-0.424-28.034c-1.836-6.34-6.111-4.277-11.223-3.447
		c-6.049,0.981-12.322,0.83-18.518,0.83c-10.053,0-19.186-0.828-28.504-3.738"/>
	<path fill-rule="evenodd" clip-rule="evenodd" fill="#FCEE21" d="M158.154,62.18c0,0,9.663,0,14.313,0
		c1.754,0,4.92-0.653,6.486,0.066c1.945,0.893,2.182,3.12,2.686,5.151c0.529,2.136,1.1,4.089,1.986,6.181
		c1.107,2.605,2.9,3.999,4.543,6.215c1.645,2.22,2.078,3.264,4.256,4.979c2.162,1.703,4.18,3.162,6.973,3.914
		c7.156,1.924,11.098-4.566,13.9-10.173c1.545-3.087,3.518-5.421,4.039-8.905c0.309-2.064,0.971-7.147,2.447-8.51
		c-0.812,6.297-1.916,12.724-2.502,19.171c-0.76,8.335,0.303,16.506,0.303,24.862c0,6.373,0.684,12.502,0,18.766
		c-0.221,2.036,0.312,4.684-0.984,6.281c-1.854,2.282-7.387,2.055-10,2.18c-9.338,0.45-18.705,1.257-28.139,1.247
		c-4.816-0.006-9.516,0.414-14.227,1.246c-2.791,0.493-3.805,1.328-4.473-1.744c-1.051-4.825-1.246-10.484-1.246-15.447
		c0-4.964-0.453-9.92-0.25-14.942c0.283-6.983,1.918-13.713,1.994-20.699c0.041-3.82-0.066-8.09-0.924-11.771
		c-0.602-2.582-3.63-5.169-0.503-7.247"/>
	<g>
		<path fill-rule="evenodd" clip-rule="evenodd" fill="#FFFFFF" d="M221.897,114.84c1.85-11.624,0.105-25.001,0.604-37.987
			c0.143-1.364,3.037,0.021,3.316-1.206c-0.146-5.171,0.629-9.42,2.109-12.964c7.889-2.815,19.057-4.209,20.803,4.824
			c0.629,3.248,0.283,9.555,0.303,14.169c0.027,6.764-0.105,16.553-0.604,23.517c-0.219,3.057-1.029,7.801-1.809,9.045
			c-2.119,3.382-12.617,5.33-18.693,3.617C225.37,117.134,224.711,114.862,221.897,114.84z"/>
		<path fill-rule="evenodd" clip-rule="evenodd" fill="#FFFFFF" d="M50.651,67.507c2.354,3.677,1.111,10.949,3.316,14.772
			c0.064,13.382-1.018,26.901,0,39.495c-5.256,3.352-18.18,3.515-22.008-1.207c-2.91-3.585-2.131-14.75-2.412-22.912
			c-0.475-13.727-3.553-31.236,7.838-32.562C42.497,64.499,45.219,66.085,50.651,67.507z"/>
		<path fill-rule="evenodd" clip-rule="evenodd" stroke="#000000" stroke-miterlimit="10" d="M101.301,27.71
			c2.158-0.633,4.41-1.461,6.332-0.905c2.727,0.789,2.848,5.692,6.33,5.125c0.99,1.723,3.289,2.139,3.016,5.125
			c7.096-0.393,9.1,11.699,3.014,14.17c-1.379,23.183,1.4,45.484,0.303,69.645c-0.314,6.896-0.459,14.156,0,20.199
			c0.414,5.463,1.994,11.961-1.508,15.376c-2.072,2.021-9.232,3.87-12.662,4.522c-9.326,1.778-24.078,1.454-35.275,0
			c-5.838-0.758-14.021-2.393-15.979-6.331c-1.678-3.38,0.092-8.564-0.602-11.456c-0.482-2-5.113-8.492-6.936-9.348
			c-1.463-0.685-3.26-0.527-4.824-0.904c-5.305-1.272-13.389-4.027-16.279-8.441c-3.24-4.945-4.572-14.404-5.125-22.009
			c-0.443-6.087-0.266-12.978,0-18.994c0.236-5.383,0.697-12.604,2.109-16.581c1.156-3.254,5.943-8.475,9.949-9.347
			c6.543-1.425,11.748,0.837,18.09,1.507c-2.031-3.318-6.762-9.383-6.029-15.678c0.141-1.221,1.682-2.505,2.109-4.219
			c0.936-3.752,0.061-7.935,3.92-8.443c0.113-4.106,3.582-4.857,5.729-6.934c1.105,0,2.211,0,3.316,0
			c1.34-1.271,2.52-2.705,4.221-3.618c3.59,0.128,8.174-0.738,9.045,2.11c4.055-4.029,14.66-2.594,16.883,2.112
			C94.637,22.692,99.946,24.615,101.301,27.71z M61.204,25.9c-3.912-2.223-8.758,1.419-8.744,6.03
			c-5.637,0.191-2.527,9.129-6.029,11.456c0.982,6.355,2.459,12.214,6.934,15.076c5.061,0.164,5.168-7.156,9.348-8.141
			c9.307-2.195,6.996,9.086,7.234,15.375c1.176,0.07,1.564-0.647,2.412-0.902c-1.691-4.482-1.23-11.653,2.715-12.664
			c2.719-0.698,5.74,0.587,6.631,2.11c2.609,4.461-1.973,12.122,0,16.582c3.688-0.485,1.715-4.194,1.508-5.729
			c-0.973-7.202,1.844-12.596,6.029-15.376c2.971-1.972,6.885-1.201,11.758-1.809c5.656-0.705,9.691-3.851,15.98-2.412
			c0.945,1.265,2.852,1.57,2.713,3.919c5.619-3.149,1.484-11.629-4.221-11.457c0.016-3.434-1.693-5.141-5.125-5.125
			c-0.994-4.673-5.342-6.002-9.648-3.316c-1.273-3.611-6.936-5.934-10.854-3.316c-1.311-1.194-1.693-2.949-3.617-3.92
			c-4.195-2.115-10.012-0.479-13.266,1.508C70.874,19.204,61.487,21.452,61.204,25.9z M116.375,47.004
			c-4.617-2.355-9.443,1.447-14.773,2.111c-3.951,0.491-8.637,0.062-10.854,1.206c-3.336,1.721-6.512,7.271-6.633,12.059
			c4.26-0.865,8.439,1.135,12.361,0.906c1.393-0.083,2.861-1.051,4.221-1.207c5.807-0.666,11.951,0.336,18.09-0.904
			C118.083,55.053,120.625,49.173,116.375,47.004z M65.725,51.526c-5.805-1.227-6.447,8.812-11.758,8.141
			c3.09,2.74,9.117,2.541,14.773,2.713C69.633,57.487,68.864,52.19,65.725,51.526z M79.895,54.24
			c-4.023-3.409-8.926,1.985-6.934,7.839c2.436,0.277,5.047,0.381,7.838,0.301C81.155,59.226,81.631,55.71,79.895,54.24z
			 M57.284,64.794c-3.322-6.438-14.941-6.15-24.119-5.73c-3.373,2.274-7.666,5.122-8.742,8.744
			c-4.051,13.611-3.266,46.006,3.014,55.775c2.775,4.316,10.619,6.897,15.678,8.141c5.398,1.326,6.727,1.695,9.346,5.729
			c1.09,1.677,2.145,4.688,3.619,4.221c1.232-5.453,1.859-14.06,0.301-19.598c-5.748,4.363-20.688,4.955-25.324-0.602
			c-3.424-4.103-2.395-15.501-2.715-23.518c-0.324-8.123-1.67-18.221-0.301-25.927c1.838-10.358,15.008-9.262,23.818-5.427
			c0.973,1.925,1.158,4.368,1.506,6.935c0.322,2.363-0.32,5.477,1.508,6.633C58.61,77.979,56.379,69.817,57.284,64.794z
			 M61.805,157.953c2.318,0.859,7.422,1.492,9.949,1.81c10.561,1.326,24.34,1.819,33.768,0c3.553-0.687,10.623-2.732,12.361-4.523
			c3.139-3.236,1.547-9.102,1.205-13.869c-0.482-6.749-0.307-14.061,0-20.803c0.889-19.566-1.861-39.137-0.301-57.885
			c-0.018-0.184-0.045-0.357-0.301-0.303c-11.941,0.803-22.279,2.391-34.068,1.207c0.359,2.253,0.809,4.416,0.602,7.235
			c-0.848,0.962-2.164,1.452-4.221,1.207c-1.877-1.959-0.83-5.734-0.301-8.442c-2.24-0.171-5.186,0.36-6.934-0.301
			c0.441,3.053-1.549,3.677-4.221,3.617c-1.469-0.142-0.205-3.012-1.508-3.316c-3.504-0.014-6.85-0.187-9.949-0.604
			c0.463,5.518,2.092,17.071-3.016,18.995c0.814,12.49-0.871,26.495,0.303,38.589c0.094,0.387,1.906-0.416,2.109,0.604
			c2.201,5.699,1.127,15.662,0,21.708c0.182,1.186-2.086-0.077-1.809,1.206C54.272,152.414,56.885,156.131,61.805,157.953z
			 M37.385,65.094c-11.391,1.325-8.312,18.834-7.838,32.562c0.281,8.162-0.498,19.327,2.412,22.912
			c3.828,4.722,16.752,4.559,22.008,1.207c-1.018-12.594,0.064-26.113,0-39.495c-2.205-3.823-0.963-11.096-3.316-14.772
			C45.219,66.085,42.497,64.499,37.385,65.094z"/>
		<path fill-rule="evenodd" clip-rule="evenodd" fill="#FFFFFF" d="M72.961,23.737c3.254-1.945,9.07-3.547,13.266-1.476
			c1.924,0.951,2.307,2.668,3.617,3.838c3.918-2.563,9.58-0.288,10.854,3.247c4.307-2.63,8.654-1.33,9.648,3.248
			c3.432-0.015,5.141,1.657,5.125,5.02c5.705-0.168,9.84,8.133,4.221,11.218c0.139-2.3-1.768-2.6-2.713-3.838
			c-6.289-1.407-10.324,1.671-15.98,2.36c-4.873,0.596-8.787-0.158-11.758,1.773c-4.186,2.721-7.002,8.004-6.029,15.055
			c0.207,1.504,2.18,5.135-1.508,5.612c-1.973-4.369,2.609-11.872,0-16.239c-0.891-1.491-3.912-2.75-6.631-2.066
			c-3.945,0.991-4.406,8.014-2.715,12.399c-0.848,0.252-1.236,0.954-2.412,0.885c-0.238-6.158,2.072-17.206-7.234-15.056
			c-4.18,0.965-4.287,8.133-9.348,7.97c-4.475-2.8-5.951-8.539-6.934-14.761c3.502-2.278,0.393-11.03,6.029-11.217
			c-0.014-4.516,4.832-8.083,8.744-5.907C61.487,21.449,70.874,19.247,72.961,23.737z M68.438,33.604
			c1.742-0.463,2.467-1.934,4.523-2.088c1.381,0.127,1.65,1.348,2.713,1.789c1.764-1.172,3.666-1.969,5.729-0.595
			c0.744-3.308-4.406-2.106-5.426-1.194C74.196,29.632,68.01,29.802,68.438,33.604z"/>
		<path fill-rule="evenodd" clip-rule="evenodd" stroke="#000000" stroke-miterlimit="10" d="M224.309,31.628
			c3.699,2.686,3.27,6.018,2.412,11.156c-0.256,1.535,0.062,3.59-0.301,4.824c-0.854,2.896-4.572,4.533-3.619,8.14
			c6.678-1.565,15.449-4.683,22.611-2.411c9.828,3.113,10.891,14.525,11.457,27.435c0.221,5.018,0.342,10.584,0,15.678
			c-0.488,7.288-1.936,17.605-5.125,22.309c-2.912,4.295-10.086,6.842-15.377,8.141c-1.656,0.406-3.34,0.265-4.822,0.904
			c-3.117,1.345-4.734,5.618-7.236,9.045c1.559,3.666,3.422,7.03,3.014,12.663c-4.943,6.69-15.074,4.221-25.324,4.221
			c-10.453,0-21.836,1.394-31.656,0.904c-5.287-0.264-12.492-0.903-13.566-5.125c-0.617-2.419,1.15-6.166,1.809-8.442
			c0.793-2.746,1.857-5.673,2.109-7.839c0.59-5.046-0.676-10.688-0.301-16.28c0.986-14.699,1.299-30.906,0.301-44.62
			c-0.625-8.587,0.406-17.105,1.207-25.023c-3.143-1.323-4.387-6.007-3.316-10.552c4.412-0.31,4.57-4.875,9.648-4.522
			c0.344-1.676,0.818-2.997,2.41-3.92c1.512-0.875,3.016-0.445,5.729-0.905c3.49-0.59,4.01-2.288,7.84-1.808
			c1.061,0.132,1.672,1.031,3.014,1.206c3.609,0.472,7.014-1.709,8.744,1.206c2.373-1.583,8.516-1.228,10.25,0.603
			c2.094-2.478,7.488-0.824,8.744,1.205C218.977,29.524,220.18,32.038,224.309,31.628z M186.924,28.312
			c-2.715-2.482-7.938-1.173-10.252,0.905c-2.736-1.867-7.307,0.458-7.234,4.22c-5.584-0.795-5.268,4.654-9.648,4.223
			c-1.207,2.092-0.004,5.431,0.904,7.235c2.275,1.236,4.232-0.239,6.633,0c4.656,0.462,6.906,6.074,12.061,6.03
			c1.145,2.774,2.73,5.108,5.125,6.633c1.543,5.292,0.83,12.839,4.824,15.677c0,1.006,0,2.011,0,3.016
			c2.422,3.508,5.773,6.084,11.154,6.633c0.879,0.529,0.76,2.053,1.508,2.712c4.08-6.673,11.951-9.554,12.061-20.198
			c2.195-2.002,1.48-6.38,3.316-9.045c2.283-3.318,6.85-6.025,7.838-9.647c0.287-1.055-0.205-2.534,0-3.919
			c0.242-1.627,1.223-2.968,1.207-4.22c-0.053-4.025-3.352-7.213-7.236-5.729c-0.936-0.473-1.15-1.664-2.111-2.111
			c-3.961,1.471-4.453-2.653-8.441-2.109c-1.273,0.034-0.887,1.726-2.412,1.506c-2.123-1.89-7.656-2.635-10.25-0.602
			C194.393,27.609,189.807,27.108,186.924,28.312z M163.106,47.004c-0.342,3.478-0.777,6.861-0.904,10.553
			c6.646,0.215,12.613-0.251,18.693-0.603c-0.303-0.91-1.912-3.11-2.412-4.824C172.09,51.942,170.116,43.702,163.106,47.004z
			 M220.088,56.05c0.502,0,1.004,0,1.508,0c-0.398-0.936,0.893-1.671,0-2.111C221.108,54.657,220.512,55.269,220.088,56.05z
			 M230.639,126.599c1.447-0.613,3.395-0.468,5.127-0.905c4.279-1.08,10.422-3.054,13.566-6.331
			c8.365-8.718,7.609-44.996,4.221-56.379c-0.842-2.827-6.182-7.904-9.045-8.743c-1.949-0.571-4.516-0.159-6.633,0
			c-5.416,0.409-12.625,0.493-15.074,4.222c-0.535,2.291-0.301,5.73-0.301,9.044c0,2.86-0.955,7.099,1.506,7.837
			c1.402-3.572,0.564-10.515,3.016-13.868c8.492-2.921,21.234-4.584,22.914,5.728c0.865,5.318,0.607,13.182,0.301,19.597
			c-0.311,6.529-0.18,13.181-0.604,18.995c-0.207,2.862-1.164,8.279-2.109,9.646c-2.498,3.612-13.949,5.527-20.201,3.618
			c-2.037-0.622-2.939-2.495-5.123-2.714c-0.236,5.92-0.605,14.432,1.807,18.693C226.147,131.735,227.211,128.05,230.639,126.599z
			 M218.581,57.557c-3.6,9.665-4.936,21.595-13.867,25.928c-0.209,10.704,0.268,22.376-0.906,32.26
			c-1.205-8.659-0.59-20.571-0.301-29.244c-0.4-0.479-1.182,1.214-2.713,0.603c-0.447-0.958-0.467-2.348-1.207-3.016
			c-3.469-0.226-5.881-1.54-7.838-3.014c-1-0.752-1.846-2.376-2.715-1.81c-0.262,12.604,1.725,27.665-1.506,37.987
			c-0.076-12.35,1.123-28.865-0.303-41.604c-0.32-1.124,1.131-0.478,0.904-1.508c-3.936-2.897-3.271-10.396-4.822-15.676
			c-6.508-0.57-13.656,0.808-21.105,0.3c-0.617,16.834,1.592,35.332,0.301,53.062c-0.174,2.4-0.834,4.607-0.902,6.934
			c-0.193,6.516,1.232,13.271-0.604,19.295c20.73-0.133,41.568,0.568,61.805-1.205c-1.783-5.487-2.58-13.819-2.111-21.406
			c1.15-18.484,0.502-38.962,0.604-57.886c-0.018-0.183-0.045-0.356-0.301-0.302C220.553,57.722,219.45,57.521,218.581,57.557z
			 M227.926,117.854c6.076,1.713,16.574-0.235,18.693-3.617c0.779-1.244,1.59-5.988,1.809-9.045
			c0.498-6.964,0.631-16.752,0.604-23.517c-0.02-4.614,0.326-10.921-0.303-14.169c-1.746-9.033-12.914-7.64-20.803-4.824
			c-1.48,3.544-2.256,7.793-2.109,12.964c-0.279,1.228-3.174-0.158-3.316,1.206c-0.498,12.986,1.246,26.363-0.604,37.987
			C224.711,114.862,225.37,117.134,227.926,117.854z M161.6,139.262c0.947,1.71,2.355,1.896,3.918,2.108
			c5.203,0.712,12.432-0.323,19.598,0c7.789,0.355,15.777,1.108,22.008,0.604c5.891-0.476,12.205-0.572,15.678-3.92
			C203.25,139.987,181.69,139.297,161.6,139.262z M205.315,143.481c-6.557,0.235-14.449-0.669-22.008-0.903
			c-9.705-0.302-18.668,1.341-23.215-1.811c0.113,2.26-2.592,5.108-2.111,7.839c0.719,4.094,7.104,4.516,12.662,4.824
			c7.17,0.397,17.184,0.148,24.422-0.302c11.078-0.688,25.873,2.009,31.053-4.522c0.08-3.896-1.016-6.621-2.412-9.045
			C220.92,142.162,211.629,143.255,205.315,143.481z"/>
		<path fill-rule="evenodd" clip-rule="evenodd" fill="#FFFFFF" d="M195.969,29.481c2.594-2.003,8.127-1.27,10.25,0.594
			c1.525,0.217,1.139-1.451,2.412-1.484c3.988-0.536,4.48,3.529,8.441,2.08c0.961,0.44,1.176,1.616,2.111,2.081
			c3.885-1.463,7.184,1.68,7.236,5.647c0.016,1.235-0.965,2.556-1.207,4.161c-0.205,1.363,0.287,2.822,0,3.863
			c-0.988,3.57-5.555,6.239-7.838,9.51c-1.836,2.627-1.121,6.943-3.316,8.917c-0.109,10.493-7.98,13.333-12.061,19.912
			c-0.748-0.65-0.629-2.153-1.508-2.674c-5.381-0.541-8.732-3.08-11.154-6.538c0-0.991,0-1.981,0-2.973
			c-3.994-2.798-3.281-10.237-4.824-15.454c-2.395-1.502-3.98-3.803-5.125-6.539c-5.154,0.043-7.404-5.489-12.061-5.944
			c-2.4-0.235-4.357,1.219-6.633,0c-0.908-1.778-2.111-5.069-0.904-7.132c4.381,0.425,4.064-4.945,9.648-4.163
			c-0.072-3.708,4.498-6,7.234-4.16c2.314-2.049,7.537-3.34,10.252-0.893C189.807,27.106,194.393,27.601,195.969,29.481z
			 M204.411,37.659c-0.979-1.957-6.682-2.322-6.934,0.602c1.332,0.705,2.48-1.044,4.221-0.905c0.791,0.516,1.512,1.1,1.205,2.714
			c1.832,0.022,2.105-1.514,3.92-1.506c0.979,0.528,1.508,1.506,2.109,2.412c1.047,0.241,1.16-0.449,2.111-0.303
			c1.623,0.388,1.141,2.879,2.713,3.316c1.049-2.76-0.975-5.051-4.221-4.521C209.571,37.181,206.389,36.983,204.411,37.659z"/>
		<path fill-rule="evenodd" clip-rule="evenodd" stroke="#000000" stroke-miterlimit="10" d="M75.977,31.628
			c1.02-0.922,6.17-2.137,5.426,1.207c-1.666-2.203-4.547-1.482-5.729,0.602c-0.186-1.076-1.613-2.1-2.994-2.229
			c-2.881-0.215-3.24,1.945-4.242,2.531C68.01,29.895,74.196,29.724,75.977,31.628z"/>
		<path fill-rule="evenodd" clip-rule="evenodd" stroke="#000000" stroke-miterlimit="10" d="M209.536,39.468
			c3.246-0.529,5.27,1.762,4.221,4.521c-0.578-1.277-1.006-3.365-2.629-3.752c-0.951-0.147-1.066,0.543-2.111,0.302
			c-0.604-0.905-0.336-2.077-2.109-2.411c-1.816-0.008-1.924,0.826-3.279,1.258c0.307-1.614-1.057-1.949-1.848-2.465
			c-1.738-0.14-3.143,0.801-4.303,1.34c0.252-2.924,5.955-2.559,6.934-0.602C206.389,36.983,209.571,37.181,209.536,39.468z"/>
		<path fill-rule="evenodd" clip-rule="evenodd" fill="#FFFFFF" d="M178.483,52.13c0.5,1.714,2.109,3.914,2.412,4.824
			c-6.08,0.352-12.047,0.818-18.693,0.603c0.127-3.692,0.562-7.075,0.904-10.553C170.116,43.702,172.09,51.942,178.483,52.13z"/>
		<path fill-rule="evenodd" clip-rule="evenodd" fill="#FFFFFF" d="M118.788,61.175c-6.139,1.24-12.283,0.239-18.09,0.904
			c-1.359,0.156-2.828,1.124-4.221,1.207c-3.922,0.229-8.102-1.771-12.361-0.906c0.121-4.787,3.297-10.338,6.633-12.059
			c2.217-1.144,6.902-0.715,10.854-1.206c5.33-0.664,10.156-4.467,14.773-2.111C120.625,49.173,118.083,55.053,118.788,61.175z"/>
		<path fill-rule="evenodd" clip-rule="evenodd" fill="#FFFFFF" d="M68.741,62.38c-5.656-0.172-11.684,0.027-14.773-2.713
			c5.311,0.672,5.953-9.367,11.758-8.141C68.864,52.19,69.633,57.487,68.741,62.38z"/>
		<path fill-rule="evenodd" clip-rule="evenodd" fill="#FFFFFF" d="M80.799,62.38c-2.791,0.081-5.402-0.023-7.838-0.301
			c-1.992-5.854,2.91-11.248,6.934-7.839C81.631,55.71,81.155,59.226,80.799,62.38z"/>
		<path fill-rule="evenodd" clip-rule="evenodd" fill="#FFFFFF" d="M221.596,53.938c0.893,0.44-0.398,1.176,0,2.111
			c-0.504,0-1.006,0-1.508,0C220.512,55.269,221.108,54.657,221.596,53.938z"/>
		<path fill-rule="evenodd" clip-rule="evenodd" fill="#FFFFFF" d="M224.006,135.04c-2.412-4.262-2.043-12.773-1.807-18.693
			c2.184,0.219,3.086,2.092,5.123,2.714c6.252,1.909,17.703-0.006,20.201-3.618c0.945-1.367,1.902-6.784,2.109-9.646
			c0.424-5.814,0.293-12.466,0.604-18.995c0.307-6.415,0.564-14.278-0.301-19.597c-1.68-10.312-14.422-8.648-22.914-5.728
			c-2.451,3.353-1.613,10.296-3.016,13.868c-2.461-0.739-1.506-4.977-1.506-7.837c0-3.314-0.234-6.754,0.301-9.044
			c2.449-3.729,9.658-3.813,15.074-4.222c2.117-0.159,4.684-0.571,6.633,0c2.863,0.839,8.203,5.917,9.045,8.743
			c3.389,11.383,4.145,47.661-4.221,56.379c-3.145,3.277-9.287,5.251-13.566,6.331c-1.732,0.438-3.68,0.292-5.127,0.905
			C227.211,128.05,226.147,131.735,224.006,135.04z"/>
		<path fill-rule="evenodd" clip-rule="evenodd" fill="#FFFFFF" d="M54.872,80.169c-1.828-1.156-1.186-4.27-1.508-6.633
			c-0.348-2.566-0.533-5.01-1.506-6.935c-8.811-3.835-21.98-4.931-23.818,5.427c-1.369,7.707-0.023,17.804,0.301,25.927
			c0.32,8.017-0.709,19.415,2.715,23.518c4.637,5.557,19.576,4.965,25.324,0.602c1.559,5.538,0.932,14.145-0.301,19.598
			c-1.475,0.467-2.529-2.544-3.619-4.221c-2.619-4.033-3.947-4.402-9.346-5.729c-5.059-1.243-12.902-3.824-15.678-8.141
			c-6.279-9.77-7.064-42.164-3.014-55.775c1.076-3.622,5.369-6.469,8.742-8.744c9.178-0.42,20.797-0.708,24.119,5.73
			C56.379,69.817,58.61,77.979,54.872,80.169z"/>
		<path fill-rule="evenodd" clip-rule="evenodd" stroke="#000000" stroke-miterlimit="10" d="M117.28,64.19
			c0.633,0.927,0.303,2.976-0.301,3.617c-1.391-0.017-2.947,0.134-3.92-0.301C111.989,64.078,114.827,63.108,117.28,64.19z
			 M114.266,66.602c0.963-0.041,2.307,0.298,2.109-0.905c-0.273-0.631-0.889-0.918-1.809-0.902
			C114.219,65.148,114.225,65.858,114.266,66.602z"/>
		<path fill-rule="evenodd" clip-rule="evenodd" fill="#FFFFFF" d="M114.567,64.794c0.92-0.016,1.535,0.271,1.809,0.902
			c0.197,1.203-1.146,0.864-2.109,0.905C114.225,65.858,114.219,65.148,114.567,64.794z"/>
		<path fill-rule="evenodd" clip-rule="evenodd" stroke="#000000" stroke-miterlimit="10" d="M114.266,72.933
			c-1.119,0.664-3.357,0.253-4.223-0.302C108.696,66.962,117.18,69.132,114.266,72.933z M111.25,71.728
			c1.082,0.109,1.105,0.808,2.111,0.301c0-0.403,0-0.804,0-1.207C112.434,70.38,111.127,70.337,111.25,71.728z"/>
		<path fill-rule="evenodd" clip-rule="evenodd" fill="#FFFFFF" d="M113.362,70.822c0,0.402,0,0.804,0,1.207
			c-1.006,0.507-1.029-0.192-2.111-0.301C111.127,70.337,112.434,70.38,113.362,70.822z"/>
		<path fill-rule="evenodd" clip-rule="evenodd" stroke="#000000" stroke-miterlimit="10" d="M63.616,71.728
			c0.201,0,0.402,0,0.604,0c1.281,3.137,1.197,7.115,1.205,10.854c0.023,10.47-1.121,20.479-1.809,30.751
			c-1.748-12.55,1.426-27.835,0-40.702C63.616,72.33,63.616,72.029,63.616,71.728z"/>
		<path fill-rule="evenodd" clip-rule="evenodd" stroke="#000000" stroke-miterlimit="10" d="M77.182,72.33
			c0.486-0.084,0.52,0.284,0.904,0.301c-0.445,14.265,0.227,28.54,0,43.416c-2.16-2.402-1.205-6.577-1.205-9.95
			c0-10.815-0.457-22.527,0-32.863C76.795,72.747,77.167,72.716,77.182,72.33z"/>
		<path fill-rule="evenodd" clip-rule="evenodd" stroke="#000000" stroke-miterlimit="10" d="M105.522,72.33
			c0.301,0,0.604,0,0.904,0c0.654,14.585-0.225,30.285-0.904,43.414c-1.518-2.972-1.062-6.784-0.904-10.251
			c0.457-10.057,1.238-21.537,0.604-32.26C105.381,72.991,105.536,72.746,105.522,72.33z"/>
		<path fill-rule="evenodd" clip-rule="evenodd" stroke="#000000" stroke-miterlimit="10" d="M89.844,72.631
			c0.301,0,0.604,0,0.904,0c-0.473,14.231,0.721,30.199,0,42.511c-2.189-11.314-0.822-27.717-1.205-41.605
			C89.458,73.048,89.829,73.017,89.844,72.631z"/>
		<path fill-rule="evenodd" clip-rule="evenodd" stroke="#000000" stroke-miterlimit="10" d="M172.754,72.933
			c0.201,0,0.402,0,0.604,0c0.861,12.108,1.289,28.733-0.303,40.4c-0.305,2.24,0.029,4.858-1.508,6.33
			C172.922,105.608,172.495,89.015,172.754,72.933z"/>
		<path fill-rule="evenodd" clip-rule="evenodd" stroke="#000000" stroke-miterlimit="10" d="M215.264,73.233
			c0.201,0,0.402,0,0.604,0c0.584,12.733,1.621,30.775-0.904,43.113c-0.637-6.211,0.301-13.51,0.301-20.802
			c0-7.217-0.396-14.533,0-21.406C215.264,73.837,215.264,73.536,215.264,73.233z"/>
		<path fill-rule="evenodd" clip-rule="evenodd" stroke="#000000" stroke-miterlimit="10" d="M111.94,126.313
			c0.301,0,1.723-0.318,2.023-0.318c-2.117,2.001-5.506,2.631-8.742,3.317c-6.014,1.272-12.008,3.15-20.803,2.712
			c-5.641-0.28-12.154-0.622-16.281-1.508c-2.545-0.545-5.66-1.822-6.934-3.918C75.301,133.79,100.538,131.587,111.94,126.313z"/>
		<path fill-rule="evenodd" clip-rule="evenodd" fill="#FFFFFF" d="M222.801,138.054c-3.473,3.348-9.787,3.444-15.678,3.92
			c-6.23,0.505-14.219-0.248-22.008-0.604c-7.166-0.323-14.395,0.712-19.598,0c-1.562-0.213-2.971-0.398-3.918-2.108
			C181.69,139.297,203.25,139.987,222.801,138.054z"/>
		<path fill-rule="evenodd" clip-rule="evenodd" fill="#FFFFFF" d="M223.706,139.562c1.396,2.424,2.492,5.148,2.412,9.045
			c-5.18,6.531-19.975,3.834-31.053,4.522c-7.238,0.45-17.252,0.699-24.422,0.302c-5.559-0.309-11.943-0.73-12.662-4.824
			c-0.48-2.73,2.225-5.579,2.111-7.839c4.547,3.151,13.51,1.509,23.215,1.811c7.559,0.234,15.451,1.139,22.008,0.903
			C211.629,143.255,220.92,142.162,223.706,139.562z"/>
	</g>
</g>
<g>
</g>
<g>
</g>
<g>
</g>
<g>
</g>
<g>
</g>
<g>
</g>
<g>
</g>
<g>
</g>
<g>
</g>
<g>
</g>
<g>
</g>
<g>
</g>
<g>
</g>
<g>
</g>
<g>
</g>
</svg>
