<?xml version="1.0" encoding="utf-8"?>
<!-- Generator: Adobe Illustrator 16.0.0, SVG Export Plug-In . SVG Version: 6.00 Build 0)  -->
<!DOCTYPE svg PUBLIC "-//W3C//DTD SVG 1.1//EN" "http://www.w3.org/Graphics/SVG/1.1/DTD/svg11.dtd">
<svg version="1.1" id="Layer_1" xmlns="http://www.w3.org/2000/svg" xmlns:xlink="http://www.w3.org/1999/xlink" x="0px" y="0px"
	 width="167px" height="156px" viewBox="0 0 167 156" enable-background="new 0 0 167 156" xml:space="preserve">
<path fill-rule="evenodd" clip-rule="evenodd" fill="#0F7EDC" d="M32.333,78.833c0.935-3.284,5.596-5.266,8.462-6.459
	c4.555-1.896,9.541-4.056,14.408-5.009C60.448,66.339,65.914,66,71.277,66c6.009,0,11.799-0.443,17.736-0.995
	c8.69-0.809,18.424-0.17,26.821,1.5c3.367,0.669,5.579,1.501,8.492,3.324c3.076,1.927,7.912,4.429,8.971,8.162
	c0.338,1.191,0.633,3.926-0.168,5.017c-0.934,1.274-3.279,1.147-4.625,1.482c-3.508,0.875-6.879,2.244-10.333,3
	c-7.531,1.648-15.606,1.479-23.292,1.014c-3.745-0.227-7.513-0.363-11.245-0.162c-4.344,0.234-8.397-0.273-12.679-0.472
	c-4.495-0.208-9.346,0.126-13.792-0.546c-3.402-0.515-7.068-0.373-10.338-1.824c-5.235-2.324-10.581-3.843-15.491-6.834"/>
<g>
	<path fill="#FCEE21" d="M66.5,12.375c0,0-0.17-0.002-0.491-0.006c-0.32-0.015-0.791,0.014-1.359,0.127
		c-0.571,0.094-1.251,0.405-1.718,1.023c-0.452,0.635-0.597,1.548-0.558,2.527c0.096,1.984,0.906,4.24,1.871,6.57
		c0.979,2.343,2.205,4.745,3.41,7.22l0.214,0.487c0.073,0.179,0.138,0.363,0.185,0.513l0.32,0.968
		c0.189,0.661,0.417,1.323,0.538,2.009c0.309,1.345,0.355,2.794,0.02,4.097c-0.05,0.334-0.162,0.645-0.271,0.953
		c-0.113,0.305-0.197,0.622-0.339,0.905c-0.139,0.283-0.277,0.564-0.413,0.841L67.7,41.033l-0.229,0.379
		c-0.661,1.033-1.354,1.872-1.932,2.711c-0.575,0.831-1.068,1.612-1.361,2.362c-0.3,0.748-0.353,1.463-0.203,2.018
		c0.095,0.271,0.179,0.517,0.322,0.696c0.116,0.197,0.231,0.354,0.355,0.456C64.879,49.88,65,50,65,50s-0.134-0.106-0.385-0.306
		c-0.137-0.091-0.272-0.235-0.415-0.426c-0.172-0.171-0.286-0.42-0.41-0.706c-0.213-0.583-0.218-1.376,0.036-2.197
		c0.242-0.825,0.69-1.683,1.244-2.554c0.54-0.874,1.212-1.787,1.766-2.759l0.209-0.39l0.167-0.39
		c0.116-0.269,0.233-0.541,0.352-0.816c0.119-0.274,0.182-0.567,0.282-0.852c0.094-0.287,0.191-0.576,0.226-0.877
		c0.28-1.189,0.185-2.45-0.103-3.712c-0.116-0.637-0.337-1.258-0.526-1.899l-0.329-0.966c-0.056-0.174-0.107-0.311-0.165-0.447
		l-0.201-0.447c-0.588-1.228-1.176-2.457-1.754-3.666c-0.575-1.22-1.094-2.445-1.563-3.646c-0.923-2.402-1.603-4.765-1.616-6.888
		c-0.002-1.051,0.241-2.078,0.828-2.767c0.601-0.673,1.377-0.933,1.974-0.984c0.606-0.077,1.083-0.035,1.397,0.01
		C66.331,12.354,66.5,12.375,66.5,12.375z"/>
</g>
<g>
	<path fill="#FCEE21" d="M85.5,11.5c0,0-0.11,0.05-0.317,0.145c-0.212,0.084-0.51,0.24-0.874,0.44
		c-0.361,0.206-0.791,0.484-1.193,0.885c-0.404,0.395-0.765,0.926-0.945,1.569c-0.182,0.643-0.164,1.393,0.038,2.155
		c0.192,0.765,0.535,1.543,0.94,2.328c0.824,1.569,1.936,3.128,3.016,4.756c0.265,0.413,0.526,0.831,0.766,1.279
		c0.21,0.443,0.42,0.884,0.627,1.322c0.228,0.407,0.339,0.929,0.498,1.386c0.071,0.236,0.154,0.467,0.212,0.702
		c0.032,0.24,0.063,0.478,0.096,0.714c0.201,0.941,0.066,1.856,0.009,2.713c-0.004,0.215-0.068,0.446-0.104,0.63
		c-0.059,0.205-0.119,0.427-0.19,0.614c-0.141,0.383-0.298,0.739-0.462,1.069c-0.651,1.32-1.313,2.324-1.542,3.129
		c-0.131,0.396-0.145,0.722-0.138,0.947C85.978,38.507,86,38.625,86,38.625s-0.041-0.115-0.119-0.331
		c-0.039-0.223-0.092-0.575,0.002-1.001c0.157-0.857,0.666-1.994,1.218-3.312c0.136-0.332,0.26-0.679,0.363-1.039
		c0.055-0.182,0.085-0.349,0.127-0.535c0.027-0.215,0.066-0.385,0.055-0.588c-0.007-0.805,0.055-1.65-0.152-2.496
		c-0.035-0.212-0.071-0.427-0.107-0.643c-0.061-0.209-0.145-0.414-0.215-0.622c-0.17-0.416-0.246-0.834-0.486-1.265
		c-0.206-0.421-0.413-0.845-0.621-1.271c-0.219-0.4-0.478-0.8-0.737-1.2c-1.041-1.608-2.174-3.22-2.964-4.909
		c-0.409-0.836-0.709-1.706-0.864-2.569c-0.163-0.858-0.13-1.735,0.139-2.476c0.255-0.749,0.75-1.306,1.234-1.676
		c0.484-0.381,0.958-0.613,1.354-0.782c0.398-0.17,0.719-0.261,0.939-0.317C85.383,11.533,85.5,11.5,85.5,11.5z"/>
</g>
<g>
	<path fill="#FCEE21" d="M105.55,18.552c0,0-0.127,0.05-0.366,0.145c-0.119,0.047-0.267,0.105-0.439,0.173
		c-0.175,0.066-0.332,0.213-0.529,0.33c-0.205,0.107-0.383,0.292-0.562,0.505c-0.209,0.185-0.342,0.457-0.49,0.736
		c-0.176,0.264-0.211,0.623-0.332,0.95c-0.042,0.358-0.133,0.723-0.139,1.121c-0.035,0.792,0.023,1.66,0.179,2.57
		c0.137,0.911,0.374,1.863,0.604,2.849c0.507,1.966,1.14,4.05,1.76,6.149c0.598,2.104,1.197,4.227,1.496,6.296
		c0.169,1.029,0.225,2.056,0.139,3.034c-0.061,0.969-0.365,1.939-0.955,2.621c-0.258,0.374-0.663,0.578-0.997,0.788
		c-0.383,0.112-0.727,0.297-1.077,0.298c-0.688,0.118-1.277,0.038-1.76,0.011c-0.479-0.055-0.847-0.165-1.099-0.208
		c-0.251-0.053-0.385-0.082-0.385-0.082s0.551,0.049,1.495,0.096c0.473-0.022,1.051-0.006,1.672-0.181
		c0.326-0.032,0.606-0.238,0.93-0.36c0.263-0.215,0.596-0.384,0.782-0.714c0.445-0.587,0.667-1.417,0.665-2.315
		c0.022-0.896-0.096-1.856-0.278-2.845c-0.166-0.99-0.446-2.002-0.701-3.037c-0.277-1.031-0.576-2.077-0.887-3.123
		c-0.598-2.099-1.222-4.204-1.655-6.228c-0.216-1.013-0.384-2.003-0.469-2.958c-0.101-0.95-0.107-1.867-0.017-2.709
		c0.036-0.42,0.147-0.823,0.235-1.197c0.169-0.357,0.247-0.726,0.471-1.005c0.194-0.292,0.369-0.566,0.617-0.749
		c0.217-0.209,0.426-0.384,0.662-0.481c0.429-0.267,0.797-0.329,1.049-0.387C105.417,18.584,105.55,18.552,105.55,18.552z"/>
</g>
<g>
	<path d="M45.191,56.934c0,0-0.226,0.068-0.667,0.201c-0.221,0.066-0.495,0.148-0.82,0.246c-0.316,0.118-0.683,0.254-1.098,0.409
		c-0.823,0.322-1.821,0.784-2.907,1.466c-1.09,0.686-2.295,1.558-3.582,2.6c-1.284,1.041-2.637,2.301-3.78,3.91
		c-1.112,1.596-2.053,3.616-1.887,5.833c0.029,0.577,0.026,1.185,0.185,1.709c0.058,0.271,0.117,0.545,0.176,0.821
		c0.076,0.272,0.206,0.539,0.306,0.811c0.117,0.267,0.192,0.554,0.343,0.809c0.152,0.253,0.305,0.509,0.459,0.766
		c0.266,0.538,0.735,0.958,1.101,1.448c1.662,1.843,4.027,3.157,6.57,4.241c5.162,2.103,11.239,3.209,17.674,3.978
		c6.451,0.759,13.321,1.189,20.448,1.454c3.557,0.158,7.208,0.237,10.872,0.647c3.653,0.37,7.351,0.69,11.086,0.862
		c3.734,0.149,7.505,0.186,11.271-0.042c3.759-0.275,7.529-0.77,11.139-1.803c3.589-1.035,7.073-2.616,9.715-5.114
		c0.351-0.288,0.63-0.646,0.947-0.966c0.264-0.258,0.574-0.714,0.859-1.062c0.254-0.372,0.465-0.718,0.685-1.092
		c0.178-0.399,0.417-0.772,0.543-1.19c0.632-1.622,0.798-3.392,0.513-5.108c-0.257-1.72-0.914-3.379-1.803-4.896
		c-0.433-0.766-0.954-1.481-1.491-2.178l-0.05-0.065c0.066,0.074-0.016-0.016-0.016-0.016l-0.118-0.127l-0.234-0.253l-0.47-0.507
		c-0.312-0.338-0.622-0.693-0.954-0.937c-0.649-0.544-1.271-1.103-2.028-1.58c-0.364-0.245-0.714-0.506-1.088-0.736l-1.143-0.655
		c-1.521-0.874-3.136-1.569-4.748-2.217c-1.634-0.602-3.279-1.133-4.936-1.55c-1.708-0.461-3.361-0.806-5.004-1.131
		c-0.831-0.132-1.659-0.264-2.481-0.395c-0.824-0.112-1.646-0.173-2.463-0.268c-1.581-0.152-3.305-0.178-4.917-0.271
		c-3.253-0.094-6.37-0.054-9.462-0.027c-3.068,0.033-6.072,0.016-8.922-0.015c-5.707-0.087-10.939-0.167-15.576-0.237
		c-2.317-0.033-4.475-0.067-6.477,0.025c-0.993,0.068-1.949,0.097-2.862,0.19c-0.913,0.101-1.782,0.196-2.608,0.287
		c-3.294,0.44-5.891,0.807-7.632,1.167C46.119,56.741,45.191,56.934,45.191,56.934z M45.138,56.742c0,0,0.933-0.206,2.68-0.589
		c1.748-0.38,4.334-0.759,7.623-1.315c1.652-0.23,3.478-0.5,5.494-0.694c2-0.189,4.188-0.259,6.506-0.338
		c4.638-0.162,9.869-0.344,15.577-0.543c2.848-0.083,5.813-0.168,8.884-0.257c3.059-0.107,6.306-0.15,9.59-0.099
		c1.652,0.078,3.249,0.078,5.008,0.222c0.853,0.09,1.713,0.164,2.571,0.279c0.854,0.138,1.712,0.275,2.576,0.415
		c1.725,0.342,3.469,0.714,5.144,1.17c1.745,0.433,3.456,1.033,5.163,1.681c3.394,1.387,6.688,3.105,9.625,5.763
		c0.396,0.32,0.687,0.666,0.994,1.007l0.463,0.513l0.232,0.257l0.115,0.128l0.099,0.114l0.054,0.073
		c0.58,0.771,1.141,1.566,1.611,2.422c0.958,1.695,1.696,3.571,1.941,5.571c0.282,1.988,0.041,4.083-0.744,5.96
		c-0.164,0.483-0.442,0.912-0.664,1.367c-0.264,0.434-0.564,0.888-0.854,1.285c-0.324,0.376-0.546,0.71-0.953,1.12
		c-0.356,0.345-0.677,0.729-1.065,1.037c-2.993,2.631-6.718,4.128-10.441,5.066c-3.746,0.948-7.581,1.323-11.382,1.49
		c-3.804,0.188-7.595,0.107-11.342-0.085c-3.748-0.188-7.458-0.492-11.118-0.768c-3.646-0.348-7.261-0.255-10.833-0.283
		c-7.136-0.023-14.066-0.099-20.619-0.789c-6.531-0.713-12.763-1.851-18.117-4.266c-2.653-1.207-5.11-2.771-6.86-4.891
		c-0.389-0.566-0.868-1.053-1.146-1.67c-0.157-0.295-0.312-0.588-0.467-0.879c-0.151-0.291-0.226-0.616-0.34-0.919
		c-0.098-0.311-0.222-0.605-0.293-0.92c-0.053-0.321-0.105-0.64-0.157-0.956c-0.141-0.644-0.104-1.221-0.108-1.802
		c-0.059-2.477,1.075-4.593,2.304-6.189c1.275-1.604,2.692-2.825,4.011-3.852c2.655-2.024,4.927-3.393,6.628-3.998
		c0.422-0.154,0.794-0.289,1.116-0.406c0.327-0.095,0.601-0.175,0.822-0.24C44.908,56.809,45.138,56.742,45.138,56.742z"/>
</g>
<g>
	<path d="M30,73.5c0,0,0.038,0.769,0.109,2.211c0.051,0.719,0.045,1.614,0.165,2.651c0.127,1.031,0.273,2.217,0.437,3.544
		c0.199,1.322,0.487,2.784,0.762,4.371c0.339,1.583,0.707,3.295,1.099,5.123c0.413,1.83,0.858,3.773,1.289,5.849
		c0.463,2.062,0.636,4.303,0.967,6.608c0.494,4.7,0.367,9.662,1.518,14.689c0.556,2.495,1.472,4.978,2.978,7.078
		c0.726,1.074,1.687,1.95,2.714,2.74c1.091,0.699,2.262,1.324,3.57,1.655l0.975,0.266c0.281,0.074,0.693,0.128,1.034,0.192
		c0.716,0.125,1.435,0.25,2.156,0.376c1.443,0.251,2.896,0.504,4.358,0.759c2.923,0.413,5.872,0.762,8.857,1.118
		c3.005,0.229,6.026,0.551,9.075,0.708c3.05,0.135,6.106,0.354,9.176,0.393c3.066,0.082,6.134,0.161,9.194,0.164
		c3.058,0.033,6.107,0.037,9.135,0.026c3.027-0.006,6.031-0.011,9-0.017c2.979-0.007,5.888,0.018,8.677-0.267
		c2.797-0.272,5.479-0.874,7.922-1.921c0.6-0.285,1.196-0.568,1.789-0.85c0.562-0.343,1.121-0.685,1.677-1.023l0.373-0.224
		l0.403-0.307c0.264-0.204,0.545-0.406,0.792-0.61c0.42-0.419,0.867-0.785,1.241-1.277c0.791-0.916,1.401-1.957,1.828-3.068
		c0.445-1.103,0.737-2.264,0.909-3.44c0.375-2.347,0.348-4.726,0.344-7.017c-0.009-1.162-0.018-2.3-0.026-3.412
		c-0.001-1.104,0.021-2.183,0.083-3.232c0.116-2.102,0.227-4.095,0.33-5.968c0.207-3.745,0.389-7.01,0.537-9.699
		c0.327-5.38,0.514-8.454,0.514-8.454s0.085,3.077,0.232,8.462c0.061,2.693,0.133,5.965,0.217,9.717
		c0.042,1.875,0.086,3.871,0.134,5.975c0.027,1.053,0.014,2.131-0.023,3.234c-0.03,1.066-0.004,2.21,0.003,3.362
		c0.002,2.315,0.039,4.769-0.368,7.343c-0.188,1.282-0.512,2.595-1.028,3.873c-0.494,1.284-1.22,2.528-2.154,3.613
		c-0.432,0.562-1.005,1.06-1.548,1.571c-0.27,0.222-0.534,0.411-0.804,0.619l-0.402,0.307c-0.233,0.155-0.323,0.201-0.492,0.308
		c-0.603,0.367-1.209,0.736-1.819,1.107c-0.646,0.308-1.296,0.617-1.949,0.928c-2.664,1.145-5.577,1.789-8.515,2.074
		c-2.952,0.299-5.921,0.268-8.873,0.276c-2.968,0.006-5.973,0.011-9,0.017c-3.029,0.011-6.084,0.007-9.154-0.026
		c-3.068-0.004-6.151-0.082-9.235-0.164c-3.083-0.04-6.167-0.261-9.238-0.396c-3.071-0.158-6.124-0.483-9.156-0.715
		c-3.027-0.359-6.047-0.719-9-1.137c-1.462-0.255-2.915-0.508-4.358-0.76c-0.721-0.125-1.44-0.251-2.156-0.375
		c-0.372-0.071-0.683-0.105-1.104-0.207l-1.117-0.301c-1.493-0.383-2.885-1.106-4.166-1.941c-1.219-0.924-2.345-1.973-3.182-3.202
		c-1.733-2.423-2.712-5.156-3.307-7.805c-1.211-5.319-1.075-10.452-1.556-14.919c-0.647-4.543-1.241-8.708-1.767-12.399
		c-0.25-1.864-0.483-3.609-0.7-5.224c-0.152-1.628-0.326-3.113-0.422-4.465c-0.052-1.355-0.098-2.565-0.138-3.618
		c-0.02-1.048,0.069-1.936,0.087-2.657C29.965,74.27,30,73.5,30,73.5z"/>
</g>
<path fill-rule="evenodd" clip-rule="evenodd" fill="none" stroke="#000000" stroke-miterlimit="10" d="M31.5,76.95
	c3.139-9.864,17.281-10.438,25.865-11.925c10.861-1.879,23.114-3.001,34.147-2.525c8.216,0.354,17.551,1.531,25.377,4.002
	c4.417,1.394,8.658,3.803,11.635,7.51c2.43,3.025,2.965,5.107,4.988,7.514"/>
<g>
	<path d="M50.945,72.507l0.642,0.701l0.704,0.602c0.261,0.169,0.508,0.352,0.771,0.505c0.278,0.13,0.543,0.28,0.824,0.391
		c0.569,0.211,1.149,0.357,1.735,0.438c0.297,0.011,0.589,0.055,0.882,0.041c0.286-0.027,0.601-0.042,0.856-0.076
		c0.337-0.058,0.555-0.121,0.838-0.221c0.274-0.092,0.545-0.209,0.808-0.338c0.523-0.26,1.021-0.574,1.451-0.934
		c0.209-0.186,0.403-0.378,0.568-0.584c0.16-0.207,0.284-0.422,0.373-0.637c0.038-0.108,0.054-0.216,0.089-0.321l0.014-0.314
		c-0.027-0.104-0.03-0.207-0.052-0.312c-0.043-0.104-0.082-0.208-0.116-0.314L62.71,70.8c0.035,0.141,0.059,0.279,0.075,0.422
		c0.078,0.107,0.112,0.233,0.19,0.337c0.113,0.078,0.158,0.207,0.301,0.268c0.134,0.064,0.234,0.167,0.403,0.2
		c0.155,0.047,0.299,0.115,0.478,0.124c0.171,0.02,0.336,0.065,0.52,0.054c0.179-0.005,0.357,0.023,0.54-0.012
		c0.18-0.028,0.365-0.026,0.542-0.076c0.363-0.071,0.706-0.194,1.042-0.332l0.467-0.257l0.406-0.312l0.33-0.354l0.228-0.393
		c0.024-0.145,0.069-0.283,0.103-0.428c-0.012-0.152-0.017-0.303-0.014-0.458l1.309-0.169c0.015,0.195,0.038,0.383,0.087,0.555
		c0.054,0.168,0.128,0.318,0.224,0.453c0.194,0.265,0.508,0.465,0.898,0.584c0.788,0.232,1.747,0.17,2.663,0.01
		c0.92-0.184,1.843-0.461,2.718-0.854c0.436-0.2,0.86-0.428,1.253-0.703c0.389-0.276,0.778-0.58,1-1.024
		c-0.135,0.478-0.463,0.895-0.826,1.236c-0.366,0.345-0.771,0.646-1.192,0.919c-0.847,0.541-1.765,0.983-2.747,1.271
		c-0.979,0.282-2.026,0.483-3.154,0.245c-0.555-0.122-1.149-0.399-1.581-0.896c-0.214-0.247-0.368-0.535-0.477-0.829
		c-0.102-0.296-0.155-0.591-0.187-0.885l-0.002-0.026c-0.04-0.362,0.222-0.688,0.584-0.728c0.362-0.04,0.688,0.222,0.728,0.584v0
		c0.029,0.266,0.051,0.537,0.064,0.807c-0.032,0.27-0.095,0.542-0.155,0.812c-0.115,0.243-0.23,0.494-0.368,0.724
		c-0.164,0.201-0.325,0.415-0.506,0.598c-0.195,0.158-0.389,0.323-0.591,0.469L67.425,73.1c-0.441,0.195-0.893,0.36-1.361,0.459
		c-0.23,0.064-0.473,0.074-0.709,0.111c-0.236,0.043-0.483,0.021-0.726,0.027c-0.241,0.013-0.492-0.036-0.738-0.076
		c-0.246-0.024-0.495-0.122-0.742-0.208c-0.249-0.065-0.484-0.237-0.718-0.377c-0.24-0.13-0.423-0.389-0.623-0.59
		c-0.172-0.231-0.284-0.513-0.409-0.774c-0.055-0.273-0.1-0.552-0.136-0.828c-0.053-0.39,0.22-0.749,0.61-0.802
		c0.339-0.046,0.656,0.16,0.768,0.469l0.204,0.577c0.043,0.202,0.065,0.416,0.085,0.624c-0.008,0.209-0.031,0.422-0.06,0.628
		c-0.06,0.195-0.113,0.398-0.19,0.583c-0.33,0.736-0.857,1.271-1.406,1.703c-0.281,0.209-0.567,0.405-0.868,0.568
		c-0.302,0.161-0.607,0.311-0.923,0.435c-0.315,0.126-0.635,0.236-0.966,0.32c-0.318,0.09-0.72,0.161-1.008,0.185
		c-0.372,0.026-0.69-0.004-1.035-0.006c-0.337-0.021-0.669-0.103-1-0.152c-0.328-0.068-0.642-0.193-0.96-0.29
		c-0.31-0.121-0.6-0.291-0.895-0.434c-0.286-0.164-0.549-0.366-0.819-0.546c-0.256-0.203-0.49-0.434-0.731-0.646
		c-0.221-0.241-0.431-0.492-0.63-0.742L50.945,72.507z"/>
</g>
<g>
	<path d="M82.158,77.935c0.009-0.043-0.004-0.083,0.027-0.128c0.049-0.042,0.094,0.029,0.113,0.056
		c0.051,0.071,0.088,0.148,0.126,0.226l0.211,0.465c0.14,0.305,0.253,0.641,0.408,0.902c0.181,0.282,0.345,0.59,0.547,0.843
		c0.185,0.269,0.394,0.52,0.616,0.759c0.207,0.253,0.468,0.448,0.698,0.668c0.269,0.173,0.499,0.396,0.785,0.527
		c0.266,0.167,0.553,0.284,0.845,0.382c0.27,0.12,0.631,0.142,0.862,0.21l0.501,0.033l0.414-0.026
		c0.298-0.036,0.593-0.1,0.882-0.188c0.289-0.094,0.567-0.213,0.839-0.35c0.268-0.145,0.521-0.308,0.762-0.487
		c0.237-0.185,0.458-0.382,0.658-0.598c0.194-0.22,0.363-0.453,0.508-0.697c0.135-0.248,0.235-0.505,0.309-0.766l0.067-0.396
		l0.005-0.398c0.006-0.395,0.331-0.711,0.726-0.705c0.276,0.004,0.515,0.164,0.63,0.395l0.046,0.092
		c0.088,0.175,0.156,0.354,0.229,0.532l0.351,0.479l0.455,0.417l0.534,0.35l0.593,0.273l0.631,0.2
		c0.213,0.062,0.437,0.081,0.652,0.131c0.218,0.053,0.441,0.04,0.661,0.065c0.223,0.032,0.438-0.008,0.658-0.011
		c0.223,0.004,0.426-0.06,0.638-0.095c0.218-0.023,0.398-0.118,0.594-0.183c0.209-0.052,0.345-0.188,0.521-0.276
		c0.176-0.092,0.264-0.253,0.411-0.366c0.104-0.145,0.186-0.299,0.282-0.45c0.034-0.181,0.105-0.349,0.137-0.536
		c-0.003-0.199,0-0.397,0.008-0.6l0.004-0.101c0.016-0.372,0.329-0.662,0.701-0.646c0.258,0.011,0.477,0.165,0.581,0.383
		l0.361,0.753c0.127,0.244,0.278,0.464,0.415,0.699c0.151,0.22,0.325,0.411,0.481,0.625c0.189,0.171,0.369,0.358,0.573,0.515
		c0.226,0.125,0.418,0.305,0.669,0.396c0.249,0.093,0.476,0.233,0.749,0.286c0.27,0.06,0.521,0.165,0.806,0.197l0.834,0.134
		c0.584,0.062,1.136,0.08,1.718,0.062c0.573-0.011,1.148-0.062,1.711-0.173c0.562-0.112,1.113-0.289,1.614-0.567
		c0.248-0.143,0.482-0.307,0.702-0.498c0.212-0.197,0.393-0.427,0.548-0.683c-0.108,0.276-0.251,0.542-0.437,0.786
		c-0.189,0.237-0.41,0.452-0.657,0.635c-0.494,0.364-1.058,0.627-1.637,0.821c-0.58,0.194-1.179,0.326-1.783,0.415
		c-0.597,0.081-1.23,0.113-1.828,0.104c-0.316-0.011-0.618-0.041-0.929-0.062c-0.31-0.005-0.621-0.1-0.933-0.152
		c-0.313-0.042-0.617-0.187-0.927-0.285c-0.312-0.098-0.59-0.3-0.886-0.45c-0.277-0.183-0.53-0.406-0.787-0.619
		c-0.217-0.244-0.455-0.483-0.646-0.744c-0.175-0.268-0.367-0.531-0.524-0.805l-0.439-0.83l1.286-0.365l0.025,0.9
		c-0.03,0.304-0.124,0.616-0.197,0.922c-0.14,0.283-0.288,0.583-0.479,0.836c-0.225,0.217-0.429,0.486-0.69,0.642
		c-0.26,0.153-0.512,0.355-0.791,0.439c-0.275,0.102-0.55,0.229-0.831,0.271c-0.28,0.055-0.562,0.132-0.841,0.136
		c-0.28,0.012-0.563,0.057-0.84,0.026c-0.276-0.024-0.559-0.015-0.83-0.071c-0.273-0.053-0.549-0.093-0.816-0.171
		c-0.265-0.087-0.532-0.166-0.793-0.266l-0.764-0.364l-0.715-0.481c-0.22-0.194-0.431-0.402-0.642-0.606
		c-0.183-0.237-0.353-0.49-0.522-0.738c-0.124-0.279-0.241-0.566-0.346-0.853l1.401-0.219l-0.034,0.613l-0.127,0.598
		c-0.121,0.388-0.285,0.752-0.489,1.09c-0.211,0.331-0.452,0.634-0.718,0.909c-0.271,0.27-0.562,0.511-0.869,0.728
		c-0.314,0.207-0.642,0.387-0.98,0.541c-0.343,0.146-0.693,0.269-1.055,0.359c-0.363,0.086-0.734,0.141-1.11,0.16
		c-0.193,0.006-0.399-0.006-0.597-0.012c-0.178-0.018-0.337-0.051-0.506-0.075c-0.412-0.128-0.735-0.185-1.076-0.358
		c-0.338-0.149-0.66-0.319-0.952-0.539c-0.314-0.187-0.56-0.457-0.826-0.693c-0.228-0.273-0.48-0.525-0.669-0.822
		c-0.203-0.285-0.391-0.58-0.552-0.893c-0.182-0.303-0.298-0.613-0.444-0.921c-0.146-0.344-0.208-0.664-0.292-0.996l-0.128-0.488
		c-0.024-0.08-0.048-0.162-0.083-0.234c-0.015-0.035-0.042-0.08-0.062-0.062C82.174,77.845,82.172,77.897,82.158,77.935z"/>
</g>
<g>
	<path d="M130.082,62.391c0,0,0.828-0.117,2.277-0.322c0.725-0.09,1.604-0.199,2.613-0.325c0.505-0.059,1.042-0.122,1.608-0.188
		c0.565-0.064,1.16,0.001,1.781-0.027c1.247-0.01,2.575-0.048,4.021-0.04c1.447,0.036,3.039,0.108,4.674,0.766
		c0.205,0.065,0.403,0.19,0.603,0.308c0.193,0.131,0.409,0.207,0.581,0.393l0.533,0.51c0.196,0.25,0.25,0.351,0.383,0.534
		c0.486,0.773,0.833,1.631,1.051,2.45c0.453,1.672,0.603,3.384,0.633,5.081c0.018,1.698-0.085,3.386-0.323,5.044l-0.099,0.621
		l-0.026,0.155l-0.013,0.077l-0.007,0.039l-0.023,0.104l-0.081,0.293c-0.12,0.394-0.187,0.765-0.35,1.172
		c-0.201,0.42-0.398,0.848-0.623,1.244c-0.271,0.351-0.541,0.701-0.818,1.037c-1.23,1.275-2.822,1.905-4.268,2.26
		c-1.463,0.345-2.861,0.489-4.131,0.507c-0.639,0.011-1.243,0.061-1.82-0.007c-0.57-0.083-1.11-0.162-1.618-0.237
		c-1.003-0.173-1.878-0.324-2.598-0.449c-1.434-0.264-2.253-0.414-2.253-0.414s0.208-0.016,0.598-0.045
		c0.392-0.029,0.965-0.076,1.694-0.1c0.726-0.032,1.606-0.071,2.617-0.115c0.5-0.035,1.032-0.072,1.593-0.111
		c0.555-0.076,1.142,0.035,1.743-0.021c1.212-0.015,2.508-0.156,3.811-0.462c1.293-0.314,2.609-0.86,3.554-1.849
		c0.21-0.266,0.422-0.534,0.635-0.805c0.15-0.291,0.301-0.583,0.453-0.878c0.139-0.328,0.223-0.756,0.338-1.133l0.081-0.292
		c-0.006,0.023,0.019-0.079-0.011,0.048l0.003-0.018l0.006-0.036l0.012-0.072l0.024-0.146l0.093-0.583
		c0.226-1.568,0.325-3.195,0.308-4.808c-0.027-1.608-0.176-3.223-0.578-4.7c-0.423-1.474-1.043-2.768-2.298-3.217
		c-1.258-0.513-2.729-0.62-4.109-0.645c-1.4-0.007-2.762,0.03-3.998,0.041c-0.621-0.011-1.216,0.07-1.782,0.021
		c-0.565-0.051-1.102-0.099-1.605-0.145c-1.009-0.098-1.888-0.184-2.611-0.254C130.909,62.485,130.082,62.391,130.082,62.391z"/>
</g>
<g>
	<path d="M133.197,65.642c0.701-0.198,1.404-0.386,2.108-0.558c0.698-0.19,1.416-0.31,2.149-0.436
		c0.365-0.077,0.738-0.017,1.106-0.038l1.107-0.024c0.709,0.003,1.422-0.017,2.178,0.013c0.752,0.036,1.521,0.083,2.342,0.347
		l0.312,0.133l0.155,0.069l0.077,0.035l0.039,0.018l0.019,0.009l0.078,0.048c0.16,0.124,0.268,0.159,0.471,0.354
		c0.413,0.377,0.637,0.731,0.829,1.123c0.378,0.774,0.529,1.562,0.616,2.327c0.083,0.767,0.089,1.521,0.061,2.266
		c-0.033,0.756-0.088,1.454-0.187,2.229c-0.089,0.681-0.218,1.481-0.494,2.243l-0.214,0.564c-0.083,0.186-0.197,0.363-0.298,0.545
		c-0.18,0.374-0.482,0.684-0.76,1.004c-0.294,0.302-0.655,0.543-0.998,0.779c-0.373,0.168-0.741,0.394-1.127,0.498
		c-0.393,0.099-0.754,0.234-1.175,0.294l-1.067,0.157l-2.135,0.315c-0.697,0.18-1.477,0.048-2.212-0.018
		c-0.742-0.066-1.478-0.155-2.202-0.239l0.029-0.429l0.238,0.057c0.084,0.008,0.173,0.003,0.265,0.005
		c0.186-0.021,0.384-0.036,0.575-0.042c-0.178,0.076-0.344,0.157-0.519,0.25c-0.184,0.089-0.39,0.14-0.62,0.156l0.029-0.429
		l2.108-0.467l1.034-0.22c0.34-0.085,0.699-0.021,1.055-0.108l2.135-0.315l1.067-0.158c0.291-0.039,0.609-0.16,0.915-0.231
		c0.311-0.08,0.558-0.254,0.845-0.368c0.237-0.176,0.491-0.334,0.694-0.545c0.186-0.229,0.406-0.427,0.534-0.711
		c0.071-0.135,0.158-0.258,0.222-0.399l0.166-0.445c0.216-0.59,0.326-1.219,0.425-1.961c0.082-0.652,0.144-1.389,0.171-2.07
		c0.047-1.365-0.011-2.803-0.522-3.87c-0.112-0.258-0.312-0.503-0.423-0.617c-0.039-0.072-0.266-0.197-0.389-0.293l-0.007-0.005
		c0.121,0.076,0.03,0.02,0.056,0.036l-0.012-0.005l-0.023-0.009l-0.046-0.019l-0.092-0.039l-0.182-0.083
		c-0.554-0.181-1.235-0.241-1.916-0.269c-0.683-0.027-1.408-0.009-2.138-0.012l-1.05,0.024c-0.351-0.005-0.697,0.072-1.051,0.011
		c-0.705-0.104-1.425-0.188-2.16-0.243C134.662,65.813,133.931,65.733,133.197,65.642z"/>
</g>
<g>
	<path d="M35.094,63.391c0,0-0.787,0.095-2.163,0.262c-0.688,0.071-1.524,0.157-2.482,0.256c-0.479,0.046-0.989,0.095-1.527,0.146
		c-0.538,0.049-1.104-0.032-1.693-0.02c-1.18-0.016-2.459-0.033-3.812-0.051c-1.343,0.001-2.71,0.059-4.017,0.408
		c-0.629,0.188-1.256,0.439-1.648,0.854l-0.159,0.146l-0.041,0.036l-0.01,0.009c-0.01,0.011,0.053-0.071,0.021-0.029l-0.021,0.029
		l-0.082,0.117c-0.105,0.155-0.227,0.317-0.319,0.468c-0.137,0.283-0.293,0.546-0.416,0.896c-0.528,1.319-0.733,2.85-0.842,4.363
		c-0.101,1.523-0.048,3.069,0.083,4.576c0.138,1.495,0.354,3.016,0.885,4.223c0.496,1.193,1.375,2.166,2.434,2.707
		c1.061,0.561,2.255,0.779,3.369,0.883c0.562,0.062,1.105,0.01,1.628,0.072c0.52,0.074,1.028,0.094,1.501,0.14
		c0.959,0.048,1.796,0.091,2.485,0.125c0.693,0.025,1.239,0.074,1.611,0.104c0.371,0.03,0.569,0.047,0.569,0.047
		s-0.778,0.148-2.141,0.407c-0.685,0.122-1.518,0.27-2.472,0.439c-0.486,0.064-0.997,0.161-1.554,0.21
		c-0.553,0.08-1.14-0.029-1.755-0.051c-1.226-0.115-2.605-0.349-3.946-1.052c-1.349-0.693-2.498-1.944-3.125-3.479
		c-0.638-1.511-0.832-3.062-0.985-4.639c-0.137-1.579-0.192-3.189-0.085-4.808c0.119-1.615,0.323-3.251,0.943-4.82
		c0.134-0.384,0.355-0.795,0.574-1.193c0.109-0.176,0.219-0.32,0.328-0.48l0.082-0.117l0.021-0.029
		c-0.025,0.032,0.044-0.061,0.043-0.057l0.016-0.016l0.063-0.062l0.255-0.247c0.68-0.677,1.51-0.982,2.279-1.216
		c1.55-0.417,3.066-0.459,4.42-0.464c1.352,0.018,2.631,0.035,3.811,0.051c0.59,0.028,1.156-0.038,1.694,0.026
		c0.538,0.065,1.048,0.128,1.528,0.187c0.959,0.125,1.796,0.233,2.485,0.323C34.307,63.274,35.094,63.391,35.094,63.391z"/>
</g>
<g>
	<path d="M30.867,66.334c0,0-0.128,0.018-0.369,0.051c-0.238,0.042-0.602,0.063-1.037,0.16c-0.431,0.085-0.956,0.188-1.557,0.307
		c-0.304,0.061-0.628,0.125-0.97,0.193c-0.344,0.064-0.715,0-1.096,0.031c-0.772,0.023-1.601-0.01-2.429,0.021
		c-0.414,0.015-0.836,0.038-1.233,0.109c-0.208,0.023-0.391,0.078-0.578,0.127c-0.1,0.019-0.183,0.053-0.258,0.091l-0.12,0.052
		l-0.06,0.025l-0.031,0.012l-0.015,0.006c0.025-0.016-0.066,0.04,0.053-0.035l-0.009,0.006l-0.292,0.204
		c-0.106,0.071-0.096,0.11-0.156,0.16c-0.086,0.083-0.211,0.263-0.297,0.421c-0.194,0.328-0.313,0.749-0.411,1.178
		c-0.184,0.874-0.21,1.843-0.174,2.812c0.021,0.486,0.054,0.975,0.103,1.464l0.037,0.368l0.019,0.156l0.027,0.186l0.106,0.74
		c0.174,0.867,0.463,1.711,0.93,2.336c0.442,0.653,1.151,0.995,1.851,1.258c0.186,0.051,0.369,0.101,0.549,0.15l0.135,0.038
		c0.002,0.002,0.088,0.021,0.023,0.01l0.077,0.01l0.306,0.039c0.405,0.052,0.795,0.102,1.171,0.149
		c0.372,0.071,0.742,0.038,1.075,0.149c0.334,0.102,0.652,0.198,0.95,0.289c0.593,0.133,1.111,0.25,1.537,0.346
		c0.869,0.214,1.366,0.337,1.366,0.337s-0.503,0.094-1.407,0.229c-0.452,0.065-1.005,0.148-1.645,0.22
		c-0.312,0.014-0.644,0.027-0.993,0.042c-0.351,0.024-0.7-0.101-1.079-0.125c-0.375-0.047-0.766-0.097-1.171-0.148L23.49,80.47
		l-0.077-0.01c-0.117-0.019-0.081-0.019-0.128-0.028l-0.169-0.045c-0.226-0.062-0.455-0.125-0.688-0.189
		c-0.9-0.322-1.921-0.84-2.571-1.773c-0.666-0.898-1.01-1.949-1.22-3.025l-0.106-0.74l-0.053-0.402l-0.039-0.381
		c-0.05-0.51-0.086-1.029-0.109-1.55c-0.037-1.044-0.017-2.108,0.206-3.182c0.121-0.535,0.27-1.076,0.566-1.594
		c0.151-0.263,0.295-0.495,0.545-0.752c0.116-0.113,0.27-0.273,0.364-0.333l0.292-0.204l0.009-0.006
		c0.125-0.079,0.042-0.025,0.073-0.044l0.025-0.012l0.051-0.023l0.102-0.046l0.203-0.089c0.137-0.063,0.271-0.114,0.4-0.142
		c0.261-0.073,0.522-0.143,0.767-0.171c0.5-0.088,0.971-0.112,1.422-0.128c0.905-0.032,1.717,0.002,2.458-0.021
		c0.375,0.012,0.729-0.07,1.075-0.024c0.348,0.048,0.678,0.095,0.988,0.138c0.61,0.076,1.19,0.193,1.627,0.273
		c0.449,0.065,0.774,0.208,1.009,0.265C30.744,66.297,30.867,66.334,30.867,66.334z"/>
</g>
<g>
	<path d="M64.5,12.375c0,0-0.171,0.006-0.492,0.018c-0.323,0-0.792,0.054-1.342,0.19c-0.56,0.118-1.188,0.459-1.599,1.042
		c-0.397,0.604-0.507,1.47-0.438,2.417c0.169,1.913,0.98,4.133,1.971,6.433c0.492,1.156,1.074,2.324,1.646,3.524
		c0.595,1.206,1.2,2.431,1.805,3.656l0.22,0.504l0.114,0.299l0.08,0.243l0.317,0.97c0.189,0.669,0.42,1.349,0.542,2.056
		c0.318,1.381,0.343,2.913-0.016,4.265c-0.057,0.349-0.175,0.669-0.291,0.986c-0.118,0.314-0.211,0.641-0.36,0.929
		c-0.146,0.288-0.292,0.573-0.435,0.854L65.996,41.2l-0.234,0.375c-0.696,1.069-1.406,1.871-2.009,2.688
		c-0.596,0.805-1.104,1.558-1.412,2.276c-0.309,0.717-0.398,1.391-0.281,1.936c0.079,0.264,0.148,0.51,0.28,0.693
		c0.104,0.2,0.211,0.362,0.329,0.469C62.885,49.874,63,50,63,50s-0.14-0.101-0.401-0.289c-0.143-0.086-0.286-0.225-0.44-0.413
		c-0.184-0.167-0.312-0.417-0.452-0.708c-0.246-0.594-0.287-1.428-0.043-2.279c0.228-0.856,0.661-1.743,1.194-2.64
		c0.515-0.896,1.169-1.846,1.688-2.782l0.203-0.393l0.151-0.374c0.109-0.264,0.219-0.532,0.331-0.802s0.166-0.552,0.26-0.828
		c0.088-0.277,0.178-0.557,0.206-0.844c0.255-1.14,0.139-2.319-0.139-3.545c-0.114-0.615-0.332-1.219-0.521-1.852l-0.333-0.965
		l-0.083-0.241l-0.073-0.176l-0.194-0.43c-0.583-1.229-1.166-2.459-1.739-3.669c-0.576-1.226-1.076-2.469-1.539-3.684
		c-0.465-1.214-0.835-2.426-1.112-3.603c-0.28-1.175-0.44-2.33-0.404-3.424c0.028-1.083,0.305-2.158,0.948-2.877
		c0.656-0.707,1.484-0.937,2.093-0.965c0.624-0.053,1.103,0.014,1.414,0.073C64.331,12.346,64.5,12.375,64.5,12.375z"/>
</g>
<g>
	<path d="M83.5,11.5c0,0-0.107,0.058-0.31,0.167c-0.207,0.099-0.497,0.278-0.843,0.498c-0.674,0.444-1.668,1.232-1.935,2.453
		c-0.282,1.211,0.25,2.731,1.079,4.235c0.839,1.517,1.941,3.054,3.038,4.69c0.267,0.419,0.529,0.844,0.777,1.314
		c0.212,0.45,0.422,0.899,0.63,1.344c0.223,0.396,0.349,0.964,0.503,1.439c0.071,0.248,0.153,0.491,0.21,0.737
		c0.031,0.25,0.062,0.498,0.091,0.745c0.195,0.983,0.04,1.928-0.038,2.81l-0.016,0.165l-0.004,0.041l-0.013,0.072l-0.018,0.075
		l-0.07,0.298c-0.064,0.214-0.133,0.463-0.217,0.653c-0.161,0.393-0.337,0.751-0.517,1.08c-0.72,1.311-1.403,2.275-1.69,3.046
		c-0.152,0.381-0.191,0.697-0.2,0.922C83.985,38.506,84,38.625,84,38.625s-0.054-0.106-0.142-0.327
		c-0.055-0.223-0.133-0.584-0.062-1.026c0.099-0.891,0.586-2.067,1.069-3.395c0.12-0.333,0.225-0.678,0.308-1.029
		c0.043-0.18,0.065-0.319,0.102-0.497l0.036-0.304l0.009-0.077l-0.157-0.019C85.161,31.964,85,31.913,85,31.977v-0.009v-0.037
		l0.154-0.146c-0.025-0.78,0.095-1.595-0.119-2.4l-0.072-0.612c-0.062-0.198-0.126-0.391-0.196-0.587l-0.21-0.59
		c-0.054-0.196-0.141-0.405-0.257-0.621c-0.205-0.414-0.409-0.831-0.616-1.25c-0.21-0.379-0.465-0.771-0.724-1.166
		c-0.525-0.815-1.049-1.631-1.565-2.434c-0.521-0.819-0.973-1.681-1.375-2.542c-0.407-0.86-0.7-1.764-0.847-2.67
		c-0.162-0.9-0.095-1.84,0.222-2.622c0.302-0.792,0.847-1.361,1.363-1.726c0.514-0.381,1.017-0.584,1.429-0.733
		c0.417-0.15,0.744-0.218,0.97-0.259C83.38,11.525,83.5,11.5,83.5,11.5z"/>
</g>
<g>
	<path d="M103.55,18.552c0,0-0.125,0.058-0.358,0.167c-0.117,0.055-0.262,0.122-0.432,0.201c-0.172,0.078-0.315,0.232-0.5,0.357
		c-0.191,0.114-0.353,0.305-0.513,0.521c-0.188,0.189-0.307,0.455-0.436,0.727c-0.156,0.254-0.175,0.608-0.278,0.921
		c-0.025,0.35-0.1,0.701-0.088,1.089c-0.001,0.77,0.091,1.612,0.255,2.506c0.151,0.893,0.406,1.83,0.646,2.803
		c0.26,0.974,0.573,1.971,0.869,2.998c0.309,1.028,0.622,2.073,0.936,3.118c0.59,2.109,1.188,4.245,1.457,6.355
		c0.158,1.046,0.198,2.1,0.092,3.117c-0.071,1.003-0.424,2.041-1.088,2.76c-0.293,0.392-0.734,0.604-1.098,0.814
		c-0.408,0.109-0.779,0.289-1.141,0.28c-0.719,0.103-1.314-0.016-1.801-0.069c-0.482-0.082-0.846-0.215-1.097-0.274
		c-0.248-0.068-0.381-0.105-0.381-0.105s0.561,0.015,1.501,0.007c0.469-0.048,1.04-0.071,1.632-0.261
		c0.314-0.042,0.568-0.254,0.865-0.379c0.234-0.216,0.529-0.375,0.682-0.688c0.371-0.55,0.545-1.311,0.531-2.176
		c0.003-0.857-0.132-1.791-0.324-2.761c-0.174-0.97-0.477-1.968-0.729-2.994c-0.28-1.024-0.584-2.062-0.897-3.107
		c-0.294-1.055-0.588-2.11-0.876-3.149c-0.293-1.042-0.513-2.095-0.733-3.113c-0.206-1.025-0.356-2.03-0.427-3.003
		c-0.093-0.967-0.065-1.909,0.061-2.772c0.053-0.43,0.181-0.847,0.285-1.229c0.188-0.371,0.282-0.745,0.523-1.034
		c0.215-0.3,0.403-0.58,0.673-0.758c0.236-0.206,0.462-0.375,0.712-0.465c0.46-0.253,0.829-0.289,1.087-0.333
		C103.414,18.576,103.55,18.552,103.55,18.552z"/>
</g>
<g>
</g>
<g>
</g>
<g>
</g>
<g>
</g>
<g>
</g>
<g>
</g>
<g>
</g>
<g>
</g>
<g>
</g>
<g>
</g>
<g>
</g>
<g>
</g>
<g>
</g>
<g>
</g>
<g>
</g>
</svg>
