<?xml version="1.0" encoding="utf-8"?>
<!-- Generator: Adobe Illustrator 16.0.0, SVG Export Plug-In . SVG Version: 6.00 Build 0)  -->
<!DOCTYPE svg PUBLIC "-//W3C//DTD SVG 1.1//EN" "http://www.w3.org/Graphics/SVG/1.1/DTD/svg11.dtd">
<svg version="1.1" id="Capa_1" xmlns="http://www.w3.org/2000/svg" xmlns:xlink="http://www.w3.org/1999/xlink" x="0px" y="0px"
	 width="1275px" height="194px" viewBox="0 0 1275 194" enable-background="new 0 0 1275 194" xml:space="preserve">
<g>
	<path fill-rule="evenodd" clip-rule="evenodd" fill="#FFFFFF" d="M460.805,135.25c-1.5-4.37-3.573-8.535-4.594-13.004
		c-0.638-2.795-1.041-5.794-1.934-8.496c-0.38-1.152-1.129-2.086-1.506-3.25c-0.407-1.256-0.524-2.619-0.842-3.906
		c-0.65-2.631-1.223-5.061-1.5-7.719c-0.216-2.08-1.382-4.397,1.25-5.406c1.795-0.688,4.232,0.224,6,0.538
		c4.732,0.841,8.615,4.528,11.25,8.371c1.833,2.671,4.011,5.491,5.372,8.466c0.896,1.959,0.234,2.39-0.494,4.291
		c-0.993,2.594-1.7,5.251-2.006,8.021c-0.287,2.592-0.099,5.17-0.716,7.741c-0.271,1.132-0.746,3.47-1.552,4.321
		c-1.042,1.1-2.694,0.055-4,0.272c-2.324,0.388-3.99,1.579-6.48,1.036c-0.389-0.084-0.748-0.139-1.123-0.277"/>
	<path fill-rule="evenodd" clip-rule="evenodd" fill="#FFFFFF" d="M306.623,133.997c-0.872-2.377-1.781-5.989-0.559-8.425
		c0.706-1.407,1.944-2.348,2.995-3.451c0.945-0.992,1.994-1.99,3.181-2.668c2.73-1.559,6.145-2.168,9.245-2.165
		c2.998,0.003,5.257,1.627,6.975,4.054c1.1,1.553,1.594,3.697,1.481,5.584c-2.082,0.441-4.125,0.854-6.128,1.799
		c-1.908,0.902-3.448,2.921-5.75,2.24c-0.852-0.252-1.345-0.407-2.196-0.06c-1.25,0.51-2.45,0.936-3.737,1.38
		c-1.054,0.363-1.537,0.744-2.383,1.264c-0.574,0.354-1.334-0.036-2.019-0.036c-0.286,0-0.728,0-0.728,0"/>
	<path fill-rule="evenodd" clip-rule="evenodd" fill="#FFFFFF" d="M0.516,163.286l20.469-2.014l19.306-9.302l43.319-7.985
		l40.66,12.674l44.613,1.484l34.542-3.836l38.84,5.448l81.333-2.243h58.333l35-18.422l14.667-1.213l20.54-2.819l25.46,1.578
		l71.333,14.015l15.333,0.675l12.998,2.979c0,0,9.177-4.638,18.423-6.14c9.246-1.501,47.557-4.174,53.734-3.837
		s35.512,1.004,35.512,1.004l46.666-16.666l43.334-5.333l13.43,8.715l16.889-2.304l17.015-1.078l16,4.667l10,3.333l10.72,2.29
		L879.596,132l29.334-4l28,0.667L972.263,132l40-1.333L1052.93,136l57.333,14l20.462,9.684l74.204,4.316l32.497-1.246l7.676,2.426
		l17.812-2.18l14.086-0.223v30.735H0.783L0.516,163.286z"/>
	<path fill-rule="evenodd" clip-rule="evenodd" fill="#FFFFFF" d="M615.851,110.065c-14.041,2.453-32.636-7.492-35.489-18.927
		c-4.228-16.947,9.621-29.462,19.716-31.546c12.172-2.513,28.528,2.509,34.7,10.252C646.416,84.447,633.09,105.778,615.851,110.065z
		 M604.81,70.635c7.833-1.552,20.105,3.747,21.293,11.041c2.036,12.502-11.261,19.139-19.715,20.504
		c13.403,0.497,23.408-10.372,21.292-21.292c-1.371-7.082-14.749-13.678-22.081-12.619c-9.695,1.398-14.124,12.162-13.408,23.659
		c2.727,3.829,8.694,11.998,14.196,7.887C588.268,99.822,591.563,73.259,604.81,70.635z M614.274,79.31
		c-7.423-4.537-14.876,1.037-12.619,11.041c1.242,0.411,4.224,3.036,5.521,0.788c-1.18-0.923-3.226-0.979-3.943-2.364
		c-1.151-20.456,21.896-1.566,4.732,3.153C616.155,93.989,615.862,84.534,614.274,79.31z"/>
	<path fill-rule="evenodd" clip-rule="evenodd" fill="#FFFFFF" d="M901.202,73.708c-6.396,0.51-11.319-0.451-15.353-2.303
		c-4.916-19.396,7.492-38.866,10.746-52.199c1.982-8.122,1.598-18.621,9.979-17.656c7.223,0.832,6.949,7.52,6.142,15.353
		C911.008,33.463,907.785,59.849,901.202,73.708z"/>
	<path fill-rule="evenodd" clip-rule="evenodd" fill="#FFFFFF" d="M884.314,70.638c-3.202,0.131-3.787-2.354-6.909-2.303
		c-2.351-11.016-0.769-27.577-3.07-40.685c-0.71-4.039-2.745-6.83-2.304-10.747c1.532-13.558,27.135-16.575,22.262,4.605
		C891.359,34.262,879.877,50.201,884.314,70.638z"/>
	<path fill-rule="evenodd" clip-rule="evenodd" fill="#FFFFFF" d="M933.442,19.974c1.477,9.409-3.923,11.941-4.605,19.191
		c-4.402,4.16-9.819,7.281-13.05,13.05c-3.905,6.974-3.719,17.066-10.747,21.494c-3.391-4.604,2.753-11.688,4.606-20.726
		C913.298,35.168,911.92,4.428,933.442,19.974z"/>
	<path fill-rule="evenodd" clip-rule="evenodd" fill="#FFFFFF" d="M875.87,68.334c-4.147-3.136-3.405-8.071-5.374-12.282
		c-4.836-10.348-14.685-20.914-14.584-37.614C880.399,11.318,871.842,49.937,875.87,68.334z"/>
	<path fill-rule="evenodd" clip-rule="evenodd" fill="#FFFFFF" d="M271.742,81.384c-3.326,0-6.652,0-9.979,0
		c1.241-12.942,2.95-26.213-0.768-36.846c-2.492-7.129-9.426-10.173-9.979-16.888c5.326-2.798,8.328,2.767,14.585,1.535
		c3.12-1.23,0.555-8.145,4.605-8.444c12.136,2.707,16.814,13.171,16.12,25.332C285.572,59.317,272.317,69.424,271.742,81.384z"/>
	<path fill-rule="evenodd" clip-rule="evenodd" fill="#FFFFFF" d="M320.104,26.882c-2.442,16.181-11.272,28.306-21.494,36.846
		c-7.771,6.494-16.831,12.069-25.332,17.656c5.276-17.708,17.639-29.035,14.585-52.967c5.892-7.49,12.417,2.078,17.656,2.303
		C311.491,30.978,312.906,25.075,320.104,26.882z"/>
	<path fill-rule="evenodd" clip-rule="evenodd" fill="#FFFFFF" d="M232.593,33.023c-7.716,17.495,12.37,25.599,9.212,46.058
		c7.345-18.347-21.253-35.405-3.838-49.896c3.997,2.145,6.211,6.071,13.817,4.606c10.562,8.451,11.069,30.417,8.444,47.593
		c-11.893-1.157-24.348-1.751-37.614-1.535c-2.532-18.974-15.449-31.616-14.585-51.432
		C217.811,28.359,223.745,32.148,232.593,33.023z"/>
	<path fill-rule="evenodd" clip-rule="evenodd" fill="#FFFFFF" d="M871.264,70.638c-6.631-5.546-8.339-12.826-15.352-18.423
		c-6.58-5.251-21.488-4.853-20.727-17.656c7.146-5.142,16.979-1.197,21.494,3.071C864.662,45.176,872.049,61.318,871.264,70.638z"/>
	<path fill-rule="evenodd" clip-rule="evenodd" fill="#FFFFFF" d="M909.646,74.476c2.15-15.671,15.77-36.151,29.938-39.917
		c12.904-3.43,14.356,7.258,7.676,14.585c-6.822,7.483-19.973,12.315-29.17,19.191C915.131,70.547,913.693,74.257,909.646,74.476z"
		/>
	<path fill-rule="evenodd" clip-rule="evenodd" fill="#FFFFFF" d="M192.676,37.629c5.979-0.176,10.172,3.179,14.585,2.303
		c4.328,13.84,10.791,25.544,14.585,39.917c-6.935,0.959-15.737-2.62-19.958-6.909C204.581,55.406,194.473,50.674,192.676,37.629z"
		/>
	<path fill-rule="evenodd" clip-rule="evenodd" fill="#FFFFFF" d="M330.85,40.7c0.224,6.363,2.258,13.194,1.536,17.656
		c-2.525,15.588-33.067,14.417-42.22,24.564c-3.602-0.236-5.354-2.322-9.211-2.303c-0.917-2.943,4.556-6.395,8.444-9.211
		c3.518-2.549,8.297-4.806,12.282-8.444C310.987,54.464,316.32,37.341,330.85,40.7z"/>
	<path fill-rule="evenodd" clip-rule="evenodd" fill="#FFFFFF" d="M869.729,72.94c-4.182,2.013-2.989-2.358-6.908-5.374
		c-7.602-5.849-21.515-2.834-20.727-15.353C855.547,46.175,863.532,64.185,869.729,72.94z"/>
	<path fill-rule="evenodd" clip-rule="evenodd" fill="#FFFFFF" d="M914.252,77.546c-1.602-6.148,6.27-9.604,10.746-12.282
		c4.9-2.932,10.623-6.683,16.121-7.676C945.404,74.444,922.729,70.902,914.252,77.546z"/>
	<path fill-rule="evenodd" clip-rule="evenodd" fill="#FFFFFF" d="M767.634,69.102c2.712,1.383,2.52,5.669,5.373,6.909
		c4.624,0.358,4.58-7.232,9.212-6.909c7.17,0.5,3.511,10.471,2.303,16.888c-1.396,7.414-1.479,15.131-3.07,19.959
		c-1.944,5.895-6.954,10.928-9.979,15.352c-3.646,5.334-4.959,14.434-11.515,13.051c3.154-20.863,3.643-41.583-0.768-61.411
		C761.077,70.734,762.863,68.426,767.634,69.102z"/>
	<path fill-rule="evenodd" clip-rule="evenodd" fill="#FFFFFF" d="M1031.699,76.011c3.166-4.145,10.102-10.966,14.586-3.07
		c-4.41,19.829-3.922,40.548-0.768,61.411c-6.527,0.484-9.016-8.225-12.283-13.051c-8.358-12.344-14.184-30.13-13.816-50.663
		C1025.371,65.817,1027.65,74.23,1031.699,76.011z"/>
	<path fill-rule="evenodd" clip-rule="evenodd" fill="#FFFFFF" d="M911.949,76.011c0.016,4.367-1.998,6.703-4.606,8.444
		c-10.049-3.764-28.228-2.278-36.079,0c-3.582-5.891-0.798-13.415,3.071-14.585c5.366-1.624,10.599,4.357,18.423,5.374
		C900.906,76.302,907.005,73.356,911.949,76.011z"/>
	<path fill-rule="evenodd" clip-rule="evenodd" fill="#FFFFFF" d="M703.92,76.778c4.58,0.741,2.976-4.701,6.908-4.605
		c-13.537,22.521,6.043,43.267,1.536,72.925c-7.192,2.345-16.029,5.597-24.564,2.303c16.167-13.67-10.213-58.314,3.838-72.157
		C694.781,72.146,702.022,70.209,703.92,76.778z"/>
	<path fill-rule="evenodd" clip-rule="evenodd" fill="#FFFFFF" d="M1093.11,145.865c-4.659-30.012,15.084-50.988,1.535-73.692
		c3.727-0.144,2.415,4.75,6.142,4.605c2.86-0.465,2.121-4.531,5.373-4.605c22.521,3.989,6.993,34.64,6.141,50.663
		c-0.592,11.15,2.669,21.996,4.605,31.474C1109.554,150.916,1102.172,147.551,1093.11,145.865z"/>
	<path fill-rule="evenodd" clip-rule="evenodd" fill="#FFFFFF" d="M750.746,76.011c5.564,2.96,8.905,14.676,9.979,21.493
		c1.851,11.752-2.071,25.604-3.07,36.848c-8.438,0.773-14.988,3.436-23.029,4.605c-5.223-12.55,1.16-24.43,2.303-36.079
		c0.851-8.665-4.815-16.066-1.535-23.796c3.763-2.005,5.675,1.82,9.212,2.303C748.43,81.372,746.675,75.778,750.746,76.011z"/>
	<path fill-rule="evenodd" clip-rule="evenodd" fill="#FFFFFF" d="M1060.102,81.384c4.308,0.093,5.874-4.488,9.979-2.303
		c3.287,7.538-2.163,14.521-1.535,23.029c0.884,11.963,7.587,24.476,2.303,37.614c-7.546-1.922-15.045-3.891-23.028-5.373
		c-3.925-19.837-5.825-45.498,6.141-58.341C1058.469,75.341,1057.287,80.362,1060.102,81.384z"/>
	<path fill-rule="evenodd" clip-rule="evenodd" fill="#FFFFFF" d="M286.327,83.687c1.777,1.707-0.26,2.994,0,5.374
		c-6.484,1.649-10.928,5.285-16.888,6.141c-18.704,2.689-33.459-9.468-49.896-10.746c-0.216-1.24,0.725-1.322,0.768-2.303
		C241.581,80.608,267.156,82.794,286.327,83.687z"/>
	<path fill-rule="evenodd" clip-rule="evenodd" fill="#FFFFFF" d="M118.983,85.99c-6.41,12.781-12.882,25.5-19.191,38.381
		c-3.083-0.754-6.736-0.939-10.747-0.768c0.911-13.161,0.551-27.594,2.303-39.917C101.117,82.878,110.59,83.562,118.983,85.99z"/>
	<path fill-rule="evenodd" clip-rule="evenodd" fill="#FFFFFF" d="M89.046,83.687c0.741,11.493-1.26,26.885-1.535,39.917
		c-3.78,0.57-5.77,2.932-9.212,3.839C76.722,114.22,78.536,99.5,75.996,85.99C80.4,85.277,85.253,85.012,89.046,83.687z"/>
	<path fill-rule="evenodd" clip-rule="evenodd" fill="#FFFFFF" d="M902.737,85.223c-4.897,14.55-13.428,25.466-13.817,44.522
		c-6.266,3.458-16.264,3.183-23.797,5.374c3.652-16.562,9.27-31.16,10.747-49.896C882.681,82.991,895.945,82.871,902.737,85.223z"/>
	<path fill-rule="evenodd" clip-rule="evenodd" fill="#FFFFFF" d="M509.709,147.4c-5.478-9.256,7.55-15.91,9.211-25.332
		c2.239-12.699-3.984-26.25,2.303-33.008c4.193-4.507,26.203-7.523,27.635,2.303c0.979,6.722-7.904,8.078-11.515,11.514
		C525.682,113.977,525.948,141.303,509.709,147.4z"/>
	<path fill-rule="evenodd" clip-rule="evenodd" fill="#FFFFFF" d="M733.09,140.492c-6.681,0.996-11.967,3.385-19.19,3.838
		c3.681-16.559-4.903-36.289-6.909-56.037c2.594-6.673,9.221-0.739,15.354-3.07c4.67,4.188,11.523,5.527,13.049,11.514
		C738.268,108.02,725.37,126.491,733.09,140.492z"/>
	<path fill-rule="evenodd" clip-rule="evenodd" fill="#FFFFFF" d="M802.945,85.99c0.602,3.161-1.179,3.939-0.768,6.909
		c2.916,2.671,6.519-2.447,9.211,0c0.77,19.21-16.845,26.642-26.1,38.381c-6.258,0.396-11.951,1.354-17.655,2.304
		c1.673-7.725,8.042-13.984,13.05-23.797C785.911,99.544,789.257,81.135,802.945,85.99z"/>
	<path fill-rule="evenodd" clip-rule="evenodd" fill="#FFFFFF" d="M1037.841,133.584c-6.011-0.643-11.719-1.588-17.655-2.304
		c-9.256-11.739-26.869-19.171-26.1-38.381c2.709-2.149,4.785,1.465,8.443,0.768c2.016-2.241-0.682-4.423,0-7.676
		c0.622-0.146,0.766-0.77,1.535-0.768c12.168-2.472,15.629,14.575,20.727,24.564
		C1029.727,119.458,1036.153,125.859,1037.841,133.584z"/>
	<path fill-rule="evenodd" clip-rule="evenodd" fill="#FFFFFF" d="M1096.181,85.223c6.042,11.223-2.937,23.064-4.605,35.311
		c-1.255,9.203-0.334,17.018,0,24.564c-6.485-1.447-13.199-2.666-19.19-4.605c7.418-13.994-4.662-31.461-2.304-42.988
		C1072.229,87.009,1085.15,84.683,1096.181,85.223z"/>
	<path fill-rule="evenodd" clip-rule="evenodd" fill="#FFFFFF" d="M327.78,107.484c-8.144-24.104,34.18-29.923,37.614-9.98
		C352.031,91.971,334.41,98.952,327.78,107.484z"/>
	<path fill-rule="evenodd" clip-rule="evenodd" fill="#FFFFFF" d="M674.75,85.223c14.416,10.305,22.145,42.912,11.515,62.178
		c-3.573-0.521-6.433-1.756-9.979-2.303c0.176-18.243-14.049-32.365-12.282-52.199C669.204,91.959,671.731,88.345,674.75,85.223z"/>
	<path fill-rule="evenodd" clip-rule="evenodd" fill="#FFFFFF" d="M1129.957,85.223c4.268,2.128,5.713,7.081,11.514,7.676
		c1.734,24.516-19.024,40.213-10.746,66.785c-3.809-1.566-7.418-3.33-11.515-4.606
		C1110.478,131.661,1113.935,98.517,1129.957,85.223z"/>
	<path fill-rule="evenodd" clip-rule="evenodd" fill="#FFFFFF" d="M286.327,91.364c2.13,3.508-0.943,7.5-2.303,9.979
		c-8.1-2.149-17.852,2.92-30.705,1.535c-5.894-0.635-11.393-4.425-18.423-5.374c-4.482-0.604-9.305,1.633-13.05,0.769
		c-4.266-0.984-8.378-6.397-7.676-10.747c14.585-4.6,28.283,7.572,42.987,9.211C268.488,98,275.465,93.73,286.327,91.364z"/>
	<path fill-rule="evenodd" clip-rule="evenodd" fill="#FFFFFF" d="M517.385,111.322c2.127,17.735-9.945,21.271-11.515,35.311
		c-4.378-0.738-8.781-1.453-12.282-3.07c-2.942-18.665,4.449-40.792,0.768-55.27C510.566,78.901,508.342,106.059,517.385,111.322z"
		/>
	<path fill-rule="evenodd" clip-rule="evenodd" fill="#FFFFFF" d="M72.925,86.758c4.048,1.623,2.699,11.004,3.071,19.191
		c0.599,13.176,3.525,26.074-6.909,28.402c-4.471-13.441-9.107-26.716-13.817-39.917C59.865,90.585,66.487,88.764,72.925,86.758z"/>
	<path fill-rule="evenodd" clip-rule="evenodd" fill="#FFFFFF" d="M113.61,126.675c-4.55-0.312-7.239-2.484-12.282-2.304
		c6.042-12.892,12.202-25.667,19.19-37.613c5.494,1.159,10.326,2.979,15.353,4.606C129.625,104.309,119.711,113.585,113.61,126.675z
		"/>
	<path fill-rule="evenodd" clip-rule="evenodd" fill="#FFFFFF" d="M122.821,131.28c-3.696-0.653-5.516-3.185-9.211-3.838
		c7.409-12.294,16.296-23.108,23.796-35.311c9.821,2.206,18.123,5.929,26.1,9.979C151.464,113.354,136.45,121.624,122.821,131.28z"
		/>
	<path fill-rule="evenodd" clip-rule="evenodd" fill="#FFFFFF" d="M39.917,103.646c4.892,6.514,8.043,14.097,12.282,20.726
		c4.189,6.553,10.803,11.324,13.05,19.191c-14.516-3.414-27.547-14.915-46.058-16.888c6.429-13.034,19.895-25.64,35.311-32.241
		c2.622,11.195,7.616,22.945,11.515,34.543c1.073,3.192,3.898,7.331,0.768,9.979C53.733,131.281,50.391,113.898,39.917,103.646z"/>
	<path fill-rule="evenodd" clip-rule="evenodd" fill="#FFFFFF" d="M350.809,104.414c-3.268-0.988,0.075-3.815-0.768-6.91
		c2.337,0.219,2.985-2.459,4.605-0.768C352.721,98.648,352.735,102.502,350.809,104.414z"/>
	<path fill-rule="evenodd" clip-rule="evenodd" fill="#FFFFFF" d="M353.111,104.414c0.104-3.48,1.61-5.556,2.303-8.445
		c1.802,0.246,2.881,1.213,5.374,0.768C358.907,99.974,357.698,103.883,353.111,104.414z"/>
	<path fill-rule="evenodd" clip-rule="evenodd" fill="#FFFFFF" d="M492.053,142.795c-6.75-2.718-12.778-6.156-21.494-6.908
		c-3.279-10.717,3.088-16.174,5.374-23.029c1.567-4.703-0.126-11.555,2.303-16.121c8.701-2.724,10.335,8.021,14.585,12.283
		C493.032,120.862,489.766,131.168,492.053,142.795z"/>
	<path fill-rule="evenodd" clip-rule="evenodd" fill="#FFFFFF" d="M280.187,102.11c-1.461,7.764-2.939,17.596-10.747,19.958
		c-2.841,0.86-6.73-1.111-9.979,0c-9.001,3.082-5.172,16.197-9.979,23.797c-5.703-0.328-9.5,1.248-14.585,1.535
		c1.644-7.225,3.058-18.203,1.536-26.1c-4.54-4.416-11.929-5.982-15.353-11.514c0-2.814,0-5.63,0-8.444
		c7.539-7.698,18.583,0.849,28.402,2.303C260.78,105.319,270.737,102.191,280.187,102.11z"/>
	<path fill-rule="evenodd" clip-rule="evenodd" fill="#FFFFFF" d="M356.95,106.717c1.824-3.039,7.106-2.617,9.211-5.374
		c2.322,3.376-3.034,5.643-5.373,6.909C358.878,108.37,358.412,107.045,356.95,106.717z"/>
	<path fill-rule="evenodd" clip-rule="evenodd" fill="#FFFFFF" d="M413.755,115.16c-6.464-6.977-27.484-3.471-31.473,0.768
		C379.995,96.74,414.71,98.314,413.755,115.16z"/>
	<path fill-rule="evenodd" clip-rule="evenodd" fill="#FFFFFF" d="M123.589,131.28c15.092-7.938,27.634-18.424,41.452-27.635
		c6.517,3.207,11.427,8.021,16.888,12.282c-14.359,9.438-36.822,10.771-51.431,19.959
		C127.191,135.354,124.857,133.85,123.589,131.28z"/>
	<path fill-rule="evenodd" clip-rule="evenodd" fill="#FFFFFF" d="M338.526,106.717c-1.064,1.75-5.343,0.285-7.676,0.768
		C330.207,102.047,336.133,106.254,338.526,106.717z"/>
	<path fill-rule="evenodd" clip-rule="evenodd" fill="#FFFFFF" d="M449.833,105.182c3.65,9.91,6.478,20.645,10.747,29.938
		c-2.796-0.238-4.995,0.121-6.909,0.768c-2.125-8.033-4.448-14.547-12.282-16.121c-3.872-0.777-11.439,3.78-11.515-3.838
		C438.314,114.133,446.65,112.232,449.833,105.182z"/>
	<path fill-rule="evenodd" clip-rule="evenodd" fill="#FFFFFF" d="M358.485,108.252c-0.186,1.35-1.321,1.75-3.071,1.535
		c0-1.023,0-2.047,0-3.07C356.55,107.115,357.349,107.852,358.485,108.252z"/>
	<path fill-rule="evenodd" clip-rule="evenodd" fill="#FFFFFF" d="M542.717,106.717c0.747,0.021,0.596,0.939,0.768,1.535
		c-8.72,10.982-11.927,27.478-17.656,41.451c-4.229-0.12-7.635-1.064-11.515-1.535c6.528-11.639,15.56-20.775,18.423-36.078
		C536.685,110.919,540.802,109.919,542.717,106.717z"/>
	<path fill-rule="evenodd" clip-rule="evenodd" fill="#FFFFFF" d="M542.717,151.238c-5.43,0.313-8.869-1.365-14.585-0.768
		c2.554-13.086,8.731-43.438,28.402-29.938c8.528-0.633,11.985-12.959,21.494-7.676c0.771,10.65-10.206,12.58-16.121,16.888
		C553.879,135.594,549.534,144.151,542.717,151.238z"/>
	<path fill-rule="evenodd" clip-rule="evenodd" fill="#FFFFFF" d="M396.099,112.09c1.279,0,2.559,0,3.838,0
		c0.615,2.662-1.144,2.951-0.768,5.373C396.766,117.053,396.403,114.6,396.099,112.09z"/>
	<path fill-rule="evenodd" clip-rule="evenodd" fill="#FFFFFF" d="M391.493,113.625c2.999-2.698,4.995,2.137,5.374,4.605
		C394.601,117.17,393.759,114.686,391.493,113.625z"/>
	<path fill-rule="evenodd" clip-rule="evenodd" fill="#FFFFFF" d="M665.539,114.393c2.989,10.572,8.502,18.621,9.979,30.705
		c-5.481-0.403-9.945-1.825-16.12-1.535c4.304-6.477-2.225-13.691-6.909-16.12c-5.469,0.097-11.533,0.787-12.281-3.839
		C648.941,121.222,653.643,111.096,665.539,114.393z"/>
	<path fill-rule="evenodd" clip-rule="evenodd" fill="#FFFFFF" d="M1165.268,122.836c-0.744,7.029-7.126,3.269-11.514,4.606
		c-11.525,3.513-10.223,17.249-5.374,27.635c-3.474,2.923-9.86,2.933-15.353,3.839c-7.121-15.469,2.235-32.42,7.676-44.523
		c6.863-2.137,14.24,1.537,16.889,6.141C1159.68,121.771,1163.752,121.025,1165.268,122.836z"/>
	<path fill-rule="evenodd" clip-rule="evenodd" fill="#FFFFFF" d="M413.755,118.23c-3.162-0.602-3.939,1.179-6.909,0.768
		c1.665,2.352,4.321-0.736,6.909,0c-0.567,3.016-3.508,3.657-6.909,3.838C401.72,120.236,412.111,111.139,413.755,118.23z"/>
	<path fill-rule="evenodd" clip-rule="evenodd" fill="#FFFFFF" d="M129.73,137.422c14.785-9.268,37.206-10.898,52.199-19.959
		c5.591,2.086,7.068,8.285,11.515,11.515c-17.825,6.995-40.627,9.013-59.108,15.353C133.555,141.273,132.012,138.978,129.73,137.422
		z"/>
	<path fill-rule="evenodd" clip-rule="evenodd" fill="#FFFFFF" d="M227.987,117.463c2.683,1.667,5.906,2.795,7.676,5.373
		c-1.347,8.633,1.764,21.723-4.606,25.332c-3.428-0.288,1.121-4.007,0.768-6.141C232.573,131.812,230.619,124.299,227.987,117.463z"
		/>
	<path fill-rule="evenodd" clip-rule="evenodd" fill="#FFFFFF" d="M260.228,145.098c-3.071,0-6.141,0-9.211,0
		c2.939-6.527,2.57-16.364,6.908-21.494c3.327,0,6.653,0,9.979,0C263.169,128.592,261.798,136.945,260.228,145.098z"/>
	<path fill-rule="evenodd" clip-rule="evenodd" fill="#FFFFFF" d="M135.871,159.684c-19.083,1.682-32.096-2.703-46.825-5.374
		c5.21-8.39,24.054-4.562,25.332,4.606c1.63-10.543-22.455-15.016-26.867-4.606c-3.054-1.296-8.098-0.603-12.282-0.768
		c5.017-23.282,49.449-20.839,49.896,5.374c2.695-27.111-46.87-30.189-51.432-5.374c-2.895,0.942-6.128,1.548-9.979,1.535
		c0.827-14.052,9.979-28.825,25.332-30.706C111.2,121.659,138.069,135.295,135.871,159.684z"/>
	<path fill-rule="evenodd" clip-rule="evenodd" fill="#FFFFFF" d="M320.104,129.745c-1.466-0.78-0.522-5.579,2.303-4.605
		C321.671,126.707,320.838,128.178,320.104,129.745z"/>
	<path fill-rule="evenodd" clip-rule="evenodd" fill="#FFFFFF" d="M62.946,148.936c-13.288,1.217-35.083-2.953-50.664-4.605
		c0.803-6.617,3.051-11.79,5.374-16.888c12.3,1.499,26.462,8.589,37.614,13.817C58.317,142.688,65.632,144.059,62.946,148.936z"/>
	<path fill-rule="evenodd" clip-rule="evenodd" fill="#FFFFFF" d="M964.148,132.049c-11.68,8.31-32.781,0.645-52.967,1.535
		c-19.333,0.853-37.287,6.664-52.199,5.373C885,129.036,928.247,125.824,964.148,132.049z"/>
	<path fill-rule="evenodd" clip-rule="evenodd" d="M805.248,129.745c-1.225,3.034-14.638,1.515-14.586,0.768
		C794.363,129.096,800.377,129.992,805.248,129.745z"/>
	<path fill-rule="evenodd" clip-rule="evenodd" d="M1015.579,130.513c-3.594,1.78-10.482,0.265-15.353,0.768
		C1002.846,127.626,1011.346,130.73,1015.579,130.513z"/>
	<path fill-rule="evenodd" clip-rule="evenodd" fill="#FFFFFF" d="M194.211,131.28c3.933,2.721,5.754,7.552,7.676,12.282
		c-18.828,6.76-43.938,7.238-64.481,12.282c20.06-1.444,47.051-6.67,65.249-9.979c-0.433,3.504,1.36,4.781,0.768,8.444
		c-7.219,8.216-20.531,2.721-34.543,3.838c-12.058,0.962-23.201,2.827-32.241,1.536c0.324-5.697-0.316-10.431-1.535-14.586
		C154.266,139.951,174.505,135.883,194.211,131.28z"/>
	<path fill-rule="evenodd" clip-rule="evenodd" fill="#FFFFFF" d="M356.95,151.238c-2.349-0.465-4-1.629-6.141-2.303
		c7.033-8.576,12.916-18.301,29.938-16.887C372.181,137.812,365.112,145.072,356.95,151.238z"/>
	<path fill-rule="evenodd" clip-rule="evenodd" fill="#FFFFFF" d="M366.929,156.612c-4.059-0.291-5.284-3.416-9.211-3.838
		c10.575-8.104,16.017-21.341,35.311-20.726C384.604,140.512,375.567,148.363,366.929,156.612z"/>
	<path fill-rule="evenodd" clip-rule="evenodd" fill="#FFFFFF" d="M375.373,160.451c7.164-7.166,16.003-12.655,23.029-19.959
		c1.821,2.273,4.385,3.803,5.374,6.908c-4.279,2.209-8.506,4.103-13.05,8.444c-2.885,2.757-6.572,11.154-9.212,11.515
		c-5.146,0.703-7.264-9.272-13.817-9.212c8.674-9.237,17.355-18.468,28.403-25.331c0.25,2.82,1.894,4.246,2.303,6.908
		C390.658,146.565,381.65,152.143,375.373,160.451z"/>
	<path fill-rule="evenodd" clip-rule="evenodd" fill="#FFFFFF" d="M948.027,137.422c-14.959,6.021-33.258,8.705-45.29,17.655
		c-10.642-5.734-23.071-9.682-34.544-14.585C890.482,135.165,922.885,132.955,948.027,137.422z"/>
	<path fill-rule="evenodd" clip-rule="evenodd" fill="#FFFFFF" d="M420.663,140.492c-6.006,3.915-14.689,3.838-15.353-4.605
		C411.74,136.109,416.2,138.303,420.663,140.492z"/>
	<path fill-rule="evenodd" clip-rule="evenodd" fill="#FFFFFF" d="M545.02,151.238c2.662-5.781,7.401-9.486,10.747-14.584
		c7.296,0.381,17.342-1.99,16.888,6.141C559.535,142.09,560.064,156.02,545.02,151.238z"/>
	<path fill-rule="evenodd" clip-rule="evenodd" fill="#FFFFFF" d="M317.801,145.098c-10.719,2.218-33.618-0.034-49.896,0.768
		c10.062-1.941,25.276-5.988,37.614-5.373C309.104,140.671,317.429,139.437,317.801,145.098z"/>
	<path fill-rule="evenodd" clip-rule="evenodd" fill="#FFFFFF" d="M384.584,171.965c-3.209-0.629-6.179-1.497-9.979-1.535
		c-10.968-13.597-31.612-17.517-51.432-22.262c0.245-1.802,1.213-2.881,0.768-5.373C349.19,147.483,369.315,157.297,384.584,171.965
		z"/>
	<path fill-rule="evenodd" clip-rule="evenodd" fill="#FFFFFF" d="M621.783,163.521c7.108-2.875,6.964-19.645,19.959-19.191
		c-4.418,7.354-8.852,14.689-13.05,22.262c-3.7-1.418-9.714-0.521-14.585-0.768c7.01-6.808,7.073-20.562,19.958-21.494
		C629.882,150.638,626.056,157.303,621.783,163.521z"/>
	<path fill-rule="evenodd" clip-rule="evenodd" fill="#FFFFFF" d="M649.418,144.33c-4.924,7.869-9.395,16.193-15.353,23.029
		c-2.169,0.635-1.989-1.082-3.838-0.768C636.39,158.938,636.775,145.505,649.418,144.33z"/>
	<path fill-rule="evenodd" clip-rule="evenodd" fill="#FFFFFF" d="M642.51,166.592c5.848-6.434,8.873-15.691,14.585-22.262
		c1.839,0.465,3.502,1.104,6.141,0.768c-5.657,7.393-10.191,15.908-15.353,23.797c-3.634-0.717-8.175-0.525-11.515-1.535
		c6.471-7.347,8.253-19.383,18.423-23.029C650.784,151.838,646.18,158.747,642.51,166.592z"/>
	<path fill-rule="evenodd" clip-rule="evenodd" fill="#FFFFFF" d="M613.339,165.824c-1.791,0-3.583,0-5.374,0
		c5.429-7.365,7.603-17.985,17.656-20.727C621.893,152.372,617.051,158.533,613.339,165.824z"/>
	<path fill-rule="evenodd" clip-rule="evenodd" fill="#FFFFFF" d="M649.418,169.662c4.398-7.152,8.776-20.878,19.191-24.564
		C664.407,152.447,659.584,165.729,649.418,169.662z"/>
	<path fill-rule="evenodd" clip-rule="evenodd" fill="#FFFFFF" d="M62.946,152.007c0.743,5.238-5.981,5.931-9.979,6.909
		c-11.643,2.847-30.106,2.094-44.522,3.07c0.097-6.045,1.497-10.785,2.303-16.121C27.778,148.281,46.838,148.668,62.946,152.007z"/>
	<path fill-rule="evenodd" clip-rule="evenodd" fill="#FFFFFF" d="M619.48,145.865c-4.78,6.223-9.174,12.832-13.05,19.959
		c-1.996-0.307-2.315-2.291-4.606-2.303C606.706,156.632,608.273,146.429,619.48,145.865z"/>
	<path fill-rule="evenodd" clip-rule="evenodd" fill="#FFFFFF" d="M654.791,168.895c2.76-4.123,6.266-7.955,9.212-12.282
		c2.631-3.864,4.291-10.733,10.747-10.747C671.18,153.592,666.648,166.906,654.791,168.895z"/>
	<path fill-rule="evenodd" clip-rule="evenodd" fill="#FFFFFF" d="M372.303,169.662c-32.833-4.393-60.979,1.219-94.419,3.07
		c-9.561,0.529-18.745,3.862-28.403,4.605c-28.109,2.166-56.897-3.449-87.51,0c21.895-13.708,50.032-27.936,85.975-30.705
		c10.18-0.783,21.149,0.301,32.241,0.768c10.985,0.463,21.569-0.809,32.24,0C335.04,149.117,359.238,157.337,372.303,169.662z"/>
	<path fill-rule="evenodd" clip-rule="evenodd" fill="#FFFFFF" d="M611.036,146.633c-3.022,5.422-7.463,9.424-9.979,15.354
		c-2.898,0.339-3.604-1.514-5.374-2.303C600.517,155.049,601.797,146.861,611.036,146.633z"/>
	<path fill-rule="evenodd" clip-rule="evenodd" fill="#FFFFFF" d="M665.539,164.289c4.311-5.161,7.57-15.453,13.049-16.889
		c0.644,0.674-3.857,10.711-6.908,13.818C669.959,162.97,667.283,163.647,665.539,164.289z"/>
	<path fill-rule="evenodd" clip-rule="evenodd" fill="#FFFFFF" d="M603.36,147.4c-3.891,3.508-5.471,12.633-12.282,10.747
		C594.692,154.086,596.332,148.049,603.36,147.4z"/>
	<path fill-rule="evenodd" clip-rule="evenodd" fill="#FFFFFF" d="M673.215,159.684c4.263-3.773,4.696-13.365,12.282-11.516
		C681.492,152.096,679.351,157.887,673.215,159.684z"/>
	<path fill-rule="evenodd" clip-rule="evenodd" fill="#FFFFFF" d="M595.684,148.168c1.786,1.468-4.808,7.332-7.676,9.212
		c-0.124-0.899-1.399-0.647-2.303-0.768C587.325,152.092,591.406,150.032,595.684,148.168z"/>
	<path fill-rule="evenodd" clip-rule="evenodd" fill="#FFFFFF" d="M695.477,149.703c-4.705,2.973-9.561,5.793-16.121,6.909
		C682.564,152.233,687.098,146.523,695.477,149.703z"/>
	<path fill-rule="evenodd" clip-rule="evenodd" fill="#FFFFFF" d="M588.007,151.238c-1.796,2.225-3.768,5.99-7.676,3.839
		C582.454,153.361,585.02,152.09,588.007,151.238z"/>
	<path fill-rule="evenodd" clip-rule="evenodd" fill="#FFFFFF" d="M1176.015,176.57c-5.194-6.064-8.008-14.509-13.817-19.958
		c1.054-1.505,4.703-0.414,6.141-1.535c5.186,5.818,7.889,14.117,13.051,19.958C1182.004,177.953,1177.758,176.012,1176.015,176.57z
		"/>
	<path fill-rule="evenodd" clip-rule="evenodd" fill="#FFFFFF" d="M1170.641,155.845c8.764,0.709,11.797,13.789,16.889,20.726
		C1176.368,175.194,1177.407,161.617,1170.641,155.845z"/>
	<path fill-rule="evenodd" clip-rule="evenodd" fill="#FFFFFF" d="M1194.438,176.57c-11.35-1.955-12.057-14.555-18.423-21.493
		C1188.28,156.117,1188.928,168.775,1194.438,176.57z"/>
	<path fill-rule="evenodd" clip-rule="evenodd" fill="#FFFFFF" d="M1203.649,175.035c-3.825-6.664-7.556-13.426-12.282-19.19
		c11.076-1.349,13.639,12.458,18.424,19.958c-5.016,0.818-7.533,0.497-13.818,0.768c-3.479-7.779-8.237-14.279-12.281-21.493
		C1196.743,155.33,1195.963,169.416,1203.649,175.035z"/>
	<path fill-rule="evenodd" clip-rule="evenodd" fill="#FFFFFF" d="M1156.824,155.845c9.623,2.405,12.995,15.147,16.888,20.726
		C1163.904,174.315,1160.369,161.816,1156.824,155.845z"/>
	<path fill-rule="evenodd" clip-rule="evenodd" fill="#FFFFFF" d="M1199.812,155.845c9.682,2.601,12.06,12.504,16.888,19.958
		c-1.791,0-3.582,0-5.373,0C1208.277,168.361,1203.189,162.957,1199.812,155.845z"/>
	<path fill-rule="evenodd" clip-rule="evenodd" fill="#FFFFFF" d="M1150.683,156.612c10.125,2.157,10.558,14.007,17.655,19.19
		C1157.365,178.037,1153.883,162.162,1150.683,156.612z"/>
	<path fill-rule="evenodd" clip-rule="evenodd" fill="#FFFFFF" d="M1205.952,157.38c10.22-1.771,13.112,10.426,17.655,16.888
		c-1.366,0.425-3.188,0.395-3.838,1.535C1214.016,170.811,1211.871,162.208,1205.952,157.38z"/>
	<path fill-rule="evenodd" clip-rule="evenodd" fill="#FFFFFF" d="M1159.895,174.268c-7.461,0.547-9.24-11.225-14.585-15.352
		C1152.314,156.101,1154.48,170.471,1159.895,174.268z"/>
	<path fill-rule="evenodd" clip-rule="evenodd" fill="#FFFFFF" d="M1214.396,158.147c8.262-2.37,10.2,8.218,15.353,11.515
		c-0.56,1.744-2.31,2.296-3.838,3.07C1220.842,169.103,1218.974,162.27,1214.396,158.147z"/>
	<path fill-rule="evenodd" clip-rule="evenodd" fill="#FFFFFF" d="M1152.218,169.662c-5.325,0.965-7.819-7.525-12.282-9.979
		C1146.679,155.454,1147.656,166.973,1152.218,169.662z"/>
	<path fill-rule="evenodd" clip-rule="evenodd" fill="#FFFFFF" d="M1222.072,158.916c0.021-0.747,0.939-0.596,1.535-0.769
		c5.163,2.003,7.734,6.595,10.748,10.747C1227.475,171.086,1226.6,161.543,1222.072,158.916z"/>
	<path fill-rule="evenodd" clip-rule="evenodd" fill="#FFFFFF" d="M1228.214,159.684c4.43-1.09,9.898,3.396,11.515,7.676
		c-1.09-0.066-2.174-0.127-2.303,0.768C1233.172,166.495,1232.189,161.592,1228.214,159.684z"/>
	<path fill-rule="evenodd" clip-rule="evenodd" fill="#FFFFFF" d="M1146.077,166.592c-3.929,0.588-10.811-2.484-13.05-6.141
		C1139.87,157.1,1142.198,164.464,1146.077,166.592z"/>
	<path fill-rule="evenodd" clip-rule="evenodd" fill="#FFFFFF" d="M1237.426,162.754c2.123-1.823,4.688,2.441,7.676,2.303
		C1242.328,168.895,1239.6,164.064,1237.426,162.754z"/>
	<path fill-rule="evenodd" clip-rule="evenodd" d="M1007.902,191.156c-11.693-0.383-23.789-6.123-37.613-6.909
		c-4.81-0.273-9.713,0.481-14.585,0c-6.391-0.632-12.229-3.933-18.423-4.605c-10.917-1.185-23.563,0-35.312,0
		c-11.91,0-24.05-1.036-34.544,0c-6.326,0.624-12.388,3.95-18.423,4.605c-19.31,2.097-37.487,1.544-52.967,7.677
		c14.776-7.41,32.485-6.822,50.664-8.444c6.296-0.562,12.118-3.827,18.423-4.605c4.299-0.531,9.247,0.112,13.817,0
		c18.642-0.46,41.021-1.948,59.108,0c6.211,0.669,11.977,3.964,18.423,4.605C974.466,185.271,992.874,184.806,1007.902,191.156z"/>
	<path fill-rule="evenodd" clip-rule="evenodd" d="M179.626,191.156c-16.776-1.316-33.038-9.029-53.734-6.909
		c-13.106,1.343-26.826,7.769-39.917,7.677C113.3,182.887,152.403,180.219,179.626,191.156z"/>
	<path fill-rule="evenodd" clip-rule="evenodd" d="M403.775,191.156c-16.32,2.098-34.305-3.881-51.432-5.373
		c-35.053-3.058-68.772,3.336-99.792,6.141C297.561,180.443,356.405,184.371,403.775,191.156z"/>
	<path fill-rule="evenodd" clip-rule="evenodd" d="M983.339,191.156c-47.429-5.359-114.087-7.105-162.738,0.768
		c15.976-7.821,44.349-3.244,64.481-6.909C918.914,185.982,955.016,184.68,983.339,191.156z"/>
	<path fill-rule="evenodd" clip-rule="evenodd" d="M912.717,22.276c2.226,0.158,4.277-6.453,7.676-7.676
		c7.662-1.009,11.533,1.773,14.585,5.374c1.188,8.863-3.042,12.311-5.373,17.656c5.245-0.851,15.181-9.364,22.261-2.303
		c2.971,10.574-4.885,16.474-11.514,19.958c0.99,2.08,3.412,2.729,3.07,6.141c-1.385,15.211-20.223,9.422-29.17,16.888
		c-4.248,3.544-2.749,9.312-9.979,7.676c-5.251,13.939-13.745,24.637-13.817,43.755c36.629-6.774,73.488,4.509,108.236,0.768
		c-22.186-1.861-41.245,7.649-58.34,12.282c-13.847,3.753-27.68,4.225-36.847,14.585c-7.878,0.822-11.125,6.275-17.655,8.444
		c4.271-3.662,9.456-6.408,14.584-9.212c-9.995-9.331-23.191-10.116-36.846-13.817c-16.467-4.463-34.449-14.408-56.805-11.515
		c20.074-6.571,39.797,9.539,56.037,4.606c5.25-14.453,8.631-30.775,11.515-47.594c-1.021-2.562-4.344-2.821-6.142-4.606
		c4.961-23.078-38.014-14.346-24.564-35.311c-5.324-2.864-11.506-4.87-9.979-14.585c8.117-7.29,23.171-0.6,26.867,6.141
		c-2.664-6.1-8.328-13.08-5.373-22.261c3.855-3.337,12.803-1.253,15.352,1.535c-1.521-13.739,17.723-19.057,25.332-9.979
		C900.887-7.886,921.689,2.19,912.717,22.276z M912.717,16.903c0.808-7.833,1.081-14.521-6.142-15.353
		c-8.382-0.965-7.997,9.534-9.979,17.656c-3.254,13.333-15.662,32.804-10.746,52.199c4.033,1.852,8.957,2.813,15.353,2.303
		C907.785,59.849,911.008,33.463,912.717,16.903z M941.119,57.588c-5.498,0.994-11.221,4.744-16.121,7.676
		c-4.477,2.679-12.348,6.134-10.746,12.282C922.729,70.902,945.404,74.444,941.119,57.588z M858.982,138.957
		c14.912,1.291,32.866-4.521,52.199-5.373c20.186-0.891,41.287,6.774,52.967-1.535C928.247,125.824,885,129.036,858.982,138.957z
		 M894.293,21.509c4.873-21.181-20.729-18.164-22.262-4.605c-0.441,3.917,1.594,6.708,2.304,10.747
		c2.302,13.107,0.72,29.668,3.07,40.685c3.122-0.051,3.707,2.434,6.909,2.303C879.877,50.201,891.359,34.262,894.293,21.509z
		 M909.646,52.982c-1.854,9.038-7.997,16.122-4.606,20.726c7.028-4.427,6.842-14.52,10.747-21.494
		c3.23-5.769,8.647-8.89,13.05-13.05c0.683-7.25,6.082-9.782,4.605-19.191C911.92,4.428,913.298,35.168,909.646,52.982z
		 M855.912,18.438c-0.101,16.7,9.748,27.266,14.584,37.614c1.969,4.211,1.227,9.146,5.374,12.282
		C871.842,49.937,880.399,11.318,855.912,18.438z M856.68,37.629c-4.516-4.268-14.349-8.213-21.494-3.071
		c-0.762,12.803,14.146,12.404,20.727,17.656c7.013,5.597,8.721,12.877,15.352,18.423C872.049,61.318,864.662,45.176,856.68,37.629z
		 M918.09,68.334c9.197-6.876,22.348-11.708,29.17-19.191c6.681-7.327,5.229-18.015-7.676-14.585
		c-14.168,3.766-27.787,24.246-29.938,39.917C913.693,74.257,915.131,70.547,918.09,68.334z M842.094,52.214
		c-0.788,12.519,13.125,9.504,20.727,15.353c3.919,3.015,2.727,7.387,6.908,5.374C863.532,64.185,855.547,46.175,842.094,52.214z
		 M892.758,75.243c-7.824-1.017-13.057-6.997-18.423-5.374c-3.869,1.171-6.653,8.695-3.071,14.585c7.852-2.278,26.03-3.764,36.079,0
		c2.608-1.742,4.622-4.078,4.606-8.444C907.005,73.356,900.906,76.302,892.758,75.243z M875.87,85.223
		c-1.478,18.736-7.095,33.334-10.747,49.896c7.533-2.191,17.531-1.916,23.797-5.374c0.39-19.057,8.92-29.973,13.817-44.522
		C895.945,82.871,882.681,82.991,875.87,85.223z M868.193,140.492c11.473,4.903,23.902,8.851,34.544,14.585
		c12.032-8.95,30.331-11.634,45.29-17.655C922.885,132.955,890.482,135.165,868.193,140.492z"/>
	<path fill-rule="evenodd" clip-rule="evenodd" d="M477.468,191.156c-6.632-2.385-13.216-5.311-20.726-6.909
		c-11.876-2.527-22.665-2.704-37.614-3.838c-18.108-1.374-34.494-9.203-52.199-10.747c-22.396-1.953-44.896,1.881-69.087,3.838
		c-8.657,0.701-17.391-0.228-26.1,0.768c-15.265,1.746-28.394,4.536-43.755,3.838c-22.659-1.028-45.334-1.74-68.319,0.769
		c26.545,6.272,54.097,9.418,82.137,7.677c8.04-0.5,15.735-3.508,23.797-4.606c29.747-4.056,58.388-7.854,85.975-6.142
		c13.482,0.838,27.025,5.859,41.452,6.909c26.179,1.905,47.218,1.868,69.855,8.444c-17.228-1.209-33.628-6.236-51.432-7.677
		c-7.456-0.604-15.395,0.764-23.029,0c-11.05-1.104-21.346-5.302-32.241-6.142c-16.687-1.285-34.618,0.357-52.199,1.536
		c-12.869,0.862-26.988,2.668-39.917,4.605c-5.808,0.87-11.433,3.33-16.888,3.839c-21.787,2.029-41.519-0.403-62.178-2.304
		c-18.95-1.743-40.943-8.474-63.714-6.141c-5.508,0.563-10.062,3.472-15.353,4.605c-8.233,1.765-17.217,0.55-26.1,1.535
		c-23.08,2.562-49.696,10.388-79.834,4.606c42.844,2.613,82.927-4.529,120.519-11.516C79.38,178.424,39.18,174.168,0,175.035
		c30.208-4.205,68.964,3.11,103.631,1.535c17.474-0.793,37.747,5.422,52.967,1.535c4.062-1.036,6.55-4.426,9.979-6.141
		c7.552-3.774,16-5.555,21.494-10.746c-19.989-4.731-47.284,2.932-73.693,0c-14.371-1.596-26.407-7.28-40.685-6.142
		c-10.33,0.823-19.534,5.939-29.938,6.909c-14.462,1.348-28.272,0.49-43.755,1.535c0.396-2.676,5.016-1.126,7.677-1.535
		c0.962-26.153,13.975-47.402,29.17-59.108c14.334-11.043,33.146-18.922,54.502-20.726c22.215-1.876,39.478,5.451,57.572,12.282
		c11.216,4.234,22.015,10.123,29.938,16.888c13.458,11.49,22.962,24.768,26.867,42.22c6.961-1.483,12.45-4.438,20.727-4.606
		c6.038-8.377,5.767-22.568,0-31.473c-3.201-4.943-11.099-8.288-5.374-16.888c-3.301-4.12-9.541-5.3-8.444-13.817
		c-7.083-15.602-42.12-4.652-46.826-26.1c-0.756-3.448-0.169-7.842,1.535-10.747c8.928-1.818,16.881,3.442,28.403,1.536
		c-1.024-4.983-7.111-8.588-3.839-15.353c6.246-1.127,7.075,3.16,13.05,2.303c1.901-2.193-0.205-8.393,1.536-10.747
		c11.806-3.179,24.467,8.764,33.008,0c2.798,1.807,3.899,5.312,9.211,4.606c2.93-0.256-0.669-5.38,2.303-6.909
		c6.352-0.979,8.396,2.352,13.05,3.07c3.508-1.354,1.31-8.413,5.373-9.211c8.707,0.249,11.376,6.535,15.353,11.515
		c1.272-2.31,2.203-4.961,4.606-6.141c8.529-1.108,11.686,3.155,16.888,5.374c4.479-1.528,8.699-7,15.353-3.838
		c0.593,8.525-3.395,12.47-6.141,17.656c1.843-1.679,10.521-8.957,16.888-3.838c0.687,12.604,4.229,22.517-5.374,28.402
		c-11.385,6.979-34.741,8.958-39.917,20.726c-2.192,2.18,2.791,1.105,1.535,4.606c-1.069,4.56-2.728,8.531-6.909,9.979
		c-1.562,18.396-21.085,18.831-19.191,40.685c18.202-1.12,34.963-7.334,55.27-3.838c0.038-7.373-9.219-0.812-11.515-5.373
		c-0.093-5.979,4.567-7.203,8.444-9.212c2.663-0.104,1.229,3.889,3.838,3.838c-0.393-2.249,2.438-4.327-1.536-3.838
		c1.116-1.188,2.995-1.612,5.374-1.536c3.254,0.115-1.687,3.443-1.535,5.374c3.425-0.646,3.869-7.581,8.444-4.605
		c-3.279-15.261-25.924-3.926-23.796,6.141c-2.623-15.802,25.562-20.54,25.332-3.838c-1.974,3.399-5.674,5.073-8.444,7.677
		c0.757,1.801,1.347,3.771,1.535,6.141c4.932,1.977,11.697,2.121,16.12,4.605c4.646-4.31,9.927-7.984,16.888-9.979
		c-2.07-5.924-10.243-12.229-10.747-22.262c-5.576,2.037-12.557,0.1-16.888-1.535c-15.189-19.469,16.19-36.054,31.473-24.564
		c8.874,6.671,10.645,22.943-5.374,23.797c3.531,7.501,3.92,17.826,12.282,19.958c7.255,1.849,17.211-3.36,26.867,0
		c1.731-0.571,0.301-4.306,0.768-6.141c-5.816-1.546-10.788-1.663-13.049-5.374c-9.33-15.307,18.955-25.496,29.17-13.816
		c2.866,3.275,4.152,8.202,3.071,15.352c-3.189,1.672-6.36,3.364-11.515,3.07c-0.406,3.989,1.013,6.152,1.535,9.213
		c5.73,2.457,13.102,3.273,17.655,6.908c8.709-3.062,20.62-2.922,29.938-5.373c-1.641-6.533-3.603-12.281-9.979-13.818
		c-5.094-1.227-14.802,3.754-13.817-6.141c9.216-2.043,17.139-5.379,22.261-11.515c0.325-3.173-4.562-5.116-1.535-8.444
		c10.076-8,20.897,6.324,24.564,14.586c-6.026-6.151-11.904-19.259-23.796-14.586c3.501,13.898,6.784,28.016,12.282,39.918
		c2.047,0,4.094,0,6.142,0c0.394-17.668,7.444-24.369,9.211-39.918c8.136-2.491,11.417,5.786,14.585,10.748
		c2.909-7.373,2.5-10.597,0.768-18.424c3.73-3.454,8.947-3.303,12.282-1.535c7.483,3.966,5.541,17.531,10.747,23.029
		c2.499-9.326-0.977-14.653,4.606-20.727c6.909-7.517,28.797-5.835,29.938,3.071c1.257,9.813-13.477,9.019-15.353,17.656
		c3.933,2.947,6.013-5.986,9.979-3.07c0.547,6.432-4.459,7.311-5.374,12.281c4.903-3.498,12.354-2.131,16.888,0.768
		c8.673-1.092,14.087-14.574,23.029-6.141c-0.099,14.486-16.056,13.113-21.494,22.262c7.772-0.096,15.608-0.256,16.12,6.908
		c-4.468,4.022-12.726,2.148-15.353,9.211c5.104,0.098,12.262,3.799,18.423,3.071c3.231-0.382,5.203-3.29,8.444-4.606
		c20.208-8.205,49.013-6.557,72.925-6.141c2.839-7.294-2.272-12.308-6.909-14.585c-6.918,1.277-14.082-1.255-12.282-6.142
		c0.369-4.943,3.866-1.436,6.909-3.07c5.102-2.74,6.98-10.146,18.423-7.676c-0.869-6.486-4.62-12.664-2.303-19.958
		c4.923-1.986,8.853-4.965,11.515-9.212c6.861,1.071,8.318,7.547,10.747,13.049c-1.579-14.448,9.347-32.768,19.958-20.726
		c2.998-0.614,3.772-6.581,7.677-3.838c-0.165,5.465-3.566,7.692-4.606,12.282c7.52-0.67,20.994,0.897,26.1,8.444
		c-0.793-5.58-2.991-11.593,1.535-14.585c4.092-0.51,6.571,0.594,8.444,2.303c6.314-10.797,15.37-1.29,15.353,9.211
		c1.111-4.438-2.76-12.902-0.768-18.423c4.341-5.204,13.777-2.895,14.585,3.838c4.88-1.655,4.446-8.259,10.747-6.909
		c9.518,2.039,0.289,21.931,0,30.706c4.828-6.43,5.893-16.625,19.191-14.585c1.422,1.648,0.518,5.624,0.768,8.444
		c3.979-0.428,6.184-2.219,9.211,0c0.936,21.986-19.318,26.646-24.564,39.917c-50.782,4.742-93.474,17.576-129.729,36.846
		c40.979,5.078,88.739,3.375,128.962,9.211c-40.939-5.557-89.354-2.34-135.104-6.908c-19.449-1.941-38.878-5.362-59.875-3.838
		c-15.677,1.138-34.551,1.809-47.593,6.141c-8.48,2.816-13.972,10.391-23.029,11.515c18.591-14.929,47.846-19.194,81.369-19.19
		c-26.034-20.084-76.019-8.256-110.54-20.727c-12.768-4.611-19.347-10.029-34.543-9.211c-30.689,1.652-62.327,9.334-75.996,31.473
		c0.478,2.081,3.207,1.91,3.071,4.605C411.766,182.653,455.813,175.709,477.468,191.156z M323.941,142.795
		c0.445,2.492-0.522,3.571-0.768,5.373c19.82,4.745,40.464,8.665,51.432,22.262c3.8,0.038,6.77,0.906,9.979,1.535
		C369.315,157.297,349.19,147.483,323.941,142.795z M267.904,123.604c-3.326,0-6.653,0-9.979,0
		c-4.338,5.13-3.969,14.967-6.908,21.494c3.07,0,6.141,0,9.211,0C261.798,136.945,263.169,128.592,267.904,123.604z
		 M329.315,126.675c-0.937-0.087-1.818-0.229-1.535-1.535c-4.688,1.378-2.98,4.579-6.909,6.909c-2.855-0.752-5.259-5.97-8.444-3.839
		c4.979,3.317,6.105,9.478,6.142,19.19c2.169-0.634,1.988,1.082,3.838,0.768c1.705-4.884,0.001-9.961-0.768-14.584
		C325.747,132.83,328.009,130.23,329.315,126.675z M382.282,115.928c3.989-4.238,25.009-7.744,31.473-0.768
		C414.71,98.314,379.995,96.74,382.282,115.928z M395.331,118.23c-3.021-2.84-5.716-6.214-10.747-3.07
		c-0.534,3.092,3.819,1.299,4.606,3.07c-2.494,0.887-4.722-2.344-6.141,0c0.503,4.104,8.261,0.95,10.747,3.07
		c-2.083,0.477-6.092-0.975-6.908,0.768c2.614,0.713,4.502,2.15,8.443,1.535c0.159-3.484-1.745-4.907-5.373-4.605
		c2.228-2.318-2.368-2.143-3.07-3.838C390.426,114.975,392.73,120.029,395.331,118.23z M406.078,112.09
		c-1.802,2.035-2.012,5.664-4.605,6.908c0.097-3.229,2.973-3.68,3.07-6.908c-6.603,0.178-1.396,8.035-8.444,6.908
		c-0.02,12.302,1.701,22.864,9.979,26.867c0.211-1.58,2.86-0.723,3.071-2.303c-8.344-5.703-9.688-25.912,0.768-29.938
		C408.007,113.743,407.54,112.419,406.078,112.09z M405.311,135.887c0.663,8.443,9.347,8.521,15.353,4.605
		C416.2,138.303,411.74,136.109,405.311,135.887z M572.655,142.795c0.454-8.131-9.592-5.76-16.888-6.141
		c-3.346,5.098-8.084,8.803-10.747,14.584C560.064,156.02,559.535,142.09,572.655,142.795z M561.908,129.745
		c5.915-4.308,16.892-6.237,16.121-16.888c-9.509-5.283-12.966,7.043-21.494,7.676c-19.671-13.5-25.848,16.852-28.402,29.938
		c5.716-0.598,9.155,1.081,14.585,0.768C549.534,144.151,553.879,135.594,561.908,129.745z M668.609,145.098
		c-10.415,3.687-14.793,17.412-19.191,24.564C659.584,165.729,664.407,152.447,668.609,145.098z M654.791,144.33
		c-10.17,3.646-11.952,15.683-18.423,23.029c3.34,1.01,7.881,0.818,11.515,1.535c5.161-7.889,9.695-16.404,15.353-23.797
		c-2.639,0.336-4.302-0.303-6.141-0.768c-5.712,6.57-8.737,15.828-14.585,22.262C646.18,158.747,650.784,151.838,654.791,144.33z
		 M398.402,139.725c-0.409-2.662-2.053-4.088-2.303-6.908c-11.048,6.863-19.729,16.094-28.403,25.331
		c6.553-0.061,8.671,9.915,13.817,9.212c2.64-0.36,6.327-8.758,9.212-11.515c4.544-4.342,8.771-6.235,13.05-8.444
		c-0.989-3.105-3.553-4.635-5.374-6.908c-7.025,7.304-15.865,12.793-23.029,19.959C381.65,152.143,390.658,146.565,398.402,139.725z
		 M393.028,132.049c-19.294-0.615-24.736,12.621-35.311,20.726c3.928,0.422,5.153,3.547,9.211,3.838
		C375.567,148.363,384.604,140.512,393.028,132.049z M380.746,132.049c-17.022-1.414-22.905,8.311-29.938,16.887
		c2.142,0.674,3.792,1.838,6.141,2.303C365.112,145.072,372.181,137.812,380.746,132.049z M342.365,146.633
		c3.22-0.405,4.289,1.342,6.909,1.535c4.145-3.538,9.87-9.567,11.515-13.049C354.254,138.564,346.187,140.476,342.365,146.633z
		 M312.427,147.4c-10.671-0.809-21.255,0.463-32.24,0c-11.092-0.467-22.061-1.551-32.241-0.768
		c-35.943,2.77-64.081,16.997-85.975,30.705c30.613-3.449,59.401,2.166,87.51,0c9.658-0.743,18.842-4.076,28.403-4.605
		c33.44-1.852,61.586-7.463,94.419-3.07C359.238,157.337,335.04,149.117,312.427,147.4z M286.327,46.073
		c0.694-12.161-3.984-22.625-16.12-25.332c-4.051,0.299-1.486,7.214-4.605,8.444c-6.257,1.231-9.259-4.333-14.585-1.535
		c0.553,6.715,7.487,9.759,9.979,16.888c3.717,10.633,2.008,23.904,0.768,36.846c3.327,0,6.653,0,9.979,0
		C272.317,69.424,285.572,59.317,286.327,46.073z M305.519,30.721c-5.239-0.226-11.764-9.793-17.656-2.303
		c3.053,23.932-9.309,35.259-14.585,52.967c8.501-5.587,17.561-11.162,25.332-17.656c10.222-8.541,19.052-20.665,21.494-36.846
		C312.906,25.075,311.491,30.978,305.519,30.721z M208.029,28.417c-0.864,19.816,12.053,32.458,14.585,51.432
		c13.266-0.216,25.722,0.378,37.614,1.535c2.625-17.176,2.119-39.143-8.444-47.593c-7.606,1.465-9.821-2.461-13.817-4.606
		c-17.415,14.491,11.183,31.549,3.838,49.896c3.158-20.459-16.928-28.563-9.212-46.058
		C223.745,32.148,217.811,28.359,208.029,28.417z M201.888,72.94c4.222,4.289,13.023,7.868,19.958,6.909
		c-3.794-14.373-10.257-26.077-14.585-39.917c-4.413,0.876-8.606-2.479-14.585-2.303C194.473,50.674,204.581,55.406,201.888,72.94z
		 M301.68,62.961c-3.985,3.638-8.764,5.895-12.282,8.444c-3.888,2.817-9.361,6.268-8.444,9.211c3.857-0.019,5.609,2.067,9.211,2.303
		c9.153-10.147,39.695-8.976,42.22-24.564c0.723-4.462-1.312-11.292-1.536-17.656C316.32,37.341,310.987,54.464,301.68,62.961z
		 M204.19,78.314c1.971-1.31-2.91-2.202-3.838-5.374c-1.706-5.831,1.303-16.49-3.07-19.958c-11.353,1.117-19.051-1.42-28.402-2.303
		C161.174,70.64,187.365,75.341,204.19,78.314z M759.189,72.94c4.41,19.829,3.922,40.548,0.768,61.411
		c6.556,1.383,7.868-7.717,11.515-13.051c3.025-4.424,8.035-9.457,9.979-15.352c1.592-4.828,1.675-12.545,3.07-19.959
		c1.208-6.417,4.867-16.388-2.303-16.888c-4.632-0.323-4.588,7.267-9.212,6.909c-2.854-1.24-2.661-5.526-5.373-6.909
		C762.863,68.426,761.077,70.734,759.189,72.94z M691.638,75.243c-14.051,13.843,12.329,58.487-3.838,72.157
		c8.535,3.294,17.372,0.042,24.564-2.303c4.507-29.658-15.073-50.404-1.536-72.925c-3.933-0.095-2.328,5.347-6.908,4.605
		C702.022,70.209,694.781,72.146,691.638,75.243z M744.604,81.384c-3.537-0.482-5.449-4.308-9.212-2.303
		c-3.28,7.73,2.386,15.132,1.535,23.796c-1.143,11.649-7.525,23.529-2.303,36.079c8.041-1.17,14.592-3.832,23.029-4.605
		c0.999-11.243,4.921-25.096,3.07-36.848c-1.073-6.817-4.414-18.533-9.979-21.493C746.675,75.778,748.43,81.372,744.604,81.384z
		 M214.17,85.99c0.557-1.747,4.377-0.229,3.838-3.071c-2.058-2.563-9.854-3.43-11.514-3.838
		C210.175,80.262,211.541,83.757,214.17,85.99z M220.311,82.152c-0.042,0.981-0.984,1.063-0.768,2.303
		c16.437,1.278,31.192,13.436,49.896,10.746c5.959-0.856,10.403-4.491,16.888-6.141c-0.26-2.38,1.777-3.667,0-5.374
		C267.156,82.794,241.581,80.608,220.311,82.152z M91.349,83.687c-1.751,12.323-1.392,26.755-2.303,39.917
		c4.011-0.172,7.663,0.014,10.747,0.768c6.309-12.881,12.781-25.6,19.191-38.381C110.59,83.562,101.117,82.878,91.349,83.687z
		 M75.996,85.99c2.54,13.51,0.726,28.229,2.303,41.452c3.442-0.907,5.432-3.269,9.212-3.839c0.275-13.031,2.276-28.424,1.535-39.917
		C85.253,85.012,80.4,85.277,75.996,85.99z M537.344,102.878c3.611-3.437,12.494-4.792,11.515-11.514
		c-1.433-9.827-23.442-6.81-27.635-2.303c-6.287,6.758-0.063,20.309-2.303,33.008c-1.661,9.422-14.689,16.076-9.211,25.332
		C525.948,141.303,525.682,113.977,537.344,102.878z M735.393,96.736c-1.525-5.987-8.379-7.326-13.049-11.514
		c-6.133,2.331-12.76-3.603-15.354,3.07c2.006,19.748,10.59,39.479,6.909,56.037c7.224-0.453,12.51-2.842,19.19-3.838
		C725.37,126.491,738.268,108.02,735.393,96.736z M780.684,109.787c-5.008,9.812-11.377,16.072-13.05,23.797
		c5.704-0.949,11.397-1.908,17.655-2.304c9.255-11.739,26.869-19.171,26.1-38.381c-2.692-2.447-6.295,2.671-9.211,0
		c-0.411-2.97,1.369-3.748,0.768-6.909C789.257,81.135,785.911,99.544,780.684,109.787z M333.153,104.414
		c5.064,0.039,10.28,5.127,13.05,0.768c-1.895-2.107-4.798-8.182-8.444-3.839c2.28,1.558,5.302,2.374,6.909,4.606
		C339.942,105.447,336.177,97.978,333.153,104.414z M330.85,107.484c2.333-0.482,6.612,0.982,7.676-0.768
		C336.133,106.254,330.207,102.047,330.85,107.484z M365.394,97.504c-3.434-19.942-45.758-14.124-37.614,9.98
		C334.41,98.952,352.031,91.971,365.394,97.504z M664.003,92.899c-1.767,19.833,12.458,33.956,12.282,52.199
		c3.547,0.547,6.406,1.782,9.979,2.303c10.63-19.266,2.901-51.873-11.515-62.178C671.731,88.345,669.204,91.959,664.003,92.899z
		 M257.157,96.736c-14.705-1.639-28.402-13.811-42.987-9.211c-0.702,4.35,3.41,9.763,7.676,10.747
		c3.745,0.864,8.567-1.373,13.05-0.769c7.031,0.949,12.529,4.739,18.423,5.374c12.854,1.385,22.605-3.685,30.705-1.535
		c1.359-2.479,4.433-6.471,2.303-9.979C275.465,93.73,268.488,98,257.157,96.736z M494.356,88.293
		c3.682,14.478-3.709,36.604-0.768,55.27c3.501,1.617,7.904,2.332,12.282,3.07c1.569-14.039,13.642-17.575,11.515-35.311
		C508.342,106.059,510.566,78.901,494.356,88.293z M55.27,94.434c4.71,13.202,9.347,26.476,13.817,39.917
		c10.435-2.328,7.508-15.227,6.909-28.402c-0.372-8.188,0.978-17.569-3.071-19.191C66.487,88.764,59.865,90.585,55.27,94.434z
		 M163.506,102.11c-7.977-4.05-16.278-7.773-26.1-9.979c-7.5,12.203-16.388,23.017-23.796,35.311
		c3.696,0.653,5.516,3.185,9.211,3.838C136.45,121.624,151.464,113.354,163.506,102.11z M130.498,135.887
		c14.609-9.188,37.072-10.521,51.431-19.959c-5.461-4.262-10.372-9.075-16.888-12.282c-13.818,9.211-26.36,19.697-41.452,27.635
		C124.857,133.85,127.191,135.354,130.498,135.887z M134.336,144.33c18.48-6.34,41.283-8.357,59.108-15.353
		c-4.447-3.229-5.923-9.429-11.515-11.515c-14.993,9.061-37.414,10.691-52.199,19.959
		C132.012,138.978,133.555,141.273,134.336,144.33z M89.046,124.371c-15.354,1.881-24.505,16.654-25.332,30.706
		c3.851,0.013,7.084-0.593,9.979-1.535c4.562-24.815,54.126-21.737,51.432,5.374c-0.447-26.213-44.879-28.656-49.896-5.374
		c4.185,0.165,9.229-0.528,12.282,0.768c4.412-10.409,28.497-5.937,26.867,4.606c-1.278-9.168-20.122-12.996-25.332-4.606
		c14.729,2.671,27.743,7.056,46.825,5.374C138.069,135.295,111.2,121.659,89.046,124.371z M135.871,91.364
		c-5.026-1.626-9.858-3.447-15.353-4.606c-6.988,11.946-13.148,24.722-19.19,37.613c5.043-0.181,7.731,1.992,12.282,2.304
		C119.711,113.585,129.625,104.309,135.871,91.364z M66.784,138.957c3.131-2.648,0.306-6.787-0.768-9.979
		c-3.898-11.599-8.893-23.349-11.515-34.543c-15.416,6.601-28.882,19.207-35.311,32.241c18.511,1.973,31.542,13.474,46.058,16.888
		c-2.247-7.867-8.86-12.639-13.05-19.191c-4.239-6.629-7.391-14.212-12.282-20.726C50.391,113.898,53.733,131.281,66.784,138.957z
		 M360.788,96.736c-2.492,0.445-3.571-0.521-5.374-0.768c-0.693,2.89-2.2,4.965-2.303,8.445
		C357.698,103.883,358.907,99.974,360.788,96.736z M356.95,105.182c2.436-2.426,7.447-2.277,9.211-5.374
		c-1.621-0.683-2.269-2.337-4.605-2.304C360.864,100.418,356.175,103.352,356.95,105.182z M354.646,96.736
		c-1.621-1.691-2.269,0.986-4.605,0.768c0.843,3.095-2.5,5.922,0.768,6.91C352.735,102.502,352.721,98.648,354.646,96.736z
		 M492.821,109.02c-4.25-4.262-5.884-15.007-14.585-12.283c-2.429,4.566-0.735,11.418-2.303,16.121
		c-2.285,6.855-8.653,12.312-5.374,23.029c8.715,0.752,14.744,4.19,21.494,6.908C489.766,131.168,493.032,120.862,492.821,109.02z
		 M345.436,108.252c2.954,10.352,6.134,20.477,13.817,26.1c2.175-0.896,5.076-1.064,6.141-3.071
		c-6.713-5.825-11.431-13.646-11.515-26.099c-2.047,0-4.094,0-6.141,0c1.362-1.453,0.559-5.07,0.768-7.678
		c-1.675,0.885-4.965,0.153-5.374,2.304C344.98,102.436,349.909,105.827,345.436,108.252z M249.481,103.646
		c-9.819-1.454-20.864-10-28.402-2.303c0,2.814,0,5.63,0,8.444c3.424,5.531,10.813,7.098,15.353,11.514
		c1.522,7.896,0.108,18.875-1.536,26.1c5.085-0.287,8.882-1.863,14.585-1.535c4.807-7.6,0.978-20.715,9.979-23.797
		c3.25-1.111,7.139,0.86,9.979,0c7.808-2.362,9.286-12.194,10.747-19.958C270.737,102.191,260.78,105.319,249.481,103.646z
		 M355.415,106.717c0,1.023,0,2.047,0,3.07c1.75,0.215,2.885-0.186,3.071-1.535C357.349,107.852,356.55,107.115,355.415,106.717z
		 M360.788,108.252c2.339-1.267,7.695-3.533,5.373-6.909c-2.105,2.757-7.388,2.335-9.211,5.374
		C358.412,107.045,358.878,108.37,360.788,108.252z M429.875,115.928c0.076,7.618,7.643,3.061,11.515,3.838
		c7.834,1.574,10.157,8.088,12.282,16.121c1.914-0.646,4.113-1.006,6.909-0.768c-4.269-9.293-7.096-20.027-10.747-29.938
		C446.65,112.232,438.314,114.133,429.875,115.928z M532.738,112.09c-2.864,15.303-11.896,24.439-18.423,36.078
		c3.879,0.471,7.285,1.415,11.515,1.535c5.729-13.974,8.936-30.469,17.656-41.451c-0.172-0.596-0.021-1.515-0.768-1.535
		C540.802,109.919,536.685,110.919,532.738,112.09z M335.456,112.857c3.057,1.58,6.558,0.238,9.979,0
		c0.345-6.998-9.356-3.949-15.353-4.605c0.017,6.579,6.785,1.373,9.211,3.07C337.388,111.207,336.108,111.719,335.456,112.857z
		 M399.17,117.463c-0.376-2.422,1.383-2.711,0.768-5.373c-1.279,0-2.559,0-3.838,0C396.403,114.6,396.766,117.053,399.17,117.463z
		 M396.867,118.23c-0.378-2.469-2.375-7.304-5.374-4.605C393.759,114.686,394.601,117.17,396.867,118.23z M640.207,123.604
		c0.748,4.626,6.812,3.936,12.281,3.839c4.685,2.429,11.213,9.644,6.909,16.12c6.175-0.29,10.639,1.132,16.12,1.535
		c-1.477-12.084-6.989-20.133-9.979-30.705C653.643,111.096,648.941,121.222,640.207,123.604z M231.825,142.027
		c0.354,2.134-4.195,5.853-0.768,6.141c6.37-3.609,3.259-16.699,4.606-25.332c-1.771-2.578-4.994-3.706-7.676-5.373
		C230.619,124.299,232.573,131.812,231.825,142.027z M55.27,141.26c-11.151-5.229-25.313-12.318-37.614-13.817
		c-2.323,5.098-4.571,10.271-5.374,16.888c15.582,1.652,37.376,5.822,50.664,4.605C65.632,144.059,58.317,142.688,55.27,141.26z
		 M135.104,145.098c1.219,4.155,1.859,8.889,1.535,14.586c9.041,1.291,20.184-0.574,32.241-1.536
		c14.012-1.117,27.324,4.378,34.543-3.838c0.593-3.663-1.2-4.94-0.768-8.444c-18.198,3.31-45.189,8.535-65.249,9.979
		c20.544-5.044,45.653-5.522,64.481-12.282c-1.922-4.73-3.744-9.562-7.676-12.282C174.505,135.883,154.266,139.951,135.104,145.098z
		 M305.519,140.492c-12.338-0.615-27.553,3.432-37.614,5.373c16.278-0.802,39.178,1.45,49.896-0.768
		C317.429,139.437,309.104,140.671,305.519,140.492z M625.622,145.098c-10.053,2.741-12.227,13.361-17.656,20.727
		c1.791,0,3.583,0,5.374,0C617.051,158.533,621.893,152.372,625.622,145.098z M634.065,144.33
		c-12.885,0.932-12.948,14.687-19.958,21.494c4.871,0.246,10.885-0.65,14.585,0.768c4.199-7.572,8.632-14.908,13.05-22.262
		c-12.995-0.453-12.851,16.316-19.959,19.191C626.056,157.303,629.882,150.638,634.065,144.33z M630.228,166.592
		c1.849-0.314,1.668,1.402,3.838,0.768c5.958-6.836,10.429-15.16,15.353-23.029C636.775,145.505,636.39,158.938,630.228,166.592z
		 M10.747,145.865c-0.806,5.336-2.206,10.076-2.303,16.121c14.416-0.977,32.88-0.224,44.522-3.07
		c3.998-0.979,10.723-1.671,9.979-6.909C46.838,148.668,27.778,148.281,10.747,145.865z M601.825,163.521
		c2.291,0.012,2.61,1.996,4.606,2.303c3.875-7.127,8.27-13.736,13.05-19.959C608.273,146.429,606.706,156.632,601.825,163.521z
		 M671.68,161.219c3.051-3.107,7.552-13.145,6.908-13.818c-5.479,1.436-8.738,11.728-13.049,16.889
		C667.283,163.647,669.959,162.97,671.68,161.219z M685.497,148.168c-7.586-1.85-8.02,7.742-12.282,11.516
		C679.351,157.887,681.492,152.096,685.497,148.168z M679.355,156.612c6.561-1.116,11.416-3.937,16.121-6.909
		C687.098,146.523,682.564,152.233,679.355,156.612z M674.75,145.865c-6.456,0.014-8.116,6.883-10.747,10.747
		c-2.946,4.327-6.452,8.159-9.212,12.282C666.648,166.906,671.18,153.592,674.75,145.865z M595.684,159.684
		c1.77,0.789,2.476,2.642,5.374,2.303c2.516-5.93,6.957-9.932,9.979-15.354C601.797,146.861,600.517,155.049,595.684,159.684z
		 M591.078,158.147c6.812,1.886,8.392-7.239,12.282-10.747C596.332,148.049,594.692,154.086,591.078,158.147z M585.705,156.612
		c0.903,0.12,2.179-0.132,2.303,0.768c2.868-1.88,9.462-7.744,7.676-9.212C591.406,150.032,587.325,152.092,585.705,156.612z
		 M580.331,155.077c3.908,2.151,5.88-1.614,7.676-3.839C585.02,152.09,582.454,153.361,580.331,155.077z M406.846,122.836
		c3.401-0.181,6.342-0.822,6.909-3.838c-2.588-0.736-5.244,2.352-6.909,0c2.97,0.411,3.748-1.369,6.909-0.768
		C412.111,111.139,401.72,120.236,406.846,122.836z M309.356,130.513c0.907,0.372,1.74,0.819,2.303,1.536
		c-1.85,0.313-1.668-1.402-3.838-0.769c-0.86,2.418-0.069,1.738,0,4.606c4.339-0.604,6.971,0.933,8.444-1.535
		c-1.316-1.325-3.019,1.128-3.071-2.303c0.903-0.121,2.179,0.131,2.303-0.769c-2.081-0.478-1.911-3.207-4.606-3.07
		C310.708,129.306,309.628,129.505,309.356,130.513z M322.406,125.14c-2.825-0.974-3.769,3.825-2.303,4.605
		C320.838,128.178,321.671,126.707,322.406,125.14z"/>
	<path fill-rule="evenodd" clip-rule="evenodd" fill="#FFFFFF" d="M386.888,115.16c0.702,1.695,5.298,1.52,3.07,3.838
		c3.628-0.302,5.532,1.121,5.373,4.605c-3.941,0.615-5.83-0.822-8.443-1.535c0.816-1.742,4.825-0.291,6.908-0.768
		c-2.485-2.12-10.244,1.033-10.747-3.07c1.419-2.344,3.647,0.887,6.141,0c-0.787-1.771-5.14,0.021-4.606-3.07
		c5.031-3.144,7.726,0.23,10.747,3.07C392.73,120.029,390.426,114.975,386.888,115.16z"/>
	<path fill-rule="evenodd" clip-rule="evenodd" fill="#FFFFFF" d="M360.788,135.119c-1.645,3.481-7.37,9.511-11.515,13.049
		c-2.62-0.193-3.688-1.94-6.909-1.535C346.187,140.476,354.254,138.564,360.788,135.119z"/>
	<path fill-rule="evenodd" clip-rule="evenodd" fill="#FFFFFF" d="M168.88,50.679c9.352,0.883,17.05,3.42,28.402,2.303
		c4.373,3.469,1.364,14.128,3.07,19.958c0.928,3.171,5.809,4.064,3.838,5.374C187.365,75.341,161.174,70.64,168.88,50.679z"/>
	<path fill-rule="evenodd" clip-rule="evenodd" d="M1045.518,89.061c1.273-8.219,9.148-21.464,15.352-9.211
		c2.863-0.976,4.53-3.147,9.212-2.303c4.203,2.768,2.727,8.709,1.536,13.817c4.498-4.335,17.395-10.242,26.099-6.909
		c-0.591-5.295-4.492-7.278-4.605-13.05c3.363-2.412,5.101,2.258,6.909,3.838c10.506-11.174,23.105,4.196,19.958,20.726
		c3.37-4.306,4.37-10.981,9.979-13.049c4.974,2.447,7.072,7.769,13.049,9.212c2.161,6.919-1.047,13.321-2.303,19.191
		c12.097-0.07,16.49,7.562,25.332,10.746c0.332,11.707-17.359,3.149-19.958,14.586c-1.376,6.053,2.975,12.223,3.838,19.19
		c28.975-2.169,65.085-5.435,89.813,4.606c3.008,1.221,4.846,4.178,7.676,4.605c5.233,0.789,11.226-2.547,15.354-2.303
		c4.094,0,8.188,0,12.281,0c-16.046,1.61-38.498,3.465-49.896,12.281c16.649,2.318,34.957-0.354,50.664-1.535
		c-37.133,6.328-74.828,2.665-118.982,4.605c-14.158,0.623-27.703,3.736-41.453,4.606c-13.618,0.861-27.413-2.717-42.986-1.535
		c-16.461,1.249-34.539,5.075-52.199,3.07c0.672,2.413,7.914,4.868,11.514,6.909c-6.313,0.464-10.825-5.554-16.888-7.677
		c-8.588-3.007-20.636-3.002-32.24-6.142c-10.978-2.969-22.071-3.184-32.241-5.373c-3.243-0.697-6.024-2.667-9.211-3.07
		c-19.797-2.504-41.348-1.185-62.179,0c-5.109,0.291-10.346-0.557-15.353,0c-3.434,0.381-6.366,2.293-9.979,3.07
		c-10.071,2.168-21.407,2.443-32.24,5.373c-19.449,5.262-35.701,5.398-49.129,14.586c3.251-3.402,9.032-4.273,12.282-7.677
		c-24.384,2.845-46.131-4.551-72.157-3.07c-7.577,0.431-14.867,2.042-23.029,1.535c-13.688-0.851-27.452-3.97-41.452-4.606
		c-13.549-0.615-27.25,0.558-39.917,0c-13.538-0.595-31.398-3.949-42.987-0.768c-14.809,4.066-29.404,10.566-43.755,14.586
		c9.627-5.265,20.481-8.069,33.008-12.282c21.053-7.081,63.179-3.562,90.581-2.304c20.955,0.964,37.606,5.148,60.643,3.839
		c4.266-0.243,8.271-1.386,12.282-1.535c23.146-0.86,48.915,9.29,73.692,1.535c-0.504-1.03-1.641-1.43-3.07-1.535
		c1.156-2.081,3.312,1.222,4.606,1.535c30.933-4.073,51.591-11.017,84.439-13.05c21.106-1.307,42.823-2.25,63.714,0
		c11.603,1.25,25.325,4.769,39.916,8.443c13.381,3.371,26.489,6.154,34.544,2.304c-0.505,1.03-1.641,1.43-3.07,1.535
		c8.579,4.567,26.127,4.059,39.149,3.07c11.74-0.891,22.129-4.14,33.775-3.838c22.568,0.585,50.374,0.953,72.926-2.304
		c-2.25-3.379-6.777-4.481-9.979-6.908c-43.709,3.117-90.185,3.467-132.033,8.444c10.237-5.245,29.582-2.646,45.29-3.839
		c28.024-2.125,56.436-3.822,83.673-5.373c-34.377-20.381-77.81-31.706-126.659-37.613c-7.332-11.817-26.326-18.042-26.1-39.917
		c2.789-1.937,5.035-0.866,8.443,0c2.045-1.282-0.426-7.079,1.535-8.444c12.655-1.652,14.958,7.048,18.424,14.585
		c1.73-7.597-9.272-28.555,0.768-30.706c5.734-1.229,6.311,4.44,9.979,6.909c1.994-5.671,10.356-9.67,15.354-3.838
		C1048.476,76.394,1046.396,83.268,1045.518,89.061z M1116.906,154.31c-1.937-9.478-5.197-20.323-4.605-31.474
		c0.853-16.023,16.381-46.674-6.141-50.663c-3.252,0.074-2.513,4.14-5.373,4.605c-3.727,0.145-2.415-4.75-6.142-4.605
		c13.549,22.705-6.194,43.681-1.535,73.692C1102.172,147.551,1109.554,150.916,1116.906,154.31z M1019.418,70.638
		c-0.367,20.533,5.458,38.319,13.816,50.663c3.268,4.826,5.756,13.535,12.283,13.051c-3.154-20.863-3.643-41.583,0.768-61.411
		c-4.484-7.896-11.42-1.075-14.586,3.07C1027.65,74.23,1025.371,65.817,1019.418,70.638z M1053.961,76.011
		c-11.966,12.843-10.065,38.504-6.141,58.341c7.983,1.482,15.482,3.451,23.028,5.373c5.284-13.139-1.419-25.651-2.303-37.614
		c-0.628-8.507,4.822-15.491,1.535-23.029c-4.105-2.185-5.672,2.396-9.979,2.303C1057.287,80.362,1058.469,75.341,1053.961,76.011z
		 M1024.791,109.787c-5.098-9.989-8.559-27.036-20.727-24.564c-0.77-0.002-0.913,0.622-1.535,0.768
		c-0.682,3.253,2.016,5.436,0,7.676c-3.658,0.698-5.734-2.917-8.443-0.768c-0.77,19.21,16.844,26.642,26.1,38.381
		c5.937,0.716,11.645,1.661,17.655,2.304C1036.153,125.859,1029.727,119.458,1024.791,109.787z M1070.081,97.504
		c-2.358,11.527,9.722,28.994,2.304,42.988c5.991,1.939,12.705,3.158,19.19,4.605c-0.334-7.547-1.255-15.361,0-24.564
		c1.669-12.246,10.647-24.088,4.605-35.311C1085.15,84.683,1072.229,87.009,1070.081,97.504z M1119.21,155.077
		c4.097,1.276,7.706,3.04,11.515,4.606c-8.278-26.571,12.48-42.269,10.746-66.785c-5.801-0.596-7.246-5.548-11.514-7.676
		C1113.935,98.517,1110.478,131.661,1119.21,155.077z M1157.592,120.533c-2.648-4.604-10.025-8.277-16.889-6.141
		c-5.44,12.104-14.797,29.055-7.676,44.523c5.492-0.906,11.879-0.916,15.353-3.839c-4.849-10.386-6.151-24.122,5.374-27.635
		c4.388-1.338,10.77,2.423,11.514-4.606C1163.752,121.025,1159.68,121.771,1157.592,120.533z M1187.529,176.57
		c-5.092-6.937-8.125-20.017-16.889-20.726C1177.407,161.617,1176.368,175.194,1187.529,176.57z M1181.389,175.035
		c-5.162-5.841-7.865-14.14-13.051-19.958c-1.438,1.121-5.087,0.03-6.141,1.535c5.81,5.449,8.623,13.894,13.817,19.958
		C1177.758,176.012,1182.004,177.953,1181.389,175.035z M1183.691,155.077c4.044,7.214,8.803,13.714,12.281,21.493
		c6.285-0.271,8.803,0.051,13.818-0.768c-4.785-7.5-7.348-21.307-18.424-19.958c4.727,5.765,8.457,12.526,12.282,19.19
		C1195.963,169.416,1196.743,155.33,1183.691,155.077z M1211.326,175.803c1.791,0,3.582,0,5.373,0
		c-4.828-7.454-7.206-17.357-16.888-19.958C1203.189,162.957,1208.277,168.361,1211.326,175.803z M1176.015,155.077
		c6.366,6.938,7.073,19.538,18.423,21.493C1188.928,168.775,1188.28,156.117,1176.015,155.077z M1173.712,176.57
		c-3.893-5.578-7.265-18.32-16.888-20.726C1160.369,161.816,1163.904,174.315,1173.712,176.57z M1145.31,158.916
		c5.345,4.127,7.124,15.898,14.585,15.352C1154.48,170.471,1152.314,156.101,1145.31,158.916z M1139.936,159.684
		c4.463,2.453,6.957,10.943,12.282,9.979C1147.656,166.973,1146.679,155.454,1139.936,159.684z M1133.027,160.451
		c2.239,3.656,9.121,6.729,13.05,6.141C1142.198,164.464,1139.87,157.1,1133.027,160.451z M1168.338,175.803
		c-7.098-5.184-7.53-17.033-17.655-19.19C1153.883,162.162,1157.365,178.037,1168.338,175.803z M1219.77,175.803
		c0.65-1.141,2.472-1.11,3.838-1.535c-4.543-6.462-7.436-18.658-17.655-16.888C1211.871,162.208,1214.016,170.811,1219.77,175.803z
		 M1225.911,172.732c1.528-0.774,3.278-1.326,3.838-3.07c-5.152-3.297-7.091-13.885-15.353-11.515
		C1218.974,162.27,1220.842,169.103,1225.911,172.732z M1234.355,168.895c-3.014-4.152-5.585-8.744-10.748-10.747
		c-0.596,0.173-1.514,0.021-1.535,0.769C1226.6,161.543,1227.475,171.086,1234.355,168.895z M1237.426,168.127
		c0.129-0.895,1.213-0.834,2.303-0.768c-1.616-4.28-7.085-8.766-11.515-7.676C1232.189,161.592,1233.172,166.495,1237.426,168.127z
		 M1245.102,165.057c-2.987,0.139-5.553-4.126-7.676-2.303C1239.6,164.064,1242.328,168.895,1245.102,165.057z"/>
	<path fill-rule="evenodd" clip-rule="evenodd" fill="#FFFFFF" d="M206.494,79.082c1.66,0.408,9.457,1.275,11.514,3.838
		c0.539,2.842-3.281,1.324-3.838,3.071C211.541,83.757,210.175,80.262,206.494,79.082z"/>
	<path fill-rule="evenodd" clip-rule="evenodd" fill="#FFFFFF" d="M344.668,105.949c-1.607-2.232-4.629-3.049-6.909-4.606
		c3.646-4.343,6.55,1.731,8.444,3.839c-2.77,4.359-7.985-0.729-13.05-0.768C336.177,97.978,339.942,105.447,344.668,105.949z"/>
	<path fill-rule="evenodd" clip-rule="evenodd" fill="#FFFFFF" d="M361.556,97.504c2.337-0.033,2.985,1.621,4.605,2.304
		c-1.765,3.097-6.775,2.948-9.211,5.374C356.175,103.352,360.864,100.418,361.556,97.504z"/>
	<path fill-rule="evenodd" clip-rule="evenodd" fill="#FFFFFF" d="M343.132,99.808c0.408-2.15,3.699-1.419,5.374-2.304
		c-0.208,2.607,0.594,6.225-0.768,7.678c2.047,0,4.094,0,6.141,0c0.084,12.453,4.802,20.273,11.515,26.099
		c-1.064,2.007-3.966,2.175-6.141,3.071c-7.683-5.623-10.863-15.748-13.817-26.1C349.909,105.827,344.98,102.436,343.132,99.808z"/>
	<path fill-rule="evenodd" clip-rule="evenodd" fill="#FFFFFF" d="M409.917,113.625c-10.455,4.025-9.111,24.234-0.768,29.938
		c-0.211,1.58-2.86,0.723-3.071,2.303c-8.278-4.003-9.999-14.565-9.979-26.867c7.048,1.127,1.841-6.73,8.444-6.908
		c-0.097,3.229-2.974,3.68-3.07,6.908c2.594-1.244,2.803-4.873,4.605-6.908C407.54,112.419,408.007,113.743,409.917,113.625z"/>
	<path fill-rule="evenodd" clip-rule="evenodd" fill="#FFFFFF" d="M321.639,133.584c0.769,4.623,2.473,9.7,0.768,14.584
		c-1.85,0.314-1.668-1.401-3.838-0.768c-0.037-9.713-1.162-15.873-6.142-19.19c3.186-2.131,5.589,3.087,8.444,3.839
		c3.928-2.33,2.22-5.531,6.909-6.909c-0.283,1.306,0.599,1.448,1.535,1.535C328.009,130.23,325.747,132.83,321.639,133.584z"/>
	<path fill-rule="evenodd" clip-rule="evenodd" d="M535.809,191.924c19.21-13.838,45.175-9.979,78.298-9.979
		c15.06,0,31.649-0.894,44.523,0.768c3.909,0.505,7.483,2.984,11.515,3.839c30.593,6.479,71.201-4.901,99.024,4.605
		c-14.251-1.454-37.437-3.984-59.108-3.07c-13.244,0.558-26.404,2.127-39.916-0.768c-4.962-1.064-8.842-3.312-15.354-3.839
		c-13.266-1.073-30.227-0.407-45.29-0.768c-14.428-0.346-29.658-2.627-37.614-1.535
		C559.373,182.895,546.597,189.434,535.809,191.924z"/>
	<path fill-rule="evenodd" clip-rule="evenodd" d="M1245.869,184.247c-14.234-4.144-29.014-2.072-51.432-1.535
		c-16.896,0.405-36.766-1.247-50.664,1.535c-3.038,0.608-5.272,2.328-8.443,3.071c-29.34,6.871-72.182-4.779-100.561,4.605
		c29.009-10.817,66.874,0.938,98.258-5.373c3.868-0.779,7.719-3.293,11.515-3.839c13.077-1.88,29.587-0.768,45.29-0.768
		C1211.096,181.944,1231.502,177.001,1245.869,184.247z"/>
	<path fill-rule="evenodd" clip-rule="evenodd" d="M482.842,191.924c10.729-2.577,21.151-5.461,32.24-7.677
		c4,0.72-0.377,0.653-0.768,0.768C506.362,187.355,493.277,190.591,482.842,191.924z"/>
	<path fill-rule="evenodd" clip-rule="evenodd" d="M1276.574,188.854c-2.52,3.195-11.623,1.309-14.584,0
		c-5.904,0.018-10.646-1.126-14.586-3.07c1.072-1.148,9.496,3.164,15.354,2.303c1.756,0.802,4.63,0.486,6.141,1.535
		C1271.498,189.405,1273.307,188.399,1276.574,188.854z"/>
	<path fill-rule="evenodd" clip-rule="evenodd" d="M553.464,191.924c23.97-11.316,81.626-6.505,110.539-0.768
		C634.253,187.689,582.115,182.598,553.464,191.924z"/>
	<path fill-rule="evenodd" clip-rule="evenodd" d="M1249.707,191.156c-26.738-7.176-76.803-4.498-108.236,0
		c-1.595,0.858-1.626,0.827-0.768-0.768C1170.706,185.893,1223.199,180.998,1249.707,191.156z"/>
	<path fill-rule="evenodd" clip-rule="evenodd" d="M104.398,191.924c13.301-3.494,35.081-7.688,47.593-0.768
		C140.124,186.575,119.292,190.379,104.398,191.924z"/>
	<path fill-rule="evenodd" clip-rule="evenodd" fill="#FFFFFF" d="M339.294,111.322c-2.427-1.697-9.194,3.509-9.211-3.07
		c5.997,0.656,15.698-2.393,15.353,4.605c-3.421,0.238-6.922,1.58-9.979,0C336.108,111.719,337.388,111.207,339.294,111.322z"/>
	<path fill-rule="evenodd" clip-rule="evenodd" fill="#FFFFFF" d="M310.892,128.21c2.695-0.137,2.525,2.593,4.606,3.07
		c-0.124,0.899-1.4,0.647-2.303,0.769c0.052,3.431,1.755,0.978,3.071,2.303c-1.473,2.468-4.105,0.932-8.444,1.535
		c-0.069-2.868-0.86-2.188,0-4.606c2.169-0.634,1.988,1.082,3.838,0.769c-0.562-0.717-1.396-1.164-2.303-1.536
		C309.628,129.505,310.708,129.306,310.892,128.21z"/>
	<path fill-rule="evenodd" clip-rule="evenodd" d="M616.274,113.644c-15.291,2.709-31.709-7.514-35.49-20.505
		c-3.745-12.876,7.746-30.591,21.294-33.122c14.809-2.768,36.533,4.607,39.433,18.139
		C645.892,98.605,630.497,111.124,616.274,113.644z M636.778,71.845c-6.172-7.743-22.528-12.765-34.7-10.252
		c-10.095,2.084-23.944,14.599-19.716,31.546c2.853,11.435,21.448,21.38,35.489,18.927
		C635.09,107.778,648.416,86.447,636.778,71.845z"/>
	<path fill-rule="evenodd" clip-rule="evenodd" d="M608.388,101.814c-5.502,4.111-11.47-4.058-14.196-7.887
		c-0.716-11.497,3.713-22.261,13.408-23.659c7.333-1.059,20.71,5.537,22.081,12.619c2.116,10.92-7.889,21.789-21.292,21.292
		c8.454-1.365,21.751-8.002,19.715-20.504c-1.188-7.294-13.46-12.593-21.293-11.041C593.563,75.259,590.268,101.822,608.388,101.814
		z"/>
	<path fill-rule="evenodd" clip-rule="evenodd" d="M609.965,93.928c17.164-4.72-5.883-23.609-4.732-3.153
		c0.717,1.385,2.763,1.441,3.943,2.364c-1.296,2.248-4.279-0.377-5.521-0.788c-2.257-10.004,5.196-15.578,12.619-11.041
		C617.862,86.534,618.155,95.989,609.965,93.928z"/>
	<path fill-rule="evenodd" clip-rule="evenodd" fill="#FFFFFF" d="M1205.298,123.892c-10.614,1.854-24.673-5.665-26.829-14.309
		c-3.196-12.812,7.273-22.272,14.904-23.849c9.202-1.899,21.567,1.896,26.233,7.751
		C1228.404,104.523,1218.33,120.65,1205.298,123.892z M1196.951,94.082c5.921-1.174,15.199,2.833,16.097,8.347
		c1.539,9.452-8.513,14.469-14.904,15.501c10.133,0.376,17.696-7.841,16.097-16.097c-1.036-5.354-11.149-10.34-16.693-9.54
		c-7.328,1.057-10.677,9.194-10.136,17.887c2.062,2.895,6.573,9.07,10.732,5.962C1184.445,116.146,1186.937,96.066,1196.951,94.082z
		 M1204.105,100.641c-5.611-3.431-11.246,0.783-9.539,8.347c0.938,0.311,3.193,2.295,4.173,0.596
		c-0.892-0.698-2.438-0.74-2.98-1.787c-0.87-15.465,16.553-1.186,3.577,2.384C1205.527,111.738,1205.307,104.589,1204.105,100.641z"
		/>
	<path fill-rule="evenodd" clip-rule="evenodd" d="M1206.105,127.084c-11.56,2.048-23.972-5.68-26.83-15.501
		c-2.831-9.734,5.856-23.126,16.098-25.04c11.195-2.093,27.619,3.482,29.811,13.713
		C1228.496,115.716,1216.857,125.179,1206.105,127.084z M1221.606,95.485c-4.666-5.854-17.031-9.65-26.233-7.751
		c-7.631,1.576-18.101,11.036-14.904,23.849c2.156,8.644,16.215,16.163,26.829,14.309
		C1220.33,122.65,1230.404,106.523,1221.606,95.485z"/>
	<path fill-rule="evenodd" clip-rule="evenodd" d="M1200.144,118.142c-4.159,3.108-8.671-3.067-10.732-5.962
		c-0.541-8.692,2.808-16.83,10.136-17.887c5.544-0.8,15.657,4.187,16.693,9.54c1.6,8.256-5.964,16.473-16.097,16.097
		c6.392-1.032,16.443-6.049,14.904-15.501c-0.897-5.514-10.176-9.521-16.097-8.347
		C1188.937,98.066,1186.445,118.146,1200.144,118.142z"/>
	<path fill-rule="evenodd" clip-rule="evenodd" d="M1201.336,112.18c12.976-3.569-4.447-17.849-3.577-2.384
		c0.542,1.047,2.089,1.089,2.98,1.787c-0.979,1.699-3.234-0.285-4.173-0.596c-1.707-7.563,3.928-11.777,9.539-8.347
		C1207.307,106.589,1207.527,113.738,1201.336,112.18z"/>
</g>
<g>
</g>
<g>
</g>
<g>
</g>
<g>
</g>
<g>
</g>
<g>
</g>
<g>
</g>
<g>
</g>
<g>
</g>
<g>
</g>
<g>
</g>
<g>
</g>
<g>
</g>
<g>
</g>
<g>
</g>
<g>
</g>
<g>
</g>
<g>
</g>
</svg>
