<?xml version="1.0" encoding="utf-8"?>
<!-- Generator: Adobe Illustrator 16.0.0, SVG Export Plug-In . SVG Version: 6.00 Build 0)  -->
<!DOCTYPE svg PUBLIC "-//W3C//DTD SVG 1.1//EN" "http://www.w3.org/Graphics/SVG/1.1/DTD/svg11.dtd">
<svg version="1.1" id="Layer_1" xmlns="http://www.w3.org/2000/svg" xmlns:xlink="http://www.w3.org/1999/xlink" x="0px" y="0px"
	 width="369.912px" height="219.469px" viewBox="0 0 369.912 219.469" enable-background="new 0 0 369.912 219.469"
	 xml:space="preserve">
<g>
	<path fill-rule="evenodd" clip-rule="evenodd" d="M11.091,11.249c-0.175,0.021-0.284-0.025-0.379-0.085
		c-0.013-0.155,0.008-0.274,0.042-0.38C11.14,10.516,11.366,10.989,11.091,11.249z"/>
	<path fill-rule="evenodd" clip-rule="evenodd" d="M9.955,9.395c0.443,0.132,0.578,0.382,0.842,0.505
		c0.126,0.059,0.293,0.026,0.465,0.127c0.65,0.377,1.162,1.47,0.968,2.231c-0.053,0.21-0.233,0.427-0.379,0.674
		c-0.135,0.229-0.243,0.487-0.379,0.632c-0.939,0.996-3.158,1.022-3.747-0.294c-0.06-0.13-0.037-0.305-0.086-0.463
		c-0.067-0.22-0.229-0.379-0.254-0.59c-0.07-0.633,0.286-1.11,0.507-1.558c-1.021-0.79-2.42-1.695-2.906-3.243
		C4.751,6.672,4.475,5.46,5.153,5.141c0.732-0.344,1.832,0.18,2.231,0.547c0.519,0.475,0.626,1.118,0.844,1.77
		C8.202,6.501,8.216,4.63,9.196,4.382c0.363-0.09,0.77,0.207,0.927,0.505C10.664,5.911,10.379,8.451,9.955,9.395z M9.997,4.972
		c-0.08-0.155-0.465-0.525-0.674-0.464c-1.525,0.46-0.844,4.022-0.632,5.519c0.275-0.118,0.515-0.636,1.096-0.59
		C10.191,8.543,10.507,5.956,9.997,4.972z M6.038,5.225C5.025,5.086,4.805,5.594,4.901,6.489c0.214,2.005,1.803,3.115,3.115,4.042
		c0.188-0.122,0.417-0.201,0.548-0.378C8.183,8.213,8.136,5.512,6.038,5.225z M9.07,9.942c0.179-0.033,0.267-0.154,0.506-0.126
		C9.593,9.735,9.667,9.71,9.66,9.604C9.383,9.637,9.2,9.764,9.07,9.942z M9.787,9.815c0.263-0.063,0.525,0.218,0.673,0
		c-0.192-0.074-0.329-0.203-0.59-0.211C9.852,9.686,9.779,9.711,9.787,9.815z M11.513,10.447c-0.126-0.071-0.305-0.312-0.422-0.252
		C11.251,10.232,11.412,10.491,11.513,10.447z M10.881,10.531c-0.256,0.166-0.491,0.352-0.59,0.674
		c0.191,0.229,0.812,0.289,1.137,0.127C11.398,10.914,11.209,10.652,10.881,10.531z M8.986,11.501
		c0.05-0.107,0.259-0.274,0.169-0.379C9.063,11.172,8.92,11.566,8.986,11.501z M9.997,11.922c0.217,0.074,0.257-0.247,0.168-0.339
		C10.103,11.691,10.016,11.774,9.997,11.922z M8.776,12.173c-0.026-0.1,0.052-0.305-0.043-0.336
		C8.691,11.947,8.659,12.119,8.776,12.173z M9.702,12.68c-0.199-0.096-0.472-0.343-0.632-0.338
		C9.258,12.448,9.42,12.807,9.702,12.68z M10.082,12.595c-0.411,0.025,0.223,0.093,0.21-0.083
		C10.187,12.504,10.161,12.577,10.082,12.595z M9.913,14.111c-0.848-0.004-1.569-0.525-2.063-1.053
		C8.143,13.804,8.838,14.146,9.913,14.111z M10.796,13.816c0.226-0.181,0.485-0.329,0.632-0.59
		C11.153,13.333,10.888,13.669,10.796,13.816z M9.745,13.858c0.438,0.111,1.063-0.165,1.01-0.378
		C10.39,13.58,10.065,13.714,9.745,13.858z"/>
</g>
<g>
	<path fill-rule="evenodd" clip-rule="evenodd" d="M174.082,108.14c-0.175,0.021-0.284-0.024-0.379-0.084
		c-0.013-0.155,0.008-0.275,0.042-0.381C174.13,107.407,174.356,107.88,174.082,108.14z"/>
	<path fill-rule="evenodd" clip-rule="evenodd" d="M172.945,106.286c0.443,0.133,0.578,0.383,0.842,0.506
		c0.126,0.058,0.293,0.026,0.465,0.127c0.65,0.376,1.162,1.469,0.968,2.23c-0.053,0.21-0.233,0.427-0.379,0.674
		c-0.135,0.229-0.243,0.487-0.379,0.633c-0.939,0.995-3.158,1.021-3.748-0.295c-0.059-0.131-0.036-0.305-0.085-0.463
		c-0.067-0.22-0.229-0.379-0.254-0.59c-0.07-0.635,0.286-1.111,0.507-1.559c-1.021-0.789-2.42-1.694-2.906-3.243
		c-0.233-0.743-0.51-1.956,0.168-2.274c0.732-0.342,1.832,0.18,2.231,0.548c0.519,0.475,0.626,1.119,0.844,1.769
		c-0.026-0.958-0.012-2.827,0.968-3.075c0.363-0.092,0.77,0.208,0.927,0.505C173.654,102.803,173.37,105.343,172.945,106.286z
		 M172.987,101.863c-0.08-0.155-0.465-0.525-0.674-0.464c-1.525,0.46-0.844,4.021-0.632,5.52c0.275-0.12,0.515-0.636,1.096-0.591
		C173.181,105.435,173.498,102.847,172.987,101.863z M169.028,102.116c-1.013-0.139-1.232,0.369-1.137,1.264
		c0.214,2.005,1.803,3.115,3.115,4.042c0.188-0.122,0.417-0.201,0.548-0.377C171.173,105.106,171.126,102.403,169.028,102.116z
		 M172.06,106.833c0.179-0.032,0.267-0.154,0.506-0.125c0.018-0.081,0.091-0.107,0.084-0.212
		C172.374,106.529,172.19,106.655,172.06,106.833z M172.777,106.708c0.263-0.064,0.525,0.216,0.673,0
		c-0.192-0.076-0.329-0.204-0.59-0.212C172.842,106.577,172.769,106.603,172.777,106.708z M174.503,107.338
		c-0.126-0.072-0.305-0.312-0.422-0.251C174.242,107.124,174.402,107.381,174.503,107.338z M173.872,107.422
		c-0.256,0.166-0.491,0.353-0.59,0.674c0.192,0.23,0.812,0.289,1.137,0.127C174.388,107.805,174.2,107.544,173.872,107.422z
		 M171.976,108.392c0.05-0.106,0.259-0.273,0.169-0.379C172.053,108.063,171.911,108.458,171.976,108.392z M172.987,108.813
		c0.217,0.074,0.257-0.246,0.168-0.339C173.093,108.583,173.006,108.665,172.987,108.813z M171.766,109.065
		c-0.026-0.102,0.052-0.306-0.042-0.337C171.681,108.839,171.649,109.011,171.766,109.065z M172.692,109.571
		c-0.199-0.097-0.472-0.343-0.632-0.338C172.249,109.339,172.411,109.698,172.692,109.571z M173.072,109.486
		c-0.411,0.025,0.223,0.094,0.21-0.083C173.177,109.396,173.151,109.469,173.072,109.486z M172.903,111.003
		c-0.848-0.004-1.569-0.525-2.064-1.053C171.133,110.695,171.829,111.038,172.903,111.003z M173.787,110.708
		c0.226-0.181,0.485-0.329,0.632-0.59C174.143,110.224,173.878,110.561,173.787,110.708z M172.735,110.751
		c0.438,0.11,1.063-0.166,1.01-0.379C173.38,110.472,173.055,110.606,172.735,110.751z"/>
</g>
<g>
	<path fill-rule="evenodd" clip-rule="evenodd" d="M365.04,82.115c-0.139,0.017-0.226-0.019-0.3-0.068
		c-0.011-0.124,0.006-0.219,0.032-0.301C365.08,81.533,365.258,81.908,365.04,82.115z"/>
	<path fill-rule="evenodd" clip-rule="evenodd" d="M364.136,80.641c0.353,0.104,0.46,0.303,0.669,0.401
		c0.101,0.046,0.233,0.021,0.37,0.101c0.517,0.3,0.924,1.17,0.77,1.774c-0.042,0.168-0.186,0.339-0.302,0.536
		c-0.106,0.184-0.193,0.388-0.3,0.503c-0.748,0.793-2.513,0.812-2.981-0.234c-0.047-0.103-0.029-0.242-0.068-0.368
		c-0.053-0.174-0.182-0.301-0.201-0.469c-0.057-0.504,0.228-0.883,0.401-1.239c-0.811-0.628-1.923-1.349-2.31-2.58
		c-0.186-0.591-0.405-1.556,0.133-1.809c0.583-0.273,1.456,0.143,1.775,0.436c0.412,0.377,0.497,0.89,0.671,1.406
		c-0.021-0.761-0.01-2.248,0.77-2.445c0.289-0.071,0.611,0.165,0.738,0.402C364.7,77.869,364.474,79.89,364.136,80.641z
		 M364.169,77.124c-0.062-0.123-0.37-0.418-0.536-0.369c-1.213,0.365-0.671,3.198-0.502,4.388c0.218-0.094,0.409-0.505,0.871-0.469
		C364.324,79.963,364.576,77.905,364.169,77.124z M361.021,77.324c-0.807-0.111-0.98,0.293-0.904,1.005
		c0.17,1.594,1.434,2.477,2.479,3.215c0.148-0.098,0.331-0.16,0.435-0.301C362.727,79.701,362.69,77.553,361.021,77.324z
		 M363.431,81.076c0.144-0.027,0.213-0.123,0.403-0.102c0.015-0.062,0.073-0.084,0.067-0.167
		C363.683,80.833,363.536,80.934,363.431,81.076z M364.002,80.975c0.21-0.05,0.418,0.174,0.535,0
		c-0.153-0.058-0.261-0.161-0.469-0.167C364.054,80.872,363.997,80.892,364.002,80.975z M365.375,81.478
		c-0.101-0.057-0.242-0.249-0.336-0.2C365.167,81.307,365.294,81.512,365.375,81.478z M364.873,81.545
		c-0.203,0.131-0.391,0.279-0.469,0.535c0.152,0.183,0.646,0.229,0.904,0.101C365.285,81.848,365.134,81.641,364.873,81.545z
		 M363.366,82.314c0.039-0.084,0.206-0.217,0.134-0.301C363.427,82.055,363.314,82.367,363.366,82.314z M364.169,82.65
		c0.172,0.06,0.204-0.196,0.134-0.27C364.254,82.466,364.185,82.532,364.169,82.65z M363.199,82.852
		c-0.021-0.081,0.041-0.244-0.034-0.268C363.131,82.67,363.105,82.807,363.199,82.852z M363.935,83.253
		c-0.159-0.077-0.375-0.272-0.504-0.269C363.583,83.068,363.711,83.354,363.935,83.253z M364.237,83.186
		c-0.327,0.02,0.177,0.074,0.167-0.066C364.321,83.113,364.3,83.171,364.237,83.186z M364.102,84.393
		c-0.674-0.004-1.247-0.419-1.642-0.838C362.696,84.146,363.249,84.419,364.102,84.393z M364.805,84.159
		c0.181-0.146,0.386-0.263,0.503-0.471C365.088,83.772,364.878,84.042,364.805,84.159z M363.969,84.19
		c0.349,0.088,0.847-0.132,0.803-0.301C364.482,83.968,364.224,84.076,363.969,84.19z"/>
</g>
<g>
	<path fill-rule="evenodd" clip-rule="evenodd" d="M85.516,208.087c-0.139,0.018-0.226-0.019-0.3-0.067
		c-0.011-0.123,0.006-0.219,0.032-0.302C85.556,207.505,85.735,207.881,85.516,208.087z"/>
	<path fill-rule="evenodd" clip-rule="evenodd" d="M84.613,206.613c0.353,0.104,0.46,0.304,0.669,0.401
		c0.101,0.047,0.233,0.021,0.37,0.101c0.517,0.3,0.924,1.17,0.77,1.774c-0.042,0.168-0.186,0.34-0.302,0.536
		c-0.106,0.185-0.193,0.389-0.3,0.503c-0.748,0.793-2.513,0.812-2.981-0.234c-0.047-0.104-0.029-0.242-0.068-0.367
		c-0.053-0.175-0.182-0.301-0.201-0.469c-0.057-0.506,0.228-0.884,0.401-1.24c-0.812-0.627-1.923-1.348-2.31-2.578
		c-0.186-0.592-0.405-1.557,0.133-1.81c0.583-0.272,1.456,0.143,1.775,0.437c0.412,0.376,0.497,0.889,0.671,1.405
		c-0.021-0.762-0.01-2.248,0.77-2.445c0.289-0.071,0.611,0.165,0.738,0.402C85.176,203.841,84.951,205.862,84.613,206.613z
		 M84.646,203.096c-0.062-0.122-0.37-0.418-0.536-0.369c-1.213,0.364-0.671,3.198-0.502,4.389c0.218-0.093,0.409-0.505,0.871-0.469
		C84.8,205.936,85.052,203.877,84.646,203.096z M81.498,203.297c-0.807-0.111-0.98,0.292-0.904,1.005
		c0.17,1.595,1.434,2.478,2.479,3.216c0.148-0.098,0.331-0.159,0.435-0.302C83.204,205.673,83.167,203.526,81.498,203.297z
		 M83.908,207.048c0.144-0.025,0.213-0.122,0.403-0.101c0.015-0.062,0.073-0.084,0.067-0.167
		C84.159,206.806,84.012,206.907,83.908,207.048z M84.479,206.947c0.21-0.05,0.418,0.175,0.535,0
		c-0.153-0.058-0.261-0.161-0.469-0.167C84.531,206.845,84.474,206.864,84.479,206.947z M85.852,207.45
		c-0.101-0.057-0.242-0.249-0.336-0.199C85.644,207.279,85.771,207.484,85.852,207.45z M85.349,207.518
		c-0.203,0.131-0.391,0.279-0.469,0.535c0.152,0.183,0.646,0.229,0.904,0.101C85.761,207.821,85.611,207.613,85.349,207.518z
		 M83.842,208.288c0.039-0.085,0.206-0.217,0.134-0.302C83.904,208.027,83.791,208.339,83.842,208.288z M84.646,208.624
		c0.172,0.058,0.204-0.197,0.134-0.27C84.731,208.439,84.662,208.505,84.646,208.624z M83.675,208.824
		c-0.021-0.081,0.041-0.244-0.034-0.269C83.608,208.643,83.582,208.779,83.675,208.824z M84.412,209.226
		c-0.159-0.077-0.375-0.272-0.504-0.268C84.059,209.042,84.188,209.327,84.412,209.226z M84.713,209.159
		c-0.327,0.019,0.177,0.073,0.167-0.068C84.797,209.086,84.777,209.144,84.713,209.159z M84.579,210.365
		c-0.674-0.004-1.247-0.419-1.642-0.838C83.172,210.119,83.725,210.392,84.579,210.365z M85.282,210.131
		c0.181-0.146,0.386-0.263,0.503-0.471C85.565,209.744,85.355,210.014,85.282,210.131z M84.446,210.163
		c0.349,0.088,0.847-0.132,0.803-0.301C84.958,209.94,84.701,210.048,84.446,210.163z"/>
</g>
<g>
	<path fill-rule="evenodd" clip-rule="evenodd" d="M324.073,193.635c-0.174,0.021-0.283-0.024-0.379-0.085
		c-0.011-0.154,0.008-0.274,0.043-0.379C324.122,192.902,324.349,193.376,324.073,193.635z"/>
	<path fill-rule="evenodd" clip-rule="evenodd" d="M322.936,191.781c0.443,0.132,0.579,0.382,0.842,0.505
		c0.127,0.059,0.293,0.026,0.465,0.127c0.65,0.377,1.162,1.469,0.969,2.231c-0.053,0.21-0.234,0.427-0.379,0.674
		c-0.135,0.229-0.244,0.487-0.379,0.632c-0.938,0.996-3.158,1.023-3.748-0.294c-0.059-0.13-0.037-0.305-0.086-0.463
		c-0.066-0.22-0.229-0.379-0.254-0.589c-0.07-0.636,0.287-1.112,0.508-1.56c-1.021-0.79-2.42-1.694-2.906-3.243
		c-0.234-0.743-0.51-1.956,0.168-2.274c0.732-0.343,1.832,0.181,2.23,0.548c0.52,0.475,0.627,1.118,0.844,1.769
		c-0.025-0.956-0.012-2.827,0.969-3.074c0.363-0.092,0.77,0.207,0.926,0.505C323.645,188.298,323.362,190.839,322.936,191.781z
		 M322.979,187.358c-0.08-0.155-0.464-0.525-0.674-0.464c-1.525,0.46-0.844,4.022-0.633,5.519c0.275-0.118,0.516-0.636,1.096-0.59
		C323.172,190.93,323.489,188.341,322.979,187.358z M319.02,187.611c-1.014-0.138-1.232,0.369-1.137,1.265
		c0.213,2.005,1.803,3.115,3.115,4.043c0.188-0.123,0.416-0.203,0.547-0.379C321.165,190.601,321.118,187.898,319.02,187.611z
		 M322.051,192.328c0.18-0.032,0.268-0.155,0.506-0.126c0.018-0.08,0.092-0.106,0.084-0.211
		C322.366,192.023,322.183,192.15,322.051,192.328z M322.768,192.202c0.264-0.062,0.525,0.219,0.674,0
		c-0.193-0.074-0.33-0.203-0.59-0.211C322.834,192.072,322.76,192.098,322.768,192.202z M324.495,192.835
		c-0.125-0.073-0.305-0.312-0.422-0.252C324.233,192.619,324.393,192.877,324.495,192.835z M323.864,192.919
		c-0.256,0.164-0.492,0.352-0.59,0.672c0.191,0.23,0.811,0.29,1.137,0.128C324.379,193.3,324.192,193.04,323.864,192.919z
		 M321.967,193.888c0.051-0.107,0.26-0.274,0.17-0.381C322.045,193.559,321.903,193.952,321.967,193.888z M322.979,194.31
		c0.217,0.072,0.256-0.247,0.168-0.34C323.084,194.078,322.999,194.16,322.979,194.31z M321.758,194.561
		c-0.027-0.101,0.051-0.306-0.043-0.337C321.672,194.333,321.641,194.505,321.758,194.561z M322.684,195.066
		c-0.199-0.097-0.473-0.343-0.633-0.338C322.241,194.835,322.403,195.193,322.684,195.066z M323.063,194.981
		c-0.41,0.025,0.223,0.094,0.211-0.083C323.168,194.891,323.143,194.964,323.063,194.981z M322.895,196.499
		c-0.848-0.005-1.57-0.525-2.064-1.054C321.125,196.19,321.821,196.533,322.895,196.499z M323.778,196.203
		c0.227-0.181,0.487-0.329,0.633-0.59C324.135,195.719,323.87,196.056,323.778,196.203z M322.727,196.245
		c0.438,0.111,1.062-0.165,1.01-0.378C323.372,195.966,323.047,196.102,322.727,196.245z"/>
</g>
<g>
</g>
<g>
</g>
<g>
</g>
<g>
</g>
<g>
</g>
<g>
</g>
<g>
</g>
<g>
</g>
<g>
</g>
<g>
</g>
<g>
</g>
<g>
</g>
<g>
</g>
<g>
</g>
<g>
</g>
</svg>
