<?xml version="1.0" encoding="utf-8"?>
<!-- Generator: Adobe Illustrator 16.0.0, SVG Export Plug-In . SVG Version: 6.00 Build 0)  -->
<!DOCTYPE svg PUBLIC "-//W3C//DTD SVG 1.1//EN" "http://www.w3.org/Graphics/SVG/1.1/DTD/svg11.dtd">
<svg version="1.1" id="Layer_1" xmlns="http://www.w3.org/2000/svg" xmlns:xlink="http://www.w3.org/1999/xlink" x="0px" y="0px"
	 width="233.628px" height="175.221px" viewBox="0 0 233.628 175.221" enable-background="new 0 0 233.628 175.221"
	 xml:space="preserve">
<g>
	<g>
		<path fill="#FFFFFF" d="M189.781,85.993c0,39.154-31.741,70.894-70.895,70.894c-39.154,0-70.896-31.74-70.896-70.894
			c0-31.197,20.121-57.776,48.146-67.166c11.972-4.012,22.749-11.639,22.749-11.639s12.122,8.344,21.724,11.309
			C171.297,27.983,189.781,55.202,189.781,85.993z"/>
		<path d="M191.268,86.002c0.019,14.303-4.36,28.612-12.424,40.436c-8.017,11.854-19.61,21.245-32.89,26.566
			c-13.269,5.367-28.111,6.584-42.096,3.652c-14.002-2.915-27.049-10.162-36.978-20.458c-9.961-10.257-16.812-23.541-19.229-37.659
			c-2.472-14.095-0.682-28.907,5.167-41.974c5.821-13.059,15.578-24.375,27.773-31.853c3.043-1.872,6.225-3.514,9.511-4.908
			c1.643-0.698,3.31-1.337,5.007-1.889c1.693-0.542,3.275-1.087,4.9-1.726c6.42-2.555,12.63-5.827,18.484-9.549l0.002-0.001
			l0.359-0.268l0.411,0.263c3.976,2.534,8.123,4.859,12.345,6.934c2.111,1.038,4.255,2.002,6.435,2.815
			c1.101,0.413,2.165,0.76,3.316,1.094c1.124,0.333,2.314,0.712,3.445,1.113c9.097,3.26,17.662,8.292,24.679,15.045
			c7.045,6.705,12.646,14.926,16.322,23.928c3.682,9.005,5.488,18.734,5.458,28.429V86.002z M188.293,85.993
			c-0.017-9.328-1.799-18.65-5.362-27.248c-3.537-8.599-8.803-16.498-15.523-22.938c-1.679-1.608-3.434-3.14-5.273-4.563
			c-1.824-1.443-3.725-2.794-5.694-4.039c-3.934-2.498-8.136-4.583-12.504-6.246c-1.099-0.428-2.162-0.811-3.306-1.193
			c-1.121-0.366-2.306-0.797-3.417-1.26c-2.247-0.928-4.412-1.994-6.532-3.128c-4.229-2.296-8.258-4.866-12.177-7.636l0.771-0.005
			l-0.002,0.001c-5.744,4.153-11.877,7.706-18.416,10.518c-1.617,0.697-3.335,1.346-4.965,1.922c-1.617,0.594-3.22,1.225-4.796,1.92
			c-3.151,1.389-6.196,3.015-9.102,4.858c-5.798,3.705-11.082,8.211-15.589,13.408c-4.507,5.193-8.242,11.055-11.032,17.338
			c-5.605,12.561-7.308,26.809-4.916,40.348c2.361,13.543,8.854,26.328,18.425,36.217c9.524,9.928,22.059,16.935,35.529,19.775
			c13.46,2.892,27.787,1.642,40.523-3.557c12.761-5.158,23.885-14.228,31.552-25.641c7.711-11.395,11.865-25.1,11.807-38.86V85.993z
			"/>
	</g>
	<g>
		<g>
			<path d="M121.245,108.082l-0.035,0.348l-0.079,0.462c-0.067,0.295-0.152,0.562-0.266,0.833c-0.228,0.533-0.555,1.02-0.958,1.429
				c-0.793,0.829-1.932,1.336-3.09,1.348c-1.164,0.03-2.312-0.504-3.098-1.339c-0.802-0.851-1.277-1.917-1.33-3.175l-0.004-0.35
				c0.004-0.139,0.022-0.317,0.038-0.475c0.042-0.305,0.102-0.588,0.192-0.877c0.182-0.569,0.463-1.119,0.857-1.596
				c0.803-0.96,1.959-1.623,3.414-1.626l0.349,0.018c0.185,0.022,0.372,0.05,0.554,0.085c0.317,0.076,0.624,0.188,0.916,0.327
				c0.578,0.292,1.072,0.71,1.465,1.187c0.771,0.975,1.127,2.191,1.076,3.354L121.245,108.082z M119.198,108.034
				c-0.052-0.696-0.359-1.342-0.826-1.76c-0.221-0.22-0.48-0.379-0.743-0.484c-0.131-0.055-0.265-0.092-0.399-0.127
				c-0.047-0.005-0.09-0.013-0.134-0.027l-0.349-0.021c-0.414-0.02-1.077,0.21-1.494,0.649c-0.221,0.22-0.418,0.483-0.557,0.786
				c-0.07,0.148-0.127,0.317-0.17,0.469c-0.014,0.072-0.036,0.123-0.053,0.217l-0.037,0.347c-0.052,0.599,0.135,1.396,0.572,1.94
				c0.434,0.564,1.102,0.921,1.809,0.936c0.713,0.027,1.393-0.358,1.82-0.928c0.211-0.288,0.363-0.617,0.456-0.955
				c0.048-0.167,0.079-0.35,0.097-0.511l0.014-0.228l-0.004-0.35L119.198,108.034z"/>
		</g>
		<g>
			<path d="M125.776,88.808l-0.162,0.275c-0.088,0.127-0.182,0.259-0.275,0.376c-0.183,0.211-0.383,0.402-0.602,0.568
				c-0.438,0.33-0.938,0.553-1.45,0.674c-1.042,0.237-2.067,0.094-3.027-0.388c-0.825-0.425-1.64-1.205-2.034-2.133
				c-0.402-0.943-0.488-2.042,0.013-3.079c0.413-0.899,1.354-1.665,2.341-1.925c1.016-0.279,2.051-0.197,3.051,0.257
				c0.856,0.381,1.735,1.165,2.174,2.126c0.476,0.956,0.521,2.202-0.004,3.204L125.776,88.808z M124.192,87.994
				c0.455-1.041-0.05-2.475-1.336-3.114c-1.102-0.595-2.812-0.363-3.385,0.899c-0.248,0.494-0.275,1.244,0.022,1.835
				c0.295,0.622,0.764,1.091,1.462,1.4c0.566,0.243,1.318,0.312,1.916,0.116c0.625-0.206,1.078-0.561,1.344-1.18L124.192,87.994z"/>
		</g>
		<g>
			<path d="M121.069,100.777c-0.119,2.208-2.041,4.152-4.252,4.236c-1.105,0.041-2.219-0.429-3.016-1.222
				c-0.807-0.807-1.305-1.852-1.379-3.101l-0.014-0.35c0.002-0.138,0.018-0.315,0.03-0.472c0.036-0.307,0.091-0.59,0.176-0.881
				c0.165-0.577,0.46-1.123,0.849-1.604c0.387-0.487,0.894-0.891,1.471-1.178c0.289-0.142,0.596-0.254,0.912-0.336l0.483-0.08
				l0.243-0.016l0.123-0.006l0.061-0.002l0.131-0.002l0.348,0.024c0.185,0.028,0.371,0.06,0.55,0.099
				c0.315,0.08,0.618,0.199,0.902,0.348c0.568,0.299,1.045,0.727,1.41,1.212c0.728,0.978,1.048,2.166,0.972,3.288V100.777z
				 M119.375,100.737c-0.077-0.736-0.42-1.41-0.93-1.827c-0.25-0.21-0.525-0.358-0.799-0.456c-0.139-0.047-0.277-0.075-0.413-0.105
				c-0.05-0.002-0.093-0.006-0.139-0.018l-0.349-0.014c0.139,0.004,0.037,0.002,0.067,0.002h-0.003l-0.007,0.001l-0.013,0.001
				l-0.026,0.002l-0.052,0.003l-0.104,0.003l-0.204,0.035c-0.136,0.029-0.271,0.065-0.404,0.118
				c-0.264,0.108-0.51,0.282-0.738,0.493c-0.227,0.215-0.41,0.483-0.565,0.778c-0.075,0.146-0.138,0.313-0.187,0.464
				c-0.018,0.073-0.042,0.126-0.062,0.219l-0.046,0.347c-0.073,0.609,0.092,1.428,0.521,2.015c0.424,0.606,1.129,1.028,1.893,1.055
				c0.764,0.06,1.549-0.322,2.001-0.959c0.232-0.312,0.384-0.676,0.474-1.043c0.045-0.182,0.076-0.375,0.09-0.551l0.007-0.253
				l-0.013-0.35V100.737z"/>
		</g>
		<g>
			<path d="M123.276,93.232c-0.037,1.1-0.453,2.253-1.203,3.114c-0.748,0.866-1.832,1.496-3.088,1.516
				c-1.17,0.038-2.366-0.578-3.12-1.454c-0.776-0.882-1.194-2.036-1.231-3.195c-0.043-1.158,0.299-2.369,1.07-3.327
				c0.74-0.96,1.982-1.678,3.303-1.646c1.32-0.015,2.542,0.728,3.252,1.688c0.728,0.969,1.057,2.149,1.018,3.286V93.232z
				 M121.545,93.212c-0.039-0.771-0.332-1.515-0.822-2.026c-0.484-0.525-1.11-0.776-1.717-0.775
				c-0.606,0.016-1.211,0.293-1.666,0.816c-0.446,0.522-0.727,1.235-0.77,1.985c-0.115,1.491,0.93,3.114,2.457,3.126
				c0.672,0.035,1.434-0.328,1.881-0.947c0.468-0.619,0.674-1.391,0.637-2.198V93.212z"/>
		</g>
	</g>
	
		<ellipse transform="matrix(0.9929 0.119 -0.119 0.9929 16.8134 -10.8052)" fill-rule="evenodd" clip-rule="evenodd" cx="98.86" cy="135.348" rx="4.722" ry="4.362"/>
	
		<path fill-rule="evenodd" clip-rule="evenodd" fill="none" stroke="#000000" stroke-width="1.8156" stroke-linecap="round" stroke-linejoin="round" stroke-miterlimit="10" d="
		M91.758,133.092c1.581,1.363,4.463,1.795,4.463,1.795"/>
	
		<path fill-rule="evenodd" clip-rule="evenodd" fill="none" stroke="#000000" stroke-width="1.8156" stroke-linecap="round" stroke-linejoin="round" stroke-miterlimit="10" d="
		M95.293,128.667c0.478,1.303,0.67,2.25,1.326,4.217"/>
	
		<path fill-rule="evenodd" clip-rule="evenodd" fill="none" stroke="#000000" stroke-width="1.8156" stroke-linecap="round" stroke-linejoin="round" stroke-miterlimit="10" d="
		M100.345,128.262c0.214,1.783,0.128,3.627-0.634,5.285"/>
	
		<ellipse transform="matrix(0.9928 0.1194 -0.1194 0.9928 17.0345 -11.1153)" fill-rule="evenodd" clip-rule="evenodd" fill="#F5F5F5" cx="101.296" cy="136.627" rx="0.916" ry="0.844"/>
	<g>
		<path d="M101.903,139.715c-0.629,0.047-1.168,0.051-1.719,0.05c-0.543,0.011-1.07-0.005-1.598,0.012
			c-1.066-0.001-2.067,0.042-3.293,0.063c0.396-0.486,0.939-0.805,1.506-1.016c0.57-0.219,1.176-0.303,1.777-0.319
			c0.604,0.008,1.205,0.085,1.775,0.285C100.916,138.981,101.473,139.274,101.903,139.715z"/>
	</g>
	
		<ellipse transform="matrix(-0.9929 0.1191 -0.1191 -0.9929 279.8979 258.3409)" fill-rule="evenodd" clip-rule="evenodd" cx="132.228" cy="137.536" rx="4.722" ry="4.363"/>
	
		<path fill-rule="evenodd" clip-rule="evenodd" fill="none" stroke="#000000" stroke-width="1.8156" stroke-linecap="round" stroke-linejoin="round" stroke-miterlimit="10" d="
		M139.331,135.282c-1.582,1.363-4.463,1.795-4.463,1.795"/>
	
		<path fill-rule="evenodd" clip-rule="evenodd" fill="none" stroke="#000000" stroke-width="1.8156" stroke-linecap="round" stroke-linejoin="round" stroke-miterlimit="10" d="
		M135.795,130.855c-0.478,1.302-0.671,2.251-1.327,4.218"/>
	
		<path fill-rule="evenodd" clip-rule="evenodd" fill="none" stroke="#000000" stroke-width="1.8156" stroke-linecap="round" stroke-linejoin="round" stroke-miterlimit="10" d="
		M130.743,130.452c-0.213,1.783-0.127,3.626,0.635,5.285"/>
	
		<ellipse transform="matrix(0.9928 0.1194 -0.1194 0.9928 17.5402 -15.0268)" fill-rule="evenodd" clip-rule="evenodd" fill="#F5F5F5" cx="134.13" cy="138.815" rx="0.916" ry="0.846"/>
	<g>
		<path d="M135.467,141.905c-0.629,0.047-1.168,0.049-1.719,0.049c-0.543,0.011-1.07-0.005-1.598,0.012
			c-1.066-0.001-2.067,0.042-3.293,0.062c0.396-0.485,0.939-0.805,1.506-1.015c0.57-0.219,1.176-0.305,1.778-0.319
			c0.603,0.008,1.205,0.085,1.774,0.286C134.481,141.17,135.039,141.462,135.467,141.905z"/>
	</g>
	<g>
		<path d="M111.674,157.722c0.028,0.028,0.059,0.054,0.087,0.081c1.048,1.06,2.062,2.154,3.026,3.296
			c1.906,2.288,3.715,4.737,4.818,7.604l0,0l-1.172-0.01c0.508-1.291,1.162-2.479,1.854-3.637c0.693-1.157,1.438-2.274,2.205-3.371
			c1.545-2.195,3.162-4.297,4.896-6.376l0.001-0.001l1.158,2.454c-3.539,0.2-7.031,0.272-10.557,0.233
			C115.887,157.967,113.786,157.872,111.674,157.722z M107.713,154.932c3.393,0.439,6.852,0.588,10.307,0.629
			c3.455,0.031,6.934-0.05,10.369-0.252c0.553-0.032,1.027,0.388,1.061,0.94c0.017,0.283-0.089,0.549-0.268,0.742v0.001
			c-1.805,1.865-3.563,3.827-5.216,5.842c-0.825,1.011-1.626,2.04-2.373,3.099c-0.743,1.059-1.448,2.147-1.991,3.28l-0.011,0.023
			c-0.151,0.316-0.532,0.45-0.849,0.299c-0.147-0.071-0.256-0.192-0.313-0.332v-0.002c-1.163-2.539-3.027-4.777-4.997-6.848
			c-0.994-1.035-2.038-2.027-3.114-2.984c-1.073-0.949-2.192-1.885-3.316-2.734c-0.419-0.319-0.501-0.916-0.185-1.335
			c0.214-0.282,0.554-0.411,0.881-0.37L107.713,154.932z"/>
	</g>
	<g>
		<path fill="#FFFFFF" d="M167.323,84.95c7.01-5.038,13.516-10.127,21.693-13.171c5.219-1.946,10.523-3.687,15.939-4.999
			c4.193-1.015,10.797-3.428,14.923-1.501c2.556,1.192,4.255,3.932,4.287,6.742c0.085,7.505-10.183,10.575-15.776,10.017
			c-1.657-0.165-4.637-2.257-2.293-3.771c2.352-1.518,8.389-1.806,10.927-1.152c5.782,1.493,9.511,8.992,8.635,14.593
			c-1.266,8.104-17.269,8.512-17.634,3.283c-0.125-1.791,13.64-2.967,14.958,3.527c1.159,5.701-1.873,10.541-7.418,10.814
			c-11.917,0.588-33.564,0.566-48.386-3.154"/>
		<path d="M167.323,84.95c1.789-1.533,3.586-3.05,5.443-4.497c1.842-1.468,3.737-2.879,5.711-4.192
			c1.979-1.302,4.029-2.519,6.17-3.577c2.135-1.083,4.378-1.942,6.578-2.764c4.417-1.656,8.928-3.144,13.514-4.329
			c2.214-0.589,4.482-1.331,6.859-1.842c2.37-0.482,4.902-0.901,7.621-0.223c0.336,0.088,0.674,0.198,1.005,0.336l0.249,0.104
			l0.25,0.122c0.141,0.074,0.239,0.11,0.423,0.222c0.695,0.389,1.205,0.792,1.729,1.287c1.02,0.967,1.797,2.166,2.287,3.481
			c1.021,2.633,0.649,5.79-0.938,8.144c-1.572,2.356-3.885,3.841-6.217,4.856c-2.36,1.003-4.834,1.586-7.402,1.741
			c-0.645,0.035-1.295,0.041-1.961,0c-0.296-0.018-0.76-0.05-1.213-0.176c-0.413-0.111-0.781-0.257-1.136-0.43
			c-0.703-0.354-1.356-0.775-1.979-1.499c-0.303-0.363-0.617-0.833-0.779-1.505c-0.176-0.661-0.046-1.553,0.309-2.121
			c0.342-0.59,0.76-0.941,1.131-1.207l0.143-0.099l0.146-0.091l0.213-0.125c0.205-0.114,0.397-0.208,0.558-0.28
			c0.682-0.306,1.329-0.499,1.972-0.663c1.281-0.312,2.531-0.477,3.785-0.567c1.256-0.084,2.502-0.1,3.802,0.013
			c0.659,0.064,1.3,0.135,2.077,0.355l0.432,0.128l0.543,0.194c0.344,0.14,0.659,0.268,0.971,0.434
			c2.51,1.274,4.374,3.337,5.691,5.594c1.301,2.28,2.106,4.818,2.254,7.493c0.029,0.67,0.023,1.347-0.047,2.029l-0.064,0.512
			l-0.047,0.297l-0.041,0.217c-0.021,0.129-0.09,0.388-0.137,0.574c-0.057,0.189-0.111,0.365-0.176,0.545
			c-0.514,1.438-1.459,2.671-2.545,3.585c-2.206,1.828-4.797,2.644-7.355,3.004c-1.289,0.168-2.592,0.206-3.908,0.081
			c-1.317-0.134-2.654-0.402-3.997-1.079c-0.665-0.343-1.35-0.804-1.931-1.511c-0.287-0.352-0.541-0.77-0.713-1.236
			c-0.082-0.232-0.149-0.471-0.192-0.715c-0.024-0.121-0.033-0.242-0.048-0.365l-0.008-0.09c-0.006-0.425,0-0.149,0-0.258
			c-0.012,0.076,0.027-0.383,0.125-0.602c0.307-0.721,0.639-0.901,0.886-1.106c0.249-0.174,0.462-0.278,0.665-0.373
			c0.396-0.174,0.749-0.28,1.094-0.369c0.684-0.175,1.33-0.272,1.975-0.339c2.561-0.237,5.082-0.076,7.612,0.681
			c1.254,0.398,2.528,0.966,3.652,1.937c0.556,0.484,1.063,1.079,1.441,1.766c0.192,0.341,0.342,0.706,0.464,1.076
			c0.118,0.347,0.199,0.812,0.236,1.059c0.43,2.587,0.11,5.418-1.354,7.783c-0.726,1.172-1.739,2.186-2.928,2.896
			c-1.186,0.715-2.524,1.126-3.85,1.259c-0.695,0.067-1.26,0.067-1.852,0.088l-1.771,0.042l-3.538,0.045
			c-4.717,0.024-9.431-0.073-14.139-0.308c-9.381-0.532-18.909-1.244-27.896-4.214c4.648,0.758,9.291,1.273,13.951,1.667
			c4.656,0.401,9.33,0.635,14.007,0.713c4.677,0.08,9.356,0.028,14.028-0.148l3.5-0.157l1.749-0.098
			c0.579-0.038,1.19-0.065,1.661-0.131c2.02-0.254,3.768-1.379,4.726-3.072c0.974-1.684,1.184-3.827,0.78-5.835
			c-0.065-0.331-0.092-0.444-0.164-0.654c-0.067-0.185-0.141-0.365-0.244-0.532c-0.195-0.339-0.465-0.647-0.799-0.926
			c-0.668-0.559-1.584-0.975-2.567-1.26c-1.981-0.559-4.24-0.671-6.341-0.422c-0.521,0.063-1.036,0.157-1.486,0.283
			c-0.223,0.062-0.432,0.136-0.57,0.202l-0.102,0.057c0.014-0.032,0.115-0.01,0.312-0.452c0.08-0.148,0.087-0.541,0.08-0.389
			c-0.002-0.072,0,0.24-0.004-0.148l0.004,0.019c0.006,0.024,0.004,0.05,0.012,0.071c0.01,0.046,0.025,0.089,0.039,0.133
			c0.037,0.085,0.092,0.176,0.178,0.273c0.171,0.2,0.472,0.424,0.854,0.604c1.584,0.737,3.856,0.876,5.898,0.589
			c2.064-0.29,4.11-1.027,5.521-2.236c0.701-0.604,1.211-1.311,1.484-2.09l0.093-0.295c0.019-0.099,0.038-0.121,0.065-0.281
			l0.04-0.216l0.01-0.055c0.007-0.031-0.013,0.068-0.003,0.006l0.012-0.091l0.043-0.361c0.047-0.485,0.048-0.985,0.021-1.487
			c-0.119-2.017-0.781-4.072-1.815-5.858c-1.025-1.789-2.469-3.333-4.164-4.194c-0.204-0.114-0.436-0.203-0.634-0.289l-0.283-0.108
			l-0.413-0.124c-0.351-0.106-0.88-0.186-1.388-0.232c-1.04-0.096-2.147-0.091-3.234-0.023c-1.086,0.072-2.173,0.216-3.174,0.457
			c-0.494,0.123-0.976,0.269-1.365,0.445l-0.231,0.11c-0.02,0.005-0.114,0.065-0.167,0.096l-0.047,0.028
			c0.008-0.004-0.085,0.052,0.006-0.004l-0.038,0.027c-0.107,0.07-0.132,0.126-0.085,0.048c0.049-0.066,0.098-0.332,0.057-0.424
			c-0.026-0.098-0.031-0.051,0.044,0.033c0.138,0.174,0.474,0.432,0.819,0.598c0.173,0.085,0.353,0.156,0.505,0.201
			c0.112,0.035,0.237,0.054,0.526,0.076c0.506,0.041,1.029,0.047,1.559,0.027c2.119-0.085,4.294-0.555,6.266-1.355
			c1.964-0.802,3.764-1.991,4.836-3.558c1.076-1.533,1.334-3.54,0.732-5.325c-0.301-0.894-0.807-1.732-1.471-2.401
			c-0.312-0.326-0.73-0.658-1.055-0.854c-0.061-0.051-0.234-0.132-0.351-0.197c-0.042-0.023-0.181-0.095-0.142-0.078l-0.156-0.07
			c-0.207-0.096-0.428-0.175-0.656-0.243c-1.854-0.55-4.131-0.339-6.334,0.062c-2.23,0.405-4.455,1.056-6.795,1.604
			c-4.543,1.025-9.006,2.345-13.43,3.85C182.932,74.429,175.375,80.06,167.323,84.95z"/>
	</g>
	<g>
		<path fill="#FFFFFF" d="M65.354,79.903c-7.01-5.037-13.516-10.126-21.692-13.172c-5.22-1.945-10.524-3.686-15.94-4.998
			c-4.193-1.016-10.797-3.428-14.923-1.502c-2.556,1.193-4.255,3.931-4.286,6.742c-0.086,7.506,10.182,10.576,15.775,10.019
			c1.657-0.165,4.637-2.259,2.293-3.771c-2.352-1.518-8.389-1.809-10.927-1.154C9.872,73.562,6.145,81.06,7.02,86.661
			c1.266,8.103,17.268,8.512,17.633,3.283c0.125-1.79-13.64-2.966-14.959,3.527c-1.158,5.701,1.874,10.541,7.419,10.814
			c11.917,0.588,33.564,0.568,48.386-3.153"/>
		<path d="M65.354,79.903c-4.25-2.14-7.945-5.042-11.945-7.425c-1.99-1.203-4.031-2.31-6.129-3.272
			c-2.09-0.979-4.266-1.735-6.486-2.485c-4.426-1.501-8.891-2.818-13.434-3.842c-2.34-0.547-4.564-1.195-6.797-1.6
			c-2.203-0.4-4.48-0.608-6.333-0.057c-0.229,0.067-0.449,0.148-0.655,0.243l-0.156,0.069c0.04-0.019-0.101,0.055-0.143,0.077
			c-0.115,0.066-0.289,0.146-0.35,0.199c-0.323,0.195-0.742,0.528-1.055,0.854c-0.66,0.671-1.176,1.502-1.48,2.396
			c-0.622,1.783-0.352,3.803,0.727,5.338c1.077,1.569,2.88,2.757,4.846,3.557c1.974,0.799,4.15,1.267,6.27,1.349
			c0.528,0.018,1.053,0.018,1.559-0.021c0.289-0.021,0.416-0.037,0.53-0.07c0.153-0.044,0.335-0.114,0.509-0.201
			c0.346-0.167,0.684-0.425,0.823-0.602c0.076-0.085,0.073-0.134,0.046-0.04c-0.039,0.088,0.008,0.35,0.056,0.414
			c0.046,0.076,0.02,0.019-0.089-0.051l-0.038-0.029c0.089,0.055-0.003,0,0.005,0.004l-0.047-0.028
			c-0.054-0.03-0.148-0.091-0.168-0.096l-0.232-0.11c-0.391-0.176-0.873-0.323-1.367-0.445c-1.003-0.24-2.09-0.382-3.178-0.454
			c-1.086-0.068-2.194-0.072-3.234,0.025c-0.508,0.047-1.038,0.127-1.389,0.233l-0.412,0.124l-0.284,0.109
			c-0.198,0.084-0.43,0.175-0.635,0.289c-1.695,0.865-3.138,2.409-4.161,4.199c-1.033,1.787-1.696,3.843-1.814,5.858
			c-0.025,0.501-0.025,1.001,0.021,1.488l0.043,0.361l0.012,0.09c0.01,0.062-0.009-0.038-0.002-0.006l0.01,0.055l0.039,0.216
			c0.027,0.159,0.047,0.183,0.066,0.282l0.092,0.292c0.274,0.781,0.785,1.487,1.485,2.091c1.411,1.21,3.456,1.944,5.52,2.234
			c2.04,0.282,4.319,0.155,5.891-0.601c0.38-0.18,0.68-0.402,0.848-0.6c0.085-0.098,0.14-0.187,0.175-0.27
			c0.014-0.043,0.029-0.085,0.039-0.13c0.008-0.021,0.006-0.046,0.012-0.07l0.004-0.018c-0.004,0.392-0.002,0.077-0.004,0.15
			c0.002-0.026-0.006-0.062,0.007,0.091c0.012,0.104,0.038,0.21,0.075,0.306c0.199,0.444,0.304,0.424,0.318,0.457
			c0.01,0.005-0.039-0.025-0.1-0.057c-0.139-0.065-0.347-0.138-0.568-0.201c-0.449-0.126-0.965-0.22-1.485-0.284
			c-2.099-0.248-4.356-0.137-6.335,0.421c-0.982,0.284-1.896,0.699-2.564,1.256c-0.332,0.278-0.602,0.587-0.797,0.923
			c-0.102,0.168-0.176,0.348-0.243,0.531c-0.072,0.208-0.095,0.32-0.159,0.652c-0.384,2.008-0.181,4.14,0.789,5.817
			c0.953,1.688,2.693,2.809,4.706,3.063c0.47,0.064,1.081,0.092,1.659,0.129l1.748,0.099l3.502,0.159
			c4.67,0.178,9.35,0.231,14.025,0.152c4.676-0.081,9.352-0.297,14.006-0.719c4.662-0.422,9.254-1.129,13.953-1.642
			c-4.416,1.757-9.133,2.45-13.803,3.044c-4.682,0.58-9.385,0.952-14.093,1.188c-4.709,0.234-9.423,0.334-14.14,0.311l-3.539-0.043
			l-1.77-0.042c-0.594-0.02-1.157-0.02-1.854-0.088c-1.328-0.133-2.671-0.544-3.86-1.262c-1.191-0.712-2.209-1.729-2.937-2.903
			c-1.469-2.371-1.796-5.212-1.347-7.8c0.039-0.245,0.121-0.713,0.241-1.06c0.122-0.37,0.271-0.737,0.464-1.078
			c0.379-0.688,0.887-1.283,1.443-1.77c1.127-0.972,2.402-1.539,3.656-1.938c2.533-0.759,5.055-0.92,7.617-0.685
			c0.646,0.067,1.293,0.165,1.979,0.339c0.344,0.091,0.697,0.196,1.094,0.37c0.205,0.095,0.418,0.199,0.668,0.373
			c0.248,0.205,0.582,0.39,0.892,1.108c0.048,0.131,0.084,0.271,0.106,0.411c0.025,0.188,0.02,0.189,0.021,0.2
			c0,0.111,0.006-0.168,0,0.26l-0.008,0.092c-0.015,0.122-0.023,0.243-0.048,0.365c-0.043,0.244-0.11,0.484-0.193,0.719
			c-0.172,0.466-0.427,0.886-0.715,1.24c-0.582,0.709-1.269,1.172-1.935,1.516c-1.35,0.672-2.688,0.932-4.004,1.07
			c-1.317,0.122-2.62,0.085-3.91-0.083c-2.559-0.361-5.15-1.177-7.355-3.006c-1.086-0.913-2.031-2.147-2.546-3.586
			c-0.064-0.18-0.118-0.357-0.175-0.544c-0.049-0.188-0.115-0.445-0.138-0.575L5.271,87.06l-0.046-0.296L5.161,86.25
			c-0.07-0.682-0.076-1.359-0.046-2.029c0.147-2.675,0.952-5.213,2.255-7.492c1.317-2.257,3.182-4.318,5.691-5.591
			c0.312-0.165,0.627-0.293,0.971-0.433l0.543-0.192l0.432-0.128c0.777-0.221,1.418-0.29,2.076-0.354
			c1.299-0.111,2.546-0.095,3.801-0.011c1.254,0.092,2.502,0.257,3.782,0.57c0.642,0.164,1.29,0.356,1.97,0.664
			c0.16,0.07,0.352,0.166,0.557,0.279l0.213,0.125l0.145,0.089l0.143,0.099c0.371,0.265,0.787,0.615,1.126,1.201
			c0.354,0.567,0.481,1.456,0.307,2.111c-0.163,0.668-0.476,1.137-0.778,1.498c-0.621,0.721-1.271,1.141-1.974,1.493
			c-0.354,0.172-0.721,0.318-1.132,0.431c-0.453,0.128-0.914,0.162-1.21,0.181c-0.665,0.044-1.316,0.045-1.96,0.007
			c-2.568-0.157-5.041-0.743-7.4-1.748c-2.328-1.017-4.637-2.502-6.204-4.856c-1.585-2.354-1.942-5.496-0.943-8.132
			c0.485-1.315,1.253-2.521,2.276-3.487c0.525-0.494,1.035-0.896,1.73-1.286c0.184-0.112,0.281-0.146,0.423-0.222l0.251-0.121
			l0.248-0.104c0.332-0.137,0.67-0.248,1.006-0.336c2.72-0.677,5.251-0.257,7.621,0.227c2.377,0.512,4.645,1.255,6.857,1.846
			c4.586,1.188,9.096,2.678,13.512,4.336c2.199,0.823,4.441,1.683,6.574,2.767c2.137,1.064,4.192,2.267,6.18,3.558
			C58.167,73.812,61.979,76.567,65.354,79.903z"/>
	</g>
</g>
<g>
</g>
<g>
</g>
<g>
</g>
<g>
</g>
<g>
</g>
<g>
</g>
<g>
</g>
<g>
</g>
<g>
</g>
<g>
</g>
<g>
</g>
<g>
</g>
<g>
</g>
<g>
</g>
<g>
</g>
</svg>
