<?xml version="1.0" encoding="utf-8"?>
<!-- Generator: Adobe Illustrator 16.0.0, SVG Export Plug-In . SVG Version: 6.00 Build 0)  -->
<!DOCTYPE svg PUBLIC "-//W3C//DTD SVG 1.1//EN" "http://www.w3.org/Graphics/SVG/1.1/DTD/svg11.dtd">
<svg version="1.1" id="Layer_1" xmlns="http://www.w3.org/2000/svg" xmlns:xlink="http://www.w3.org/1999/xlink" x="0px" y="0px"
	 width="1280px" height="691.797px" viewBox="0 0 1280 691.797" enable-background="new 0 0 1280 691.797" xml:space="preserve">
<g>
	<path d="M12.911,60.577l2.326-2.263l2.461-2.143l2.585-1.995l2.688-1.863l2.775-1.738L28.6,48.96l2.923-1.496
		c0.985-0.479,1.989-0.917,2.985-1.377c1-0.45,2.026-0.84,3.051-1.232c1.032-0.372,2.093-0.657,3.139-0.984
		c2.103-0.619,4.221-1.187,6.363-1.656c4.281-0.945,8.634-1.572,13.018-1.836l6.465-0.408c2.146-0.137,4.321-0.299,6.502-0.366
		c2.179-0.1,4.38-0.094,6.583-0.016c1.104,0.081,2.208,0.136,3.312,0.24l3.309,0.496c1.093,0.25,2.18,0.549,3.269,0.825
		c0.598,0.139,1.046,0.336,1.579,0.505c0.524,0.2,1.067,0.388,1.575,0.6c2.056,0.826,4.053,1.771,5.994,2.835
		c1.939,1.067,3.824,2.25,5.603,3.629c1.76,1.397,3.456,2.979,4.714,5.08l-2.245,0.147l0.877-2.136
		c0.325-0.717,0.621-1.436,0.973-2.152c0.394-0.71,0.698-1.443,1.197-2.126l0.697-1.033l0.839-0.95l0.423-0.471l0.482-0.406
		l0.97-0.806c0.683-0.462,1.388-0.894,2.093-1.306l2.212-1.045l2.139-0.824c0.694-0.29,1.48-0.507,2.227-0.754
		c0.754-0.246,1.51-0.488,2.267-0.667c0.758-0.189,1.51-0.408,2.273-0.571l2.292-0.471c1.535-0.259,3.071-0.529,4.614-0.688
		c1.542-0.203,3.085-0.308,4.627-0.437l2.313-0.127l0.578-0.032l0.625-0.005l1.146-0.004c1.532,0.005,3.036-0.065,4.639,0.122
		l2.371,0.196c0.794,0.05,1.553,0.248,2.332,0.365l2.32,0.411l2.274,0.618c1.534,0.363,2.993,0.937,4.463,1.479l1.102,0.408
		l1.065,0.483l2.13,0.969c1.409,0.665,2.754,1.432,4.134,2.144l4.002,2.33l-1.847,0.714l0.516-1.509l0.635-1.465
		c0.239-0.476,0.502-0.94,0.754-1.41c0.278-0.454,0.579-0.895,0.869-1.342l0.977-1.264l1.077-1.177l1.165-1.084
		c0.414-0.33,0.818-0.673,1.24-0.99c0.855-0.621,1.743-1.19,2.663-1.697c0.922-0.501,1.863-0.966,2.833-1.358
		s1.976-0.678,2.986-0.917c1.013-0.232,2.032-0.412,3.054-0.55c1.023-0.129,2.049-0.209,3.073-0.254l1.536-0.022l1.532,0.048
		c1.02,0.062,2.034,0.157,3.042,0.295c1.007,0.148,2.006,0.331,2.995,0.558c1.973,0.464,3.908,1.087,5.741,1.931
		c0.916,0.421,1.806,0.893,2.668,1.406c0.43,0.258,0.843,0.545,1.263,0.815l1.204,0.892l-1.284-0.764
		c-0.444-0.226-0.877-0.467-1.326-0.678c-0.899-0.419-1.815-0.792-2.749-1.113c-1.869-0.635-3.786-1.103-5.727-1.38
		c-0.971-0.139-1.946-0.232-2.921-0.292c-0.976-0.051-1.952-0.058-2.925-0.035l-1.457,0.079l-1.448,0.144
		c-0.961,0.125-1.915,0.282-2.857,0.483c-0.94,0.21-1.868,0.457-2.779,0.749c-0.908,0.299-1.794,0.642-2.679,0.98
		c-0.88,0.35-1.745,0.731-2.577,1.177c-0.826,0.455-1.616,0.962-2.375,1.513c-0.374,0.281-0.729,0.584-1.095,0.874l-1.023,0.952
		l-0.941,1.028l-0.85,1.1l-0.755,1.167l-0.656,1.225l-0.553,1.276l-0.451,1.32l-0.51,1.492l-1.336-0.778l-3.922-2.283
		c-1.336-0.688-2.649-1.438-4.004-2.076l-2.044-0.929l-1.021-0.465l-1.048-0.386c-1.398-0.515-2.786-1.064-4.233-1.403l-2.15-0.586
		l-2.194-0.386c-0.732-0.11-1.461-0.303-2.195-0.345l-2.199-0.183c-1.438-0.182-2.997-0.115-4.52-0.119l-1.146,0.004l-0.521,0.002
		l-0.566,0.032l-2.265,0.125c-1.503,0.126-3.01,0.228-4.5,0.425c-1.498,0.153-2.975,0.415-4.453,0.663l-2.199,0.452
		c-0.731,0.157-1.448,0.367-2.173,0.547c-0.732,0.172-1.432,0.398-2.13,0.625c-0.704,0.234-1.396,0.415-2.115,0.714l-2.139,0.824
		l-1.932,0.917c-0.61,0.36-1.212,0.729-1.794,1.117l-0.791,0.662l-0.398,0.328l-0.338,0.385l-0.682,0.766l-0.581,0.869
		c-0.415,0.55-0.699,1.242-1.049,1.865c-0.322,0.655-0.609,1.351-0.915,2.025l-0.865,2.105l-0.95,2.313l-1.295-2.166
		c-0.969-1.62-2.46-3.07-4.079-4.344c-1.638-1.27-3.422-2.393-5.268-3.408c-1.848-1.013-3.764-1.92-5.717-2.705
		c-0.489-0.204-0.968-0.368-1.453-0.555c-0.498-0.157-1.048-0.388-1.507-0.481c-1.006-0.25-2.003-0.527-3.015-0.761l-3.102-0.464
		c-1.046-0.098-2.102-0.149-3.152-0.228c-2.113-0.074-4.238-0.082-6.376,0.017c-2.138,0.065-4.273,0.224-6.44,0.362l-6.473,0.409
		c-4.243,0.255-8.47,0.863-12.627,1.781c-2.079,0.46-4.14,0.997-6.176,1.618l-6.065,2.001c-1,0.363-2.013,0.705-3.009,1.087
		l-2.966,1.211l-2.917,1.336l-2.859,1.467l-2.792,1.6l-2.717,1.735l-2.64,1.855L12.911,60.577z"/>
</g>
<g>
	<path d="M290.411,305.577c-1.113-4.821-2.316-9.666-2.408-14.744c-0.047-2.528,0.217-5.104,0.903-7.597
		c0.693-2.483,1.73-4.909,3.189-7.042l0.562-0.788l0.283-0.393l0.07-0.098l0.116-0.141l0.152-0.176l1.206-1.411l1.199-1.418
		l1.396-1.354l1.399-1.35c0.467-0.449,0.992-0.806,1.485-1.212c1.011-0.776,1.97-1.626,3.075-2.269l1.611-1.031l0.806-0.514
		c0.276-0.159,0.566-0.293,0.848-0.441c1.146-0.559,2.253-1.202,3.432-1.687c1.192-0.457,2.375-0.94,3.576-1.369l3.699-1.01
		c1.256-0.239,2.526-0.416,3.789-0.624c1.281-0.184,2.471-0.253,3.76-0.347c2.52-0.152,5.062-0.184,7.614,0.062
		c2.547,0.243,5.103,0.756,7.546,1.657c2.443,0.895,4.759,2.189,6.79,3.828c1.005,0.812,1.979,1.746,2.825,2.608
		c0.886,0.91,1.75,1.845,2.576,2.794c1.653,1.91,3.197,3.923,4.58,6.057c1.38,2.134,2.604,4.392,3.545,6.795
		c0.938,2.399,1.594,4.959,1.726,7.607l-2.06-0.896l1.531-1.212l1.603-1.104l1.664-1l1.715-0.899l1.758-0.803l1.795-0.707
		l1.827-0.615l1.853-0.525c1.245-0.312,2.5-0.582,3.768-0.784c1.268-0.198,2.543-0.348,3.826-0.424
		c1.281-0.081,2.569-0.105,3.855-0.05c1.286,0.045,2.573,0.157,3.851,0.356c1.279,0.185,2.55,0.452,3.8,0.81
		c1.253,0.344,2.484,0.791,3.68,1.326c1.198,0.529,2.349,1.179,3.45,1.91c0.55,0.365,1.061,0.793,1.591,1.189
		c0.498,0.439,0.987,0.892,1.466,1.353c0.437,0.503,0.907,0.98,1.312,1.509c0.379,0.549,0.816,1.061,1.142,1.644
		c0.696,1.139,1.282,2.347,1.716,3.602c0.45,1.252,0.751,2.546,0.952,3.846c0.07,0.652,0.189,1.305,0.216,1.957l0.066,1.959
		l-2.182-0.844c0.729-0.752,1.518-1.43,2.375-1.92c0.842-0.531,1.729-0.93,2.62-1.29c1.79-0.7,3.629-1.144,5.477-1.441
		c0.924-0.144,1.851-0.264,2.779-0.347c0.464-0.049,0.928-0.087,1.394-0.101c0.465-0.024,0.93-0.049,1.396-0.027
		c0.931,0.002,1.859,0.092,2.783,0.168c0.924,0.102,1.844,0.218,2.758,0.38c0.913,0.164,1.823,0.341,2.72,0.581
		c0.9,0.217,1.789,0.494,2.664,0.802c1.749,0.617,3.453,1.4,5.005,2.441c0.771,0.526,1.511,1.104,2.17,1.771
		c0.324,0.34,0.661,0.663,0.931,1.05l0.427,0.558c0.127,0.196,0.241,0.403,0.359,0.604c0.486,0.8,0.79,1.697,0.996,2.594
		c0.107,0.448,0.118,0.916,0.179,1.367c0.007,0.458-0.021,0.915-0.031,1.367l-0.003-0.026c0.034,0.108,0.066,0.225,0.122,0.312
		c0.029,0.045,0.053,0.075,0.087,0.061c0.039-0.014,0.084-0.052,0.126-0.092c0.159-0.166,0.378-0.333,0.623-0.303
		c-0.248-0.002-0.427,0.171-0.572,0.353c-0.039,0.044-0.079,0.093-0.147,0.127c-0.087,0.041-0.173-0.034-0.204-0.082
		c-0.081-0.106-0.121-0.218-0.17-0.329l-0.002-0.005l-0.002-0.022c-0.036-0.447-0.054-0.894-0.104-1.333
		c-0.105-0.433-0.158-0.874-0.304-1.289c-0.284-0.832-0.649-1.634-1.176-2.328l-0.381-0.526l-0.439-0.48
		c-0.275-0.334-0.618-0.607-0.941-0.894c-0.659-0.562-1.392-1.038-2.148-1.466c-1.524-0.843-3.181-1.44-4.874-1.879
		c-0.847-0.218-1.704-0.407-2.571-0.539c-0.862-0.153-1.736-0.246-2.607-0.327c-0.873-0.078-1.749-0.112-2.624-0.135
		c-0.875-0.006-1.749,0.014-2.621,0.048c-0.87,0.044-1.743,0.043-2.609,0.12c-0.87,0.048-1.732,0.159-2.587,0.295
		c-1.708,0.274-3.393,0.686-4.961,1.301c-0.777,0.314-1.542,0.659-2.223,1.092c-0.713,0.402-1.29,0.927-1.823,1.457l-2.082,2.073
		l-0.1-2.917l-0.061-1.771c-0.022-0.59-0.133-1.167-0.193-1.75c-0.179-1.156-0.444-2.296-0.836-3.385
		c-0.378-1.096-0.886-2.137-1.485-3.12c-0.277-0.506-0.662-0.942-0.984-1.419c-0.35-0.457-0.76-0.867-1.134-1.305
		c-0.418-0.398-0.844-0.792-1.275-1.177c-0.468-0.344-0.911-0.721-1.397-1.043c-0.973-0.643-1.993-1.223-3.071-1.698
		c-1.074-0.481-2.188-0.887-3.333-1.2c-1.141-0.327-2.31-0.574-3.492-0.744c-1.18-0.184-2.377-0.289-3.575-0.331
		c-1.199-0.052-2.403-0.029-3.604,0.047c-1.201,0.071-2.398,0.212-3.588,0.398c-1.19,0.189-2.368,0.442-3.536,0.735l-1.737,0.492
		l-1.71,0.576l-1.677,0.66l-1.636,0.748l-1.59,0.834l-1.535,0.922l-1.47,1.013l-1.395,1.104l-1.938,1.534l-0.122-2.43
		c-0.115-2.304-0.694-4.604-1.557-6.808c-0.864-2.207-2.007-4.325-3.314-6.345c-1.309-2.021-2.785-3.945-4.371-5.778
		c-0.799-0.918-1.615-1.801-2.456-2.665c-0.887-0.904-1.707-1.683-2.624-2.428c-1.822-1.469-3.883-2.622-6.085-3.43
		c-2.203-0.812-4.54-1.288-6.917-1.514c-2.378-0.23-4.803-0.203-7.222-0.056c-1.178,0.084-2.463,0.163-3.631,0.335
		c-1.178,0.198-2.363,0.36-3.537,0.582l-3.464,0.946c-1.127,0.404-2.237,0.861-3.357,1.286c-1.108,0.454-2.148,1.065-3.228,1.587
		c-0.266,0.139-0.539,0.265-0.799,0.414l-0.757,0.486l-1.517,0.97c-1.043,0.602-1.941,1.407-2.894,2.135
		c-0.46,0.38-0.967,0.722-1.391,1.132l-1.272,1.228l-1.277,1.224l-1.197,1.417l-1.188,1.427c-0.315,0.373-0.66,0.95-0.995,1.409
		c-1.32,1.958-2.553,3.985-3.354,6.223c-0.824,2.223-1.283,4.595-1.447,7.012c-0.167,2.418-0.056,4.877,0.171,7.33
		C289.796,300.656,290.107,303.117,290.411,305.577z"/>
</g>
<g>
	<path d="M930.579,182.911c0.859-1.129,1.713-2.266,2.534-3.421c0.829-1.151,1.663-2.303,2.548-3.427
		c0.889-1.122,1.857-2.187,2.912-3.178c1.068-0.97,2.205-1.885,3.439-2.65c0.311-0.198,0.588-0.408,0.929-0.596l0.93-0.519
		l1.858-1.039c1.213-0.723,2.546-1.302,3.839-1.938c0.653-0.305,1.295-0.642,1.96-0.921l2.015-0.789l2.02-0.789
		c0.682-0.245,1.393-0.413,2.089-0.622c1.386-0.393,2.829-0.837,4.206-1.09c0.691-0.143,1.426-0.256,2.139-0.379
		c0.719-0.104,1.438-0.184,2.156-0.269l2.171-0.18l2.184-0.093c1.461-0.022,2.927,0.004,4.394,0.143
		c1.465,0.141,2.936,0.347,4.378,0.72l1.084,0.271l1.064,0.354c0.718,0.213,1.402,0.525,2.091,0.826
		c1.376,0.607,2.67,1.401,3.895,2.284c0.603,0.453,1.16,0.966,1.74,1.449c0.533,0.533,1.047,1.084,1.568,1.628l-2.196,0.79
		c0.044-1.359,0.242-2.725,0.631-4.044c0.383-1.321,0.97-2.584,1.714-3.73c1.488-2.302,3.521-4.159,5.735-5.587
		c2.214-1.45,4.604-2.532,7.039-3.405c2.44-0.862,4.935-1.519,7.453-2.009c1.259-0.246,2.523-0.458,3.794-0.626l1.908-0.227
		c0.717-0.074,1.278-0.096,1.926-0.147l1.88-0.132c0.637-0.03,1.311-0.004,1.965-0.007c0.658,0.02,1.318-0.027,1.974,0.052
		l1.969,0.218c0.659,0.039,1.304,0.238,1.953,0.383c0.641,0.178,1.313,0.257,1.924,0.529l1.865,0.709
		c0.614,0.25,1.178,0.586,1.768,0.876c1.2,0.564,2.24,1.313,3.35,1.984c1.073,0.706,2.095,1.458,3.144,2.185l-1.985,1.014
		c0.004-2.123,0.415-4.271,1.249-6.237c0.827-1.971,2.048-3.741,3.471-5.267c2.866-3.061,6.425-5.212,10.079-6.903
		c1.832-0.852,3.707-1.586,5.607-2.225c1.9-0.641,3.818-1.216,5.756-1.699c3.873-0.982,7.796-1.707,11.746-2.216
		c1.976-0.255,3.958-0.457,5.951-0.591c0.27-0.015,0.455-0.038,0.792-0.046l0.737-0.017l1.477-0.034
		c1.005,0.009,2.062,0.083,3.088,0.136c1.01,0.139,2.027,0.222,3.03,0.41c0.995,0.225,2.013,0.353,2.988,0.671
		c0.984,0.277,1.972,0.547,2.921,0.942c0.479,0.186,0.963,0.354,1.435,0.556l1.39,0.67c0.945,0.41,1.8,1.003,2.69,1.523
		c0.872,0.552,1.678,1.213,2.502,1.838c1.54,1.389,3.027,2.879,4.146,4.653c0.281,0.44,0.598,0.86,0.847,1.319l0.701,1.403
		c0.521,0.914,0.766,1.941,1.138,2.916c0.329,0.99,0.473,2.027,0.713,3.039c0.133,1.027,0.201,2.062,0.3,3.093l-1.631-1.149
		c4.649-1.462,9.404-2.399,14.23-2.915c1.208-0.109,2.417-0.23,3.635-0.264c1.215-0.068,2.437-0.056,3.659-0.045
		c1.224,0.06,2.448,0.102,3.675,0.269c0.613,0.06,1.226,0.142,1.837,0.268c0.61,0.122,1.225,0.196,1.829,0.38
		c0.604,0.173,1.218,0.294,1.813,0.515c0.594,0.228,1.196,0.423,1.781,0.682c0.592,0.303,1.116,0.545,1.761,0.906
		c0.506,0.347,0.983,0.597,1.515,1.022c0.525,0.403,1.055,0.807,1.502,1.249c0.481,0.42,0.914,0.885,1.339,1.357
		c0.853,0.94,1.596,1.966,2.266,3.026c0.65,1.07,1.272,2.159,1.771,3.295c0.528,1.126,0.938,2.294,1.301,3.47
		c0.684,2.364,1.15,4.76,1.486,7.158l-1.442-0.754l1.894-0.749l1.934-0.617l1.964-0.487l1.985-0.361l1.997-0.24l2.003-0.124
		l2.001-0.012l1.995,0.093l1.983,0.195l1.969,0.292l1.947,0.386l1.923,0.486l1.895,0.573l1.863,0.658l1.828,0.742l1.789,0.823
		l-1.841-0.69l-1.868-0.604l-1.891-0.517l-1.908-0.43l-1.924-0.341l-1.932-0.26l-1.938-0.167l-1.94-0.071l-1.938,0.028l-1.929,0.13
		l-1.914,0.237l-1.892,0.346l-1.862,0.458l-1.824,0.573l-1.776,0.689l-1.721,0.806l-1.177,0.551l-0.266-1.305
		c-0.467-2.296-1.056-4.557-1.831-6.729c-0.4-1.079-0.803-2.154-1.268-3.193c-0.443-1.052-0.98-2.051-1.566-3.015
		c-0.602-0.952-1.261-1.862-2.009-2.685c-0.372-0.414-0.75-0.821-1.169-1.184c-0.4-0.398-0.823-0.71-1.238-1.037
		c-0.392-0.331-0.97-0.649-1.445-0.975l-1.418-0.721c-0.503-0.222-1.037-0.392-1.554-0.594c-0.521-0.195-1.083-0.302-1.621-0.459
		c-0.537-0.167-1.109-0.233-1.666-0.345c-0.557-0.117-1.124-0.192-1.696-0.248c-1.136-0.156-2.294-0.195-3.447-0.252
		c-1.16-0.009-2.32-0.022-3.484,0.043c-1.162,0.031-2.327,0.149-3.489,0.253c-4.643,0.495-9.282,1.411-13.721,2.809l-1.465,0.461
		l-0.166-1.611c-0.096-0.926-0.154-1.859-0.271-2.781c-0.222-0.899-0.341-1.829-0.636-2.704c-0.336-0.859-0.539-1.775-1.006-2.576
		l-0.616-1.239c-0.219-0.405-0.503-0.773-0.749-1.162c-0.98-1.568-2.31-2.887-3.68-4.133c-0.745-0.557-1.464-1.155-2.254-1.653
		c-0.81-0.468-1.575-1.011-2.443-1.382l-1.269-0.614c-0.433-0.185-0.88-0.338-1.318-0.509c-0.87-0.365-1.783-0.612-2.693-0.869
		c-0.898-0.298-1.848-0.41-2.77-0.622c-0.932-0.176-1.881-0.25-2.819-0.382c-0.939-0.043-1.848-0.116-2.81-0.127l-1.476,0.034
		l-0.738,0.017c-0.155,0.001-0.459,0.028-0.682,0.042c-1.934,0.13-3.87,0.327-5.798,0.576c-3.857,0.497-7.69,1.206-11.449,2.16
		c-1.883,0.469-3.738,1.026-5.567,1.643c-1.831,0.615-3.627,1.318-5.364,2.127c-3.47,1.6-6.77,3.628-9.297,6.336
		c-1.258,1.349-2.3,2.871-2.997,4.532c-0.702,1.659-1.047,3.449-1.054,5.264l-0.009,2.382l-1.977-1.368
		c-1.017-0.704-2.021-1.444-3.048-2.119c-1.042-0.627-2.051-1.355-3.134-1.857c-0.537-0.262-1.058-0.578-1.607-0.799l-1.659-0.63
		c-0.542-0.25-1.139-0.307-1.706-0.467c-0.577-0.127-1.139-0.312-1.741-0.342l-1.778-0.197c-0.593-0.074-1.195-0.025-1.792-0.046
		c-0.603,0.003-1.187-0.028-1.806,0.001l-1.88,0.132c-0.606,0.047-1.301,0.081-1.834,0.14l-1.836,0.218
		c-1.222,0.162-2.438,0.366-3.645,0.602c-4.808,0.962-9.589,2.446-13.604,5.053c-2.004,1.29-3.753,2.918-4.999,4.843
		c-1.269,1.918-1.877,4.178-1.95,6.481l-0.096,2.971l-2.101-2.182l-1.384-1.436c-0.513-0.42-0.999-0.874-1.528-1.272
		c-1.078-0.772-2.211-1.473-3.433-2.011c-0.612-0.266-1.218-0.547-1.864-0.735l-0.953-0.319l-0.981-0.244
		c-1.304-0.339-2.654-0.527-4.011-0.659c-1.357-0.129-2.732-0.153-4.108-0.132c-0.688,0.018-1.379,0.063-2.067,0.102l-2.067,0.205
		c-1.385,0.179-2.739,0.36-4.128,0.569c-1.432,0.174-2.723,0.501-4.089,0.795c-0.673,0.158-1.357,0.272-2.023,0.467l-1.989,0.64
		l-1.994,0.641c-0.658,0.229-1.293,0.516-1.943,0.771c-1.289,0.539-2.6,1.007-3.87,1.662l-1.919,0.922l-0.96,0.46
		c-0.29,0.136-0.596,0.336-0.894,0.5c-1.223,0.657-2.357,1.46-3.443,2.33c-1.074,0.888-2.071,1.873-3.033,2.903
		c-0.952,1.039-1.866,2.122-2.78,3.208C932.455,180.781,931.521,181.849,930.579,182.911z"/>
</g>
<g>
	<path d="M671.245,356.911l0.88-1.717l0.994-1.662l1.103-1.596l1.205-1.523l1.305-1.445l1.395-1.362l1.485-1.269l1.562-1.176
		l1.63-1.083l1.69-0.99l1.744-0.896l1.79-0.803l1.832-0.71l1.866-0.617l1.896-0.525l1.921-0.434l1.94-0.342l1.957-0.251l1.968-0.16
		l1.976-0.069l1.979,0.021l1.979,0.113l1.975,0.206l1.964,0.305l1.945,0.417l1.917,0.54l1.885,0.645l1.852,0.741l1.815,0.828
		l1.771,0.923l1.718,1.021l1.659,1.12l-1.977,0.923l0.223-2.036l0.363-2.02l0.512-1.989c0.221-0.648,0.427-1.302,0.661-1.945
		c0.268-0.629,0.509-1.271,0.801-1.889c0.312-0.607,0.587-1.236,0.932-1.825c0.667-1.189,1.398-2.341,2.206-3.431
		c0.802-1.094,1.661-2.142,2.574-3.131c0.452-0.501,0.911-0.993,1.393-1.46c0.472-0.479,0.952-0.948,1.449-1.395
		c0.978-0.916,1.993-1.784,3.03-2.619c1.039-0.846,2.069-1.644,3.177-2.432c1.154-0.794,2.287-1.47,3.465-2.123
		c1.173-0.647,2.364-1.25,3.571-1.816c2.415-1.133,4.9-2.114,7.454-2.925c2.558-0.8,5.191-1.43,7.936-1.668
		c1.372-0.112,2.776-0.12,4.199,0.089c1.416,0.21,2.874,0.649,4.179,1.502l-1.943,1.109l-0.02-1.996
		c-0.002-0.665,0.099-1.331,0.145-1.997c0.158-1.325,0.411-2.65,0.829-3.928c0.167-0.652,0.438-1.27,0.695-1.891
		c0.233-0.633,0.556-1.222,0.877-1.812c0.296-0.605,0.67-1.162,1.047-1.717c0.354-0.571,0.773-1.091,1.199-1.606
		c0.405-0.534,0.865-1.016,1.334-1.49c0.449-0.493,0.942-0.938,1.447-1.368c0.488-0.452,1.008-0.861,1.544-1.248l0.794-0.594
		l0.83-0.536c0.55-0.362,1.106-0.714,1.688-1.018c0.575-0.316,1.145-0.646,1.743-0.91c1.175-0.581,2.389-1.067,3.611-1.519
		l1.876-0.626c0.618-0.167,1.189-0.358,1.847-0.504c1.293-0.319,2.556-0.58,3.846-0.766c0.643-0.102,1.287-0.192,1.938-0.248
		c0.646-0.073,1.297-0.13,1.951-0.151c0.652-0.04,1.306-0.064,1.964-0.045c0.656-0.003,1.313,0.011,1.974,0.076
		c0.658,0.038,1.317,0.1,1.977,0.218l0.988,0.151l0.981,0.236l0.979,0.247l0.963,0.345c0.65,0.202,1.267,0.518,1.882,0.838
		c1.234,0.627,2.353,1.518,3.331,2.543c0.479,0.52,0.859,1.13,1.283,1.696c0.334,0.62,0.631,1.263,0.938,1.897l-2.332,0.9
		c-0.069-0.23-0.118-0.479-0.143-0.72c-0.02-0.24,0.052-0.512,0.117-0.759c0.066-0.267,0.199-0.398,0.316-0.596
		c0.127-0.199,0.253-0.315,0.379-0.422c0.263-0.252,0.51-0.398,0.751-0.535c0.253-0.162,0.475-0.23,0.712-0.342
		c0.927-0.37,1.811-0.574,2.692-0.747c1.76-0.322,3.494-0.466,5.228-0.547c3.463-0.144,6.908-0.016,10.335,0.338
		c3.426,0.354,6.838,0.916,10.195,1.819c1.678,0.453,3.343,0.989,4.973,1.666l1.221,0.538l1.146,0.548
		c0.764,0.357,1.53,0.733,2.3,1.129c1.543,0.767,3.05,1.58,4.544,2.432c1.498,0.845,2.957,1.766,4.405,2.705l2.126,1.489
		c0.698,0.514,1.372,1.065,2.059,1.597c1.337,1.111,2.655,2.26,3.851,3.549c0.301,0.319,0.62,0.62,0.905,0.956l0.839,1.023
		l0.837,1.026l0.742,1.105l0.736,1.11c0.242,0.373,0.422,0.787,0.635,1.179c0.409,0.795,0.846,1.576,1.116,2.439
		c0.295,0.849,0.671,1.671,0.817,2.566l0.291,1.32l0.142,0.66l0.054,0.674c0.046,0.897,0.193,1.798,0.146,2.693l-0.176,2.687
		l-2.379-0.679c0.72-1.573,1.99-2.813,3.362-3.641c1.386-0.82,2.864-1.318,4.335-1.666c2.953-0.677,5.913-0.786,8.829-0.682
		c2.92,0.109,5.81,0.453,8.667,0.979c1.429,0.264,2.85,0.573,4.262,0.941c1.423,0.376,2.794,0.783,4.238,1.349l1.972,0.825
		c0.66,0.288,1.334,0.622,2,0.932c1.319,0.656,2.604,1.356,3.853,2.149c1.248,0.788,2.447,1.668,3.586,2.63
		c0.578,0.469,1.096,1.014,1.645,1.52c0.526,0.53,1.011,1.105,1.516,1.658c0.454,0.597,0.926,1.182,1.363,1.792
		c0.397,0.636,0.837,1.249,1.195,1.907c0.73,1.311,1.341,2.686,1.801,4.101c0.468,1.414,0.813,2.855,1.08,4.301
		c0.108,0.727,0.251,1.449,0.33,2.176l0.215,2.18l-1.78-0.561c0.582-0.62,1.194-1.201,1.858-1.693
		c0.656-0.506,1.346-0.953,2.056-1.347c1.416-0.8,2.902-1.425,4.416-1.93c3.031-1,6.176-1.549,9.331-1.692
		c1.577-0.066,3.158-0.03,4.728,0.129c0.785,0.072,1.567,0.186,2.341,0.337c0.774,0.145,1.542,0.333,2.296,0.562
		c0.755,0.225,1.498,0.491,2.217,0.813c0.72,0.316,1.424,0.676,2.079,1.11c0.668,0.412,1.284,0.907,1.851,1.446
		c0.572,0.535,1.058,1.151,1.498,1.791c-0.479-0.613-0.997-1.193-1.593-1.687c-0.591-0.496-1.223-0.944-1.901-1.309
		c-0.665-0.385-1.374-0.693-2.094-0.959c-0.718-0.271-1.457-0.486-2.204-0.659c-0.745-0.179-1.502-0.315-2.263-0.41
		c-0.759-0.104-1.522-0.179-2.289-0.208c-1.531-0.076-3.066-0.032-4.591,0.11c-3.047,0.295-6.056,0.986-8.879,2.082
		c-1.409,0.551-2.771,1.211-4.023,2.007c-0.63,0.393-1.229,0.826-1.779,1.3c-0.563,0.462-1.053,0.985-1.51,1.521l-1.442,1.686
		l-0.339-2.246l-0.312-2.062c-0.11-0.686-0.281-1.355-0.417-2.032c-0.319-1.341-0.709-2.658-1.202-3.928
		c-0.485-1.271-1.063-2.495-1.703-3.682c-0.315-0.597-0.703-1.148-1.05-1.728c-0.388-0.55-0.798-1.086-1.207-1.622
		c-0.458-0.496-0.891-1.015-1.366-1.495c-0.501-0.456-0.965-0.951-1.494-1.379c-1.039-0.877-2.141-1.687-3.302-2.419
		c-1.156-0.736-2.376-1.4-3.607-2.013c-0.626-0.29-1.228-0.593-1.872-0.874l-1.972-0.825c-1.209-0.473-2.571-0.888-3.903-1.235
		c-1.345-0.351-2.71-0.648-4.083-0.901c-2.746-0.507-5.53-0.837-8.306-0.94c-2.769-0.103-5.558,0.017-8.166,0.617
		c-1.298,0.304-2.547,0.74-3.617,1.375c-1.058,0.646-1.892,1.497-2.372,2.523l-2.81,6.008l0.431-6.687l0.154-2.387
		c0.046-0.795-0.097-1.583-0.13-2.375l-0.044-0.594l-0.128-0.581l-0.257-1.161c-0.119-0.789-0.465-1.517-0.723-2.268
		c-0.231-0.764-0.63-1.463-0.996-2.175c-0.191-0.352-0.347-0.722-0.566-1.059l-0.671-1.006l-0.671-1.007l-0.772-0.941l-0.77-0.944
		c-0.263-0.31-0.563-0.59-0.844-0.888c-1.108-1.198-2.353-2.28-3.618-3.334c-0.653-0.504-1.291-1.028-1.958-1.519l-2.037-1.427
		c-1.396-0.904-2.802-1.794-4.257-2.613c-1.448-0.826-2.926-1.623-4.417-2.364c-0.738-0.38-1.493-0.75-2.264-1.111l-1.147-0.548
		l-1.104-0.486c-1.501-0.624-3.067-1.13-4.661-1.56c-3.188-0.859-6.486-1.404-9.8-1.746c-3.313-0.343-6.66-0.465-9.969-0.328
		c-1.65,0.076-3.301,0.218-4.876,0.507c-0.779,0.15-1.552,0.341-2.2,0.601c-0.144,0.07-0.333,0.128-0.433,0.205
		c-0.129,0.07-0.245,0.143-0.284,0.192c-0.041,0.027-0.071,0.052-0.045,0.043c0.021-0.011-0.035,0.003,0.014-0.045
		c0.035-0.04,0.008-0.105,0.017-0.138c0.015-0.034,0.005-0.073-0.024-0.096l-2.332,0.9l-0.74-1.495
		c-0.343-0.433-0.625-0.913-1-1.318c-0.769-0.792-1.638-1.505-2.658-2.018c-0.507-0.262-1.011-0.529-1.572-0.699l-0.818-0.296
		l-0.856-0.213l-0.858-0.209l-0.884-0.133c-0.585-0.106-1.182-0.162-1.784-0.196c-0.598-0.06-1.202-0.073-1.809-0.069
		c-0.604-0.019-1.212,0.004-1.82,0.042c-0.607,0.018-1.215,0.073-1.822,0.141c-0.608,0.051-1.214,0.136-1.818,0.232
		c-1.208,0.173-2.421,0.427-3.578,0.71c-0.576,0.125-1.206,0.332-1.806,0.493l-1.716,0.575c-1.144,0.423-2.276,0.876-3.365,1.415
		c-0.558,0.245-1.081,0.55-1.612,0.842c-0.539,0.279-1.049,0.603-1.553,0.935l-0.761,0.49l-0.721,0.542
		c-0.489,0.352-0.961,0.723-1.399,1.13c-0.457,0.39-0.902,0.788-1.302,1.23c-0.42,0.425-0.834,0.854-1.19,1.329
		c-0.379,0.458-0.754,0.919-1.062,1.424c-0.333,0.49-0.666,0.98-0.923,1.514c-0.282,0.519-0.569,1.035-0.771,1.592
		c-0.225,0.545-0.467,1.084-0.61,1.659c-0.368,1.121-0.59,2.29-0.73,3.466c-0.038,0.593-0.133,1.181-0.129,1.777l0.016,1.791
		l0.021,2.387l-1.965-1.277c-1.804-1.174-4.338-1.384-6.782-1.178c-2.472,0.214-4.959,0.799-7.39,1.562
		c-2.432,0.771-4.824,1.715-7.145,2.805c-1.16,0.544-2.305,1.122-3.422,1.739c-1.11,0.613-2.223,1.284-3.225,1.972
		c-1.024,0.728-2.063,1.531-3.053,2.338c-1,0.805-1.975,1.638-2.905,2.511c-0.477,0.427-0.932,0.872-1.378,1.325
		c-0.458,0.443-0.89,0.908-1.315,1.379c-0.86,0.932-1.662,1.91-2.405,2.926c-0.751,1.012-1.423,2.072-2.035,3.163
		c-0.317,0.54-0.565,1.114-0.853,1.669c-0.267,0.564-0.484,1.149-0.73,1.722l-0.602,1.77l-0.466,1.811l-0.331,1.842l-0.203,1.864
		l-0.229,2.103l-1.747-1.18l-1.538-1.038l-1.597-0.949l-1.649-0.859l-1.696-0.768l-1.738-0.668l-1.772-0.579
		c-1.194-0.348-2.397-0.658-3.611-0.94l-1.833-0.373l-1.851-0.291l-1.865-0.204l-1.875-0.117l-1.881-0.031l-1.883,0.056l-1.88,0.144
		l-1.873,0.23l-1.861,0.32l-1.846,0.409l-1.825,0.501l-1.798,0.592l-1.768,0.686l-1.729,0.779l-1.687,0.873l-1.635,0.97
		l-1.578,1.063l-1.512,1.159l-1.446,1.246l-1.367,1.336l-1.28,1.425l-1.188,1.508l-1.087,1.584L671.245,356.911z"/>
</g>
<g>
	<path d="M1099.245,506.245c-0.464-1.408-0.413-3.03,0.144-4.465c0.541-1.451,1.512-2.704,2.601-3.777
		c2.21-2.141,4.861-3.727,7.575-5.069c1.364-0.668,2.752-1.285,4.164-1.839c1.41-0.553,2.834-1.086,4.305-1.448
		c2.94-0.727,5.881-1.407,8.923-1.779c0.761-0.101,1.528-0.164,2.329-0.206l2.233-0.078c1.515-0.035,3.025-0.043,4.538-0.005
		c1.514,0.046,3.031,0.13,4.549,0.291c1.517,0.163,3.035,0.377,4.538,0.711c0.753,0.156,1.504,0.329,2.244,0.557l1.114,0.322
		l1.096,0.393c1.464,0.516,2.879,1.191,4.239,1.96c0.691,0.365,1.319,0.842,1.98,1.26c0.641,0.45,1.236,0.964,1.854,1.444
		c0.58,0.525,1.138,1.076,1.706,1.615l1.544,1.766l-2.224,0.883l-0.051-2.3l0.239-2.3c0.184-0.75,0.332-1.513,0.556-2.251
		c0.286-0.717,0.504-1.467,0.857-2.152c0.682-1.384,1.505-2.699,2.5-3.857c0.494-0.582,0.988-1.166,1.559-1.667l0.827-0.781
		c0.286-0.248,0.59-0.471,0.885-0.707l0.891-0.697l0.939-0.62l0.941-0.616l0.981-0.541l0.981-0.539l1.014-0.469
		c0.671-0.322,1.352-0.62,2.051-0.869c0.69-0.271,1.383-0.535,2.094-0.74c0.707-0.219,1.408-0.457,2.129-0.619
		c1.428-0.383,2.877-0.661,4.331-0.896c0.73-0.095,1.46-0.208,2.191-0.285l2.202-0.178l2.209-0.06
		c0.737-0.004,1.475,0.033,2.211,0.048c1.473,0.078,2.944,0.203,4.405,0.437c0.734,0.084,1.458,0.254,2.185,0.398
		c0.729,0.13,1.445,0.333,2.161,0.53c0.722,0.177,1.427,0.42,2.13,0.673c0.71,0.226,1.399,0.519,2.083,0.826
		c0.695,0.278,1.36,0.631,2.021,0.996c0.676,0.333,1.305,0.758,1.935,1.179c1.265,0.835,2.427,1.843,3.481,2.958
		c0.545,0.539,0.975,1.191,1.464,1.785c0.442,0.632,0.814,1.315,1.22,1.974l-1.757-0.493l3.258-1.781l3.409-1.486l3.536-1.157
		c1.209-0.272,2.414-0.575,3.628-0.817c1.228-0.16,2.452-0.368,3.684-0.483c1.234-0.052,2.47-0.162,3.703-0.162
		c1.231,0.047,2.47,0.036,3.696,0.134c1.241,0.141,2.409,0.214,3.712,0.412c0.598,0.116,1.168,0.177,1.792,0.327
		c0.624,0.163,1.27,0.306,1.868,0.519c0.589,0.217,1.173,0.449,1.747,0.691l1.685,0.79c1.1,0.56,2.172,1.146,3.223,1.754
		l3.112,1.838c1.03,0.608,2.067,1.193,3.115,1.754l1.594,0.789l1.632,0.699l1.676,0.591c0.57,0.151,1.142,0.323,1.721,0.46
		c0.585,0.099,1.172,0.214,1.765,0.3l1.795,0.13l-1.808,0.076c-0.604-0.018-1.208-0.066-1.816-0.1
		c-0.603-0.07-1.202-0.178-1.808-0.267c-0.597-0.122-1.187-0.278-1.781-0.424l-1.745-0.556l-1.71-0.65
		c-1.123-0.468-2.233-0.96-3.329-1.472l-3.263-1.523c-1.083-0.494-2.171-0.959-3.262-1.388l-1.646-0.586l-1.654-0.496l-1.605-0.437
		c-0.54-0.147-1.165-0.242-1.744-0.36c-1.07-0.161-2.305-0.249-3.449-0.379c-1.166-0.094-2.336-0.08-3.504-0.127
		c-1.167,0-2.329,0.106-3.494,0.153c-1.158,0.108-2.307,0.307-3.461,0.453c-1.139,0.229-2.267,0.515-3.4,0.766l-3.312,1.085
		l-3.197,1.394l-3.065,1.676l-1.073,0.587l-0.684-1.08c-0.353-0.556-0.662-1.139-1.039-1.679c-0.427-0.506-0.782-1.067-1.26-1.533
		c-0.913-0.962-1.926-1.848-3.053-2.589c-0.561-0.374-1.117-0.756-1.73-1.056c-0.595-0.328-1.193-0.648-1.831-0.901
		c-0.622-0.281-1.251-0.549-1.907-0.757c-0.646-0.232-1.295-0.457-1.966-0.62c-0.665-0.184-1.327-0.373-2.01-0.493
		c-0.679-0.135-1.351-0.295-2.041-0.373c-1.369-0.219-2.755-0.336-4.142-0.409c-0.695-0.014-1.39-0.05-2.085-0.046l-2.087,0.057
		l-2.08,0.168c-0.691,0.072-1.379,0.181-2.069,0.269c-1.372,0.222-2.739,0.484-4.079,0.844c-0.679,0.151-1.334,0.376-1.996,0.581
		c-0.667,0.19-1.312,0.438-1.955,0.69c-0.652,0.231-1.283,0.508-1.903,0.807l-0.938,0.433l-0.9,0.496l-0.901,0.495l-0.855,0.562
		l-0.854,0.562l-0.799,0.629c-0.265,0.212-0.54,0.411-0.795,0.633l-0.733,0.695c-0.511,0.444-0.939,0.958-1.373,1.467
		c-0.873,1.013-1.575,2.147-2.161,3.33c-0.306,0.585-0.48,1.226-0.732,1.834c-0.189,0.63-0.311,1.28-0.475,1.918l-0.205,1.974
		l0.045,1.996l0.078,3.515l-2.302-2.632l-1.394-1.595l-1.535-1.451c-0.558-0.429-1.089-0.894-1.665-1.297
		c-0.598-0.373-1.157-0.806-1.783-1.134c-1.229-0.692-2.508-1.308-3.852-1.779l-1.004-0.36l-1.029-0.297
		c-0.683-0.211-1.381-0.371-2.085-0.518c-1.401-0.312-2.835-0.514-4.274-0.669c-1.441-0.153-2.896-0.233-4.356-0.278
		c-1.462-0.037-2.928-0.028-4.387,0.005l-2.228,0.078c-0.684,0.037-1.4,0.094-2.114,0.188c-2.863,0.373-5.752,0.958-8.56,1.765
		c-1.399,0.421-2.823,0.755-4.229,1.158c-1.407,0.399-2.794,0.861-4.162,1.372c-2.725,1.031-5.39,2.3-7.653,4.101
		c-1.116,0.908-2.117,1.975-2.786,3.25C1099.2,503.268,1098.949,504.767,1099.245,506.245z"/>
</g>
<g>
	<path d="M287.911,534.914c1.877,1.245,4.028,1.967,6.223,2.221c2.195,0.256,4.417,0.061,6.554-0.428
		c2.139-0.495,4.199-1.303,6.116-2.35c0.958-0.526,1.874-1.119,2.757-1.753c0.854-0.651,1.709-1.359,2.568-2.091
		c3.433-2.878,6.936-5.744,10.707-8.29c1.876-1.288,3.853-2.44,5.895-3.462l3.104-1.446l3.168-1.293
		c2.099-0.808,4.197-1.589,6.333-2.339c2.134-0.745,4.301-1.439,6.516-2.012c4.413-1.136,9.103-1.812,13.793-1.125l1.801,0.336
		l1.619,0.446l1.738,0.658c0.536,0.265,1.078,0.521,1.606,0.798c2.092,1.159,3.919,2.669,5.583,4.242
		c3.319,3.149,6.155,6.589,9.78,8.761l-1.849,0.743c0.503-1.851,1.422-3.57,2.586-5.043c1.165-1.479,2.557-2.727,4.041-3.793
		c2.98-2.135,6.308-3.559,9.673-4.69c3.377-1.122,6.839-1.881,10.322-2.44c3.487-0.54,7-0.864,10.54-0.924
		c1.766-0.043,3.573,0.051,5.289,0.152c1.775,0.129,3.533,0.296,5.281,0.536c1.75,0.244,3.495,0.54,5.225,0.928
		c1.73,0.382,3.452,0.832,5.143,1.4c0.847,0.278,1.692,0.561,2.517,0.913l1.246,0.501l1.217,0.576l1.213,0.587l1.175,0.672
		c0.796,0.424,1.542,0.941,2.286,1.461c1.494,1.027,2.863,2.249,4.121,3.579c0.637,0.656,1.165,1.417,1.748,2.123
		c0.524,0.753,0.988,1.551,1.481,2.326l-2.277,0.191c1.186-3.329,3.526-6.019,6.127-8.099c2.624-2.092,5.549-3.673,8.55-4.977
		c3.009-1.298,6.113-2.312,9.262-3.125c3.158-0.79,6.332-1.455,9.613-1.748c3.321-0.282,6.65-0.046,9.859,0.412
		c3.223,0.459,6.374,1.135,9.497,1.754c3.122,0.619,6.225,1.188,9.323,1.415l2.317,0.099c0.767-0.025,1.537-0.028,2.301-0.068
		l1.139-0.117l0.569-0.058l0.285-0.028c0.09-0.016-0.083,0.018-0.051,0.011l0.037-0.009l0.073-0.016l0.146-0.033l1.171-0.259
		l0.585-0.13l0.51-0.184c1.329-0.441,2.764-1.081,4.142-1.81c1.392-0.703,2.759-1.511,4.18-2.282
		c1.407-0.778,2.863-1.547,4.413-2.196c0.812-0.371,1.516-0.583,2.279-0.882c0.738-0.285,1.553-0.524,2.326-0.787
		c3.124-0.994,6.352-1.686,9.639-2.012c0.821-0.073,1.646-0.111,2.47-0.161c0.825-0.021,1.651,0.02,2.476,0.031
		c0.499,0.025,0.823,0.077,1.244,0.114c0.411,0.051,0.863,0.138,1.29,0.208c0.84,0.171,1.646,0.374,2.444,0.618
		c3.179,0.986,6.099,2.416,8.961,3.862c2.863,1.449,5.67,2.953,8.575,4.214c2.894,1.261,5.915,2.298,9.055,2.534
		c3.129,0.274,6.352-0.518,9.024-2.299c-2.541,1.95-5.788,3-9.051,2.929c-3.27-0.035-6.447-0.959-9.467-2.072
		c-3.032-1.121-5.948-2.482-8.866-3.761c-2.914-1.277-5.844-2.502-8.828-3.246c-0.743-0.185-1.498-0.329-2.231-0.437
		c-0.365-0.036-0.701-0.09-1.085-0.117c-0.377-0.014-0.849-0.047-1.148-0.045l-2.32,0.02l-2.315,0.126
		c-3.084,0.25-6.136,0.942-9.106,1.874c-0.739,0.254-1.462,0.459-2.216,0.75c-0.725,0.284-1.554,0.545-2.192,0.848
		c-1.4,0.587-2.778,1.309-4.167,2.078c-1.389,0.754-2.775,1.573-4.237,2.312c-0.711,0.392-1.469,0.734-2.229,1.074
		c-0.724,0.364-1.591,0.638-2.415,0.93l-0.622,0.21l-0.585,0.13l-1.171,0.26l-0.146,0.032l-0.073,0.017l-0.037,0.008l-0.125,0.021
		l-0.312,0.032l-0.623,0.063l-1.247,0.127c-0.831,0.045-1.661,0.05-2.491,0.074l-2.474-0.105c-3.284-0.241-6.483-0.833-9.63-1.456
		c-3.147-0.625-6.254-1.289-9.362-1.73c-3.115-0.443-6.206-0.655-9.26-0.399c-3.089,0.271-6.199,0.919-9.237,1.681
		c-3.041,0.784-6.031,1.764-8.893,2.999c-2.855,1.238-5.6,2.733-7.978,4.632c-2.367,1.89-4.355,4.233-5.33,6.967l-0.854,2.393
		l-1.424-2.201c-0.443-0.685-0.851-1.394-1.315-2.063c-0.526-0.626-0.987-1.306-1.56-1.893c-1.127-1.189-2.358-2.293-3.725-3.231
		c-0.68-0.474-1.359-0.949-2.098-1.341l-1.084-0.621l-1.13-0.546l-1.135-0.539l-1.17-0.469c-0.772-0.332-1.573-0.598-2.375-0.861
		c-1.599-0.538-3.242-0.968-4.899-1.335c-1.657-0.371-3.336-0.655-5.024-0.891c-1.691-0.233-3.39-0.394-5.077-0.518
		c-1.75-0.103-3.411-0.189-5.117-0.149c-3.402,0.058-6.817,0.372-10.19,0.895c-3.368,0.542-6.71,1.275-9.924,2.345
		c-3.201,1.072-6.328,2.427-9.001,4.349c-2.666,1.897-4.859,4.434-5.672,7.462l-0.429,1.598l-1.42-0.854
		c-2.042-1.23-3.82-2.775-5.458-4.361c-1.642-1.589-3.163-3.228-4.751-4.726c-1.584-1.499-3.245-2.857-5.077-3.872l-1.4-0.697
		l-1.399-0.538l-1.619-0.445l-1.502-0.273c-4.208-0.619-8.574-0.018-12.803,1.073c-4.241,1.099-8.406,2.679-12.583,4.266
		l-3.051,1.245l-2.963,1.434c-1.94,1.024-3.869,2.07-5.765,3.197c-1.892,1.131-3.745,2.345-5.563,3.622
		c-1.825,1.27-3.613,2.589-5.409,3.936c-0.886,0.672-1.793,1.345-2.758,1.999c-0.973,0.619-1.973,1.188-3.008,1.684
		c-2.071,0.985-4.264,1.705-6.514,2.096c-2.247,0.394-4.563,0.432-6.797,0.015C291.837,537.176,289.687,536.275,287.911,534.914z"/>
</g>
<path fill-rule="evenodd" clip-rule="evenodd" d="M801.002,643.171c4.065,0.927,4.658,6.854,9.14,6.854
	c2.692,0,2.644-1.915,5.712-2.855c1.066,5.168-5.744,5.157-9.139,3.998c0.81,4.287,7.613,3.508,9.711,3.428
	c0.248,3.911-4.227,2.715-6.284,1.714c0.934,3.39,6.019,10.714,8.569,15.995c2.254,4.668-5.725,14.381-13.139,10.282
	c-0.453-6.926,5.348-7.601,9.711-9.711C812.416,661.082,803.385,655.45,801.002,643.171z"/>
<path fill-rule="evenodd" clip-rule="evenodd" d="M117.281,159.557c0.281,0.258,0.562,0.515,0.844,0.772
	c-2.795,13.065-12.209,26.433-15.186,39.507c-1.54,1.688-3.081,3.375-4.621,5.062c-3.377,0.292-8.289,2.682-10.564-1.137
	c1.322-6.599,9.172-7.324,13.352-8.695C107.822,183.171,110.9,171.439,117.281,159.557z"/>
<path fill-rule="evenodd" clip-rule="evenodd" d="M769.2,393.3c0.571,0,1.143,0,1.714,0c4.507,6.918,2.773,20.076,7.997,26.277
	c-3.403,3.936-5.848,11.525-14.281,8.568c-0.403-3.07,0.453-4.881,1.143-6.855c4.247,0.058,5.211-3.168,8.569-3.998
	C773.778,408.145,770.878,401.333,769.2,393.3z M767.487,423.004c-0.277,1.3-1.135,2.919,0,3.999
	c3.916-0.082,5.082-2.914,6.854-5.142C771.058,421.798,770.597,424.331,767.487,423.004z"/>
<path fill-rule="evenodd" clip-rule="evenodd" d="M1214.747,42.913c0.438,0.156,0.873,0.312,1.312,0.47
	c-3.407,11.19,3.096,38.636-18.079,27.046c0.108-8.631,9.488-3.881,13.932-5.852C1213.531,57.036,1211.676,51.137,1214.747,42.913z
	 M1199.636,68.558c2.728,4.33,10.534,4.018,12.209-1.046C1208.619,66.665,1202.336,65.753,1199.636,68.558z"/>
<path fill-rule="evenodd" clip-rule="evenodd" d="M384.944,624.523c0.001,6.666-2.103,11.226-9.14,10.854
	C378.014,631.254,378.402,622.43,384.944,624.523z"/>
<path fill-rule="evenodd" clip-rule="evenodd" d="M214.314,373.109c-1.902,8.762-4.182,17.146-4.57,27.42
	c2.613,0.316,3.753-5.758,8.568-5.141c1.771,7.156-3.762,11.813-9.711,13.139c-1.683-9.575,0.094-20.407,1.713-28.562
	c-2.455,0.6-6.471,4.566-10.854,5.141c1.521,12.1,13.387,36.544-3.998,39.416c-1.729-6.551,3.287-11.139,6.854-14.281
	c-1.579-9.464-2.836-19.252-6.284-26.848C205.041,382.879,208.389,376.706,214.314,373.109z"/>
<path fill-rule="evenodd" clip-rule="evenodd" d="M1208.69,373.202c0.562,0.113,1.121,0.226,1.681,0.338
	c-3.222,8.072,3.618,10.564,8.729,11.66c-2.844,3.696-8.883-1.414-11.09-2.812c-0.669,5.621,7.611,5.286,8.506,9.867
	c-2.927,2.148-5.619-3.936-8.959-4.714c-1.422,6.851-6.023,15.62-4.163,20.722c-4.854,0.431-16.844,0.58-17.136-4.609
	c-0.363-6.396,10.507-4.027,14.002-0.098C1204.845,396.103,1205.245,382.362,1208.69,373.202z"/>
<g>
	<g>
		<g>
			<path fill="#FFFFFF" d="M691.408,59.125c-4.21-1.112-2.857-7.601-2.424-10.858c0.366-2.756-0.597-12.496,6.375-12.635
				c6.896-0.137,5.502,11.506,4.889,13.935c-0.59,2.336-0.74,6.638-2.049,8.554"/>
			<path d="M691.13,60.001l-0.428-0.068c-0.184-0.053-0.388-0.105-0.559-0.176c-0.337-0.139-0.676-0.312-0.977-0.541
				c-0.611-0.453-1.092-1.064-1.414-1.698c-0.652-1.28-0.834-2.586-0.911-3.813c-0.05-1.234,0.013-2.426,0.148-3.572l0.21-1.682
				c0.033-0.283,0.066-0.534,0.08-0.728l0.043-0.774c0.088-2.204,0.137-4.613,0.838-7.066c0.357-1.223,0.896-2.501,1.869-3.622
				c0.949-1.132,2.405-1.956,3.836-2.21c0.357-0.072,0.711-0.108,1.061-0.135c0.184-0.005,0.324-0.018,0.543-0.014l0.21,0.002
				l0.304,0.018c0.766,0.055,1.521,0.231,2.245,0.58c1.469,0.697,2.464,2.008,3.018,3.238c1.097,2.52,1.164,4.967,1.1,7.331
				c-0.054,1.187-0.163,2.354-0.376,3.53c-0.055,0.295-0.113,0.59-0.185,0.895l-0.212,0.82c-0.119,0.49-0.222,1.023-0.32,1.563
				c-0.199,1.085-0.385,2.212-0.65,3.36c-0.287,1.149-0.584,2.329-1.418,3.554c-0.371,0.544-1.111,0.685-1.656,0.314
				c-0.522-0.356-0.673-1.054-0.355-1.591l0.041-0.069c0.395-0.663,0.627-1.712,0.807-2.737c0.181-1.043,0.299-2.135,0.439-3.261
				c0.072-0.565,0.146-1.138,0.258-1.742l0.162-0.815c0.043-0.242,0.08-0.499,0.112-0.757c0.128-1.035,0.215-2.1,0.224-3.149
				c0.02-2.08-0.207-4.235-0.981-5.813c-0.813-1.588-1.887-2.019-3.687-1.714c-0.771,0.161-1.362,0.512-1.857,1.095
				c-0.496,0.58-0.873,1.402-1.146,2.317c-0.545,1.863-0.635,3.977-0.721,6.231l-0.054,0.901c-0.026,0.364-0.076,0.666-0.12,0.937
				l-0.261,1.643c-0.157,1.069-0.322,2.109-0.37,3.114c-0.064,0.999-0.028,1.971,0.194,2.76c0.24,0.803,0.58,1.342,1.473,1.793
				l0.01,0.004c0.459,0.232,0.643,0.791,0.41,1.25C691.921,59.872,691.519,60.063,691.13,60.001z"/>
		</g>
		<g>
			<path fill="#FFFFFF" d="M694.551,60.25c-6.12-1.125-5.904-8.566-2.829-12.257c1.468-1.76,4.447-2.681,6.014-0.614
				c1.579,2.082,1.217,5.856,0.638,9.001"/>
			<path d="M694.382,61.004c-1.385,0.082-3.082-0.498-4.246-1.657c-1.203-1.162-1.808-2.783-1.979-4.312
				c-0.178-1.547,0.004-3.073,0.448-4.518c0.483-1.452,1.159-2.775,2.349-4.004c1.228-1.174,2.836-1.939,4.752-1.817
				c0.947,0.071,1.955,0.497,2.656,1.186c0.178,0.169,0.334,0.351,0.477,0.538l0.115,0.158l0.068,0.102l0.178,0.285
				c0.23,0.398,0.389,0.771,0.522,1.161c0.503,1.55,0.522,3.021,0.412,4.415c-0.138,1.395-0.479,2.727-1.112,3.959
				c-0.174,0.34-0.59,0.474-0.928,0.3c-0.211-0.108-0.342-0.31-0.37-0.527l-0.001-0.011c-0.162-1.341-0.129-2.606-0.155-3.827
				c-0.011-1.209-0.118-2.409-0.505-3.333c-0.092-0.225-0.211-0.447-0.32-0.607l-0.09-0.127l-0.074-0.098
				c0,0.001-0.053-0.07-0.01-0.011l-0.023-0.025c-0.062-0.069-0.125-0.132-0.189-0.183c-0.252-0.213-0.521-0.315-0.881-0.332
				c-0.719-0.046-1.682,0.411-2.322,1.04c-0.642,0.649-1.222,1.704-1.555,2.729c-0.357,1.044-0.516,2.169-0.423,3.228
				c0.214,2.16,1.238,3.748,3.544,4.782c0.396,0.178,0.574,0.644,0.396,1.041c-0.124,0.276-0.388,0.446-0.671,0.464L694.382,61.004z
				"/>
		</g>
		<g>
			<path fill="#FFFFFF" d="M694.548,60.555c-1.797-1.855-1.911-7.478,1.247-7.476c2.598,0.001,3.072,6.491,0.318,7.649"/>
			<path d="M694.218,60.848c-0.121-0.027-0.223-0.042-0.34-0.099c-0.107-0.064-0.246-0.144-0.334-0.216
				c-0.201-0.146-0.367-0.321-0.518-0.503c-0.293-0.371-0.478-0.794-0.604-1.223c-0.26-0.855-0.386-1.733-0.366-2.647
				c0.03-0.909,0.175-1.884,0.783-2.853c0.304-0.475,0.753-0.949,1.337-1.25c0.602-0.304,1.18-0.428,1.855-0.4
				c0.066,0.007,0.054-0.002,0.186,0.019c0.117,0.019,0.234,0.042,0.35,0.071c0.24,0.06,0.369,0.13,0.555,0.207
				c0.32,0.17,0.611,0.381,0.831,0.607c0.456,0.454,0.726,0.946,0.925,1.419c0.392,0.949,0.509,1.876,0.504,2.797
				c-0.013,0.921-0.182,1.84-0.562,2.751c-0.184,0.455-0.479,0.909-0.937,1.228c-0.454,0.305-1.067,0.495-1.653,0.249
				c-0.192-0.08-0.293-0.287-0.248-0.483l0.016-0.069c0.123-0.543,0.125-0.846,0.158-1.131c0.033-0.273,0.108-0.502,0.205-0.758
				c0.172-0.523,0.219-1.148,0.201-1.758c-0.03-0.608-0.157-1.225-0.355-1.693c-0.1-0.23-0.225-0.412-0.308-0.505
				c-0.042-0.054-0.072-0.062-0.084-0.081c0.006,0.012-0.034-0.017,0.019,0.004c0.022,0.007,0.047,0.008,0.07,0.004
				c0.039-0.006-0.071-0.01-0.1-0.014c-0.274-0.021-0.477-0.006-0.722,0.307c-0.247,0.314-0.449,0.891-0.528,1.502
				c-0.08,0.615-0.059,1.283,0.064,1.91c0.158,0.646,0.219,1.171,0.26,2.022l0.002,0.031c0.015,0.299-0.216,0.554-0.515,0.567
				C694.315,60.863,694.265,60.858,694.218,60.848z"/>
		</g>
	</g>
	<g>
		<circle fill="#FFFFFF" cx="685.045" cy="127.321" r="67.574"/>
		<path d="M754.839,127.335c0.021,9.102-1.744,18.278-5.257,26.719c-1.757,4.222-3.933,8.268-6.479,12.061
			c-2.561,3.779-5.418,7.393-8.808,10.457c-3.374,3.068-6.899,5.955-10.726,8.406c-3.812,2.463-7.861,4.547-12.07,6.211
			c-8.414,3.336-17.446,5.019-26.455,4.971c-9.008-0.029-18.006-1.795-26.369-5.176c-4.188-1.676-8.213-3.77-12-6.238
			c-3.783-2.475-7.33-5.312-10.623-8.432c-3.299-3.111-6.35-6.521-8.994-10.246c-1.302-1.874-2.521-3.811-3.628-5.812
			c-1.089-2.011-2.08-4.075-2.966-6.184c-3.556-8.435-5.401-17.591-5.439-26.751c-0.071-9.164,1.766-18.345,5.273-26.819
			c3.519-8.468,8.682-16.274,15.221-22.706c6.598-6.367,14.465-11.371,22.957-14.618c4.246-1.62,8.629-2.862,13.088-3.635
			c4.457-0.791,8.961-1.202,13.49-1.144c4.49,0.042,9.014,0.443,13.436,1.326c4.434,0.836,8.791,2.097,12.994,3.766
			c8.413,3.324,16.184,8.338,22.716,14.676c3.271,3.163,6.229,6.66,8.808,10.424c2.599,3.753,4.789,7.791,6.537,12.014
			c3.541,8.431,5.314,17.588,5.295,26.717V127.335z M750.399,127.321c-0.007-8.563-1.709-17.103-4.963-25.014
			c-1.64-3.949-3.648-7.746-5.972-11.345c-2.342-3.587-5.026-6.958-8.011-10.051c-5.976-6.178-13.182-11.206-21.118-14.652
			c-3.968-1.72-8.118-3.036-12.364-3.917c-4.256-0.834-8.58-1.288-12.936-1.248c-4.318,0.061-8.661,0.504-12.883,1.431
			c-4.219,0.943-8.346,2.277-12.27,4.047c-7.857,3.523-14.969,8.562-20.877,14.71c-5.977,6.076-10.855,13.246-14.105,21.129
			c-3.287,7.865-4.926,16.381-4.984,24.91c-0.051,8.533,1.58,17.072,4.818,24.979c0.807,1.978,1.713,3.915,2.712,5.804
			c0.982,1.897,2.042,3.758,3.202,5.559c2.275,3.627,4.867,7.086,7.824,10.23c5.934,6.272,13.258,11.217,21.211,14.656
			c7.979,3.414,16.676,5.124,25.359,5.082c17.4,0.021,34.561-7.461,46.314-19.997c2.865-3.19,5.65-6.444,8.012-10.019
			c2.374-3.557,4.397-7.347,6.029-11.297c3.281-7.9,4.992-16.42,5-25.012V127.321z"/>
	</g>
	<g>
		<circle fill="#FFFFFF" cx="553.598" cy="117.585" r="67.574"/>
		<path d="M623.312,117.599c0.021,9.091-1.729,18.261-5.249,26.689c-3.498,8.437-8.681,16.18-15.205,22.558
			c-6.498,6.397-14.248,11.503-22.681,14.909c-8.433,3.427-17.513,5.104-26.591,5.074c-4.51-0.019-9.052-0.487-13.488-1.371
			c-4.447-0.865-8.809-2.173-13.001-3.896c-8.355-3.494-16.151-8.418-22.755-14.722c-3.316-3.135-6.246-6.675-8.822-10.448
			c-2.547-3.798-4.695-7.859-6.436-12.085c-3.486-8.459-5.254-17.586-5.221-26.736c0.054-9.099,1.951-18.222,5.519-26.586
			c3.559-8.374,8.782-16.022,15.296-22.32c6.496-6.31,14.213-11.333,22.592-14.642c8.377-3.322,17.379-4.932,26.333-4.778
			c4.458,0.069,8.948,0.316,13.369,1.104c4.422,0.769,8.778,1.978,12.981,3.608c8.406,3.259,16.204,8.209,22.754,14.519
			c3.266,3.162,6.229,6.648,8.826,10.396c2.57,3.767,4.79,7.785,6.543,12.005c3.518,8.437,5.262,17.59,5.236,26.708L623.312,117.599
			z M619.03,117.585c0.01-17.188-7.066-34.047-18.977-46.455c-5.957-6.207-13.137-11.299-21.08-14.811
			c-3.967-1.759-8.119-3.127-12.376-4.074c-4.257-0.93-8.615-1.537-13.003-1.47c-8.74,0.142-17.434,2.007-25.398,5.479
			c-7.969,3.462-15.23,8.479-21.242,14.686c-6.002,6.21-10.819,13.538-14.031,21.514c-3.227,7.977-4.804,16.55-4.738,25.145
			c0.02,8.542,1.729,17.111,5.036,24.994c1.646,3.946,3.696,7.72,6.073,11.273c2.343,3.577,5.057,6.906,7.996,10.027
			c11.732,12.599,29.029,19.81,46.318,19.597c8.615-0.018,17.231-1.815,25.14-5.183c7.917-3.364,15.144-8.301,21.153-14.418
			c5.99-6.13,10.851-13.364,14.121-21.276c3.275-7.913,5-16.439,5.009-25.041L619.03,117.585z"/>
	</g>
	<g>
		<path d="M671.019,172.179c0.88-0.722,2.118-0.812,3.219-0.817c1.124,0.04,2.244,0.233,3.326,0.601
			c1.075,0.381,2.141,0.888,3.105,1.717c0.485,0.412,0.943,0.918,1.307,1.573c0.369,0.642,0.582,1.505,0.492,2.354l-2.933-0.547
			c0.425-1.521,1.345-2.559,2.287-3.395c0.97-0.82,2.034-1.445,3.166-1.885c1.126-0.451,2.326-0.703,3.542-0.738
			c1.191,0.003,2.541,0.252,3.351,1.137c-1.128-0.246-2.137-0.012-3.101,0.349c-0.966,0.339-1.865,0.854-2.714,1.392
			c-0.842,0.553-1.636,1.17-2.288,1.852c-0.66,0.663-1.176,1.424-1.351,2.051l-0.042,0.148c-0.221,0.792-1.041,1.255-1.832,1.033
			c-0.756-0.21-1.211-0.973-1.059-1.729c0.069-0.342-0.168-0.935-0.748-1.549c-0.567-0.596-1.324-1.168-2.143-1.656
			c-0.82-0.494-1.701-0.953-2.63-1.303C673.044,172.419,672.091,172.083,671.019,172.179z"/>
	</g>
	<g>
		<path d="M534.007,165.226c0.759-0.299,1.552-0.461,2.393-0.498c0.836-0.033,1.75,0.113,2.604,0.533
			c0.854,0.418,1.579,1.086,2.117,1.795c0.543,0.712,0.942,1.463,1.27,2.211l-2.551-0.34c0.521-0.7,1.08-1.395,1.729-2.069
			c0.646-0.671,1.406-1.328,2.313-1.813c0.902-0.491,1.928-0.754,2.895-0.773c0.973-0.005,1.893,0.143,2.764,0.49
			c-0.865,0.361-1.691,0.633-2.415,1.019c-0.729,0.366-1.333,0.792-1.866,1.284c-1.044,0.99-1.975,2.342-3.068,3.692l-0.031,0.04
			c-0.514,0.634-1.443,0.732-2.078,0.219c-0.201-0.163-0.35-0.374-0.441-0.598c-0.526-1.312-1.039-2.461-1.866-3.264
			c-0.422-0.409-0.973-0.762-1.626-1.068C535.493,165.773,534.765,165.534,534.007,165.226z"/>
	</g>
	<g>
		<path fill="#FFFFFF" d="M735.93,112.368c14.012,2.145,39.627,11.545,55.164,28.095c3.854,4.104,0.201,7.875-5.264,6.214
			c-1.487-0.45-5.381-1.975-5.796-3.824c-0.407-1.812,2.203-1.563,4.927-0.579c2.403,0.868,3.522,1.929,5.279,3.652
			c2.719,2.665,2.296,7.879-1.165,9.329c-3.392,1.422-8.298-0.561-10.664-2.941c-1.894-1.908-0.827-4.844,1.855-3.086
			c1.544,1.016,2.497,2.014,3.883,4.114c1.996,3.028,2.046,9.54-0.646,11.34c-4.107,2.746-16.452-11.454-27.506-18.247
			c-3.788-2.327-17.112-13.435-25.689-13.955"/>
		<path d="M735.93,112.368c4.298,0.177,8.57,0.933,12.77,1.931c4.187,1.043,8.368,2.256,12.274,4.12
			c7.864,3.571,15.502,7.745,22.384,13.067c1.72,1.326,3.392,2.72,5.003,4.187c0.805,0.733,1.592,1.488,2.365,2.257l1.143,1.173
			c0.35,0.356,0.819,0.861,1.184,1.397c0.726,1.049,1.363,2.495,1.062,4.141c-0.149,0.803-0.551,1.569-1.088,2.144
			c-0.536,0.582-1.182,0.986-1.834,1.262c-2.643,1.062-5.309,0.348-7.359-0.49c-1.063-0.435-2.104-0.925-3.137-1.642
			c-0.514-0.367-1.035-0.783-1.517-1.432c-0.235-0.326-0.464-0.728-0.591-1.233l-0.033-0.146l-0.01-0.05l-0.018-0.099
			c-0.02-0.148-0.041-0.333-0.034-0.478c-0.003-0.285,0.058-0.652,0.218-1.001c0.157-0.351,0.432-0.676,0.709-0.875
			c0.276-0.206,0.553-0.329,0.795-0.408c0.486-0.152,0.879-0.175,1.244-0.182c0.72,0,1.326,0.107,1.918,0.234
			c0.589,0.131,1.148,0.295,1.695,0.479l0.43,0.15l0.375,0.142c0.271,0.108,0.574,0.234,0.839,0.359
			c1.097,0.503,2.148,1.23,3.009,1.999c0.434,0.383,0.836,0.769,1.225,1.146l0.289,0.283l0.312,0.322l0.355,0.42
			c0.1,0.136,0.205,0.269,0.296,0.409c1.476,2.252,1.743,5.103,0.616,7.588c-0.565,1.232-1.591,2.365-2.893,2.969l-0.242,0.112
			l-0.236,0.094c-0.105,0.043-0.281,0.103-0.465,0.159c-0.35,0.109-0.65,0.172-0.979,0.232c-0.645,0.108-1.283,0.137-1.906,0.111
			c-2.495-0.131-4.742-0.984-6.752-2.256c-0.502-0.324-0.988-0.682-1.454-1.086c-0.236-0.212-0.448-0.399-0.69-0.664
			c-0.072-0.074-0.273-0.313-0.367-0.449c-0.113-0.152-0.215-0.316-0.312-0.483c-0.374-0.679-0.625-1.475-0.557-2.392
			c0.04-0.456,0.168-0.953,0.463-1.432c0.298-0.476,0.805-0.916,1.373-1.105c1.176-0.383,2.08-0.016,2.725,0.294
			c0.328,0.159,0.648,0.384,0.842,0.513c0.254,0.176,0.502,0.354,0.736,0.542c0.967,0.751,1.793,1.693,2.464,2.611
			c0.347,0.478,0.638,0.892,0.97,1.422c0.347,0.567,0.611,1.168,0.812,1.741c0.406,1.164,0.617,2.338,0.703,3.521
			c0.08,1.183,0.034,2.376-0.203,3.586c-0.257,1.197-0.646,2.464-1.66,3.602c-0.123,0.142-0.268,0.273-0.414,0.404
			c-0.068,0.066-0.152,0.125-0.231,0.186l-0.12,0.09l-0.062,0.044l-0.126,0.08l-0.172,0.101c-0.124,0.064-0.256,0.126-0.388,0.181
			c-0.237,0.089-0.444,0.149-0.663,0.188c-0.873,0.155-1.615,0.021-2.256-0.151c-1.283-0.367-2.291-0.94-3.271-1.523
			c-1.929-1.191-3.64-2.53-5.329-3.879c-3.359-2.707-6.566-5.506-9.879-8.128c-1.654-1.312-3.33-2.58-5.05-3.755l-1.3-0.857
			l-1.38-0.869c-0.933-0.612-1.799-1.234-2.681-1.844l-5.227-3.624c-1.727-1.21-3.411-2.474-5.153-3.645
			c-1.735-1.181-3.499-2.316-5.337-3.317c-1.838-1.002-3.738-1.916-5.845-2.387c2.165-0.18,4.376,0.286,6.463,0.925
			c2.091,0.669,4.101,1.546,6.045,2.524c1.937,0.994,3.835,2.054,5.635,3.247c1.798,1.196,3.528,2.478,5.228,3.766
			c0.852,0.636,1.713,1.267,2.551,1.847l0.621,0.41l0.698,0.439l1.372,0.906c1.805,1.233,3.533,2.543,5.223,3.882
			c3.381,2.677,6.607,5.492,9.895,8.141c1.643,1.313,3.307,2.604,5.013,3.656c0.845,0.513,1.728,0.979,2.505,1.192
			c0.383,0.109,0.727,0.135,0.907,0.096c0.045-0.004,0.093-0.026,0.106-0.027c-0.01,0.002-0.02,0.01-0.021,0.02l0.172-0.101
			c0.084-0.052-0.061,0.04-0.041,0.026l0.02-0.016l0.039-0.031c0.026-0.02,0.055-0.035,0.08-0.062
			c0.053-0.05,0.107-0.094,0.158-0.156c0.432-0.455,0.762-1.291,0.933-2.166c0.176-0.885,0.218-1.843,0.153-2.787
			c-0.067-0.943-0.243-1.888-0.541-2.739c-0.154-0.433-0.326-0.812-0.533-1.157c-0.233-0.374-0.554-0.836-0.835-1.221
			c-0.589-0.8-1.188-1.475-1.907-2.036c-0.183-0.146-0.368-0.278-0.553-0.407c-0.25-0.167-0.368-0.25-0.521-0.324
			c-0.289-0.164-0.503-0.124-0.356-0.147c0.059-0.022,0.145-0.087,0.152-0.118c0.016-0.022-0.006,0.007-0.012,0.08
			c-0.017,0.152,0.04,0.427,0.184,0.676c0.038,0.063,0.076,0.127,0.122,0.188c0.063,0.08,0.028,0.05,0.138,0.17
			c0.117,0.132,0.303,0.3,0.463,0.444c0.342,0.295,0.717,0.572,1.11,0.826c1.578,1.014,3.471,1.7,5.248,1.78
			c0.901,0.035,1.708-0.087,2.409-0.417c0.641-0.299,1.145-0.838,1.473-1.535c0.669-1.399,0.501-3.343-0.389-4.641
			c-0.053-0.084-0.115-0.158-0.172-0.239l-0.159-0.192l-0.243-0.253l-0.283-0.276c-0.375-0.367-0.744-0.719-1.111-1.042
			c-0.732-0.649-1.457-1.144-2.301-1.536c-0.219-0.103-0.408-0.182-0.631-0.271l-0.374-0.142l-0.326-0.113
			c-0.463-0.157-0.929-0.292-1.383-0.393c-0.448-0.099-0.902-0.166-1.251-0.163c-0.168,0-0.312,0.025-0.336,0.035
			c-0.039,0.023,0.174-0.062,0.293-0.313c0.053-0.105,0.054-0.206,0.057-0.224c-0.002-0.012,0.001-0.063-0.011-0.079l0.018,0.099
			l0.009,0.049c0.007,0.039-0.021-0.115-0.009-0.051c0.003,0.014,0.032,0.091,0.108,0.195c0.152,0.213,0.46,0.493,0.816,0.74
			c0.72,0.504,1.617,0.942,2.527,1.311c0.938,0.375,1.822,0.665,2.688,0.761c0.867,0.105,1.727,0.026,2.391-0.253
			c0.672-0.286,1.051-0.721,1.137-1.2c0.105-0.486-0.104-1.194-0.582-1.872c-0.415-0.61-1.282-1.434-1.98-2.156
			c-0.739-0.736-1.493-1.458-2.266-2.162c-1.545-1.406-3.153-2.748-4.812-4.027c-3.321-2.559-6.842-4.871-10.488-6.97
			c-3.651-2.088-7.41-4.014-11.311-5.612c-3.917-1.547-7.738-3.337-11.695-4.852C744.085,114.89,740.068,113.509,735.93,112.368z"/>
	</g>
	<g>
		<path fill="#FFFFFF" d="M615.322,106.833c-3.985,0.382-22.965,5.277-25.443,6.137c-4.849,1.681-9.822,3.581-13.804,6.92
			c-2.6,2.181-8.255,5.438-4.391,8.859c2.782,2.463,10.459,1.482,12.892-0.96c2.202-2.212,0.006-3.099-2.316-2.968
			c-2.291,0.131-3.67,1.011-5.037,2.833c-2.482,3.309-3.231,8.168,0.573,10.266c3.172,1.751,9.604-0.263,11.822-3.361
			c3.13-4.376-0.868-5.072-4.866-1.507c-2.535,2.258-5.781,8.652-2.609,11.338c3.65,3.094,8.262-0.443,11.215-2.123
			c8.115-4.621,13.299-10.693,23.212-16.054c3.322-1.797,18.864-11.499,21.472-10.802"/>
		<path d="M615.387,107.44c-1.879,0.403-3.807,0.984-5.717,1.5l-5.753,1.574c-3.834,1.05-7.701,2.023-11.516,3.089l-1.412,0.409
			l-0.661,0.209l-0.7,0.247c-0.931,0.332-1.854,0.666-2.768,1.021c-1.827,0.707-3.607,1.483-5.301,2.386
			c-1.693,0.913-3.268,1.942-4.722,3.177l-2.365,1.864c-0.738,0.6-1.437,1.218-1.958,1.857c-0.534,0.642-0.793,1.274-0.722,1.663
			c0.022,0.388,0.448,0.989,1.089,1.444c0.455,0.314,1.322,0.621,2.152,0.733c0.852,0.135,1.759,0.152,2.662,0.094
			c1.791-0.129,3.672-0.57,5.077-1.381c0.353-0.211,0.61-0.405,0.853-0.666c0.26-0.249,0.423-0.583,0.395-0.54
			c-0.016,0.015-0.006,0.243,0.073,0.348c0.075,0.109,0.085,0.084,0.009,0.049c-0.15-0.084-0.521-0.177-0.893-0.206
			c-1.755-0.097-3.096,0.282-4.179,1.51c-0.14,0.15-0.276,0.313-0.411,0.482l-0.186,0.24l-0.218,0.303
			c-0.218,0.316-0.458,0.715-0.647,1.09c-0.391,0.766-0.675,1.58-0.809,2.383c-0.282,1.634,0.127,3.078,1.25,3.906
			c0.61,0.459,1.167,0.662,1.981,0.754c0.787,0.082,1.653,0.02,2.513-0.138c1.713-0.33,3.445-1.046,4.766-2.07
			c0.659-0.505,1.142-1.081,1.552-1.803c0.198-0.34,0.341-0.69,0.378-0.898c0.02-0.098,0.004-0.146,0.019-0.077
			c0.007,0.064,0.12,0.236,0.21,0.282c0.186,0.079-0.061-0.026-0.359,0.044c-0.306,0.048-0.675,0.17-1.037,0.335
			c-0.732,0.332-1.463,0.828-2.131,1.401c-1.221,1.062-2.26,2.699-2.928,4.32c-0.672,1.607-0.917,3.462-0.274,4.412
			c0.781,1.074,2.177,1.589,3.753,1.241c1.604-0.327,3.258-1.279,4.942-2.299c1.786-1.052,3.397-1.971,5.015-3.099
			c3.221-2.197,6.277-4.74,9.503-7.16c3.208-2.428,6.636-4.704,10.202-6.605c3.404-1.92,6.889-3.982,10.443-5.817
			c1.778-0.931,3.584-1.819,5.438-2.636c0.933-0.396,1.875-0.778,2.853-1.113c0.49-0.166,0.985-0.324,1.513-0.447
			c0.547-0.092,1.037-0.257,1.85-0.072c0.348,0.078,0.564,0.424,0.486,0.771c-0.071,0.312-0.357,0.521-0.668,0.501l-0.156-0.01
			c-0.178-0.01-0.687,0.109-1.092,0.271c-0.431,0.154-0.871,0.346-1.307,0.549c-0.873,0.409-1.738,0.873-2.596,1.353
			c-1.725,0.942-3.43,1.952-5.135,2.96c-3.422,2.034-6.76,4.106-10.279,6.145c-3.467,1.868-6.693,4.033-9.835,6.428
			c-3.146,2.377-6.216,4.959-9.577,7.275c-1.648,1.165-3.498,2.234-5.145,3.213c-1.714,1.025-3.544,2.18-5.867,2.686
			c-1.152,0.243-2.484,0.258-3.729-0.177c-0.628-0.22-1.172-0.501-1.752-0.925l-0.295-0.229c-0.19-0.155-0.275-0.248-0.416-0.378
			c-0.248-0.253-0.471-0.532-0.664-0.832c-0.777-1.223-0.919-2.612-0.822-3.794c0.102-1.201,0.416-2.299,0.826-3.329
			c0.415-1.028,0.924-1.997,1.53-2.913c0.304-0.459,0.63-0.905,0.992-1.339c0.36-0.432,0.789-0.876,1.213-1.239
			c0.842-0.726,1.768-1.378,2.849-1.877c0.545-0.247,1.124-0.46,1.805-0.575c0.668-0.081,1.498-0.207,2.539,0.42
			c0.509,0.317,0.926,0.927,1.055,1.475c0.144,0.553,0.104,1.015,0.038,1.405c-0.149,0.774-0.431,1.343-0.722,1.868
			c-0.149,0.263-0.299,0.5-0.473,0.756c-0.12,0.176-0.354,0.5-0.543,0.714c-0.403,0.472-0.843,0.877-1.299,1.238
			c-1.839,1.42-3.9,2.255-6.089,2.7c-1.1,0.207-2.242,0.303-3.44,0.168c-1.17-0.104-2.555-0.612-3.514-1.396
			c-1.027-0.779-1.834-1.948-2.197-3.189c-0.377-1.244-0.367-2.504-0.168-3.662c0.204-1.164,0.6-2.248,1.12-3.255
			c0.267-0.512,0.541-0.969,0.894-1.472l0.221-0.302l0.272-0.351c0.178-0.22,0.362-0.438,0.563-0.652
			c0.783-0.855,1.875-1.654,3.086-2.035c0.607-0.197,1.177-0.307,1.814-0.37l0.373-0.028l0.473-0.017
			c0.297-0.003,0.598,0.008,0.903,0.036c0.615,0.068,1.245,0.165,1.985,0.539c0.361,0.194,0.788,0.477,1.127,1.014
			c0.35,0.525,0.43,1.286,0.306,1.785c-0.255,1.022-0.733,1.508-1.151,1.979c-0.439,0.467-0.99,0.873-1.497,1.165
			c-2.08,1.155-4.203,1.573-6.372,1.738c-1.085,0.062-2.184,0.038-3.301-0.144c-1.131-0.201-2.23-0.473-3.421-1.299
			c-0.165-0.115-0.213-0.167-0.325-0.254c-0.2-0.17-0.25-0.222-0.381-0.349c-0.222-0.22-0.438-0.461-0.638-0.736
			c-0.398-0.542-0.739-1.249-0.826-2.036c-0.098-0.787,0.079-1.562,0.353-2.182c0.275-0.625,0.633-1.137,1.005-1.59
			c1.5-1.763,3.274-2.881,4.725-4.068c1.597-1.339,3.384-2.492,5.208-3.456c1.834-0.963,3.722-1.769,5.619-2.487
			c0.947-0.361,1.9-0.699,2.85-1.03l0.713-0.246l0.766-0.239l1.462-0.417c3.874-1.059,7.737-2.053,11.648-2.905
			c3.924-0.828,7.806-1.664,11.92-1.92c0.337-0.021,0.626,0.235,0.647,0.572c0.019,0.305-0.191,0.572-0.481,0.635L615.387,107.44z"
			/>
	</g>
	<g>
		<path d="M527.44,173.623c1.11,0.558,2.117,1.056,3.152,1.421c1.027,0.371,2.059,0.627,3.11,0.78s2.126,0.206,3.234,0.182
			c1.112-0.015,2.246-0.13,3.486-0.205c-1.836,1.663-4.477,2.366-7.012,2.001C530.883,177.444,528.473,175.894,527.44,173.623z"/>
	</g>
	<g>
		<path d="M546.933,177.047c1.047,0.658,2.123,0.855,3.216,1.045c1.09,0.173,2.19,0.263,3.292,0.294
			c1.1,0.026,2.199,0.003,3.299-0.111c1.105-0.115,2.186-0.312,3.352-0.755c-0.633,1.104-1.799,1.838-2.978,2.282
			c-1.198,0.44-2.472,0.617-3.731,0.582c-1.258-0.037-2.516-0.287-3.688-0.792c-0.586-0.253-1.142-0.591-1.645-0.996
			C547.566,178.183,547.108,177.647,546.933,177.047z"/>
	</g>
	<g>
		<path d="M668.815,186.61c0.797,0.591,1.539,0.856,2.312,1.042c0.768,0.184,1.555,0.273,2.355,0.324
			c0.802,0.046,1.615,0.05,2.445,0.01c0.839-0.042,1.662-0.112,2.623-0.333c-0.457,0.902-1.359,1.494-2.268,1.865
			c-0.926,0.363-1.926,0.515-2.922,0.453c-0.994-0.062-2.003-0.336-2.881-0.892C669.619,188.534,668.867,187.625,668.815,186.61z"/>
	</g>
	<g>
		<path d="M686.58,189.054c1.122,0.014,2.158,0.14,3.161,0.214c0.497,0.037,0.984,0.073,1.436,0.067
			c0.225-0.006,0.44-0.01,0.633-0.041l0.333-0.053c0.146-0.02,0.206-0.049,0.312-0.07c0.832-0.201,1.73-0.557,2.616-0.98
			c0.899-0.421,1.796-0.914,2.811-1.398c-0.403,1.057-1.099,1.946-1.933,2.702c-0.846,0.745-1.854,1.341-3.062,1.629
			c-0.151,0.028-0.343,0.075-0.458,0.085c-0.154,0.017-0.203,0.033-0.445,0.051c-0.329,0.015-0.639,0.004-0.936-0.036
			c-0.594-0.077-1.141-0.231-1.664-0.429C688.349,190.384,687.393,189.841,686.58,189.054z"/>
	</g>
	<g>
		<path fill="#FFFFFF" d="M503.637,88.981c-6.785,0.514-24.187,5.127-29.402,6.561c-9.279,2.551-17.994,5.316-26.641,9.513
			c-5.36,2.604-10.812,5.554-15.188,9.724c-1.716,1.635-4.63,6.245-3.073,8.683c1.485,2.32,6.863,1.353,9.199,0.876
			c1.708-0.347,4.555-3.456,3.453-4.744c-3.842-4.488-8.197,6.605-8.134,8.187c0.199,5.101,8.938,4.582,12.384,1.405
			c1.888-1.739,2.358-5.521-1.521-4.06c-3.9,1.471-6.37,10.675-3.727,13.236c3.709,3.593,10.844-2.611,32.746-17.909
			c10.953-7.65,26.95-14.257,31.295-13.909"/>
		<path d="M503.637,88.981c-4.604,1.266-9.062,2.717-13.69,3.659c-4.584,1.098-9.148,2.309-13.695,3.562
			c-9.09,2.507-18.074,5.355-26.504,9.387c-4.213,2.041-8.373,4.199-12.084,6.874c-0.925,0.673-1.82,1.377-2.68,2.113
			c-0.428,0.372-0.85,0.749-1.256,1.14c-0.211,0.193-0.393,0.374-0.537,0.538c-0.164,0.184-0.328,0.384-0.487,0.591
			c-0.636,0.83-1.198,1.765-1.604,2.7c-0.408,0.92-0.641,1.921-0.535,2.545c0.055,0.323,0.143,0.464,0.273,0.594
			c0.137,0.129,0.438,0.289,0.844,0.388c0.817,0.208,1.896,0.217,2.963,0.126c1.079-0.09,2.184-0.277,3.3-0.498
			c0.538-0.033,1.331-0.661,1.925-1.346c0.288-0.334,0.529-0.725,0.604-0.957c0.04-0.104,0.022-0.168,0.033-0.018
			c0.014,0.061,0.046,0.184,0.11,0.271c0.15,0.186-0.073-0.078-0.11-0.106c-0.066-0.067-0.219-0.193-0.285-0.224
			c-0.082-0.044-0.121-0.048-0.151-0.052c-0.042-0.013-0.226,0.017-0.522,0.217c-0.592,0.406-1.261,1.254-1.801,2.143
			c-0.553,0.902-1.037,1.898-1.444,2.91c-0.202,0.505-0.387,1.021-0.532,1.511c-0.072,0.239-0.136,0.489-0.164,0.651l-0.011,0.07
			c-0.001,0.003-0.001-0.005,0-0.04c0.001,0.021-0.005-0.081-0.003-0.042l0.004,0.056c0.011,0.193,0.016,0.188,0.025,0.269
			c0.107,0.624,0.416,1.027,1.14,1.393c0.711,0.344,1.694,0.502,2.687,0.484c0.998-0.016,2.03-0.189,2.996-0.498
			c0.961-0.308,1.875-0.762,2.545-1.327c0.025-0.021,0.115-0.104,0.088-0.075l0.16-0.154l0.154-0.178
			c0.119-0.147,0.229-0.312,0.32-0.482c0.187-0.334,0.297-0.728,0.295-0.927c0.004-0.094-0.021-0.124,0.027-0.021
			c0.047,0.1,0.227,0.214,0.255,0.213c0.065-0.009-0.353-0.021-0.757,0.119c-0.223,0.071-0.402,0.138-0.525,0.206
			c-0.155,0.082-0.318,0.191-0.48,0.323c-0.325,0.264-0.645,0.614-0.936,1.008c-1.165,1.603-1.932,3.765-2.168,5.827
			c-0.115,1.023-0.071,2.08,0.208,2.819c0.067,0.182,0.15,0.333,0.233,0.451c0.035,0.054,0.101,0.123,0.112,0.139l0.154,0.145
			l0.075,0.064c0.281,0.224,0.566,0.352,0.938,0.407c0.744,0.117,1.781-0.135,2.781-0.522c1.012-0.39,2.031-0.907,3.037-1.46
			c2.017-1.114,3.998-2.382,5.955-3.684c3.91-2.621,7.82-5.289,11.679-8.025c1.931-1.368,3.806-2.814,5.719-4.211
			c1.92-1.388,3.962-2.707,6.005-3.931c4.115-2.438,8.383-4.602,12.811-6.391c2.225-0.87,4.467-1.701,6.775-2.342
			c1.157-0.314,2.328-0.587,3.52-0.771c1.186-0.166,2.42-0.306,3.604-0.069c-1.187,0.116-2.291,0.52-3.397,0.898
			c-1.102,0.392-2.191,0.822-3.273,1.27c-2.166,0.89-4.316,1.824-6.426,2.848c-4.23,2.016-8.402,4.165-12.417,6.563
			c-2.022,1.193-3.95,2.453-5.887,3.803c-1.963,1.315-3.953,2.594-5.885,3.956c-3.87,2.716-7.646,5.563-11.544,8.283
			c-1.952,1.357-3.908,2.718-5.986,3.975c-1.043,0.623-2.115,1.224-3.293,1.731c-1.176,0.481-2.479,0.971-4.107,0.83
			c-0.805-0.074-1.658-0.398-2.316-0.895l-0.27-0.214l-0.174-0.153c-0.203-0.188-0.336-0.339-0.478-0.522
			c-0.271-0.354-0.472-0.728-0.623-1.096c-0.579-1.479-0.587-2.857-0.495-4.176c0.259-2.628,1.027-5.105,2.568-7.39
			c0.397-0.565,0.857-1.117,1.438-1.616c0.289-0.249,0.61-0.483,0.971-0.689c0.393-0.228,0.77-0.366,1.105-0.481
			c0.713-0.203,1.512-0.48,2.728-0.156c0.599,0.16,1.281,0.657,1.616,1.275c0.354,0.615,0.414,1.194,0.419,1.687
			c-0.02,0.987-0.303,1.745-0.663,2.454c-0.186,0.352-0.4,0.684-0.648,0.999c-0.113,0.146-0.275,0.33-0.43,0.489l-0.158,0.155
			l-0.243,0.221c-1.137,0.97-2.391,1.569-3.669,2.001c-1.283,0.424-2.605,0.664-3.972,0.701c-1.362,0.026-2.79-0.119-4.231-0.777
			c-0.712-0.334-1.432-0.822-2.005-1.518c-0.576-0.689-0.956-1.567-1.093-2.411c-0.038-0.211-0.066-0.511-0.071-0.612l-0.004-0.056
			l-0.005-0.152c-0.002-0.109,0.002-0.19,0.008-0.261c0.012-0.148,0.027-0.262,0.045-0.37c0.07-0.421,0.157-0.744,0.25-1.071
			c0.189-0.645,0.41-1.242,0.648-1.834c0.479-1.179,1.034-2.316,1.719-3.431c0.707-1.104,1.46-2.22,2.811-3.185
			c0.672-0.458,1.65-0.911,2.8-0.802c0.558,0.051,1.092,0.237,1.526,0.483c0.449,0.258,0.758,0.512,1.105,0.865
			c0.164,0.188,0.156,0.13,0.471,0.562c0.225,0.335,0.377,0.735,0.428,1.091c0.114,0.736-0.037,1.271-0.184,1.723
			c-0.322,0.885-0.766,1.485-1.237,2.053c-0.478,0.557-0.998,1.043-1.609,1.484c-0.308,0.219-0.638,0.426-1.03,0.611
			c-0.195,0.093-0.393,0.176-0.715,0.271l-0.303,0.073l-0.225,0.045c-1.201,0.239-2.436,0.435-3.717,0.521
			c-1.283,0.076-2.606,0.101-4.087-0.283c-0.73-0.203-1.55-0.533-2.274-1.222c-0.729-0.689-1.148-1.69-1.244-2.536
			c-0.195-1.743,0.305-3.098,0.831-4.326c0.558-1.225,1.243-2.319,2.059-3.355c0.205-0.259,0.419-0.514,0.653-0.767
			c0.252-0.274,0.496-0.505,0.724-0.708c0.454-0.421,0.921-0.824,1.394-1.219c0.95-0.785,1.93-1.525,2.931-2.226
			c4.026-2.787,8.347-4.915,12.675-6.917c8.731-3.986,17.922-6.679,27.084-9.089c4.587-1.2,9.188-2.333,13.813-3.397
			c2.308-0.549,4.624-1.087,7.003-1.33C498.827,88.954,501.235,88.756,503.637,88.981z"/>
	</g>
	<g>
		<path fill="#FFFFFF" d="M591.008,91.938c6.173-4.607,25.28-4.269,30.688-4.173c9.622,0.17,18.752,0.688,28.168,2.608
			c5.838,1.192,11.851,2.698,17.126,5.649c2.068,1.16,6.033,4.903,5.128,7.651c-0.859,2.614-6.31,3.011-8.693,3.13
			c-1.737,0.087-5.266-2.22-4.52-3.738c2.608-5.303,9.579,4.364,9.911,5.912c1.069,4.99-7.522,6.655-11.649,4.434
			c-2.26-1.219-3.651-3.826,0.465-4.311c2.089-0.246,6.66,4.84,7.198,6.176c1.371,3.408,2.218,6.74-1.579,7.957
			c-4.607,1.479-15.568-3.175-19.827-5.999c-3.715-2.466-23.817-10.161-34.245-11.297c-5.59-0.61-14.137-0.47-19.388,1.855"/>
		<path d="M591.008,91.938c1.812-1.753,4.281-2.687,6.662-3.377c2.413-0.69,4.885-1.063,7.351-1.353
			c4.936-0.603,9.895-0.701,14.832-0.667c9.837,0.11,19.785,0.442,29.584,2.305c4.859,0.924,9.77,2.013,14.488,3.96
			c1.178,0.484,2.34,1.023,3.472,1.632c1.255,0.634,2.344,1.524,3.309,2.451c0.966,0.954,1.866,2.005,2.548,3.376
			c0.328,0.69,0.613,1.482,0.646,2.428c0.04,0.948-0.242,1.987-0.925,2.809c-0.629,0.767-1.356,1.201-2.039,1.543
			c-0.689,0.329-1.367,0.555-2.033,0.732c-1.333,0.352-2.633,0.527-3.918,0.645l-0.96,0.074l-0.475,0.028l-0.328,0.004
			c-0.155-0.005-0.337-0.019-0.438-0.034c-0.941-0.136-1.631-0.433-2.311-0.774c-0.669-0.352-1.289-0.763-1.886-1.306
			c-0.298-0.276-0.59-0.583-0.866-0.982c-0.265-0.41-0.559-0.903-0.635-1.672c-0.041-0.371,0.012-0.818,0.161-1.209
			c0.042-0.106,0.067-0.176,0.135-0.309l0.054-0.102c0.033-0.064,0.066-0.129,0.141-0.254c0.256-0.43,0.518-0.776,0.916-1.143
			c0.389-0.352,0.896-0.666,1.456-0.828c0.556-0.165,1.13-0.191,1.622-0.125c0.998,0.136,1.744,0.512,2.395,0.9
			c0.648,0.396,1.203,0.837,1.721,1.294c1.027,0.92,1.901,1.909,2.709,2.953c0.402,0.524,0.785,1.061,1.15,1.635
			c0.182,0.288,0.359,0.583,0.536,0.917c0.089,0.17,0.177,0.344,0.269,0.568c0.091,0.164,0.227,0.746,0.221,0.783
			c0.162,0.904,0.1,1.847-0.236,2.741c-0.329,0.888-0.901,1.623-1.521,2.174c-1.261,1.104-2.668,1.63-4.045,1.968
			c-1.385,0.323-2.779,0.422-4.181,0.319c-1.399-0.114-2.821-0.406-4.212-1.146c-0.686-0.376-1.326-0.843-1.898-1.469
			c-0.286-0.317-0.561-0.683-0.789-1.149c-0.225-0.457-0.417-1.075-0.34-1.812c0.076-0.748,0.52-1.455,0.979-1.837
			c0.461-0.405,0.912-0.613,1.322-0.769c0.412-0.151,0.803-0.248,1.173-0.312c0.407-0.045,0.58-0.161,1.452-0.071
			c1.106,0.209,1.707,0.63,2.328,1.021c0.6,0.402,1.12,0.834,1.619,1.277c0.992,0.893,1.877,1.831,2.712,2.861
			c0.422,0.542,0.806,1.002,1.233,1.81c0.146,0.312,0.162,0.391,0.227,0.547l0.17,0.458l0.321,0.929
			c0.38,1.266,0.788,2.643,0.53,4.344c-0.135,0.837-0.539,1.749-1.18,2.404c-0.631,0.664-1.382,1.069-2.092,1.341
			c-0.201,0.068-0.308,0.115-0.585,0.192c-0.161,0.038-0.271,0.075-0.474,0.115c-0.203,0.038-0.422,0.079-0.615,0.104l-0.545,0.051
			c-0.717,0.041-1.402,0.009-2.072-0.054c-2.66-0.288-5.088-1.042-7.463-1.899c-2.367-0.873-4.658-1.896-6.886-3.086
			c-0.557-0.299-1.109-0.609-1.657-0.941c-0.537-0.314-1.129-0.734-1.545-0.98c-0.98-0.572-2.084-1.099-3.177-1.604
			c-2.2-1.008-4.46-1.937-6.732-2.823c-4.55-1.762-9.17-3.389-13.87-4.672c-2.348-0.646-4.722-1.19-7.092-1.609
			c-2.358-0.418-4.76-0.59-7.18-0.702c-2.416-0.081-4.837-0.039-7.252,0.111c-2.413,0.174-4.825,0.441-7.207,1.118
			c2.133-1.284,4.59-2.003,7.038-2.459c2.46-0.462,4.96-0.618,7.454-0.62c2.488-0.014,5.004,0.148,7.485,0.593
			c2.47,0.425,4.874,1.046,7.266,1.69c4.772,1.321,9.479,2.816,14.128,4.503c2.323,0.848,4.631,1.735,6.92,2.722
			c1.146,0.5,2.277,1.002,3.436,1.643l1.587,0.956c0.509,0.294,1.034,0.573,1.565,0.843c2.131,1.078,4.358,2.014,6.617,2.789
			c2.252,0.762,4.58,1.404,6.817,1.589c0.554,0.039,1.099,0.05,1.608,0.009l0.371-0.044l0.292-0.052
			c0.099-0.016,0.282-0.075,0.419-0.111l0.287-0.104c0.43-0.175,0.771-0.395,0.98-0.633c0.213-0.235,0.326-0.497,0.385-0.869
			c0.119-0.75-0.123-1.832-0.488-2.885l-0.298-0.807l-0.159-0.401c-0.053-0.128-0.139-0.339-0.128-0.304
			c-0.15-0.277-0.533-0.788-0.882-1.199c-0.729-0.863-1.553-1.701-2.402-2.434c-0.426-0.363-0.862-0.705-1.289-0.978
			c-0.402-0.274-0.896-0.478-1.006-0.484c0.262-0.015-0.181,0.009-0.375,0.06c-0.235,0.041-0.441,0.102-0.605,0.162
			c-0.162,0.06-0.269,0.134-0.268,0.139c-0.008,0.017,0.109-0.126,0.114-0.26c-0.018-0.262,0.015,0.065,0.292,0.324
			c0.26,0.278,0.621,0.55,1.016,0.759c1.611,0.832,4.01,0.938,5.997,0.452c0.997-0.241,1.94-0.666,2.524-1.204
			c0.588-0.548,0.737-1.045,0.641-1.697c0.058-0.009-0.263-0.612-0.539-1.039c-0.293-0.463-0.622-0.929-0.967-1.38
			c-0.69-0.9-1.452-1.758-2.255-2.479c-0.77-0.709-1.735-1.307-2.229-1.348c-0.236-0.008-0.188-0.015-0.329,0.085
			c-0.059,0.044-0.172,0.192-0.23,0.289c-0.008,0.005-0.047,0.077-0.084,0.148l-0.054,0.103c0.033-0.064,0.034-0.061,0.046-0.097
			c0.043-0.104,0.049-0.239,0.045-0.305c-0.027-0.152-0.028-0.079,0.043,0.019c0.071,0.106,0.2,0.252,0.354,0.393
			c0.309,0.287,0.717,0.566,1.135,0.785c0.41,0.219,0.879,0.383,1.156,0.417c0.051,0.009,0.023,0.001,0.021,0.007
			c-0.009,0.004,0.211,0,0.131,0.001l0.445-0.022l0.879-0.057c1.16-0.089,2.305-0.235,3.352-0.498c1.027-0.241,2.028-0.7,2.342-1.11
			c0.115-0.119,0.213-0.333,0.2-0.61c0.002-0.286-0.108-0.688-0.302-1.104c-0.396-0.842-1.083-1.716-1.855-2.488
			c-0.793-0.778-1.622-1.474-2.557-1.962c-1.021-0.574-2.082-1.091-3.167-1.56c-4.342-1.893-9.061-3.047-13.823-4.042
			c-9.498-1.974-19.274-2.562-29.064-2.696c-4.885-0.081-9.764,0-14.614,0.297c-2.423,0.17-4.832,0.434-7.22,0.789
			C595.612,90.416,593.22,90.816,591.008,91.938z"/>
	</g>
	<g>
		<g>
			<path d="M674.796,189.608c-0.545,3.115-1.385,6.192-2.545,9.212c-0.604,1.499-1.224,3.03-2.235,4.425
				c-0.507,0.693-1.12,1.348-1.89,1.885c-0.742,0.512-1.938,0.821-2.79,0.172c0.726-0.718,0.97-1.229,1.375-1.753
				c0.394-0.508,0.724-1.116,1.058-1.733c0.654-1.249,1.291-2.594,1.793-4.01c1.025-2.83,1.754-5.812,2.555-8.789
				c0.195-0.732,0.947-1.168,1.682-0.973C674.489,188.228,674.914,188.917,674.796,189.608z"/>
		</g>
	</g>
	<g>
		<path d="M670.988,197.738c-0.119,1.053-0.474,2.017-0.995,2.927c-0.527,0.895-1.278,1.757-2.322,2.312
			c-1.047,0.57-2.272,0.66-3.281,0.52c-1.03-0.146-1.949-0.417-2.936-0.804c0.963-0.451,1.99-0.598,2.909-0.769
			c0.931-0.158,1.694-0.35,2.373-0.715c0.686-0.359,1.35-0.901,2.032-1.523C669.463,199.073,670.146,198.379,670.988,197.738z"/>
	</g>
	<g>
		<path d="M670.988,197.913c0.183,0.949,0.211,1.814,0.29,2.639c0.066,0.822,0.156,1.578,0.326,2.285
			c0.173,0.705,0.426,1.386,0.776,2.113c0.339,0.733,0.774,1.483,1.129,2.381c-0.923-0.283-1.712-0.782-2.401-1.455
			c-0.679-0.674-1.215-1.584-1.449-2.572c-0.234-0.99-0.178-1.998,0.061-2.906C669.969,199.489,670.366,198.647,670.988,197.913z"/>
	</g>
	<g>
		<g>
			<path d="M694.415,190.497c-0.23,3.153-0.758,6.299-1.607,9.42c-0.451,1.551-0.912,3.137-1.778,4.626
				c-0.435,0.741-0.979,1.454-1.689,2.065c-0.687,0.584-1.845,1.014-2.758,0.454c0.648-0.788,0.84-1.319,1.19-1.883
				c0.34-0.546,0.607-1.185,0.878-1.831c0.524-1.31,1.022-2.711,1.379-4.17c0.736-2.92,1.161-5.96,1.659-9.002
				c0.121-0.748,0.826-1.258,1.576-1.137C693.971,189.154,694.463,189.796,694.415,190.497z"/>
		</g>
	</g>
	<g>
		<path d="M691.443,198.968c-0.013,1.06-0.269,2.053-0.696,3.012c-0.436,0.943-1.095,1.877-2.078,2.534
			c-0.983,0.673-2.193,0.886-3.211,0.848c-1.04-0.042-1.982-0.22-3.002-0.505c0.912-0.546,1.921-0.795,2.816-1.057
			c0.91-0.252,1.65-0.52,2.289-0.951c0.646-0.426,1.252-1.032,1.869-1.719C690.06,200.448,690.67,199.69,691.443,198.968z"/>
	</g>
	<g>
		<path d="M691.461,199.142c0.277,0.926,0.392,1.783,0.554,2.596c0.148,0.811,0.314,1.555,0.553,2.24
			c0.243,0.686,0.563,1.336,0.984,2.025c0.411,0.695,0.919,1.398,1.362,2.255c-0.946-0.188-1.782-0.606-2.534-1.207
			c-0.744-0.603-1.369-1.452-1.699-2.413c-0.334-0.961-0.379-1.971-0.232-2.896C690.604,200.812,690.917,199.935,691.461,199.142z"
			/>
	</g>
	<g>
		<g>
			<path d="M555.087,180.067c-0.148,2.411-0.62,4.75-1.136,7.074c-0.278,1.158-0.505,2.33-0.911,3.463
				c-0.197,0.567-0.453,1.12-0.732,1.666c-0.309,0.533-0.73,1.047-1.551,1.382c-0.432-0.772-0.504-1.38-0.486-1.974
				c0.049-0.582,0.098-1.162,0.19-1.732c0.173-1.143,0.47-2.259,0.677-3.398c0.444-2.271,0.813-4.555,1.223-6.807
				c0.134-0.748,0.848-1.245,1.596-1.111C554.649,178.754,555.128,179.382,555.087,180.067z"/>
		</g>
	</g>
	<g>
		<path d="M552.115,188.536c0.14,1.104,0.026,2.184-0.294,3.257c-0.332,1.046-0.922,2.181-2.077,2.913
			c-0.568,0.356-1.233,0.549-1.844,0.598c-0.615,0.049-1.182-0.008-1.71-0.104c-1.061-0.203-1.987-0.494-3.063-0.775
			c0.978-0.557,2.124-0.682,3.123-0.797c1.021-0.1,1.843-0.232,2.438-0.62c0.616-0.374,1.178-1.069,1.713-1.876
			C550.95,190.329,551.451,189.427,552.115,188.536z"/>
	</g>
	<g>
		<path d="M552.132,188.71c0.085,1.031,0.021,1.969,0.002,2.875c-0.026,0.9-0.031,1.75,0.09,2.502
			c0.127,0.75,0.37,1.395,0.848,2.053c0.465,0.668,1.152,1.286,1.86,2.033c-1.027,0.021-2.042-0.256-2.947-0.896
			c-0.909-0.631-1.575-1.751-1.733-2.869c-0.174-1.119,0.014-2.178,0.346-3.125C550.948,190.337,551.432,189.463,552.132,188.71z"/>
	</g>
	<g>
		<path d="M535.839,177.526c0.045,1.717-0.24,3.428-0.648,5.088c-0.445,1.654-1.007,3.248-1.654,4.767
			c-0.158,0.382-0.302,0.767-0.477,1.141l-0.031,0.071c0.011-0.055-0.012,0.027-0.017,0.034l-0.036,0.097
			c-0.014,0.012-0.038,0.111-0.053,0.174c-0.036,0.144-0.062,0.308-0.078,0.477c-0.056,0.676-0.045,1.424,0.129,2.127
			c0.29,1.427,1.157,2.765,2.657,3.628c-0.851-0.047-1.735-0.331-2.489-0.87c-0.77-0.523-1.375-1.287-1.822-2.12
			c-0.423-0.847-0.727-1.759-0.807-2.743c-0.021-0.246-0.031-0.498-0.021-0.768c0.008-0.144,0.011-0.25,0.04-0.441l0.072-0.401
			c0.064-0.421,0.166-0.831,0.255-1.242c0.349-1.653,0.829-3.216,1.257-4.77c0.472-1.545,0.898-3.084,1.514-4.642
			c0.232-0.588,0.896-0.876,1.484-0.645C535.555,176.661,535.827,177.081,535.839,177.526z"/>
	</g>
	<g>
		<path d="M532.095,186.93c0.106,0.957-0.047,1.89-0.386,2.79c-0.349,0.887-0.957,1.78-1.892,2.368
			c-0.927,0.604-2.066,0.751-3.021,0.61c-0.97-0.151-1.833-0.502-2.612-1.076c0.937-0.246,1.81-0.33,2.592-0.496
			c0.784-0.16,1.426-0.376,1.976-0.729c0.557-0.345,1.076-0.856,1.606-1.471C530.898,188.313,531.413,187.622,532.095,186.93z"/>
	</g>
</g>
<g>
</g>
<g>
</g>
<g>
</g>
<g>
</g>
<g>
</g>
<g>
</g>
<g>
</g>
<g>
</g>
<g>
</g>
<g>
</g>
<g>
</g>
<g>
</g>
<g>
</g>
<g>
</g>
<g>
</g>
</svg>
