<?xml version="1.0" encoding="utf-8"?>
<!-- Generator: Adobe Illustrator 16.0.0, SVG Export Plug-In . SVG Version: 6.00 Build 0)  -->
<!DOCTYPE svg PUBLIC "-//W3C//DTD SVG 1.1//EN" "http://www.w3.org/Graphics/SVG/1.1/DTD/svg11.dtd">
<svg version="1.1" id="Layer_1" xmlns="http://www.w3.org/2000/svg" xmlns:xlink="http://www.w3.org/1999/xlink" x="0px" y="0px"
	 width="1280px" height="288px" viewBox="0 0 1280 288" enable-background="new 0 0 1280 288" xml:space="preserve">
<g>
	<g>
		<path fill-rule="evenodd" clip-rule="evenodd" fill="#FFFFFF" d="M657.38,73.688c-4.435,3.627-9.859,5.922-14.199,9.537
			c-4.909,4.098-0.518,10.287,2.589,14.078c2.474,3.019,5.233,5.807,7.906,8.647"/>
		<path d="M657.38,73.688c-2.398,3.025-5.616,5.28-8.559,7.479c-1.484,1.1-2.921,2.19-4.23,3.353
			c-1.194,1.032-1.64,2.006-1.61,3.308c0.024,1.307,0.631,2.859,1.433,4.35c0.804,1.505,1.824,2.995,2.875,4.489
			c2.104,3.015,4.423,5.982,6.388,9.284c-3.166-2.149-6.113-4.519-8.799-7.265c-1.351-1.376-2.626-2.862-3.731-4.581
			c-1.072-1.72-2.058-3.703-2.163-6.168c-0.032-1.217,0.233-2.542,0.844-3.672c0.302-0.565,0.678-1.073,1.085-1.525
			c0.212-0.228,0.403-0.424,0.651-0.644c0.134-0.122,0.218-0.188,0.309-0.26c0.146-0.121,0.213-0.161,0.323-0.246
			c1.592-1.206,3.271-2.206,4.967-3.082C650.566,76.75,653.959,75.403,657.38,73.688z"/>
	</g>
	<g>
		<path fill-rule="evenodd" clip-rule="evenodd" fill="#FFFFFF" d="M653.338,106.301c2.188,40.193,29.938,73.869,69.271,73.869
			c51.48,0,62.017-33.451,70.521-43.72c-8.104-11.874-18.468-96.586-76.689-95.732C680.299,41.247,650.725,58.303,653.338,106.301z"
			/>
		<path d="M654.965,106.208c1.008,16.331,6.438,32.445,16.225,45.425c4.88,6.471,10.824,12.129,17.618,16.457
			c6.79,4.324,14.378,7.359,22.292,8.787c3.956,0.721,7.975,1.051,12.013,1.017c4.088-0.019,8.162-0.216,12.199-0.706
			c8.063-0.965,15.991-3.056,23.204-6.647c7.242-3.528,13.692-8.591,19.004-14.739c2.66-3.072,5.111-6.35,7.402-9.781
			c2.341-3.413,4.377-7.017,7.206-10.397l0.001-0.001l-0.072,1.561c-0.813-1.169-1.355-2.334-1.88-3.503
			c-0.514-1.169-0.961-2.344-1.396-3.518c-0.864-2.348-1.654-4.698-2.44-7.044c-1.557-4.696-3.049-9.387-4.671-14.026
			c-3.258-9.263-6.739-18.435-11.22-27.087c-4.457-8.632-9.739-16.885-16.526-23.685c-6.741-6.79-15.065-12.005-24.326-14.256
			c-4.62-1.152-9.376-1.604-14.204-1.481c-4.848,0.092-9.702,0.491-14.471,1.295c-9.514,1.598-18.84,4.876-26.521,10.606
			c-3.833,2.849-7.213,6.292-9.965,10.197c-2.752,3.908-4.847,8.271-6.354,12.832C655.046,86.662,654.402,96.516,654.965,106.208z
			 M651.71,106.387c-0.487-9.981,0.267-20.191,3.448-29.845c3.142-9.625,9.111-18.498,17.297-24.641
			c8.151-6.208,17.973-9.742,27.86-11.508c4.964-0.889,9.976-1.352,14.999-1.499c5.04-0.186,10.211,0.253,15.189,1.45
			c4.986,1.188,9.802,3.136,14.22,5.732c4.43,2.583,8.444,5.812,12.039,9.402c7.185,7.218,12.759,15.771,17.254,24.708
			c4.478,8.965,8.075,18.296,11.075,27.759c1.513,4.728,2.933,9.475,4.321,14.207c0.692,2.365,1.387,4.725,2.141,7.043
			c0.376,1.158,0.772,2.305,1.2,3.419c0.424,1.106,0.893,2.21,1.449,3.101l0.535,0.855l-0.607,0.706l-0.002,0.001
			c-1.2,1.545-2.257,3.314-3.326,5.081l-3.237,5.362c-2.213,3.574-4.577,7.117-7.314,10.396
			c-5.418,6.59-12.177,12.229-19.853,16.156c-7.681,3.926-16.083,6.222-24.533,7.32c-4.229,0.547-8.487,0.834-12.729,0.846
			c-4.291,0.027-8.612-0.336-12.851-1.117c-8.483-1.553-16.67-4.81-23.854-9.562c-7.204-4.726-13.452-10.812-18.484-17.724
			c-10.106-13.849-15.454-30.753-16.235-47.641L651.71,106.387z"/>
	</g>
	<g>
		<path d="M720.847,87.438c4.456,1.266,8.834,2.853,13.085,4.761c4.252,1.907,8.379,4.147,12.254,6.863
			c3.822,2.753,7.479,6.011,9.992,10.366c0.304,0.548,0.595,1.107,0.852,1.687c0.25,0.567,0.521,1.2,0.674,1.975
			c0.303,1.461,0.15,2.993-0.323,4.347c-0.978,2.723-2.986,4.792-5.457,6.086c-2.317,1.188-4.819,1.833-7.342,2.1
			c-2.53,0.248-5.143,0.092-7.719-0.723c-1.282-0.408-2.554-1.013-3.715-1.856c-0.287-0.214-0.572-0.435-0.843-0.68
			c-0.31-0.283-0.605-0.601-0.847-0.9c-0.498-0.623-0.897-1.303-1.2-2.006c-0.604-1.409-0.854-2.896-0.793-4.396
			c0.08-1.493,0.429-3.05,1.458-4.521c0.515-0.724,1.245-1.417,2.164-1.87c0.913-0.462,1.968-0.63,2.896-0.562
			c0.932,0.067,1.757,0.318,2.471,0.633c0.183,0.078,0.354,0.163,0.524,0.248l0.249,0.132l0.123,0.068l0.185,0.108l0.368,0.229
			l0.528,0.375c2.369,1.877,3.688,4.126,4.83,6.391c1.102,2.287,1.905,4.648,2.401,7.171c0.23,1.255,0.413,2.606,0.327,4.024
			c-0.104,1.61-0.562,3.13-1.438,4.497c-0.869,1.348-2.071,2.386-3.322,3.13c-1.258,0.752-2.577,1.229-3.89,1.555
			c-2.632,0.631-5.254,0.669-7.82,0.314c-2.562-0.376-5.103-1.133-7.475-2.628c-1.173-0.762-2.316-1.738-3.201-3.071
			c-0.895-1.312-1.411-3.055-1.307-4.699l0.012-0.235l0.012-0.108l0.025-0.229c0.038-0.263,0.085-0.539,0.145-0.754
			c0.117-0.458,0.29-0.93,0.551-1.383c0.507-0.915,1.368-1.695,2.288-2.117c1.875-0.837,3.634-0.604,5.098-0.128
			c0.742,0.25,1.43,0.592,2.068,1.003c0.28,0.179,0.721,0.517,0.984,0.77c0.298,0.275,0.566,0.565,0.808,0.862
			c0.959,1.195,1.549,2.465,1.986,3.731c0.425,1.29,0.719,2.513,0.814,3.94c0.072,1.598-0.214,2.975-0.729,4.3
			c-1.042,2.604-2.882,4.765-5.265,6.194c-1.195,0.702-2.535,1.216-3.95,1.411c-0.353,0.047-0.708,0.085-1.064,0.092l-0.268,0.008
			l-0.272-0.004l-0.434-0.013c-0.685-0.036-1.354-0.103-1.979-0.215c-2.555-0.432-4.903-1.411-7.024-2.649
			c-4.238-2.505-7.704-5.916-10.599-9.677c-2.846-3.8-5.168-7.991-6.604-12.495c-0.705-2.251-1.203-4.576-1.329-6.929
			c-0.109-2.348,0.159-4.731,1.003-6.895c-0.603,2.243-0.601,4.575-0.251,6.819c0.334,2.251,1.008,4.438,1.879,6.529
			c1.757,4.181,4.238,8.041,7.208,11.421c2.947,3.381,6.396,6.372,10.267,8.351c1.934,0.966,3.957,1.707,5.985,1.955
			c0.518,0.07,1.002,0.092,1.472,0.102l0.434-0.006c0.048-0.001,0.2-0.001,0.161-0.004l0.166-0.014
			c0.221-0.012,0.44-0.048,0.658-0.086c0.874-0.159,1.721-0.524,2.496-1.024c1.548-1.009,2.792-2.617,3.381-4.338
			c0.3-0.835,0.436-1.784,0.379-2.497c-0.069-0.879-0.337-1.922-0.665-2.815c-0.334-0.908-0.784-1.744-1.296-2.339
			c-0.128-0.148-0.258-0.278-0.388-0.392c-0.164-0.136-0.182-0.154-0.388-0.286c-0.34-0.205-0.699-0.37-1.058-0.478
			c-0.712-0.235-1.43-0.172-1.675-0.017c-0.124,0.076-0.149,0.117-0.203,0.214c-0.026,0.048-0.05,0.126-0.071,0.229
			c-0.018,0.063-0.009,0.075-0.02,0.096l-0.018,0.202l-0.009,0.108c0.013-0.152,0.004-0.024,0.007-0.05l0.001,0.031
			c-0.01,0.671,0.175,1.25,0.572,1.853c0.4,0.597,1.038,1.172,1.805,1.658c1.554,0.97,3.539,1.591,5.544,1.855
			c2.01,0.266,4.093,0.197,5.957-0.272c1.867-0.46,3.452-1.395,4.209-2.599c0.393-0.574,0.614-1.339,0.674-2.031
			c0.071-0.892-0.043-1.855-0.221-2.871c-0.375-2.019-1.051-4.08-1.944-5.963c-0.881-1.861-2.064-3.662-3.348-4.666
			c-0.06-0.042-0.117-0.087-0.173-0.134l-0.365-0.232c-0.08-0.048,0.056,0.032,0.03,0.018l-0.034-0.019l-0.066-0.038l-0.133-0.072
			l-0.258-0.125c-0.34-0.157-0.643-0.23-0.865-0.25c-0.426,0.004-0.547,0.014-0.913,0.431c-0.33,0.415-0.595,1.188-0.646,1.99
			c-0.059,0.808,0.066,1.661,0.356,2.385c0.145,0.363,0.33,0.693,0.545,0.979c0.118,0.152,0.215,0.262,0.326,0.374
			c0.152,0.149,0.324,0.286,0.495,0.422c0.696,0.535,1.524,0.97,2.435,1.285c1.822,0.642,3.917,0.829,5.986,0.704
			c2.076-0.13,4.15-0.58,5.989-1.432c1.651-0.758,3.137-2.196,3.78-3.828c0.322-0.815,0.436-1.661,0.308-2.477
			c-0.114-0.739-0.574-1.847-1.015-2.768c-1.897-3.826-5.105-7.105-8.59-9.951c-3.496-2.879-7.387-5.33-11.393-7.574
			c-2.006-1.122-4.057-2.172-6.138-3.166C725.101,89.258,722.992,88.31,720.847,87.438z"/>
	</g>
	<path fill-rule="evenodd" clip-rule="evenodd" d="M684.001,70.686c0,2.922,2.365,5.289,5.288,5.289
		c2.922,0,5.289-2.367,5.289-5.289c0-2.918-2.367-5.288-5.289-5.288C686.366,65.398,684.001,67.768,684.001,70.686z"/>
	<g>
		<path d="M682.658,72.68c1.103-0.706,2.5-0.702,3.699-0.475c1.223,0.244,2.348,0.741,3.353,1.387
			c1.007,0.647,1.901,1.448,2.645,2.391c0.723,0.944,1.367,2.042,1.51,3.334c-1.147-0.542-2.112-1.023-3.063-1.559
			c-0.941-0.531-1.841-1.077-2.714-1.644l-2.587-1.72C684.624,73.816,683.8,73.233,682.658,72.68z"/>
	</g>
	
		<path fill-rule="evenodd" clip-rule="evenodd" fill="none" stroke="#000000" stroke-width="2" stroke-linecap="round" stroke-linejoin="round" stroke-miterlimit="10" d="
		M641.51,87.438c4.017,3.336,7.598,3.201,12.521,1.938"/>
	<g>
		<path d="M731.776,178.053l-0.566-2.082c-0.095-0.346-0.169-0.694-0.254-1.043c-0.079-0.368-0.172-0.652-0.234-1.105
			c-0.059-0.416,0.232-0.801,0.649-0.859c0.416-0.059,0.802,0.232,0.86,0.648v0.002l0.027,0.201
			c0.618,4.459,0.559,8.869,0.716,13.16c0.039,1.068,0.094,2.126,0.212,3.133c0.109,0.961,0.366,1.831,0.695,2.071
			c0.352,0.36,1.572,0.449,2.68,0.584c1.141,0.149,2.315,0.452,3.332,0.993l0.085,0.045l0.01,0.01c0.06,0.078,0.114,0.16,0.17,0.257
			c0.025,0.051,0.057,0.102,0.074,0.198c0.01,0.057-0.003,0.127-0.053,0.188c-0.042,0.039-0.088,0.06-0.116,0.064
			c-0.225,0.041-0.375-0.02-0.529,0.107c0.061-0.19,0.324-0.262,0.428-0.34c0.015-0.011,0.005-0.018-0.004-0.01
			c-0.024,0.021-0.029,0.049-0.032,0.059c-0.006,0.01-0.029-0.014-0.06-0.033l-0.208-0.129l0.095,0.053
			c-1.097-0.104-2.14-0.029-3.202,0.119c-0.535,0.062-1.076,0.151-1.688,0.197c-0.6,0.037-1.341,0.031-2.134-0.35
			c-0.792-0.396-1.339-1.121-1.636-1.748c-0.312-0.646-0.496-1.246-0.63-1.865c-0.257-1.168-0.378-2.313-0.458-3.446
			c-0.151-2.267-0.1-4.497,0.038-6.712c0.132-2.213,0.403-4.41,0.678-6.588l1.537-0.01c-0.032,0.255-0.061,0.674-0.087,1.011
			c-0.03,0.356-0.048,0.712-0.088,1.07C732.004,176.618,731.946,177.338,731.776,178.053z"/>
	</g>
	<g>
		<path d="M732.605,193.551c-0.633-0.163-1.405-0.029-2.129,0.08l-2.198,0.348c-0.772,0.114-1.371,0.52-1.943,0.406
			c-0.29-0.034-0.562-0.096-0.881-0.182c-0.313-0.068-0.667-0.158-1.227-0.146h-0.019c-0.109,0.002-0.202-0.077-0.22-0.183
			c-0.097-0.584,0.157-1.145,0.513-1.554c0.354-0.424,0.809-0.701,1.256-0.88c0.906-0.407,1.822,0.004,2.551,0.138
			c0.772,0.137,1.542,0.313,2.307,0.56c0.382,0.132,0.762,0.275,1.137,0.446c0.366,0.176,0.774,0.354,1.051,0.74
			c0.049,0.067,0.033,0.162-0.035,0.211c-0.038,0.027-0.084,0.035-0.126,0.024L732.605,193.551z"/>
	</g>
	<g>
		<path d="M715.907,179.383c0.425,1.361,0.634,2.662,0.892,3.877c0.237,1.191,0.545,2.387,0.969,2.906
			c0.206,0.249,0.368,0.377,0.767,0.531c0.392,0.141,0.954,0.24,1.573,0.334c1.23,0.183,2.751,0.427,3.972,1.259l0.165,0.094
			c0.053,0.095,0.104,0.187,0.16,0.304c0.024,0.062,0.062,0.121,0.085,0.264c0.014,0.082-0.007,0.194-0.086,0.287
			c-0.063,0.059-0.131,0.086-0.165,0.089c-0.156,0.02-0.223-0.019-0.314-0.025c-0.083-0.009-0.169-0.015-0.258,0.036
			c0.011-0.103,0.094-0.2,0.18-0.266c0.078-0.066,0.194-0.128,0.205-0.176c0.01-0.012-0.021-0.012-0.052,0.017
			c-0.054,0.053-0.065,0.122-0.064,0.158c0,0.055-0.019,0.04-0.05,0.032l-0.219-0.084l0.165,0.094
			c-1.291,0.072-2.418,0.374-3.783,0.508c-0.681,0.061-1.432,0.1-2.301-0.105c-0.859-0.178-1.865-0.785-2.404-1.615
			c-0.559-0.812-0.76-1.652-0.851-2.411c-0.09-0.767-0.05-1.488,0.046-2.185C714.748,181.913,715.183,180.61,715.907,179.383z"/>
	</g>
	<g>
		<path d="M716.738,188.261c-0.634-0.162-1.406-0.028-2.13,0.081l-2.197,0.348c-0.771,0.114-1.371,0.52-1.943,0.406
			c-0.289-0.033-0.562-0.096-0.881-0.182c-0.313-0.066-0.667-0.157-1.227-0.146h-0.019c-0.109,0.002-0.202-0.077-0.22-0.183
			c-0.097-0.584,0.157-1.145,0.513-1.554c0.354-0.423,0.809-0.699,1.256-0.879c0.906-0.407,1.82,0.003,2.551,0.137
			c0.771,0.136,1.542,0.313,2.307,0.56c0.381,0.132,0.761,0.275,1.136,0.445c0.365,0.176,0.774,0.354,1.05,0.739
			c0.049,0.068,0.033,0.164-0.034,0.213c-0.038,0.027-0.084,0.034-0.126,0.023L716.738,188.261z"/>
	</g>
	<circle fill-rule="evenodd" clip-rule="evenodd" fill="#F5F5F5" cx="689.734" cy="69.016" r="1.48"/>
</g>
<g>
	<path fill-rule="evenodd" clip-rule="evenodd" fill="#FFFFFF" d="M552.082,50.946c-0.228-2.147-2.358-3.499-3.419-5.279
		c-1.273-2.143-2.107-4.921-2.178-7.38c-0.131-4.461,4.846-9.929,8.599-5.604c-0.08-3.006,1.09-8.084,3.958-9.952
		c1.845-1.202,3.821-0.671,5.329,0.832c0.904,0.899,1.747,4.548,2.688,4.919c1.321,0.521,3.212-2.378,4.128-3.102
		c1.301-1.029,3.031-1.865,4.592-2.564c4.881-2.19,7.588,0.323,8.113,5.232c0.322,3.014-0.475,5.732-0.4,8.457
		c3.812-2.229,6.513-0.664,8.16,3.556c0.936,2.397,2.58,10.196,0.035,12.225c-1.174,0.937-4.128-0.534-5.759-0.813
		c-1.872-0.322-3.86-0.256-5.79-0.614c-4.809-0.892-8.294-1.927-13.377-1.384c-2.672,0.285-13.012,3.354-14.695,1.223"/>
	<g>
		<path fill-rule="evenodd" clip-rule="evenodd" fill="#FFFFFF" d="M614.743,80.197c5.107,5.195,7.945,13.114,16.585,13.443
			c-2.583,5.254-6.813,14.504-13.846,14.848"/>
		<path d="M614.743,80.197c1.529,1.093,2.829,2.475,4.104,3.827c1.25,1.374,2.458,2.755,3.721,3.995
			c1.279,1.221,2.597,2.33,4.088,3.031c1.465,0.741,3.063,1.112,4.727,1.183l0.011,0c0.776,0.033,1.379,0.688,1.346,1.464
			c-0.008,0.201-0.062,0.396-0.146,0.566c-0.782,1.577-1.581,3.193-2.509,4.751c-0.929,1.557-1.917,3.104-3.122,4.509
			c-1.179,1.418-2.563,2.715-4.175,3.684c-1.609,0.95-3.508,1.512-5.305,1.282c1.761-0.385,3.271-1.245,4.516-2.376
			c1.264-1.114,2.288-2.473,3.232-3.884c1.866-2.861,3.287-6.011,4.832-9.209l1.212,2.031c-2.023-0.062-4.101-0.597-5.892-1.609
			c-1.778-1.034-3.271-2.407-4.472-3.91c-1.226-1.49-2.217-3.083-3.195-4.649C616.762,83.291,615.803,81.74,614.743,80.197z"/>
	</g>
	
		<path fill-rule="evenodd" clip-rule="evenodd" fill="#FFFFFF" stroke="#000000" stroke-width="3" stroke-linecap="round" stroke-linejoin="round" stroke-miterlimit="10" d="
		M629.253,94.347c-2.693,3.312-5.795,6.284-11.004,5.401"/>
	<g>
		<path fill-rule="evenodd" clip-rule="evenodd" fill="#FFFFFF" d="M618.819,108.402c0.137,2.06,0.509,4.59,1.188,6.561
			c0.354,1.025,1.203,1.705,1.831,2.502c0.799,1.01,0.958,1.85,1.167,3.09c0.361,2.148-0.115,4.264-2.397,4.917
			c-1.068,0.306-1.646,0.283-2.65-0.381c-0.622-0.409-1.784-1.44-1.552-2.127"/>
		<path d="M618.819,108.402c0.755,2.007,1.367,3.974,2.15,5.753l0.146,0.328l0.036,0.082c-0.013-0.047,0.022,0.037,0.03,0.049
			c0.03,0.064,0.06,0.118,0.074,0.126c0.073,0.091,0.188,0.26,0.313,0.394c0.259,0.287,0.602,0.603,0.998,1.005l0.304,0.322
			l0.285,0.348c0.228,0.297,0.394,0.556,0.562,0.869c0.327,0.613,0.502,1.276,0.621,1.834c0.21,1.047,0.395,2.34,0.063,3.661
			c-0.169,0.655-0.46,1.34-0.944,1.91c-0.471,0.578-1.111,1.007-1.756,1.241c-0.678,0.237-1.195,0.307-1.914,0.317
			c-0.355-0.01-0.749-0.078-1.083-0.219c-0.333-0.143-0.605-0.326-0.839-0.515c-0.457-0.39-0.842-0.818-1.143-1.305
			c-0.148-0.246-0.283-0.504-0.371-0.786c-0.081-0.274-0.113-0.622,0.052-0.852c0.018,0.275,0.164,0.461,0.344,0.625
			c0.171,0.165,0.37,0.307,0.578,0.434c0.419,0.253,0.848,0.477,1.284,0.604c0.447,0.152,0.729,0.139,1.023,0.041
			c0.307-0.1,0.802-0.302,1.064-0.487c0.576-0.408,0.809-0.882,0.912-1.591c0.102-0.717-0.012-1.519-0.211-2.486
			c-0.082-0.453-0.184-0.795-0.322-1.106c-0.063-0.149-0.167-0.333-0.243-0.454l-0.188-0.266l-0.198-0.267
			c-0.288-0.372-0.668-0.797-1.011-1.352c-0.175-0.286-0.329-0.56-0.468-0.941c-0.042-0.108-0.06-0.175-0.073-0.231l-0.039-0.132
			l-0.023-0.103l-0.092-0.409C618.333,112.662,618.361,110.51,618.819,108.402z"/>
	</g>
	<g>
		<path fill-rule="evenodd" clip-rule="evenodd" fill="#FFFFFF" d="M617.482,108.488c0.442,38.049-23.634,71.547-60.74,74
			c-48.56,3.209-69.112-30.344-78.128-34.758c15.771-11.565,20.327-93.544,75.254-97.174
			C601.265,47.423,616.954,63.046,617.482,108.488z"/>
		<path d="M619.397,108.475c0.272,16.485-3.97,33.337-13.312,47.22c-4.641,6.922-10.504,13.095-17.408,17.857
			c-6.895,4.765-14.776,8.101-22.979,9.738c-4.088,0.838-8.302,1.209-12.404,1.307c-4.128,0.109-8.271-0.043-12.386-0.484
			c-8.23-0.875-16.353-2.971-23.948-6.274c-7.604-3.291-14.655-7.763-20.995-12.987c-3.182-2.602-6.201-5.377-9.137-8.188
			c-1.47-1.402-2.92-2.815-4.383-4.169c-1.453-1.324-2.973-2.703-4.456-3.481l-0.002-0.001c-0.708-0.352-0.997-1.21-0.646-1.918
			c0.1-0.201,0.239-0.367,0.405-0.496l0.025-0.019c1.636-1.257,2.952-3.202,4.089-5.212c1.138-2.032,2.115-4.2,3.031-6.402
			c1.825-4.415,3.396-8.984,5.004-13.55c3.212-9.138,6.43-18.354,10.427-27.31c4.017-8.928,8.805-17.662,15.182-25.349
			c3.186-3.832,6.791-7.371,10.843-10.376c4.037-3.021,8.562-5.432,13.341-7.107c4.769-1.685,9.826-2.599,14.8-2.862
			c4.895-0.294,9.808-0.385,14.738-0.194c4.927,0.201,9.877,0.693,14.765,1.753c4.875,1.061,9.717,2.702,14.12,5.286
			c4.407,2.559,8.272,6.127,11.16,10.317c2.906,4.188,4.887,8.888,6.261,13.666c1.41,4.781,2.229,9.667,2.86,14.546
			c0.61,4.885,0.888,9.789,1.007,14.681V108.475z M615.567,108.51c0-4.801-0.171-9.595-0.614-14.35
			c-0.426-4.754-1.258-9.462-2.585-13.989c-1.36-4.51-3.271-8.835-5.953-12.59c-2.671-3.758-6.141-6.875-10.149-9.137
			c-4.003-2.278-8.479-3.744-13.076-4.68c-4.606-0.932-9.346-1.36-14.104-1.497c-4.761-0.138-9.552,0.03-14.333,0.338
			c-4.703,0.263-9.279,1.115-13.656,2.668c-8.765,3.074-16.381,8.928-22.412,16.146c-6.08,7.218-10.752,15.63-14.767,24.318
			c-4.037,8.703-7.354,17.769-10.7,26.874c-1.69,4.549-3.403,9.109-5.384,13.614c-1,2.249-2.069,4.485-3.353,6.656
			c-1.304,2.148-2.761,4.322-5.022,5.998l-0.216-2.433l0.002,0.001c2.125,1.095,3.62,2.501,5.187,3.854
			c1.533,1.37,3.008,2.761,4.492,4.129c2.96,2.741,5.955,5.399,9.089,7.874c6.258,4.944,13.038,9.196,20.345,12.271
			c7.292,3.091,15.053,5.021,22.938,5.786c3.941,0.387,7.913,0.496,11.88,0.354c3.992-0.134,7.874-0.515,11.719-1.337
			c7.672-1.605,14.983-4.783,21.378-9.288c6.408-4.485,11.94-10.219,16.314-16.747c8.754-13.092,13.11-28.992,12.982-44.845V108.51z
			"/>
	</g>
	<g>
		<path d="M557.134,99.948c-2.099,0.228-4.024,1.119-5.826,2.126c-1.81,1.013-3.511,2.21-5.123,3.508
			c-3.219,2.603-6.154,5.553-8.661,8.796c-2.5,3.216-4.69,6.757-5.743,10.479c-0.506,1.848-0.713,3.728-0.352,5.393
			c0.354,1.667,1.26,3.062,2.644,4.142c2.623,2.072,6.886,2.587,9.077,0.709c0.551-0.437,0.968-1.015,1.094-1.461
			c0.069-0.218,0.056-0.377,0.041-0.395c-0.024-0.021,0.032,0.084,0.022,0.075c0-0.039-0.654-0.198-1.399-0.08l-0.29,0.046
			l-0.072,0.011c-0.024,0.004,0.099-0.018,0.023-0.003l-0.049,0.01l-0.192,0.041c-0.063,0.027-0.205,0.062-0.35,0.127
			c-0.28,0.113-0.569,0.288-0.855,0.499c-1.153,0.871-2.191,2.379-2.866,4.01c-0.681,1.636-1.056,3.452-0.989,5.102
			c0.062,1.669,0.637,3.014,1.529,3.604c0.827,0.619,2.589,0.832,4.316,0.583c1.749-0.228,3.562-0.783,5.183-1.592
			c0.809-0.403,1.574-0.874,2.227-1.392c0.653-0.512,1.185-1.1,1.443-1.58c0.125-0.236,0.184-0.427,0.191-0.548
			c0.01-0.125,0.004-0.197-0.056-0.339c-0.023-0.068-0.08-0.152-0.141-0.245c-0.021-0.034-0.102-0.125-0.087-0.118l-0.239-0.267
			c-0.198-0.218-0.479-0.451-0.598-0.511c-0.15-0.079-0.02,0.009,0.185-0.04c0.194-0.055,0.151-0.106,0.008,0.064
			c-0.297,0.323-0.67,1.119-0.926,1.938c-0.536,1.684-0.797,3.643-0.876,5.577c-0.074,1.941,0.036,3.91,0.367,5.791
			c0.33,1.861,0.907,3.711,1.807,4.977c0.94,1.275,1.754,1.649,3.236,1.258c1.471-0.426,3.068-1.622,4.478-2.952
			c1.438-1.355,2.732-2.876,3.937-4.487c2.396-3.242,4.321-6.896,5.898-10.695c1.606-3.796,2.825-7.774,3.73-11.833
			c0.453-2.03,0.809-4.085,1.058-6.158c0.266-2.072,0.417-4.165,0.414-6.268c0.519,4.179,0.415,8.448-0.103,12.66
			c-0.514,4.217-1.471,8.387-2.795,12.459c-1.367,4.056-3.137,8.015-5.5,11.698c-1.179,1.844-2.554,3.587-4.093,5.191
			c-0.777,0.806-1.609,1.584-2.55,2.298c-0.941,0.709-1.989,1.372-3.268,1.816c-1.253,0.446-2.858,0.619-4.364,0.109
			c-1.507-0.497-2.664-1.528-3.465-2.574c-1.584-2.147-2.254-4.427-2.744-6.659c-0.462-2.244-0.648-4.486-0.63-6.74
			c0.035-2.258,0.237-4.51,0.898-6.855c0.366-1.175,0.781-2.378,1.834-3.677c0.53-0.624,1.358-1.358,2.586-1.645
			c1.236-0.295,2.456,0.073,3.212,0.507c0.802,0.453,1.316,0.922,1.838,1.465l0.29,0.317c0.178,0.212,0.268,0.321,0.399,0.5
			c0.239,0.337,0.468,0.698,0.649,1.113c0.376,0.812,0.559,1.81,0.475,2.728c-0.072,0.929-0.371,1.748-0.731,2.439
			c-0.743,1.373-1.706,2.32-2.684,3.122c-0.985,0.795-2.019,1.431-3.081,1.975c-2.13,1.071-4.374,1.81-6.789,2.128
			c-1.21,0.145-2.466,0.185-3.785,0.005c-1.308-0.187-2.733-0.595-4.032-1.525c-1.265-0.9-2.203-2.205-2.732-3.519
			c-0.546-1.32-0.754-2.65-0.8-3.925c-0.065-2.553,0.486-4.932,1.426-7.161c0.974-2.204,2.302-4.357,4.561-5.975
			c0.569-0.394,1.196-0.751,1.897-1.014c0.341-0.134,0.706-0.24,1.151-0.339l0.193-0.035l0.168-0.03l0.123-0.016l0.489-0.062
			c0.67-0.061,1.38-0.077,2.161,0.042c0.773,0.129,1.651,0.372,2.486,1.013c0.839,0.611,1.486,1.667,1.659,2.677
			c0.19,1.017,0.035,1.933-0.232,2.705c-0.555,1.55-1.549,2.649-2.646,3.494c-2.219,1.694-5.072,2.179-7.54,1.825
			c-2.505-0.365-4.78-1.369-6.731-3.028c-1.869-1.575-3.297-3.974-3.666-6.456c-0.403-2.485,0.027-4.887,0.775-7.027
			c1.543-4.294,4.133-7.866,6.989-11.074c2.914-3.168,6.156-5.993,9.722-8.338c1.785-1.164,3.645-2.223,5.603-3.065
			C552.935,100.591,555.017,99.922,557.134,99.948z"/>
	</g>
	<g>
		<path d="M551.808,49.689c-1.958-0.64-3.479-2.265-4.671-3.954c-1.153-1.747-2.027-3.716-2.436-5.858
			c-0.407-2.126-0.377-4.481,0.518-6.729c0.44-1.118,1.126-2.17,1.973-3.06c0.425-0.444,0.898-0.836,1.392-1.187
			c0.504-0.348,0.976-0.651,1.706-0.946c0.664-0.256,1.477-0.435,2.356-0.339c0.878,0.079,1.725,0.466,2.343,0.949
			c1.224,1.003,1.788,2.144,2.228,3.203c0.82,2.144,1.091,4.213,1.21,6.267c0.113,2.052-0.011,4.081-0.251,6.086
			c-0.312,1.988-0.646,4.022-1.57,5.841c0.049-1.996-0.158-3.929-0.394-5.858c-0.211-1.924-0.533-3.828-0.906-5.675
			c-0.389-1.833-0.855-3.667-1.569-5.15c-0.345-0.727-0.792-1.351-1.132-1.564c-0.164-0.106-0.247-0.137-0.353-0.14
			c-0.101-0.013-0.278,0.014-0.526,0.113c-0.186,0.061-0.564,0.263-0.867,0.474c-0.312,0.211-0.598,0.45-0.864,0.703
			c-0.539,0.504-0.963,1.114-1.305,1.797c-0.681,1.372-0.939,3.079-0.876,4.837c0.073,1.759,0.412,3.592,1.059,5.336
			C549.503,46.589,550.357,48.308,551.808,49.689z"/>
	</g>
	<g>
		<path d="M556.011,34.61c-0.559-1.985-0.867-4.028-0.872-6.163c0.065-2.097,0.372-4.437,1.979-6.477
			c0.859-1.015,1.781-1.725,3.091-2.265c0.655-0.25,1.442-0.417,2.265-0.335c0.82,0.069,1.611,0.381,2.239,0.781
			c1.264,0.823,1.982,1.867,2.604,2.83c0.606,0.996,1.043,1.936,1.494,2.932c1.755,3.896,2.432,8.448,1.845,12.667
			c-0.579,4.242-2.138,8.148-4.281,11.65c0.573-4.072,1.229-8.013,1.142-11.839c-0.054-3.832-0.847-7.442-2.384-10.911
			c-0.729-1.7-1.642-3.523-2.525-4.183c-0.418-0.302-0.651-0.378-1.271-0.261c-0.581,0.147-1.396,0.582-1.901,1.046
			c-1.115,0.999-1.9,2.757-2.358,4.615C556.561,30.567,556.331,32.575,556.011,34.61z"/>
	</g>
	<g>
		<path d="M568.418,30.92c-0.191-2.081,0.71-4.178,1.893-5.942c1.248-1.745,2.846-3.31,4.947-4.328
			c1.05-0.497,2.243-0.873,3.581-0.868c1.327-0.028,2.793,0.458,3.895,1.34c1.11,0.88,1.819,2.033,2.306,3.141
			c0.477,1.124,0.74,2.252,0.913,3.352c0.306,2.329,0.114,4.454-0.247,6.549c-0.381,2.083-0.956,4.097-1.713,6.035
			c-0.745,1.941-1.699,3.796-2.8,5.551c-1.147,1.718-2.442,3.401-4.129,4.594c1.009-1.775,1.75-3.588,2.362-5.453
			c0.644-1.846,1.128-3.737,1.561-5.618c0.42-1.886,0.764-3.778,0.964-5.654c0.198-1.858,0.278-3.767,0.048-5.41
			c-0.235-1.744-0.811-3.37-1.688-4.179c-0.435-0.405-0.945-0.646-1.619-0.735c-0.667-0.082-1.465,0.018-2.266,0.263
			c-1.609,0.5-3.251,1.463-4.646,2.708C570.361,27.501,569.111,29,568.418,30.92z"/>
	</g>
	<g>
		<path d="M582.06,41.056c-0.337-2.551,1.16-5.642,4.281-6.743c0.774-0.26,1.659-0.368,2.558-0.224
			c0.899,0.131,1.786,0.542,2.493,1.118c1.433,1.16,2.082,2.85,2.366,4.193c0.576,2.5,0.785,5.103,0.585,7.665
			c-0.216,2.554-0.802,5.132-2.117,7.377c-0.325-2.562-0.638-4.917-1.025-7.262c-0.38-2.34-0.825-4.621-1.344-6.901
			c-0.2-1.038-0.53-1.748-0.958-2.225c-0.411-0.456-0.987-0.727-1.842-0.69c-0.839,0.035-1.801,0.418-2.67,1.05
			C583.491,39.04,582.74,39.951,582.06,41.056z"/>
	</g>
	<circle fill-rule="evenodd" clip-rule="evenodd" cx="597.84" cy="84.06" r="5"/>
	
		<path fill-rule="evenodd" clip-rule="evenodd" fill="none" stroke="#000000" stroke-width="2" stroke-linecap="round" stroke-linejoin="round" stroke-miterlimit="10" d="
		M590.002,82.98c1.918,1.209,5.001,1.104,5.001,1.104"/>
	
		<path fill-rule="evenodd" clip-rule="evenodd" fill="none" stroke="#000000" stroke-width="2" stroke-linecap="round" stroke-linejoin="round" stroke-miterlimit="10" d="
		M592.789,77.263c0.758,1.369,1.149,2.398,2.226,4.48"/>
	
		<path fill-rule="evenodd" clip-rule="evenodd" fill="none" stroke="#000000" stroke-width="2" stroke-linecap="round" stroke-linejoin="round" stroke-miterlimit="10" d="
		M597.962,75.771c0.58,1.966,0.861,4.059,0.402,6.086"/>
	<g>
		<path d="M549.955,176.859c0.506,2.488,0.79,4.982,1.017,7.476c0.233,2.489,0.35,4.997,0.462,7.459l0.024,0.525
			c-0.003,0.177,0.01,0.267-0.005,0.515c-0.032,0.503-0.104,0.891-0.226,1.287c-0.228,0.792-0.608,1.496-1.061,2.099
			c-0.915,1.202-2.058,2.063-3.257,2.718c-1.208,0.646-2.49,1.082-3.803,1.302c-1.309,0.202-2.662,0.231-3.907-0.14
			c2.495-0.535,4.647-1.679,6.456-3.09c0.891-0.709,1.674-1.52,2.184-2.381c0.261-0.426,0.436-0.863,0.535-1.278
			c0.057-0.202,0.066-0.44,0.076-0.56c0.012-0.064-0.004-0.287-0.004-0.424l-0.029-0.411c-0.076-1.272-0.115-2.522-0.119-3.778
			c-0.017-1.255-0.016-2.508,0.029-3.763c0.074-2.508,0.221-5.016,0.598-7.529c0.043-0.286,0.31-0.481,0.595-0.438
			C549.743,176.48,549.912,176.65,549.955,176.859z"/>
	</g>
	<g>
		<path d="M549.931,191.873c0.711,1.06,1.412,1.731,2.163,2.275c0.744,0.54,1.528,0.947,2.353,1.283
			c0.827,0.33,1.687,0.586,2.612,0.736c0.935,0.152,1.916,0.202,3.18,0.035c-0.509,1.188-1.714,2-2.996,2.316
			c-1.294,0.322-2.687,0.195-3.921-0.309c-1.233-0.499-2.339-1.387-3.029-2.553C549.604,194.508,549.382,193.037,549.931,191.873z"
			/>
	</g>
	<g>
		<path d="M549.78,193.387c0.652,0.479,0.984,1.041,1.225,1.555c0.228,0.522,0.338,1.031,0.362,1.524
			c0.024,0.494-0.043,0.97-0.191,1.454c-0.151,0.498-0.396,0.948-0.734,1.686c-0.803-0.206-1.285-0.791-1.598-1.326
			c-0.307-0.554-0.45-1.127-0.474-1.68c-0.022-0.556,0.072-1.096,0.284-1.622C548.878,194.441,549.194,193.955,549.78,193.387z"/>
	</g>
	<g>
		<path d="M566.354,181.105c0.322,0.777,0.557,1.535,0.796,2.298c0.112,0.381,0.218,0.762,0.312,1.144l0.138,0.571
			c0.035,0.321,0.09,0.359,0.089,0.696c0.075,2.128-1.077,3.859-2.376,5.045c-1.326,1.207-2.912,1.98-4.561,2.393
			c-1.642,0.385-3.434,0.428-4.985-0.262c1.566-0.57,2.875-1.22,4.136-1.939c1.244-0.725,2.409-1.518,3.39-2.408
			c0.979-0.877,1.757-1.893,2.048-2.917c0.047-0.05,0.062-0.401,0.096-0.47l0.066-0.593c0.049-0.396,0.111-0.792,0.185-1.188
			C565.855,182.684,566.014,181.885,566.354,181.105z"/>
	</g>
	<g>
		<path d="M566.497,184.766c0.712,1.059,1.413,1.731,2.164,2.275c0.744,0.539,1.528,0.947,2.353,1.282
			c0.827,0.329,1.687,0.587,2.613,0.737c0.934,0.15,1.916,0.201,3.179,0.033c-0.509,1.188-1.714,2.001-2.996,2.318
			c-1.294,0.322-2.687,0.195-3.921-0.309c-1.233-0.499-2.339-1.387-3.029-2.553C566.171,187.4,565.948,185.93,566.497,184.766z"/>
	</g>
	<g>
		<path d="M566.347,186.277c0.653,0.479,0.984,1.041,1.226,1.555c0.228,0.523,0.338,1.032,0.361,1.525
			c0.025,0.494-0.043,0.97-0.191,1.453c-0.15,0.499-0.395,0.949-0.733,1.688c-0.803-0.207-1.285-0.793-1.598-1.328
			c-0.307-0.553-0.45-1.125-0.474-1.68c-0.022-0.555,0.072-1.096,0.284-1.621C565.444,187.334,565.761,186.847,566.347,186.277z"/>
	</g>
	<circle fill-rule="evenodd" clip-rule="evenodd" fill="#F5F5F5" cx="600.337" cy="83.357" r="0.969"/>
	<g>
		<path d="M604.901,85.349c-1.2,0.559-2.054,1.19-2.963,1.824l-2.669,1.919c-0.897,0.642-1.818,1.27-2.781,1.887
			c-0.971,0.622-1.955,1.199-3.113,1.843c0.122-1.349,0.754-2.523,1.479-3.544c0.745-1.019,1.65-1.903,2.68-2.632
			c1.027-0.729,2.19-1.307,3.463-1.627C602.245,84.718,603.726,84.646,604.901,85.349z"/>
	</g>
</g>
<path fill-rule="evenodd" clip-rule="evenodd" fill="#0F7EDC" d="M865.135,189.598c5.497-1.143,12.604-7.352,18.704-9.91
	c5.742-2.408,12.631-3.664,18.742-4.496c12.912-1.758,26.169-1.506,38.974-3.422c32.726-4.896,65.247-12.391,98.619-12.391
	c37.417,0,80.928-6.414,115.577,9.316c17.74,8.055,27.91,23.34,42.521,35.146c11.559,9.34,24.733,17.867,37.414,25.344
	c8.972,5.287,20.03,11.18,26.506,19.26c-4.668-0.529-11.23-5.67-15.773-7.75c-4.611-2.113-9.215-4.439-14.368-6.334
	c-12.456-4.578-25.534-7.689-37.253-13.988c-24.125-12.971-55.084-21.734-82.176-26.301c-27.554-4.641-52-14.301-80.561-13.109
	c-15.328,0.639-29.967,4.113-45.148,5.756c-16.691,1.807-33.989,2.148-50.714,0.719c-12.133-1.037-24.756-2.271-36.57-2.316
	c-10.489-0.043-20.31,1.598-30.899,1.598"/>
<path fill-rule="evenodd" clip-rule="evenodd" fill="#0F7EDC" d="M80.938,251.109c18.575-5.746,31.34-16.068,51.801-17.268
	c18.253-1.068,37.249,0.061,55.036-3.293c36.355-6.854,78.038-5.719,115.472-2.127c20.151,1.934,39.7,5.219,60.434,4.342
	c20.31-0.857,40.486-4.486,61.002-6.471c43.522-4.215,89.988-22.703,134.326-15.951c8.537,1.299,17.961,3.797,26.652,3
	c-9.668,2.277-19.676,0.105-29.648-0.004c-11.295-0.123-20.761,2.424-31.532,5.396c-23.645,6.523-47.06,12.465-70.961,18.105
	c-50.365,11.889-99.608,1.756-150.269-0.84c-21.646-1.107-38.115,5.906-58.309,8.871c-21.416,3.145-39.748-4.699-60.188-7.85
	c-18.549-2.861-34.279,1.73-51.744,6.293c-20.237,5.287-34.179,8.053-54.229,5.637"/>
<g>
	<path fill-rule="evenodd" clip-rule="evenodd" d="M1279.034,249.359c-34.031-12.707-60.051-43.082-91.5-61.898
		c-5.257-3.145-11.688-5.516-17.044-8.971c-6.93-4.469-11.867-8.873-19.735-11.662c-32.951-11.68-80.818-10.836-122.002-8.074
		c-25.025,1.678-53.342,10.629-79.839,12.559c-34.874,2.541-56.29,6.074-83.427,17.045c73.409,2.639,152.915-16.59,218.885-0.896
		c30.176,7.178,59.104,16.381,87.912,24.219c38.732,10.539,70.988,33.404,108.545,40.369c-26.021,4.965-47.451-7.229-71.764-8.074
		c-15.703-0.545-30.979,1.609-46.648,0.898c-14.695-0.668-29.777-2.543-44.854-3.588c-45.844-3.182-89.359-11.982-142.635-8.971
		c-16.775,0.949-33.293,4.029-50.234,4.484c-24.572,0.662-49.231-0.639-72.662,0.896c-28.117,1.844-55.791,8.391-84.326,10.766
		c-6.688,0.557-13.812-0.377-20.633,0c-29.135,1.615-56.852,5.586-86.118,3.588c-59.163-4.037-116.429-5.262-171.339,4.486
		c-26.377,4.682-52.285,11.449-78.045,12.559c-24.492,1.055-49.994-4.1-75.353-4.484c-26.146-0.398-53.274,2.357-77.149,0
		c-14.967-1.48-29.54-10.131-44.854-11.662c-33.76-3.379-65.293,9.24-101.368,11.662c-26.114,1.75-52.85-2.613-76.25-0.898
		c-11.897,0.871-23.774,4.955-35.884,2.691c17.188-2.828,30.48-4.463,45.75-8.971c7.733-2.283,16.24-2.271,23.324-4.484
		c13.885-4.338,25.256-15.207,36.781-18.84c26.176-8.248,63.752-4.539,98.676-6.279c6.792-0.338,13.787-2.172,20.633-2.689
		c37.467-2.842,74.604,4.283,112.135,7.176c20.277,1.562,42.895,0.529,62.794-0.896c29.935-2.146,55.3-14.41,83.427-18.84
		c30.588-4.816,60.785-9.477,95.09-7.176c32.803,2.197,74.006,16.811,110.339,7.176c7.342-1.947,14.059-7.771,21.53-9.869
		c10.171-2.848,22.008-4.189,34.088-7.174c36.151-8.936,74.504,1.338,111.236-6.281c17.148-3.555,34.123-13.543,50.236-17.043
		c19.941-4.334,42.654-3.578,62.795-6.281c22.32-2.994,43.361-8.68,61.896-9.865c43.217-2.768,93.936-2.377,123.795,9.865
		c11.183,4.586,21.812,13.445,32.295,19.736c11.154,6.693,20.902,14.285,30.502,21.529
		C1237.653,222.004,1257.222,235.521,1279.034,249.359z M1105.9,195.535c-28.897-7.084-55.349-15.643-91.501-12.561
		c-18.249,1.557-42.115,3.273-64.588,4.486c-25.941,1.398-54.155,3.188-76.25,4.484c-62.625,3.68-125.387-3.299-174.031,19.734
		c70.469-4.67,140.035,4.709,207.223,0c129.772-9.092,241.696,26.107,354.342,37.68
		C1215.594,230.379,1159.216,208.602,1105.9,195.535z M518.322,208.99c-41.95,3.988-79.71,22.875-120.206,25.117
		c-19.203,1.064-39.61,2.477-60.104,0.896c-37.471-2.885-74.23-9.891-112.135-7.176c-7.233,0.518-14.119,2.322-21.527,2.691
		c-24.064,1.199-49.308-1.812-72.664,0.898c-20.791,2.41-37.445,10.168-53.825,20.631c31.046-4.367,64.001-11.039,98.679-14.354
		c13.451-1.285,27.848,1.771,43.059,2.693c25.734,1.559,53.361-4.424,77.147-2.693c15.265,1.111,29.505,6.414,44.853,7.178
		c17.95,0.895,37.53,1.537,56.518,0c13.644-1.105,27.535-5.82,41.264-8.074c14.168-2.326,27.098-6.477,40.369-9.867
		c28.426-7.266,57.086-8.936,85.221-15.252C550.597,206.635,534.067,207.492,518.322,208.99z M616.103,217.961
		c34.666,5.119,69.568,13.301,106.752,15.25c19.782,1.037,39.608,3.854,58.308,2.691c15.127-0.941,30.009-4.682,44.854-5.383
		c33.689-1.592,67.842,4.443,98.678,3.588c15.383-0.426,30.645-3.576,46.647-4.484c79.429-4.518,147.038,16.82,221.575,11.662
		c-34.574-3.594-70.283-10.537-106.751-17.045c-17.764-3.17-36.738-3.533-55.618-6.279c-40.493-5.893-79.889-7.371-124.693-3.59
		c-68.125,5.756-144.873-7.232-209.016-0.895c-12.791,1.262-25.082,4.518-37.678,4.484c-33.441-0.086-68.37-12.164-97.779-8.971
		C577.894,213.623,596.921,215.129,616.103,217.961z M786.546,237.695c-76.214,5.461-145.97-18.762-214.399-23.324
		c-1.649-0.109-2.033,0.756-3.587,0.898c-30.064,2.785-60.479,6.393-88.811,13.457c-13.387,3.336-26.359,8.316-40.369,10.764
		c-14.562,2.545-29.164,6.953-43.955,8.074c-17.284,1.311-34.889,0.715-51.134,0c-15.414-0.68-29.527-6.016-44.853-7.176
		c-26.916-2.043-53.891,4.662-79.84,2.689c-15.344-1.164-29.598-3.961-44.853-2.689c-26.414,2.197-54.685,6.797-77.147,10.764
		c-19.844,3.502-37.603,3.951-52.928,10.764c25.021-1.441,48.706,1.939,72.663,0c36.938-2.988,66.345-14.596,100.472-10.764
		c14.107,1.584,23.799,8.877,38.574,10.764c21.535,2.754,45.777,0,68.177,0c23.204,0,44.618,3.146,64.588,4.486
		c41.96,2.814,73.675-7.434,110.341-14.354c26.245-4.953,53.875-6.928,79.838-6.279c32.066,0.801,63.179,4.162,94.191,4.484
		c72.168,0.752,139.719-13.219,206.325-16.146C846.795,228.502,818.208,235.428,786.546,237.695z"/>
</g>
<g>
</g>
<g>
</g>
<g>
</g>
<g>
</g>
<g>
</g>
<g>
</g>
<g>
</g>
<g>
</g>
<g>
</g>
<g>
</g>
<g>
</g>
<g>
</g>
<g>
</g>
<g>
</g>
<g>
</g>
</svg>
