<?xml version="1.0" encoding="utf-8"?>
<!-- Generator: Adobe Illustrator 16.0.0, SVG Export Plug-In . SVG Version: 6.00 Build 0)  -->
<!DOCTYPE svg PUBLIC "-//W3C//DTD SVG 1.1//EN" "http://www.w3.org/Graphics/SVG/1.1/DTD/svg11.dtd">
<svg version="1.1" id="Layer_1" xmlns="http://www.w3.org/2000/svg" xmlns:xlink="http://www.w3.org/1999/xlink" x="0px" y="0px"
	 width="333px" height="199px" viewBox="0 0 333 199" enable-background="new 0 0 333 199" xml:space="preserve">
<path fill-rule="evenodd" clip-rule="evenodd" fill="#0F7EDC" d="M79.307,149.311c8.42,12.236-32.243,7.915-23.172,24.889
	c4.689,8.774,11.962-3.361,17.201-2.879c8.852,0.817,0.632,11.158,1.998,16.012c2.889,10.27,8.818-4.492,10.651-8.482
	c1.514-3.295,2.875-7.73,6.682-8.699c4.472-1.137,4.129,1.515,7.466,3.182c6.185,3.088,24.167,3.402,26.061-6.662
	c1.082-5.745-9.175-6.559-13.423-7.434c0.286-7.842,22.513,0.132,19.129-11.805c-6.167-2.209-9.731,3.293-15.267,2.599
	c-4.323-0.542-7.961-6.259-12.484-7.396c-12.188-3.061-13.031,10.551-23.481,6.699L79.307,149.311z"/>
<path fill="#FFFFFF" d="M117.333,163.668c0.913,0.523,1.69,1.361,1.977,2.572c0.136,0.601,0.083,1.289-0.156,1.896
	c-0.237,0.609-0.636,1.115-1.074,1.514c-0.891,0.793-1.932,1.201-2.962,1.417c-1.037,0.196-2.089,0.216-3.119-0.067
	c0.912-0.547,1.781-0.962,2.594-1.416c0.81-0.441,1.571-0.902,2.147-1.419c0.579-0.528,0.923-1.038,1.008-1.784
	C117.845,165.623,117.598,164.689,117.333,163.668z"/>
<path fill-rule="evenodd" clip-rule="evenodd" fill="#0F7EDC" d="M89.911,104.352c0.777-0.756,3.13-0.455,4.192-0.564
	c0.613-0.063,1.236-0.258,1.734,0.146c0.433,0.351,0.593,1.129,0.729,1.607c0.222,0.781,0.238,0.748-0.71,0.714
	c-0.571-0.021-1.242-0.133-1.79-0.295c-0.613-0.183-1.206-0.273-1.82-0.438c-0.541-0.146-1.102-0.611-1.667-0.668"/>
<path fill-rule="evenodd" clip-rule="evenodd" fill="#0F7EDC" d="M98.592,103.351c1.342,0.001,3.104-0.271,4.527,0.019
	c1.542,0.314,2.171,1.344,0.669,2.255c-0.988,0.599-2.289,1.131-3.441,1.067c-1.018-0.055-1.691-1.664-1.838-2.674"/>
<path fill="none" stroke="#FCEE21" stroke-width="1.5" stroke-linecap="round" stroke-linejoin="round" stroke-miterlimit="10" d="
	M280.334,121.5c-0.322,0.578-1.556,2.425-0.683,3.221c1.433,1.305,4.19-1.574,5.481-0.893c1.312,0.691-0.567,2.146,0.223,3.18
	c0.817,1.07,3.34-0.494,4.461-0.48c0.053,4.222,3.811,0.461,5.217,3.691c0.73,1.68-0.055,1.988,2.121,2.244
	c1.689,0.199,3.123-0.197,2.852,2.029c1.196,0.04,1.986-0.127,3.002,0.543c1.171,0.771,1.208,1.253,2.65,1.674
	c1.264,0.369,1.904,1.012,3.008,1.508c0.768,0.345,1.13,1.01,1.834,0.117"/>
<path fill="none" stroke="#FCEE21" stroke-width="1.5" stroke-linecap="round" stroke-linejoin="round" stroke-miterlimit="10" d="
	M269,128.334c0.445-0.639,2.295-1.135,2.974-0.641c1.243,0.906-0.106,2.217-0.526,3.271c-1.752,4.403,2.074,2.142,4.53,2.227
	c-0.13,2.187-0.062,2.241,2.396,2.106c2.594-0.142,1.89,0.033,2.004,2.178c1.783,0.113,3.032-0.245,4.409,0.782
	c0.327,0.243-0.187,0.783,0.228,1.052c0.44,0.285,1.318-0.237,1.752,0.201c1.375,1.389-0.633,1.541,1.731,2.158
	c1.341,0.35,2.596,0.281,3.337,1.666"/>
<path fill="none" stroke="#FCEE21" stroke-width="1.5" stroke-linecap="round" stroke-linejoin="round" stroke-miterlimit="10" d="
	M259.834,132.668c0.796-0.318,2.928-1.041,3.65-0.357c0.766,0.723-0.414,2.13-0.002,2.831c1.196,2.034,4.077-1.257,3.032,2.501
	c1.201,0.07,2.423-0.019,3.63,0.037c0.273,0.619,0.062,1.361-0.135,1.967c1.777,0.037,4.276-0.148,3.822,2.329
	c1.908,0.106,4.913-0.747,3.711,1.999c0.609,0.038,1.541-0.18,2.094,0.006c1.419,0.479,0.788,0.703,1.196,1.865
	c0.63,1.791,1.517,1.754,3.501,2.154"/>
<path fill="none" stroke="#FCEE21" stroke-width="1.5" stroke-linecap="round" stroke-linejoin="round" stroke-miterlimit="10" d="
	M248.5,134.334c1.177,0.945,3.708-0.189,5.022,1.029c1.141,1.057,0.36,1.684,1.816,2.441c0.294,0.152,1.133-0.188,1.342,0.051
	c0.401,0.454-0.393,1.102-0.197,1.319c0.758,0.843,2.411,0.456,3.735,0.509c0.148,0.547,0.165,1.207,0.128,1.791
	c1.581,0.143,4.475-0.83,3.5,1.834c1.171,0.076,3.611-0.153,2.666,1.833c0.488-0.097,1.155,0.095,1.635,0.063
	c0.139,0.896-0.455,1.613-0.443,2.428c1.172,0.305,3.516-0.098,3.99,1.177c1.596,0.064,3.078,0.741,4.639,0.858"/>
<path fill="none" stroke="#FCEE21" stroke-width="1.5" stroke-linecap="round" stroke-linejoin="round" stroke-miterlimit="10" d="
	M242.5,142.168c1.287,2.031,6.575,2.68,8.766,3.041c1.412,0.232,3.265,0.112,4.416,1.104c0.744,0.643,0.883,1.664,1.474,2.4
	c1.527,1.906,4.236,2.865,6.318,3.958c1.613,0.847,2.928,1.905,4.861,1.829"/>
<path fill="none" stroke="#FCEE21" stroke-width="1.5" stroke-linecap="round" stroke-linejoin="round" stroke-miterlimit="10" d="
	M250.5,157.5c1.912,0.026,3.356-0.262,5.224-0.474c1.854-0.212,2.18,0.368,3.11,1.817c1.479,2.305,4.836,3.762,7.5,2.49"/>
<path fill="none" stroke="#FCEE21" stroke-width="1.5" stroke-linecap="round" stroke-linejoin="round" stroke-miterlimit="10" d="
	M147.25,171.25c0.874,2.998,2.562,2.22,4.769,3.246c0.089,0.041-0.083,1.044,0.271,1.203c0.796,0.362,1.811-0.128,2.403,0.107
	c1.267,0.502,1.95,0.076,1.591,2.156c1.599,0.137,3.157-0.521,4.721,0.001c-0.172,0.696,0.125,1.552,0.028,2.249
	c1.52,0.098,2.746,0.646,3.898,0.861c1.782,0.33,3.688-0.262,5.549-0.035c-0.059,0.354,0.096,0.82,0.053,1.174
	c0.572,0.065,2.121-0.451,2.49-0.254c1.343,0.718,0.229,2.018,0.965,3.008c0.76,1.021,3.251,0.717,4.512,1.283"/>
<path fill="none" stroke="#FCEE21" stroke-width="1.5" stroke-linecap="round" stroke-linejoin="round" stroke-miterlimit="10" d="
	M156.25,163c-0.09,1.648-0.84,2.861,1.793,3.205c1.758,0.23,4.204-1.51,3.495,1.702c3.097,0.511,3.657-0.038,3.744,3.556
	c1.404,0.045,3.274-0.232,4.254,1.088c0.985,1.328-0.059,1.794,1.251,2.698c0.469,0.325,1.535-0.112,2.149,0.215
	c0.927,0.495,1.068,1.708,1.752,2.354c1.235,1.166,2.352,1.246,3.812,1.682"/>
<path fill="none" stroke="#FCEE21" stroke-width="1.5" stroke-linecap="round" stroke-linejoin="round" stroke-miterlimit="10" d="
	M163,161c-0.923,2.793,3.455,2.438,5.468,2.526c-0.052,3.187,1.651,1.579,3.737,2.263c0.503,0.164,0.209,1.182,0.959,1.473
	c1.162,0.451,2.587,0.047,3.854,0.676c1.877,0.934,2.072,2.488,4.032,3.264c2.462,0.974,2.645,0.295,3.949,2.549"/>
<path fill-rule="evenodd" clip-rule="evenodd" fill="none" stroke="#FCEE21" stroke-linecap="round" stroke-linejoin="round" stroke-miterlimit="10" d="
	M183.5,131.25c-0.399-0.439,1.908,0.793,2.499,1.195c0.954,0.648,1.55,1.887,2.695,2.379c1.05,0.451,2.441-0.021,3.56,0.283
	c1.05,0.285,0.583,1.469,2.246,1.143"/>
<path fill-rule="evenodd" clip-rule="evenodd" fill="none" stroke="#FCEE21" stroke-linecap="round" stroke-linejoin="round" stroke-miterlimit="10" d="
	M189.25,125.25c-2.461,4.825,5.568,4.267,7.51,5.559c0.976,0.648,0.85,1.717,1.729,2.455c0.881,0.738,2.718,1.404,3.824,1.748
	c1.447,0.451,2.109,0.484,3.442,1.176c1.497,0.778,2.422,0.962,4.178,1.357c3.945,0.887,6.584,3.594,10.816,3.455"/>
<g>
	<path d="M234.94,144.326c0.181-2.181,0.806-4.409,2.083-6.254c1.232-1.876,2.994-3.352,4.87-4.535
		c1.889-1.184,3.9-2.139,5.936-3.002c2.039-0.86,4.106-1.633,6.181-2.372c4.149-1.48,8.294-2.932,12.357-4.583
		c2.029-0.829,4.049-1.678,6.039-2.59c1.978-0.931,4.009-1.82,5.761-3.031c0.903-0.585,1.777-1.301,2.874-1.776
		c1.1-0.487,2.315-0.551,3.438-0.467c0.572,0.035,1.115,0.112,1.683,0.217c0.606,0.142,1.127,0.365,1.639,0.633
		c1.013,0.539,1.9,1.228,2.756,1.932c1.714,1.397,3.257,3.003,5.12,4.081c1.951,0.94,4.007,1.753,6.095,2.395
		c4.192,1.294,8.566,1.898,12.941,2.233c4.38,0.338,8.781,0.385,13.183,0.623c0.19,0.01,0.337,0.173,0.326,0.363
		c-0.001,0.027-0.006,0.053-0.013,0.078l-0.003,0.009c-0.923,3.114-2.634,5.993-4.879,8.346c-2.24,2.367-4.941,4.238-7.773,5.779
		c-2.847,1.53-5.831,2.754-8.842,3.854c-3.014,1.1-6.062,2.072-9.101,3.046c-6.065,1.938-12.197,3.781-17.727,6.812
		c-2.741,1.524-5.333,3.35-7.391,5.688c-2.068,2.32-3.538,5.153-4.241,8.198c-0.056,0.247-0.301,0.403-0.549,0.349
		c-0.043-0.01-0.088-0.027-0.125-0.048c-3.594-2.01-7.391-3.716-11.106-5.579c-1.862-0.926-3.7-1.908-5.486-2.981
		c-0.894-0.533-1.771-1.1-2.615-1.712c-0.432-0.291-0.831-0.63-1.241-0.95c-0.411-0.32-0.779-0.694-1.169-1.037
		c-0.024-0.022-0.027-0.06-0.005-0.085c0.021-0.024,0.058-0.027,0.083-0.007l0.006,0.004c0.402,0.326,0.779,0.681,1.199,0.982
		s0.827,0.62,1.268,0.893c0.86,0.572,1.751,1.099,2.66,1.593c1.812,0.999,3.686,1.884,5.561,2.766l5.667,2.577
		c1.889,0.866,3.784,1.732,5.628,2.73l-0.674,0.301c0.679-3.191,2.183-6.224,4.322-8.704c2.133-2.492,4.793-4.471,7.622-6.034
		c2.832-1.577,5.814-2.82,8.826-3.927c3.015-1.103,6.062-2.083,9.108-3.034c3.048-0.945,6.091-1.885,9.083-2.944
		c2.99-1.062,5.938-2.24,8.73-3.707c2.791-1.453,5.441-3.208,7.641-5.441c2.204-2.22,3.901-4.941,4.856-7.935l0.31,0.45
		c-4.381-0.316-8.782-0.499-13.175-0.883c-4.394-0.354-8.772-1.06-13.021-2.281c-2.126-0.631-4.184-1.415-6.204-2.365
		c-1.979-1.103-3.569-2.665-5.296-3.997c-0.858-0.67-1.74-1.311-2.688-1.781c-0.467-0.232-0.974-0.424-1.443-0.522
		c-0.515-0.082-1.066-0.146-1.592-0.163c-1.062-0.05-2.11,0.041-3.026,0.478c-0.922,0.421-1.761,1.13-2.681,1.766
		c-1.869,1.306-3.892,2.203-5.88,3.161c-2.004,0.931-4.024,1.833-6.084,2.628c-4.109,1.622-8.288,3.037-12.442,4.472
		c-4.135,1.466-8.337,2.83-12.092,5.042c-0.929,0.562-1.829,1.173-2.651,1.875c-0.837,0.686-1.59,1.473-2.224,2.349
		c-1.312,1.739-2.015,3.861-2.291,6.041c-0.004,0.033-0.034,0.057-0.067,0.053C234.96,144.39,234.938,144.357,234.94,144.326z"/>
</g>
<path fill="none" stroke="#000000" stroke-width="0.45" stroke-linecap="round" stroke-linejoin="round" stroke-miterlimit="10" d="
	M280.667,122.334c-0.317,0.549-0.481,1.689-0.64,2.281c1.605-0.088,3.283-0.461,4.922-0.23c0.004,0.391,0.096,0.836,0.094,1.232
	c1.897-0.115,4.301-0.93,3.676,2c3.044-0.488,2.787,2.324,5.232,2.433c-0.189,2.364,5.244,2.604,6.732,3.284
	c0.947,0.432,2.889,1.669,3.718,1.941c2.021,0.665,3.911-0.693,5.266,1.725"/>
<path fill="none" stroke="#000000" stroke-width="0.5" stroke-linecap="round" stroke-linejoin="round" stroke-miterlimit="10" d="
	M269.334,128.668c2.635-0.6,3.551,1.311,3.375,3.615c1.201,0.229,2.545-0.008,3.649-0.24c0.69,2.397,3.971,0.164,4.024,3.24
	c1.445-0.115,2.402,1.041,3.285,1.725c0.407,0.314,1.257-0.08,1.764,0.303c0.554,0.416-0.138,1.676,0.285,1.955
	c1.719,1.138,6.285,1.601,6.95,3.402"/>
<path fill="none" stroke="#000000" stroke-width="0.6" stroke-linecap="round" stroke-linejoin="round" stroke-miterlimit="10" d="
	M262,131.668c1.958-0.434,1.969,0.599,2.933,1.668c0.419,0.465-0.294,1.489,0.11,1.947c0.615,0.699,1.545,0.49,2.281,0.986
	c1.953,1.316,4.01,1.227,6.031,2.373c0.457,0.26,0.141,1.272,0.296,1.356c-0.245-0.132,1.775,1.167,1.617,1.01
	c0.062,0.062,2.261,1.911,2.392,1.99c2.538,1.53,5.501,1.245,7.34,4.335"/>
<path fill="none" stroke="#000000" stroke-width="0.7" stroke-linecap="round" stroke-linejoin="round" stroke-miterlimit="10" d="
	M248,133.668c0.521,2.658,4.186,0.545,5.95,1.301c2.514,1.078,1.175,3.103,2.786,4.387c0.859,0.687,3.777,0.676,4.685,0.973
	c1.258,0.41,1.22,1.803,3.196,1.389c0.003,0.408,0.15,0.879,0.174,1.233c2.73-0.562,3.322,1.45,2.568,3.674
	c3.756-0.27,5.92,2.622,9.308,3.71"/>
<path fill="none" stroke="#000000" stroke-width="0.7" stroke-linecap="round" stroke-linejoin="round" stroke-miterlimit="10" d="
	M242.333,141.668c4.14,4.273,11.312,1.262,15.333,6.016c1.37,1.62,3.165,3.096,4.341,4.365c0.52,0.561,0.995,2.039,1.57,2.385
	c1.063,0.639,2.957,1.004,3.089,1.234"/>
<path fill="none" stroke="#000000" stroke-width="0.75" stroke-linecap="round" stroke-linejoin="round" stroke-miterlimit="10" d="
	M252.333,155.668c-1.851,3.18,3.672,1.815,5.097,2.326c1.949,0.698,2.677,3.18,5.237,3.674"/>
<g>
	<path d="M174.486,131.442c0.361-0.142,0.761-0.222,1.09-0.411c0.342-0.166,0.677-0.327,0.995-0.55
		c0.329-0.194,0.636-0.421,0.942-0.655c0.314-0.218,0.612-0.459,0.903-0.71c0.593-0.484,1.151-1.019,1.694-1.564
		c0.551-0.537,1.085-1.094,1.609-1.66c0.521-0.57,1.043-1.139,1.549-1.725l1.507-1.768l3.016-3.556l0.22-0.259l0.257,0.147
		c1.637,0.938,3.258,1.897,4.919,2.777c1.649,0.901,3.297,1.799,4.974,2.65c1.672,0.859,3.375,1.646,5.048,2.49
		c0.833,0.431,1.674,0.841,2.532,1.21l2.545,1.171c0.85,0.372,1.69,0.822,2.547,1.13c0.875,0.338,1.713,0.62,2.612,0.903
		l5.371,1.636c1.793,0.568,3.604,1.113,5.358,1.839c0.877,0.359,1.75,0.743,2.585,1.202c0.823,0.479,1.64,1.005,2.281,1.717
		l-0.085,0.085c-0.729-0.583-1.556-1.002-2.409-1.363c-0.861-0.346-1.733-0.662-2.625-0.93c-1.787-0.527-3.588-1.02-5.409-1.473
		c-1.82-0.452-3.64-0.932-5.453-1.489c-0.889-0.29-1.838-0.591-2.701-0.963c-0.901-0.357-1.708-0.825-2.565-1.231l-2.536-1.263
		c-0.85-0.413-1.671-0.875-2.483-1.35c-1.63-0.943-3.25-1.906-4.865-2.864c-0.801-0.49-1.621-0.949-2.437-1.413
		c-0.817-0.461-1.625-0.942-2.465-1.359c-1.671-0.852-3.382-1.625-5.079-2.417l0.477-0.112c-0.897,1.28-1.809,2.558-2.809,3.768
		c-0.992,1.216-2.049,2.382-3.161,3.5c-1.115,1.113-2.305,2.163-3.602,3.078c-0.32,0.233-0.648,0.457-0.993,0.658
		c-0.333,0.218-0.689,0.398-1.055,0.561c-0.35,0.184-0.738,0.316-1.12,0.442c-0.375,0.158-0.769,0.155-1.152,0.238L174.486,131.442z
		"/>
</g>
<g>
	<path d="M91.727,141.566c3.064-1.722,6.46-2.853,9.879-3.661c3.431-0.81,6.916-1.347,10.379-1.905l1.299-0.211
		c0.404-0.072,0.852-0.18,1.275-0.269l2.576-0.558c0.851-0.208,1.734-0.323,2.558-0.608l2.497-0.774l2.495-0.773l2.434-0.973
		c1.623-0.648,3.257-1.265,4.809-2.074l2.358-1.142l1.179-0.571l1.143-0.635c1.492-0.86,2.942-1.852,4.452-2.784
		c1.513-0.918,3.171-1.778,5.015-2.066c1.836-0.321,3.701-0.041,5.429,0.485c3.452,1.047,6.511,2.916,9.636,4.419
		c1.575,0.756,3.144,1.415,4.821,1.915l5.027,1.58l5.028,1.58l5.055,1.452c3.37,0.97,6.73,1.984,10.153,2.755l5.113,1.246
		l2.557,0.624l2.586,0.476l5.175,0.949c1.731,0.304,3.44,0.674,5.191,0.85c3.483,0.471,6.98,0.788,10.46,1.316
		c1.739,0.271,3.488,0.48,5.199,0.923c1.716,0.386,3.46,0.701,5.13,1.264c3.367,1.061,6.614,2.417,9.992,3.32
		c3.35,0.911,6.915,1.339,10.262,0.42l0.514-0.142l-0.158,0.492l-0.385,1.201c-0.161,0.389-0.354,0.764-0.531,1.146
		c-0.205,0.367-0.446,0.713-0.668,1.07c-0.249,0.337-0.523,0.655-0.785,0.983l-0.875,0.897l-0.94,0.819
		c-0.649,0.517-1.315,1.005-1.994,1.471c-1.357,0.929-2.747,1.785-4.058,2.731c-0.653,0.475-1.286,0.972-1.883,1.503
		c-0.591,0.537-1.141,1.112-1.631,1.732c-0.453,0.607-0.905,1.34-1.357,2.004c-0.413,0.692-0.743,1.41-1.12,2.111
		c-0.334,0.727-0.617,1.486-0.928,2.227c-0.271,0.76-0.511,1.533-0.768,2.299c-0.454,1.555-0.866,3.127-1.251,4.712
		c-0.383,1.589-0.791,3.177-1.225,4.765l-0.149,0.547l-0.561-0.235l-4.217-1.763l-4.374-1.378l-4.465-1.103
		c-1.5-0.331-3.011-0.62-4.516-0.933l-9.095-1.724c-3.031-0.612-6.069-1.246-9.058-2.129c-1.514-0.378-2.983-0.919-4.434-1.409
		l-4.375-1.509l-8.699-3.201l-4.349-1.551c-1.454-0.501-2.888-1.077-4.366-1.489l-4.405-1.339l-2.184-0.655l-2.259-0.503
		c-1.506-0.375-3.011-0.594-4.514-0.832c-1.495-0.271-3.031-0.417-4.555-0.604c-3.053-0.35-6.127-0.604-9.202-0.906
		c-1.537-0.144-3.076-0.342-4.613-0.51c-1.536-0.189-3.067-0.46-4.6-0.686c-1.522-0.296-3.042-0.651-4.554-0.976l-4.488-1.127
		l-8.985-2.221c-1.5-0.364-2.99-0.773-4.482-1.17c-1.496-0.384-2.982-0.804-4.461-1.254c-1.48-0.442-2.964-0.872-4.42-1.395
		c-1.455-0.523-2.941-0.95-4.367-1.551c-1.431-0.585-2.883-1.114-4.293-1.744l-4.189-1.978l0.054-0.107l4.225,1.876
		c1.42,0.595,2.882,1.089,4.319,1.639c1.433,0.565,2.928,0.957,4.388,1.444c1.46,0.488,2.951,0.878,4.435,1.291
		c1.479,0.429,2.966,0.829,4.463,1.195c1.494,0.376,2.984,0.766,4.487,1.111l9.012,2.108l4.502,1.071
		c1.507,0.304,2.999,0.633,4.506,0.907c1.521,0.204,3.034,0.452,4.562,0.622c1.531,0.148,3.056,0.325,4.592,0.449
		c3.069,0.264,6.148,0.48,9.229,0.794c1.541,0.169,3.079,0.296,4.625,0.555l2.317,0.349c0.775,0.11,1.513,0.316,2.271,0.47
		l2.26,0.497c0.79,0.217,1.498,0.445,2.25,0.668l4.453,1.343c1.497,0.415,2.931,0.988,4.395,1.488l4.372,1.549l8.678,3.173
		l4.378,1.499c1.47,0.501,2.895,1.04,4.375,1.415c2.926,0.883,5.931,1.527,8.942,2.152l9.082,1.772
		c1.514,0.323,3.031,0.622,4.542,0.964l4.513,1.142l4.443,1.434l4.3,1.859l-0.71,0.312c0.446-1.559,0.87-3.13,1.271-4.714
		c0.405-1.585,0.84-3.168,1.321-4.744c0.271-0.779,0.525-1.565,0.812-2.34c0.33-0.761,0.627-1.531,0.984-2.284
		c0.402-0.732,0.772-1.497,1.204-2.2c0.476-0.679,0.887-1.339,1.416-2.034c0.532-0.656,1.12-1.257,1.745-1.811
		c0.63-0.547,1.29-1.052,1.963-1.529c1.351-0.951,2.755-1.793,4.105-2.693c0.674-0.451,1.328-0.925,1.962-1.42l0.913-0.783
		l0.843-0.85c0.249-0.31,0.512-0.608,0.75-0.925c0.21-0.335,0.442-0.659,0.637-1.003c0.167-0.357,0.354-0.708,0.508-1.072
		l0.372-1.129l0.356,0.351c-3.497,0.929-7.162,0.444-10.542-0.505c-3.41-0.943-6.655-2.331-9.981-3.409
		c-1.661-0.574-3.379-0.899-5.087-1.296c-1.7-0.429-3.445-0.628-5.179-0.887c-3.47-0.504-6.979-0.801-10.462-1.249
		c-1.749-0.165-3.48-0.531-5.215-0.802l-5.207-0.87l-2.604-0.437l-2.573-0.585l-5.146-1.169c-3.447-0.722-6.832-1.687-10.229-2.609
		l-5.095-1.388l-5.035-1.556l-5.036-1.556c-1.695-0.496-3.379-1.188-4.973-1.947c-3.208-1.51-6.183-3.392-9.479-4.396
		c-1.61-0.501-3.325-0.764-4.964-0.483c-1.651,0.245-3.189,1.019-4.671,1.906c-1.485,0.904-2.943,1.89-4.501,2.776l-1.165,0.637
		l-1.196,0.571l-2.392,1.141c-1.571,0.814-3.239,1.405-4.888,2.039l-2.474,0.946l-2.55,0.75l-2.548,0.748
		c-0.845,0.276-1.718,0.375-2.575,0.572l-2.583,0.521c-0.438,0.084-0.845,0.179-1.307,0.255l-1.305,0.192
		c-3.477,0.525-6.962,0.941-10.39,1.671c-3.427,0.725-6.792,1.747-9.911,3.397L91.727,141.566z"/>
</g>
<g>
	<path d="M152.667,160.668c-1.362,1.351-2.73,2.695-4.115,4.022l-2.096,1.976l-2.144,1.928l-2.218,1.85l-2.307,1.745l-2.398,1.625
		l-2.493,1.485l-0.076-0.794c7.964,2.528,15.879,5.22,23.823,7.823c3.924,1.434,7.822,2.941,11.733,4.408l11.721,4.439l-0.647,0.32
		l0.625-1.646c0.214-0.545,0.541-1.038,0.806-1.559c0.251-0.531,0.65-0.968,0.972-1.452c0.32-0.49,0.727-0.906,1.11-1.34
		c0.374-0.445,0.79-0.845,1.216-1.232c0.415-0.401,0.841-0.788,1.292-1.142c0.875-0.744,1.799-1.415,2.718-2.089l1.386-0.979
		c0.448-0.345,0.925-0.667,1.35-1.031l2.603-2.182c0.433-0.367,0.875-0.728,1.331-1.071c0.442-0.358,0.911-0.686,1.39-0.997
		c0.461-0.338,0.982-0.582,1.486-0.848c0.497-0.282,1.071-0.393,1.597-0.595c-0.519,0.234-1.075,0.373-1.552,0.683
		c-0.485,0.292-0.98,0.562-1.42,0.92c-0.46,0.328-0.908,0.67-1.332,1.046c-0.436,0.359-0.859,0.735-1.275,1.12l-2.521,2.305
		c-0.423,0.394-0.875,0.728-1.311,1.094l-1.36,1.035c-0.894,0.692-1.79,1.38-2.626,2.13c-0.434,0.358-0.838,0.746-1.229,1.145
		c-0.404,0.388-0.796,0.784-1.142,1.22c-0.357,0.426-0.737,0.834-1.026,1.307c-0.292,0.468-0.663,0.89-0.883,1.397
		c-0.235,0.496-0.532,0.965-0.718,1.481l-0.544,1.554l-0.173,0.494l-0.474-0.174l-11.755-4.312l-11.743-4.338
		c-7.892-2.708-15.812-5.326-23.684-8.108l-0.915-0.323l0.839-0.471l2.486-1.395l2.404-1.539l2.325-1.665l2.262-1.759l2.214-1.826
		l2.174-1.879L152.667,160.668z"/>
</g>
<path fill-rule="evenodd" clip-rule="evenodd" fill="none" stroke="#000000" stroke-width="0.85" stroke-linecap="round" stroke-linejoin="round" stroke-miterlimit="10" d="
	M147.333,172.334c-1.667,3.857,2.477,2.18,4.616,2.051c-0.112,0.547,0.197,1.348,0.102,1.898c1.507,0.104,2.76-0.602,4.238-0.564
	c-0.765,3.516,2.382,2.51,4.66,2.332c-0.219,3.295,2.934,1.201,4.667,1.692c1.522,0.429,0.978,1.29,2.36,1.94
	c0.583,0.273,1.839-0.387,2.363-0.039c0.57,0.377,0.8,1.367,1.319,1.672c1.343,0.789,4.391,1.188,5.341,2.684"/>
<path fill-rule="evenodd" clip-rule="evenodd" fill="none" stroke="#000000" stroke-width="0.75" stroke-miterlimit="10" d="
	M154,166.334c0.921-0.914,2.131-1.582,3.338-1.663c-0.78,4.133,1.495,2.144,3.602,3.307c1.251,0.69,1.803,2.03,2.802,2.948
	c1.592,1.465,6.614,1.965,6.648,4.352c1.445,0.408,2.758,1.348,4.202,1.796c1.309,0.407,3.405,0.388,4.741,1.261"/>
<path fill-rule="evenodd" clip-rule="evenodd" fill="none" stroke="#000000" stroke-width="0.7" stroke-miterlimit="10" d="
	M162.333,162c3.092,0.232,4.395,2.142,6.592,3.594c2.18,1.439,3.379,0.748,6.073,1.465c3.426,0.912,5.903,4.459,9.334,4.609"/>
<g>
	<path d="M122.188,146.379c-0.052,0.034-0.016,0.018-0.035,0.062l-0.021,0.062c-0.012,0.021-0.05,0.078-0.099,0.07
		c-0.109-0.008-0.112-0.048-0.16-0.074l-0.091-0.086c-0.011-0.01-0.017-0.022-0.019-0.036l-0.002-0.021
		c-0.088-0.655-0.212-1.321-0.124-2.032c0.018-0.178,0.043-0.356,0.119-0.536c0.055-0.183,0.125-0.361,0.262-0.52l0.184-0.244
		c0.076-0.064,0.162-0.119,0.245-0.179c0.167-0.126,0.343-0.229,0.533-0.262c0.201-0.043,0.342-0.124,0.597-0.128
		c0.165-0.005,0.314-0.026,0.562,0.028c0.436,0.077,0.765,0.268,0.91,0.249c0.12-0.01,0.292-0.107,0.492-0.321l0.074-0.067
		l0.019-0.018l0.009-0.008l0.004-0.004c0.011-0.013-0.077,0.092-0.038,0.045l0.036-0.051c0.044-0.064,0.113-0.153,0.091-0.161
		c0.002-0.016,0.049-0.174,0.066-0.32c0.061-0.283,0.052-0.765,0.475-1.209c0.025-0.022-0.031,0.021,0.061-0.055l0.013-0.009
		l0.025-0.019l0.05-0.037l0.099-0.074c0.105-0.063,0.256-0.139,0.377-0.181c0.223-0.069,0.451-0.096,0.606-0.105
		c0.173-0.013,0.274-0.065,0.33-0.089c0.011-0.008,0.022-0.051,0.035-0.051h0.005c-0.027,0,0.064-0.014-0.061,0.082l0.006,0.013
		l0.023-0.012l0.046-0.037l0.185-0.163c0.122-0.111,0.144-0.199,0.23-0.296l0.313-0.424c0.161-0.155,0.284-0.302,0.491-0.445
		l0.426-0.255c0.352-0.174,0.71-0.31,1.041-0.401c0.675-0.181,1.266-0.281,1.785-0.579c0.484-0.293,1.072-0.737,1.608-1.09
		c0.546-0.381,1.09-0.744,1.568-1.184l0.35-0.336l0.159-0.156l0.142-0.203c0.11-0.135,0.139-0.274,0.216-0.413
		c0.097-0.15,0.142-0.325,0.28-0.454l0.185-0.206c0.11-0.096,0.158-0.09,0.24-0.141c0.139-0.083,0.312-0.132,0.481-0.188
		l0.481-0.159c0.158-0.044,0.303-0.105,0.423-0.186c0.569-0.248,0.727-0.906,1.482-1.348c0.113-0.044,0.156-0.085,0.333-0.126
		l0.249-0.047c0.124,0,0.271,0.005,0.382,0.027l0.28,0.074c0.334,0.108,0.452,0.11,0.674,0.021c0.519-0.224,0.747-0.549,0.863-1.151
		c0.058-0.293,0.075-0.632,0.172-1.004c0.089-0.366,0.314-0.8,0.681-1.044l0.02-0.013c0.13-0.086,0.294-0.082,0.417,0
		c0.57,0.379,1.24,0.734,1.918,0.877c0.336,0.062,0.685,0.101,0.97-0.033c0.059-0.047,0.139-0.075,0.189-0.137
		c0.045-0.064,0.121-0.112,0.148-0.195c0.029-0.079,0.091-0.149,0.107-0.238l0.07-0.265l0.002-0.009
		c0.007-0.026,0.034-0.042,0.061-0.035c0.022,0.006,0.037,0.026,0.037,0.049l-0.005,0.294c0.004,0.101-0.037,0.198-0.06,0.298
		c-0.016,0.104-0.093,0.188-0.142,0.285c-0.056,0.094-0.149,0.158-0.228,0.238c-0.369,0.263-0.823,0.299-1.222,0.264
		c-0.407-0.035-0.793-0.134-1.168-0.259c-0.375-0.129-0.741-0.274-1.095-0.486l0.436-0.013c-0.36,0.271-0.348,0.852-0.447,1.572
		c-0.055,0.354-0.163,0.768-0.425,1.111c-0.11,0.16-0.325,0.35-0.467,0.446c-0.086,0.053-0.102,0.073-0.245,0.152l-0.288,0.123
		c-0.401,0.17-0.978,0.062-1.248-0.092l-0.191-0.078c-0.05-0.015-0.069-0.017-0.109-0.041c-0.072,0-0.162,0.011-0.242,0.016
		c0.015-0.009-0.092,0.027-0.135,0.036c-0.459,0.137-0.877,0.883-1.583,1.12c-0.334,0.154-0.686,0.195-0.975,0.278
		c-0.149,0.032-0.298,0.062-0.448,0.147c-0.059,0.032-0.184,0.078-0.189,0.099l-0.15,0.161c-0.119,0.091-0.16,0.256-0.236,0.385
		c-0.075,0.154-0.13,0.346-0.228,0.472l-0.134,0.208c-0.075,0.1-0.122,0.132-0.184,0.202l-0.352,0.364
		c-0.468,0.483-0.978,0.93-1.478,1.354c-0.527,0.435-0.933,0.869-1.547,1.315c-0.612,0.411-1.333,0.607-1.922,0.796
		c-0.304,0.1-0.558,0.216-0.797,0.338l-0.414,0.273l-0.226,0.236l-0.257,0.387c-0.117,0.164-0.252,0.375-0.371,0.49l-0.177,0.173
		l-0.044,0.044l-0.022,0.021l-0.006,0.006c-0.128,0.1-0.042,0.031-0.074,0.055l-0.022,0.013l-0.188,0.095
		c-0.25,0.102-0.484,0.118-0.639,0.133c-0.174,0.012-0.275,0.033-0.37,0.059c-0.032,0.018-0.032,0.013-0.073,0.024l-0.099,0.074
		l-0.049,0.038l-0.025,0.019l-0.012,0.009c0.083-0.07,0.022-0.017,0.04-0.031c-0.061,0.038-0.136,0.268-0.194,0.621
		c-0.014,0.083-0.035,0.177-0.064,0.28c-0.018,0.086-0.065,0.218-0.133,0.353c-0.071,0.153-0.116,0.188-0.166,0.26l-0.037,0.05
		l-0.048,0.057l-0.007,0.006l-0.014,0.013l-0.028,0.024l-0.111,0.097c-0.266,0.239-0.687,0.547-1.242,0.504
		c-0.522-0.084-0.762-0.299-0.98-0.337c-0.072-0.047-0.256-0.051-0.421-0.056c-0.077-0.017-0.25,0.044-0.373,0.058
		c-0.53,0.097-0.903,0.49-1.044,1.101c-0.142,0.594-0.172,1.264-0.192,1.924l-0.021-0.056l0.059,0.086
		c0.009,0.02,0.059,0.054,0.027,0.047c-0.029,0.021-0.007,0.015,0.012-0.03c0.007-0.014,0.019-0.04,0.047-0.069
		c0.028-0.032,0.04-0.023,0.06-0.034c0.024-0.014,0.054-0.005,0.067,0.02c0.013,0.022,0.005,0.051-0.016,0.065L122.188,146.379z"/>
</g>
<g>
	<path d="M138.209,150.695c-0.025,0.038-0.012,0.059-0.005,0.064l0.031,0.093c0.006,0.013,0.012,0.046,0.016,0.069
		c0.017,0.026-0.069,0.119-0.091,0.103c-0.021-0.001-0.043-0.006-0.065-0.014c-0.047-0.019-0.042-0.022-0.066-0.035l-0.051-0.033
		c-0.007-0.005-0.013-0.011-0.017-0.019l-0.01-0.019c-0.143-0.274-0.281-0.557-0.364-0.875c-0.093-0.311-0.097-0.695,0.068-1.045
		c0.169-0.353,0.476-0.585,0.752-0.757c0.28-0.177,0.564-0.305,0.823-0.436c0.259-0.133,0.501-0.271,0.704-0.431
		c0.038-0.044,0.256-0.21,0.258-0.26c0.051-0.062,0.098-0.154,0.123-0.236c0.117-0.32-0.098-0.829-0.216-1.554
		c-0.057-0.36,0.005-0.836,0.234-1.201l0.039-0.069l0.002-0.005l0.063-0.079l0.005-0.006l0.01-0.01l0.02-0.021l0.078-0.083
		l0.04-0.042l0.116-0.081c0.082-0.052,0.171-0.096,0.26-0.128c0.289-0.077,0.518-0.052,0.671-0.028
		c0.171,0.032,0.259,0.022,0.244,0.037c-0.013,0-0.041,0.006-0.054,0.023c-0.02,0.02,0.016-0.009-0.043,0.055l0.038-0.043
		c0.054-0.059,0.105-0.119,0.103-0.134c0.083-0.115,0.179-0.441,0.368-0.783c0.115-0.18,0.257-0.365,0.5-0.498
		c0.15-0.067,0.233-0.143,0.439-0.204c0.394-0.145,0.713-0.159,0.992-0.206c0.295-0.035,0.51-0.107,0.712-0.205
		c0.076-0.08,0.175-0.133,0.255-0.221l0.214-0.309l0.061-0.088c0.05-0.072,0.132-0.109,0.213-0.105
		c0.765,0.035,1.529,0.063,2.292,0.083l-0.17,0.161c0.033-0.443-0.216-0.957-0.385-1.463c-0.052-0.123-0.081-0.268-0.12-0.401
		c-0.015-0.146-0.057-0.294-0.014-0.459c0.029-0.09,0.021-0.155,0.089-0.263c0.038-0.053,0.073-0.106,0.159-0.169
		c0.155-0.122,0.276-0.163,0.415-0.221c0.537-0.207,1.073-0.293,1.599-0.397c0.512-0.096,1.079-0.197,1.454-0.346l-0.27,0.375
		c-0.021-0.647-0.007-1.293,0.016-1.939c0.008-0.232,0.199-0.415,0.429-0.42c0.456-0.009,0.907-0.028,1.346-0.074
		c0.222-0.019,0.424-0.082,0.64-0.118c0.112-0.01,0.199-0.064,0.301-0.095l0.299-0.106c0.091-0.048,0.172-0.11,0.262-0.163
		c0.084-0.059,0.19-0.095,0.261-0.172c0.133-0.157,0.315-0.284,0.427-0.471c0.104-0.189,0.256-0.364,0.331-0.579
		c0.073-0.214,0.159-0.43,0.248-0.65l0.003-0.008c0.01-0.025,0.039-0.038,0.065-0.027c0.021,0.008,0.033,0.029,0.031,0.05
		c-0.021,0.236-0.043,0.478-0.079,0.719c-0.029,0.244-0.146,0.469-0.222,0.711c-0.078,0.243-0.271,0.431-0.41,0.652
		c-0.075,0.108-0.189,0.177-0.285,0.268c-0.102,0.082-0.202,0.172-0.31,0.246l-0.346,0.177c-0.117,0.052-0.231,0.131-0.353,0.16
		c-0.242,0.066-0.488,0.156-0.731,0.198c-0.243,0.037-0.489,0.09-0.732,0.112l-0.726,0.049l0.429-0.42
		c0.003,0.649-0.003,1.297-0.044,1.944l-0.002,0.036c-0.01,0.162-0.122,0.294-0.268,0.339c-0.637,0.195-1.148,0.15-1.69,0.191
		c-0.529,0.024-1.062,0.034-1.545,0.144c-0.112,0.025-0.246,0.08-0.305,0.115c-0.032,0.004-0.081,0.055-0.125,0.107l-0.038,0.113
		c-0.037,0.088-0.005,0.218,0.001,0.33c0.033,0.122,0.05,0.242,0.098,0.366c0.079,0.248,0.191,0.488,0.279,0.749
		c0.049,0.125,0.088,0.261,0.125,0.4c0.049,0.13,0.039,0.138,0.053,0.288c0.008,0.08-0.051-0.001-0.131-0.001h-0.002l-0.037,0.163
		c-0.758,0.056-1.515,0.201-2.271,0.272l0.273-0.152l-0.239,0.496c-0.101,0.15-0.246,0.3-0.381,0.433
		c-0.318,0.215-0.677,0.35-0.981,0.414c-0.314,0.071-0.596,0.146-0.771,0.211c-0.091,0.012-0.25,0.137-0.372,0.199
		c-0.024,0.014-0.074,0.075-0.117,0.15c-0.103,0.189-0.142,0.467-0.368,0.873c-0.07,0.123-0.117,0.177-0.162,0.232l-0.036,0.044
		c-0.084,0.093-0.086,0.076-0.138,0.117c-0.078,0.053-0.17,0.104-0.251,0.133c-0.313,0.077-0.529,0.029-0.658,0.022
		c-0.146-0.017-0.228-0.006-0.229-0.007c0.02,0,0.041-0.013,0.054-0.031c0.007-0.01,0.011-0.021,0.014-0.033l-0.038,0.04
		l-0.078,0.083l-0.019,0.021l-0.01,0.011l-0.138,0.005c0.12-0.149-0.073-0.04-0.073-0.073v0.002l0.118,0.03
		c-0.093,0.152-0.044,0.31-0.03,0.547c0.017,0.235,0.125,0.518,0.183,0.852c0.057,0.326,0.105,0.758-0.073,1.161
		c-0.085,0.196-0.19,0.369-0.347,0.525c-0.181,0.193-0.222,0.191-0.413,0.342c-0.293,0.188-0.592,0.319-0.884,0.437
		c-0.569,0.238-1.165,0.364-1.42,0.733c-0.127,0.182-0.173,0.436-0.156,0.717c0.012,0.279,0.083,0.568,0.164,0.856l-0.026-0.037
		l0.031,0.032c0.004,0.007,0.033,0.032,0.019,0.024c-0.005-0.002-0.013,0.001-0.017,0.006c-0.008-0.017-0.086,0.052-0.063,0.065
		c-0.001-0.011,0.003-0.013,0-0.033l-0.007-0.112c0.001-0.065,0.026-0.111,0.048-0.13l0.013-0.01
		c0.021-0.018,0.051-0.015,0.068,0.006C138.22,150.654,138.221,150.678,138.209,150.695z"/>
</g>
<g>
	<path d="M152.164,152.95l0.603-0.097l-0.094,0.188c-0.395-0.543-0.667-1.126-0.863-1.769c-0.09-0.324-0.176-0.655-0.134-1.068
		c0.014-0.195,0.104-0.466,0.337-0.65c0.042-0.074,0.445-0.282,0.618-0.271c0.218-0.034,0.417-0.016,0.597,0.013
		c0.188,0.024,0.352,0.072,0.52,0.117c0.331,0.094,0.632,0.209,0.931,0.314c0.298,0.109,0.58,0.222,0.854,0.301
		c0.138,0.043,0.267,0.067,0.392,0.091c0.122,0.017,0.226,0.015,0.31,0.006l-0.407,0.297c0.132-0.372,0.159-0.503-0.099-0.856
		c-0.126-0.176-0.301-0.395-0.464-0.667c-0.074-0.145-0.133-0.318-0.189-0.479c-0.03-0.171-0.031-0.353-0.035-0.526
		c0.02-0.25,0.018-0.23,0.094-0.489c0.061-0.191,0.187-0.398,0.399-0.546c0.471-0.275,0.804-0.152,1.056-0.139
		c0.542,0.081,0.84,0.153,1.302-0.025c0.424-0.146,0.688-0.306,0.787-0.715c0.098-0.404-0.018-0.923-0.007-1.451
		c-0.015-0.528,0.195-1.146,0.662-1.459c0.444-0.327,0.945-0.474,1.454-0.593c0.47-0.126,1.043-0.158,1.499-0.235
		c0.24-0.036,0.384-0.112,0.463-0.244c0.083-0.147,0.15-0.345,0.178-0.582c0.012-0.104,0.051-0.251,0.042-0.314l0.01-0.377
		c-0.021-0.097-0.031-0.188-0.041-0.279l-0.08-0.342c-0.067-0.213-0.14-0.669,0.08-1.044c0.242-0.355,0.435-0.468,0.768-0.659
		l0.35-0.148l0.47-0.107c0.282-0.042,0.542-0.053,0.778-0.068c0.483-0.035,0.833-0.121,1.068-0.422
		c0.286-0.321,0.284-0.721,0.234-1.213c-0.025-0.24-0.067-0.483-0.12-0.727l-0.074-0.322c0.135,0.086,0.158-0.094,0.145-0.04
		c-0.001,0.01,0.22,0.017,0.22,0.033l0.221,0.089v0.188c0,0.028-0.246,0.051-0.273,0.052c-0.023,0.001-0.156-0.016-0.163-0.037
		l-0.109-0.186l-0.05-0.098c-0.004-0.015-0.019-0.04-0.02-0.061c-0.016,0.027,0.016-0.206,0.181-0.085
		c0.122,0.154,0.135,0.259,0.199,0.376c0.105,0.234,0.201,0.474,0.282,0.725c0.153,0.465,0.255,1.181-0.116,1.682
		c-0.05,0.145-0.19,0.247-0.301,0.364c-0.112,0.127-0.251,0.2-0.396,0.263c-0.146,0.078-0.287,0.121-0.425,0.146
		c-0.142,0.035-0.282,0.065-0.407,0.079l-0.718,0.105c-0.088,0.023-0.176,0.042-0.266,0.058l-0.338,0.157
		c-0.095,0.06-0.33,0.24-0.365,0.309c-0.036,0.065-0.05,0.146,0.003,0.416l0.06,0.398c0.007,0.158,0.017,0.318,0.012,0.473
		l-0.062,0.373c-0.026,0.188-0.077,0.279-0.115,0.422c-0.07,0.251-0.188,0.541-0.401,0.789c-0.234,0.276-0.615,0.351-0.869,0.348
		c-0.544,0.004-0.983-0.026-1.497,0.068c-0.466,0.089-0.961,0.227-1.315,0.518c-0.374,0.277-0.5,0.729-0.436,1.196
		c0.04,0.474,0.222,0.948,0.184,1.55c-0.03,0.289-0.129,0.644-0.368,0.867c-0.102,0.135-0.231,0.229-0.373,0.311
		c-0.144,0.094-0.283,0.166-0.391,0.198c-0.202,0.084-0.556,0.217-0.846,0.219c-0.298,0.019-0.578-0.009-0.816-0.032
		c-0.234-0.032-0.447,0-0.41,0.013c0.01-0.002-0.009,0.014-0.019,0.062c-0.006-0.023-0.052,0.25-0.031,0.249
		c-0.028,0.312,0.185,0.53,0.556,0.983c0.167,0.224,0.375,0.554,0.403,0.936c0.056,0.407-0.085,0.703-0.191,1.021
		c-0.056,0.167-0.205,0.278-0.37,0.294l-0.038,0.003c-0.232,0.021-0.444,0.006-0.636-0.028c-0.185-0.04-0.364-0.086-0.527-0.145
		c-0.328-0.113-0.633-0.239-0.92-0.374c-0.287-0.132-0.567-0.269-0.838-0.371c-0.268-0.104-0.542-0.183-0.742-0.175
		c-0.059-0.002-0.093,0.007-0.099,0.006c-0.003-0.027-0.081,0.023-0.146,0.072c-0.02,0.007-0.069,0.048-0.097,0.163
		c-0.062,0.215-0.049,0.523-0.007,0.814c0.098,0.586,0.256,1.211,0.501,1.761l0.015,0.033c0.025,0.055,0,0.12-0.056,0.145
		c-0.017,0.008-0.035,0.011-0.053,0.01l-0.612-0.046c-0.028-0.001-0.049-0.024-0.048-0.052
		C152.123,152.975,152.142,152.954,152.164,152.95z"/>
</g>
<g>
	<path d="M167.647,155.38c-0.178-0.057-0.363-0.091-0.535-0.169c-0.158-0.115-0.355-0.226-0.494-0.374
		c-0.118-0.158-0.281-0.303-0.364-0.488c-0.076-0.187-0.195-0.366-0.232-0.569c-0.032-0.202-0.116-0.403-0.1-0.617
		c0.016-0.211-0.026-0.432,0.055-0.644c0.071-0.21,0.109-0.436,0.261-0.617l0.2-0.285c0.13-0.161,0.157-0.149,0.24-0.232
		c0.074-0.062,0.216-0.14,0.327-0.202c0.111-0.053,0.213-0.087,0.322-0.129c0.212-0.063,0.424-0.106,0.631-0.132
		c0.414-0.054,0.812-0.03,1.198-0.005c0.763,0.044,1.528,0.216,2.149,0.227l-0.508,0.426l0.048-0.384
		c-0.007-0.139-0.006-0.275-0.016-0.417c-0.036-0.288-0.092-0.586-0.166-0.892l-0.235-0.951c-0.07-0.332-0.12-0.679-0.14-1.038
		l-0.002-0.028c-0.012-0.21,0.148-0.391,0.358-0.403c0.028-0.001,0.058,0.001,0.085,0.005c0.53,0.089,0.944,0.272,1.374,0.396
		c0.212,0.062,0.42,0.107,0.626,0.131c0.204,0.012,0.393-0.004,0.572-0.068c0.223-0.095,0.406-0.168,0.536-0.305
		c0.129-0.128,0.156-0.279,0.087-0.481c-0.063-0.196-0.179-0.403-0.26-0.638c-0.089-0.229-0.129-0.519-0.041-0.778
		c0.042-0.139,0.104-0.249,0.165-0.351c0.087-0.123,0.194-0.23,0.327-0.297c0.272-0.137,0.561-0.13,0.801-0.109
		c0.482,0.052,0.91,0.1,1.159-0.089c0.003-0.003,0.064-0.037,0.019-0.013l0.064-0.058l0.13-0.116
		c0.114-0.083,0.09-0.141,0.138-0.195c0.067-0.119,0.119-0.291,0.14-0.468c0.011-0.188,0.237-0.394,0.227-0.615
		c-0.013-0.225,0.205-0.463,0.205-0.711v-0.006c0-0.201-0.07-0.368,0.116-0.415c0.856-0.217,1.609-0.464,2.233-0.962
		c0.145-0.131,0.225-0.272,0.326-0.438c0.102-0.165,0.151-0.35,0.188-0.553c0.094-0.405,0.018-0.853-0.062-1.304
		c-0.006-0.027,0.005-0.054,0.032-0.061c0.021-0.004,0.041,0.008,0.052,0.025c0.228,0.407,0.382,0.87,0.396,1.38
		c0.015,0.255-0.05,0.517-0.145,0.763c-0.094,0.25-0.251,0.469-0.424,0.666c-0.732,0.765-1.694,1.075-2.584,1.338l0.33-0.421
		c0.001,0.426,0.062,0.895-0.027,1.444c-0.062,0.276-0.146,0.557-0.353,0.812c-0.105,0.116-0.238,0.275-0.327,0.313l-0.146,0.095
		l-0.073,0.047c-0.089,0.062-0.086,0.045-0.133,0.07c-0.282,0.131-0.595,0.145-0.853,0.106c-0.262-0.036-0.49-0.11-0.703-0.162
		c-0.211-0.05-0.409-0.086-0.56-0.021c-0.079,0.029-0.143,0.085-0.199,0.143c-0.066,0.089-0.129,0.177-0.151,0.262
		c-0.066,0.179-0.051,0.375,0.018,0.577c0.071,0.201,0.191,0.397,0.277,0.639c0.101,0.228,0.092,0.603-0.117,0.815
		c-0.18,0.212-0.422,0.35-0.61,0.459c-0.245,0.13-0.516,0.188-0.776,0.203c-0.256,0.003-0.506-0.012-0.747-0.046
		c-0.476-0.065-0.943-0.179-1.332-0.21l0.441-0.427c0.047,0.287,0.116,0.577,0.208,0.874l0.286,0.924
		c0.097,0.321,0.181,0.655,0.244,1.01c0.024,0.181,0.036,0.368,0.051,0.554c-0.005,0.191-0.024,0.289-0.041,0.483
		c-0.021,0.24-0.22,0.327-0.456,0.327h-0.053c-0.443,0-0.816,0.047-1.19,0.001l-1.081-0.104c-0.351-0.044-0.697-0.036-1.023-0.036
		c-0.163,0.004-0.317,0.033-0.464,0.06l-0.202,0.063c-0.05,0.029-0.084,0.022-0.158,0.071c-0.051,0.042-0.206,0.134-0.172,0.136
		l-0.134,0.16c-0.114,0.091-0.141,0.247-0.208,0.379c-0.089,0.128-0.071,0.297-0.115,0.449c-0.044,0.156,0.004,0.319-0.001,0.484
		c0,0.168,0.077,0.319,0.11,0.485c0.045,0.162,0.143,0.298,0.213,0.458c0.085,0.144,0.205,0.244,0.313,0.384
		c0.146,0.105,0.316,0.196,0.472,0.297c0.024,0.014,0.033,0.045,0.019,0.068C167.694,155.377,167.668,155.386,167.647,155.38z"/>
</g>
<g>
	<path d="M178.847,157.548c-0.079,0.032-0.155,0.07-0.177,0.109c-0.013,0.02,0.011,0.008,0.009,0.016
		c0.012,0.013,0.034,0.031,0.059,0.051l-0.078-0.033c1.126-0.05,2.255,0.035,3.235-0.193c0.239-0.055,0.458-0.144,0.594-0.257
		c0.143-0.129,0.188-0.184,0.201-0.394c-0.009-0.043-0.054-0.229-0.182-0.411c-0.118-0.186-0.291-0.376-0.464-0.583
		c-0.343-0.416-0.779-0.824-1.046-1.49c-0.069-0.16-0.044-0.355-0.063-0.549l0.065-0.151v-0.075v-0.037v-0.019l-0.053-0.079
		l0.016-0.202l0.032-0.202c0.029-0.083,0.083-0.199,0.136-0.294c0.102-0.216,0.26-0.345,0.427-0.469
		c0.164-0.125,0.347-0.163,0.522-0.228c0.165-0.02,0.338-0.053,0.492-0.053c0.312-0.005,0.601,0.021,0.878,0.046
		c0.549,0.055,1.083,0.144,1.529,0.003c0.451-0.119,0.724-0.575,0.797-1.099c0.083-0.525,0.027-1.075-0.075-1.613
		c-0.024-0.14-0.059-0.272-0.062-0.441c-0.011-0.159,0.052-0.4,0.216-0.534c0.306-0.231,0.588-0.281,0.867-0.37
		c0.558-0.144,1.102-0.276,1.671-0.336c0.563-0.068,1.102-0.09,1.353-0.288s0.419-0.67,0.485-1.188
		c0.074-0.525,0.104-1.094,0.238-1.663c0.062-0.285,0.159-0.571,0.314-0.837c0.151-0.264,0.402-0.5,0.697-0.562
		c0.027-0.006,0.055,0.012,0.061,0.039c0.004,0.021-0.005,0.042-0.021,0.053c-0.459,0.306-0.507,0.86-0.528,1.379
		c-0.018,0.531,0.024,1.076,0.007,1.656c-0.03,0.561-0.107,1.284-0.705,1.814c-0.294,0.269-0.674,0.343-0.971,0.386
		c-0.308,0.052-0.602,0.045-0.863,0.052c-0.539-0.001-1.097,0.017-1.63,0.068c-0.259,0.027-0.544,0.063-0.703,0.144
		c-0.132,0.031-0.119,0.305-0.091,0.582c0.061,0.558,0.123,1.122,0.061,1.701c-0.038,0.558-0.29,1.252-0.92,1.532
		c-0.594,0.273-1.208,0.267-1.757,0.286c-0.533,0.004-1.119,0.027-1.338,0.229c-0.051,0.05-0.11,0.092-0.114,0.143
		c-0.011,0.027-0.033,0.026-0.051,0.071l-0.037,0.205l-0.037,0.205c0.022-0.081,0.015,0.044,0.019,0.055
		c0.017,0.079,0.033,0.16,0.082,0.251c0.171,0.362,0.543,0.756,0.911,1.182c0.189,0.213,0.375,0.448,0.546,0.737
		c0.158,0.286,0.343,0.639,0.273,1.155c-0.034,0.351-0.353,0.789-0.671,0.954c-0.324,0.198-0.65,0.271-0.955,0.311
		c-1.224,0.144-2.321-0.166-3.398-0.383l-0.034-0.007c-0.018-0.004-0.033-0.014-0.044-0.027c-0.032-0.041-0.064-0.084-0.087-0.147
		c-0.025-0.07,0.005-0.178,0.062-0.211c0.101-0.074,0.195-0.073,0.274-0.084c0.028-0.005,0.053,0.015,0.057,0.042
		C178.881,157.518,178.868,157.54,178.847,157.548z"/>
</g>
<g>
	<path d="M191.349,163.12c0,0,0.099,0.017,0.284,0.047c0.181,0.027,0.456,0.079,0.752,0.038c0.15-0.03,0.231-0.08,0.25-0.172
		c0.035-0.103,0.025-0.312-0.003-0.54c-0.024-0.231-0.073-0.495-0.07-0.794c-0.003-0.059-0.008-0.297-0.037-0.347
		c-0.046-0.102-0.093-0.206-0.141-0.312c-0.104-0.196-0.089-0.604,0.031-0.791c0.051-0.131,0.105-0.181,0.161-0.272l0.085-0.124
		l0.149-0.141c0.046-0.086,0.424-0.279,0.613-0.322c0.199-0.055,0.376-0.09,0.545-0.119c0.338-0.047,0.566-0.23,0.521-0.214
		l0.003-0.057h0.001c0.033,0-0.043,0.199-0.035,0.17l0.007-0.004l0.013-0.051c0.012-0.048,0.02-0.096-0.004-0.047
		c-0.012,0.023-0.01,0.054,0.002,0.07l-0.035-0.071c-0.047-0.101-0.146-0.271-0.244-0.45c-0.09-0.207-0.233-0.434-0.207-0.807
		l0.011-0.131l0.004-0.032c-0.017,0.053,0.024-0.091,0.021-0.079l0.003-0.008l0.013-0.033l0.052-0.132
		c0.013-0.064,0.164-0.296,0.268-0.407c0.222-0.208,0.474-0.315,0.652-0.385l0.107-0.043c0.004-0.006,0.018-0.011,0.014-0.001
		c-0.021,0.014-0.038,0.036-0.046,0.062l-0.02,0.089l0.006-0.036l0.025-0.144l0.104-0.587c0.038-0.198,0.081-0.459,0.119-0.602
		l0.11-0.276c0.027-0.083,0.032-0.122,0.05-0.19c-0.001-0.045,0.006-0.037,0.002-0.126c0-0.052-0.007-0.084,0.007-0.152
		c0.023-0.083,0.081-0.178,0.135-0.229c0.128-0.088,0.241-0.143,0.325-0.175c0.736-0.312,1.446-0.645,1.979-1.18
		c0.264-0.279,0.54-0.554,0.805-0.842c0.126-0.15,0.29-0.284,0.507-0.392l0.524-0.227c0.616-0.207,0.315-0.782,0.233-1.532
		c-0.018-0.19-0.032-0.401,0.029-0.634l0.041-0.17c0.06-0.144,0.048-0.104,0.075-0.163l0.112-0.215
		c0.069-0.139,0.263-0.346,0.4-0.487c0.153-0.104,0.309-0.238,0.458-0.301c0.615-0.287,1.052-0.405,1.347-0.686l0.059-0.047
		c0,0.006,0.042-0.045,0.006,0.007l0.026-0.036l0.103-0.139c0.042-0.076,0.082-0.15,0.121-0.222c0.078-0.189,0.149-0.363,0.214-0.52
		c0.137-0.329,0.269-0.594,0.403-0.749c0.145-0.148,0.245-0.197,0.24-0.2c0.024-0.014,0.055-0.005,0.068,0.02
		c0.01,0.019,0.007,0.041-0.005,0.057l-0.003,0.004c0.004,0.004-0.062,0.076-0.131,0.229c-0.067,0.158-0.125,0.408-0.167,0.749
		c-0.019,0.174-0.052,0.365-0.099,0.584c-0.029,0.113-0.077,0.262-0.125,0.381l-0.08,0.153l-0.021,0.039
		c-0.054,0.075-0.034,0.043-0.055,0.07l-0.069,0.078c-0.351,0.466-0.985,0.711-1.416,0.968c-0.125,0.059-0.189,0.144-0.293,0.209
		c-0.055,0.097-0.114,0.098-0.187,0.246l-0.106,0.218c-0.007,0.013-0.062,0.124-0.031,0.057l-0.014,0.071
		c-0.035,0.085-0.024,0.22-0.025,0.365c0.002,0.299,0.078,0.66,0.002,1.118c-0.031,0.126-0.069,0.279-0.116,0.371l-0.071,0.116
		l-0.036,0.059l-0.018,0.029c-0.06,0.095-0.039,0.049-0.062,0.08c-0.214,0.236-0.44,0.27-0.632,0.332
		c-0.404,0.104-0.708,0.097-0.964,0.371c-0.287,0.24-0.562,0.51-0.834,0.796c-0.289,0.268-0.603,0.574-0.932,0.773
		c-0.309,0.236-0.679,0.472-0.998,0.669c-0.094,0.057-0.149,0.106-0.182,0.134c0.113-0.222,0.058-0.081,0.097,0.062
		c0.003,0.127-0.009,0.288-0.027,0.396l-0.063,0.29c-0.047,0.241-0.024,0.377-0.042,0.566l-0.035,0.579l-0.009,0.146l-0.002,0.036
		c-0.04,0.136-0.037,0.095-0.06,0.149c-0.036,0.065-0.081,0.128-0.128,0.183c-0.077,0.07-0.149,0.114-0.225,0.162l-0.157,0.077
		c-0.178,0.08-0.272,0.148-0.33,0.206c-0.002,0.01,0.002,0.013-0.004,0.013c-0.004-0.009-0.018-0.004-0.033,0.059l-0.043,0.136
		l-0.011,0.033l-0.002,0.009c-0.005,0.018,0.035-0.12,0.019-0.061l0.003,0.003l0.007,0.011c-0.014,0.009,0.043,0.13,0.111,0.25
		c0.085,0.144,0.195,0.278,0.303,0.507l0.078,0.177c0.03,0.104,0.051,0.221,0.056,0.332c0.008,0.138-0.006,0.17-0.014,0.211
		l-0.013,0.066l-0.006,0.032c0.008-0.022-0.072,0.224-0.042,0.126l-0.008,0.015l-0.017,0.027c-0.179,0.327-0.478,0.502-0.706,0.573
		c-0.236,0.075-0.423,0.096-0.602,0.123c-0.168,0.02-0.321,0.043-0.443,0.069c-0.121,0.057-0.072-0.044-0.255,0.099
		c-0.024-0.029-0.161,0.161-0.189,0.193c-0.046,0.082-0.037-0.001-0.038,0.081c0.025,0.097,0.11,0.278,0.137,0.512
		c0.023,0.229,0.005,0.272-0.006,0.482c-0.021,0.262-0.04,0.511-0.058,0.744c-0.024,0.249-0.027,0.511-0.179,0.787
		c-0.167,0.304-0.519,0.365-0.704,0.335c-0.398-0.051-0.649-0.18-0.822-0.256c-0.167-0.086-0.256-0.132-0.256-0.132
		c-0.025-0.013-0.035-0.044-0.022-0.068C191.306,163.127,191.328,163.117,191.349,163.12z"/>
</g>
<g>
	<path d="M200.952,165.847c-0.07-0.182-0.191-0.309-0.172-0.566c-0.015-0.239,0.137-0.454,0.278-0.604
		c0.145-0.153,0.303-0.263,0.432-0.378c0.125-0.119,0.252-0.224,0.313-0.354l0.056-0.09c0-0.001,0.04-0.062,0.007-0.012l0.022-0.065
		c0.026-0.084,0.068-0.185,0.081-0.256c-0.003-0.059-0.002-0.111,0.005-0.164l-0.017-0.219c-0.032-0.319-0.178-0.609-0.172-1.174
		c0.014-0.082,0.032-0.166,0.055-0.248l0.018-0.062l0.01-0.03l0.043-0.007l0.09-0.083v-0.002l-0.035-0.007l0.018-0.058
		c0.072-0.088,0.049-0.128,0.196-0.251c0.116-0.101,0.28-0.229,0.382-0.269l0.316-0.134c0.396-0.133,0.749-0.211,0.877-0.31
		c0.058-0.018,0.031-0.268,0.058-0.277L203.83,160h0.002c-0.065,1,0.168,0.482,0.168,0.519v-0.003v-0.004l-0.094-0.017l-0.04-0.033
		l0.017-0.132c-0.023-0.032-0.021,0.017-0.028-0.062c-0.01-0.067-0.015-0.127-0.037-0.211c-0.055-0.324-0.216-0.646-0.238-1.197
		c-0.01-0.244,0.179-0.45,0.421-0.467c0.632-0.043,1.244-0.056,1.73-0.204c0.127-0.037,0.201-0.075,0.284-0.135
		c0.138-0.13,0.18-0.166,0.204-0.225c0.033-0.052,0.015-0.244,0.055-0.445c0.05-0.205,0.129-0.353,0.244-0.517
		c0.198-0.242,0.385-0.492,0.569-0.744c0.178-0.255,0.352-0.514,0.58-0.738c0.434-0.455,0.823-0.981,1.232-1.447l0.595-0.715
		c0.205-0.235,0.363-0.484,0.548-0.714c0.199-0.226,0.316-0.479,0.474-0.715l0.118-0.178c0.012-0.01,0.057-0.126,0.084-0.184
		c0.055-0.139,0.141-0.294,0.169-0.42c0.087-0.249,0.173-0.532,0.247-0.833c0.08-0.301,0.163-0.605,0.266-0.916
		c0.115-0.303,0.226-0.62,0.422-0.892c0.166-0.286,0.403-0.522,0.637-0.737c0.021-0.02,0.052-0.018,0.071,0.002
		c0.014,0.016,0.017,0.037,0.009,0.055l-0.003,0.008c-0.128,0.292-0.287,0.544-0.356,0.84c-0.092,0.282-0.143,0.575-0.185,0.872
		c-0.098,0.601-0.114,1.2-0.311,1.898c-0.041,0.179-0.106,0.301-0.158,0.454c-0.035,0.085-0.039,0.118-0.1,0.246l-0.128,0.22
		c-0.183,0.284-0.341,0.6-0.581,0.823c-0.433,0.508-0.953,0.876-1.435,1.277c-0.505,0.383-0.943,0.791-1.37,1.238
		c-0.435,0.432-0.713,1.016-1.033,1.546c-0.047,0.1-0.097,0.242-0.101,0.345c-0.011,0.106,0.042,0.23,0.019,0.485
		c-0.03,0.255-0.21,0.463-0.279,0.559c-0.133,0.162-0.322,0.305-0.485,0.38c-0.674,0.328-1.335,0.36-1.936,0.449l0.422-0.467
		c0.018,0.192,0.169,0.56,0.282,0.952c0.032,0.094,0.051,0.218,0.072,0.332c0.025,0.104,0.016,0.341-0.006,0.491l-0.037,0.134
		l-0.01,0.033l-0.005,0.017l-0.035,0.09l-0.008,0.013l-0.069,0.1c-0.096,0.126-0.201,0.278-0.32,0.338
		c-0.244,0.177-0.463,0.241-0.664,0.309l-0.528,0.136l-0.197,0.068c-0.071,0.025-0.04,0.027-0.081,0.022
		c-0.022-0.038-0.104,0.115-0.155,0.161l-0.044,0.054l-0.005,0.007l-0.001-0.021c-0.011,0.018,0.212-0.102,0.169-0.102H203v0.049
		v0.006c0,0.008-0.126,0.013-0.137,0.02c-0.042,0.178-0.002,0.607-0.011,1.026l-0.056,0.335c-0.028,0.129-0.077,0.257-0.115,0.379
		c-0.041,0.105-0.099,0.168-0.145,0.254l-0.038,0.06c-0.048,0.095-0.049,0.063-0.075,0.102l-0.118,0.127
		c-0.148,0.177-0.342,0.279-0.506,0.383l-0.473,0.26c-0.132,0.081-0.251,0.176-0.279,0.309c-0.07,0.117-0.009,0.337,0,0.514
		c0.004,0.028-0.016,0.054-0.043,0.057C200.983,165.881,200.961,165.865,200.952,165.847z"/>
</g>
<g>
	<path d="M212.118,170.179c-0.034-0.095-0.073-0.187-0.103-0.284c0-0.108-0.027-0.245,0.018-0.35
		c0.058-0.23,0.212-0.418,0.373-0.562c0.326-0.297,0.704-0.474,1.057-0.662c0.355-0.184,0.706-0.36,0.998-0.568
		c0.299-0.197,0.522-0.434,0.57-0.663l0.014-0.043c-0.001,0.009,0.013-0.048,0,0.014l0.003-0.037l0.012-0.148
		c0.019-0.12-0.016-0.141-0.015-0.206c-0.02-0.126-0.075-0.283-0.139-0.426c-0.145-0.295-0.348-0.605-0.577-0.926
		c-0.227-0.322-0.477-0.663-0.672-1.071c-0.098-0.206-0.347-0.425-0.412-0.658c-0.058-0.238-0.245-0.486-0.245-0.738v-0.023
		c0-0.244,0.355-0.442,0.589-0.479c0.48-0.074,0.984-0.117,1.411-0.196c0.215-0.033,0.457-0.084,0.657-0.132
		c0.197-0.054,0.395-0.118,0.531-0.189c0.049-0.018,0.039-0.031,0.061-0.04c-0.003,0.011,0.072-0.059,0.026,0.026
		c0.035-0.09,0.125-0.241,0.093-0.255c0-0.029,0.018-0.084,0.003-0.189c0-0.086-0.014-0.184-0.035-0.284
		c-0.072-0.405-0.229-0.819-0.273-1.362l-0.002-0.032c-0.012-0.144,0.086-0.271,0.224-0.299c0.287-0.059,0.56-0.078,0.822-0.075
		l0.75,0.016c0.24-0.003,0.47-0.022,0.685-0.087c0.094-0.052,0.195-0.094,0.287-0.15l0.216-0.213
		c0.049-0.111,0.126-0.228,0.153-0.334c0.007-0.105,0.042-0.197,0.039-0.313c-0.004-0.232-0.043-0.47-0.096-0.708
		c-0.112-0.48-0.313-0.938-0.365-1.513c-0.011-0.119,0.077-0.224,0.196-0.234h0l0.063-0.006l0.595-0.051
		c0.177-0.054,0.37-0.082,0.513-0.163l0.201-0.125c0.054-0.053,0.091-0.12,0.14-0.173c0.056-0.043,0.071-0.137,0.104-0.207
		c0.03-0.074,0.071-0.14,0.085-0.236c0.094-0.34,0.135-0.754,0.185-1.166l0.018-0.155c0.014-0.109,0.022-0.119,0.033-0.185
		l0.063-0.312c0.036-0.204,0.084-0.415,0.164-0.64c0.27-0.893,0.678-1.627,1.051-2.384c0.195-0.374,0.37-0.747,0.534-1.128
		c0.071-0.192,0.17-0.383,0.221-0.582l0.173-0.605l0.001-0.006c0.008-0.026,0.035-0.042,0.062-0.034
		c0.021,0.006,0.036,0.025,0.036,0.046c0.012,0.43-0.014,0.871-0.106,1.298c-0.071,0.432-0.212,0.847-0.344,1.253
		c-0.276,0.806-0.611,1.604-0.795,2.345c-0.061,0.177-0.1,0.38-0.13,0.594l-0.051,0.313l-0.039,0.289
		c-0.059,0.426-0.098,0.862-0.276,1.327c-0.077,0.225-0.211,0.476-0.397,0.668c-0.103,0.094-0.201,0.196-0.312,0.271l-0.365,0.162
		c-0.242,0.087-0.484,0.091-0.718,0.118l-0.675-0.042l0.26-0.24c-0.009,0.216,0.001,0.453,0.047,0.695l0.144,0.74
		c0.048,0.253,0.083,0.512,0.08,0.781c0.003,0.134-0.035,0.288-0.057,0.43c-0.036,0.134-0.102,0.232-0.151,0.351
		c-0.106,0.15-0.193,0.223-0.293,0.338c-0.112,0.084-0.24,0.15-0.363,0.223c-0.263,0.094-0.525,0.161-0.787,0.191l-0.752,0.075
		c-0.24,0.026-0.461,0.081-0.661,0.149l0.221-0.33c0.077,0.35,0.288,0.768,0.416,1.235c0.035,0.117,0.067,0.239,0.083,0.378
		c0.026,0.116,0.036,0.285,0.009,0.479c-0.02,0.217-0.066,0.263-0.1,0.385c-0.085,0.189-0.126,0.179-0.2,0.273
		c-0.064,0.062-0.146,0.151-0.204,0.176c-0.253,0.156-0.495,0.251-0.728,0.329c-0.232,0.069-0.464,0.139-0.691,0.187
		c-0.451,0.108-0.92,0.183-1.323,0.267l0.424-0.502c0.009,0.147,0.024,0.294,0.06,0.443c0.044,0.15,0.102,0.303,0.176,0.456
		c0.156,0.307,0.359,0.624,0.575,0.961c0.212,0.339,0.456,0.693,0.617,1.136c0.077,0.229,0.138,0.455,0.153,0.726
		c0.001,0.133,0.007,0.312-0.017,0.39l-0.026,0.146l-0.006,0.037c-0.014,0.086-0.014,0.052-0.021,0.084l-0.037,0.098
		c-0.089,0.265-0.26,0.489-0.44,0.65c-0.18,0.174-0.377,0.29-0.569,0.396c-0.392,0.2-0.783,0.32-1.158,0.449
		c-0.374,0.127-0.743,0.252-1.058,0.428c-0.158,0.089-0.292,0.201-0.367,0.35c-0.053,0.071-0.039,0.148-0.074,0.232
		c0.003,0.098,0.019,0.199,0.027,0.298c0.002,0.027-0.018,0.052-0.045,0.055C212.147,170.214,212.126,170.2,212.118,170.179z"/>
</g>
<g>
	<path d="M225.786,173.184c-0.222-0.408-0.5-0.808-0.747-1.221c-0.249-0.414-0.475-0.843-0.68-1.291
		c-0.207-0.447-0.386-0.917-0.472-1.442c-0.066-0.495-0.137-1.201,0.486-1.733c0.069-0.073,0.365-0.18,0.557-0.221
		c0.142-0.016,0.289-0.03,0.428-0.034c0.267,0.003,0.52,0.018,0.762,0.039c0.238,0.021,0.474,0.04,0.663,0.041
		c0.104,0.011,0.355-0.052,0.593-0.097c0.388-0.112,0.787-0.246,1.122-0.465c0.323-0.226,0.618-0.496,0.806-0.859
		c0.101-0.151,0.184-0.419,0.238-0.522c0.018-0.108,0.062-0.251,0.058-0.332c-0.003-0.089,0.012-0.152,0.007-0.265
		c-0.002-0.436-0.101-0.922-0.048-1.475c0.022-0.141,0.058-0.284,0.089-0.423c0.072-0.153,0.108-0.249,0.23-0.439
		c0.1-0.091,0.122-0.162,0.292-0.272c0.149-0.115,0.288-0.158,0.422-0.203c0.538-0.13,0.957-0.096,1.236-0.418
		c0.148-0.177,0.368-0.332,0.458-0.527c0.082-0.202,0.222-0.373,0.268-0.599c0.125-0.438,0.163-0.903,0.135-1.368
		c-0.026-0.467-0.112-0.932-0.193-1.401c-0.089-0.471-0.158-0.952-0.208-1.453c-0.016-0.159,0.084-0.303,0.231-0.348l0.087-0.027
		c0.312-0.096,0.621-0.178,0.904-0.311c0.148-0.054,0.274-0.146,0.415-0.213c0.141-0.065,0.256-0.175,0.386-0.259
		c0.509-0.363,0.918-0.881,1.337-1.428c0.412-0.55,0.838-1.135,1.357-1.646c0.514-0.514,1.135-0.932,1.802-1.182
		c0.026-0.01,0.055,0.003,0.065,0.029c0.007,0.021-0.001,0.046-0.018,0.059c-0.272,0.224-0.542,0.434-0.779,0.681
		c-0.234,0.247-0.45,0.507-0.651,0.777c-0.402,0.544-0.736,1.14-1.122,1.738c-0.375,0.6-0.833,1.207-1.448,1.687
		c-0.163,0.105-0.312,0.234-0.489,0.317c-0.175,0.083-0.34,0.194-0.528,0.243c-0.363,0.14-0.739,0.207-1.112,0.254l0.319-0.375
		c-0.021,0.453-0.021,0.922-0.004,1.399c0.017,0.48,0.012,0.965,0.008,1.452c-0.025,0.489-0.063,0.979-0.206,1.461
		c-0.147,0.485-0.42,0.956-0.741,1.284c-0.337,0.476-0.987,0.538-1.338,0.68c-0.198,0.092-0.23,0.133-0.401,0.373
		c0.017,0.022-0.04,0.148-0.058,0.214l-0.018,0.284c0.003,0.404,0.124,0.859,0.183,1.375c0.018,0.125,0.016,0.301,0.018,0.45
		c-0.002,0.157-0.031,0.247-0.045,0.373c-0.102,0.343-0.163,0.539-0.296,0.801c-0.231,0.5-0.626,0.927-1.067,1.262
		c-0.448,0.335-0.963,0.52-1.491,0.661c-0.231,0.037-0.44,0.122-0.817,0.12c-0.288-0.014-0.526-0.171-0.763-0.202
		c-0.232-0.029-0.454-0.188-0.664-0.188h-0.286c-0.008,0-0.014,0.127-0.026,0.116c-0.009-0.014-0.026,0.021-0.088,0.075
		c-0.172,0.049-0.292,0.499-0.249,0.91c0.035,0.422,0.143,0.885,0.263,1.331c0.124,0.447,0.291,0.896,0.453,1.343
		c0.149,0.454,0.356,0.887,0.465,1.373c0.006,0.027-0.011,0.056-0.038,0.062C225.821,173.216,225.796,173.202,225.786,173.184z"/>
</g>
<path fill-rule="evenodd" clip-rule="evenodd" fill="none" stroke="#000000" stroke-width="0.5" stroke-miterlimit="10" d="
	M184,130.668c3.646-0.277,6.096,4.887,10,5.332"/>
<path fill-rule="evenodd" clip-rule="evenodd" fill="none" stroke="#000000" stroke-width="0.5" stroke-miterlimit="10" d="
	M188.667,125c0.243,2.361,1.429,0.412,2.867,1.576c0.957,0.775,0.914,2.186,1.516,2.706c1.388,1.2,3.742,0.364,3.334,3.001
	c0.552-0.004,1.36,0.211,1.893,0.1c0.675,1.547,7.049,2.488,8.698,3.36c2.492,1.317,1.949,1.562,5.252,1.907
	c0.957,0.102,2.639,0.89,3.441,1.018"/>
<g>
	<path fill-rule="evenodd" clip-rule="evenodd" fill="#FFFFFF" d="M72.438,149.064c1.549,1.255,6.367,2.08,9.868,2.612
		c8.097,1.231,16.022,0.79,23.8,1.161c3.913,0.186,8.89,1.111,12.19,0c2.894-0.975,3.852-3.484,5.224-6.967
		c1.783-4.521,5.409-13.891,0.581-17.704c-0.064-0.226-0.243-0.337-0.581-0.29c-0.806,6.902-11.386,7.75-18.575,8.416
		c-4.534,0.422-9.445-0.725-14.222-1.16c-8.62-0.785-17.336-0.506-22.639-2.902C69.119,137.93,68.497,145.871,72.438,149.064z"/>
	<path fill-rule="evenodd" clip-rule="evenodd" d="M109.008,114.816c1.233,6.602,7.825,7.848,13.641,9.867
		c3.38,3.271,6.159,7.029,4.354,14.803c-1.327,5.713-4.547,13.582-9.288,14.512c-6.535,1.283-13.728-0.445-22.639-0.871
		c-3.99-0.189-7.531-0.187-11.029-0.58c-7.891-0.885-13.864-1.648-15.673-8.416c-0.928-3.472-0.405-8.297-1.161-11.609
		c-0.56-2.455-1.284-4.541,0.29-7.547c1.011-1.932,5.495-4.816,8.127-5.805c2.894-1.088,8.583-1.381,8.707-4.644
		c0.102-2.681-2.642-2.099-4.063-3.774c0.294-4.35,1.36-7.927,2.322-11.609c2.468-0.806,4.83-3.566,8.126-4.062
		c7.954-1.199,17.269,1.554,21.188,5.225C113.294,105.184,115.713,114.223,109.008,114.816z M82.886,103.496
		c0.986,4.4,15.427,6.262,22.349,4.064c2.888-0.918,6.311-3.992,6.095-5.805c-0.247-2.075-2.973-1.963-4.063-3.773
		c-5.002-0.879-11.718-3.27-17.415-1.742c-2.631,0.706-4.516,2.891-6.675,3.483C83.448,101.227,82.528,101.896,82.886,103.496z
		 M82.016,104.657c0.166,2.392-1.036,3.415-0.871,5.806c7.442,3.188,22.224,5.367,31.056,1.741c0.72-1.987,0.534-6.255-0.58-8.128
		C107.209,111.188,87.385,110.455,82.016,104.657z M85.208,115.396c-4.646,6.287-17.889,3.977-17.995,14.803
		c4.601,3.826,14.851,3.18,24.38,4.062c4.497,0.418,8.91,1.576,13.061,1.162c6.751-0.676,18.831-1.607,17.995-9.289
		c-5.901-2.901-13.749-3.858-14.802-11.608c-7.847,0.749-16.981,0.366-22.929-1.742C84.763,113.907,85.436,114.201,85.208,115.396z
		 M72.438,149.064c1.549,1.255,6.367,2.08,9.868,2.612c8.097,1.231,16.022,0.79,23.8,1.161c3.913,0.186,8.89,1.111,12.19,0
		c2.894-0.975,3.852-3.484,5.224-6.967c1.783-4.521,5.409-13.891,0.581-17.704c-0.064-0.226-0.243-0.337-0.581-0.29
		c-0.806,6.902-11.386,7.75-18.575,8.416c-4.534,0.422-9.445-0.725-14.222-1.16c-8.62-0.785-17.336-0.506-22.639-2.902
		C69.119,137.93,68.497,145.871,72.438,149.064z"/>
	<path fill-rule="evenodd" clip-rule="evenodd" d="M107.847,100.594c-0.661,5.625-7.199,7.803-14.222,6.096
		c-2.358-0.574-7.28-2.723-7.546-4.354C84.885,95.016,105.293,97.81,107.847,100.594z M86.95,102.336
		c4.22,4.03,18.154,6.852,19.736-1.451C101.747,99.432,89.054,95.496,86.95,102.336z"/>
	<path fill-rule="evenodd" clip-rule="evenodd" d="M95.947,127.297c-5.722,2.947-16.078,0.418-17.705-4.935
		c1.875,0.23,2.477,2.746,4.644,3.772C86.367,127.785,91.202,127.535,95.947,127.297z"/>
	<path fill-rule="evenodd" clip-rule="evenodd" d="M119.747,138.615c1.008,2.201-1.422,5.908-1.741,8.707
		C116.783,144.857,119.322,141.348,119.747,138.615z"/>
</g>
<g>
	<defs>
		<polygon id="SVGID_1_" points="10.667,8.668 6.667,71 78.333,92.668 94.333,104 97,106.334 101,106 108.667,75 66.667,7.334 		"/>
	</defs>
	<clipPath id="SVGID_2_">
		<use xlink:href="#SVGID_1_"  overflow="visible"/>
	</clipPath>
	<path clip-path="url(#SVGID_2_)" fill-rule="evenodd" clip-rule="evenodd" fill="#FFFFFF" d="M100.699,115.746
		c-1.213-5.408-2.566-13.115-4.396-19.285c-0.717-2.414-1.899-4.704-2.505-7.098C92.193,83.027,91.486,77.016,89,71
		c-1.324-3.201-2.712-6.611-4.301-9.626c-1.629-3.096-3.06-6.376-4.863-9.231c-1.859-2.939-4.427-5.361-6.268-8.229
		C66.04,32.186,55.488,21.207,40.066,16.979c-5.953-1.633-18.329-3.176-22.273-1.305c2.198,4.908,8.188,6.58,12.716,9.572
		c2.18,1.441,4.042,3.165,5.796,5.186c3.02,3.477,6.143,7.553,9.061,12.164c4.375,6.914,6.552,15.807,12.641,21.668
		c4.875,4.691,10.479,7.814,14.507,13.584c-3.129,0.801-6.406-1.732-9.208-2.551c5.188,5.77,14.528,10.807,25.292,11.21
		c5.082,3.146,5.49,9.79,7.689,15.885C97.964,107.041,98.604,111.903,100.699,115.746z"/>
	<g clip-path="url(#SVGID_2_)">
		<path fill-rule="evenodd" clip-rule="evenodd" stroke="#000000" stroke-width="0.25" stroke-miterlimit="10" d="M95.008,101.188
			c-1.661-4.506-2.592-11.217-5.455-13.037c-2.286-1.455-5.439-1.229-8.328-1.908c-6.713-1.568-13.169-5.6-17.003-9.061
			c-1.147-1.033-3.054-2.023-3.515-4.055c3.321,1.305,6.671,3.717,10.447,3.994c-4.599-5.719-10.853-8.812-15.147-14.184
			c-4.263-5.334-6.516-11.473-10.088-17.777c-1.434-2.528-3.641-5.422-5.746-8.391c-4.545-6.398-7.888-9.401-15.708-13.785
			c-1.748-0.977-8.032-5.073-7.393-7.432c0.703-2.586,7.3-1.676,10.582-1.172c5.257,0.809,8.831,0.86,12.775,1.916
			c7.606,2.037,13.818,5.608,18.804,10.109c2.941,2.654,6.438,5.219,8.792,7.918c2.139,2.449,4.015,5.6,5.988,8.428
			c1.958,2.81,4.153,5.64,5.987,8.432c3.726,5.678,6.714,12.496,9.404,18.895c2.9,6.899,3.652,14.129,6.071,21.053
			c1.245,3.559,2.267,6.896,3.178,10.424c0.959,3.711,0.977,7.644,2.012,11.467c0.831,3.064,2.737,4.288,3.707,7.303
			c-0.161-0.028-0.32-0.055-0.48-0.08C98.466,117.266,97.357,107.558,95.008,101.188z M100.699,115.746
			c-1.213-5.408-2.566-13.115-4.396-19.285c-0.717-2.414-1.899-4.704-2.505-7.098C92.193,83.027,91.486,77.016,89,71
			c-1.324-3.201-2.712-6.611-4.301-9.626c-1.629-3.096-3.06-6.376-4.863-9.231c-1.859-2.939-4.427-5.361-6.268-8.229
			C66.04,32.186,55.488,21.207,40.066,16.979c-5.953-1.633-18.329-3.176-22.273-1.305c2.198,4.908,8.188,6.58,12.716,9.572
			c2.18,1.441,4.042,3.165,5.796,5.186c3.02,3.477,6.143,7.553,9.061,12.164c4.375,6.914,6.552,15.807,12.641,21.668
			c4.875,4.691,10.479,7.814,14.507,13.584c-3.129,0.801-6.406-1.732-9.208-2.551c5.188,5.77,14.528,10.807,25.292,11.21
			c5.082,3.146,5.49,9.79,7.689,15.885C97.964,107.041,98.604,111.903,100.699,115.746z"/>
		<path fill-rule="evenodd" clip-rule="evenodd" stroke="#000000" stroke-width="0.25" stroke-miterlimit="10" d="M92.076,89.318
			c0.312-0.008,0.323-0.435,0.082-0.481c-2.274-3.363-3.918-7.136-6.342-10.713c-2.253-3.327-5.063-6.464-7.465-9.917
			c-4.869-7.004-7.932-15.191-12.322-22.109c-2.216-3.496-5.348-7.076-8.303-10.801c-2.685-3.383-6.536-7.463-10.312-9.162
			c-1.222-0.551-2.667-0.647-4.004-1.174c-6.362-2.502-13.089-7.609-21.619-6.631c6.328,1.131,11.401,2.729,16.455,5.015
			c3.076,1.389,6.277,2.46,9.005,3.749c6.941,3.283,14.021,13.447,17.976,19.361c2.7,4.035,4.172,9.08,6.855,13.522
			c0.886,1.466,2.281,2.771,3.233,4.253c0.945,1.473,1.491,3.261,2.432,4.617c1.873,2.692,4.052,5.169,5.869,7.666
			C86.734,80.807,88.722,85.266,92.076,89.318z"/>
		<path fill-rule="evenodd" clip-rule="evenodd" d="M84.422,74.674c0.703-2.975-1.476-7.958-2.138-9.26
			C82.943,68.539,84.211,71.232,84.422,74.674z"/>
		<path fill-rule="evenodd" clip-rule="evenodd" d="M77.582,71.291c-1.158-1.233-5.213-4.041-7.397-5.951
			C71.265,67.461,75.105,69.454,77.582,71.291z"/>
		<path fill-rule="evenodd" clip-rule="evenodd" d="M67.403,56.957c-3.643-3.822-9.984-7.562-13.511-12.176
			C56.345,49.453,62.678,53.199,67.403,56.957z"/>
		<path fill-rule="evenodd" clip-rule="evenodd" d="M71.818,54.244c-0.602-9.576-6.662-17.109-11.714-24.231
			C63.912,37.314,70.33,44.592,71.818,54.244z"/>
		<path fill-rule="evenodd" clip-rule="evenodd" d="M49.897,26.062c-0.735-2.298-4.469-4.294-7.998-5.312
			C44.621,22.479,48.156,23.633,49.897,26.062z"/>
	</g>
</g>
<g>
</g>
<g>
</g>
<g>
</g>
<g>
</g>
<g>
</g>
<g>
</g>
<g>
</g>
<g>
</g>
<g>
</g>
<g>
</g>
<g>
</g>
<g>
</g>
<g>
</g>
<g>
</g>
<g>
</g>
</svg>
