<?xml version="1.0" encoding="utf-8"?>
<!-- Generator: Adobe Illustrator 16.0.0, SVG Export Plug-In . SVG Version: 6.00 Build 0)  -->
<!DOCTYPE svg PUBLIC "-//W3C//DTD SVG 1.1//EN" "http://www.w3.org/Graphics/SVG/1.1/DTD/svg11.dtd">
<svg version="1.1" id="Layer_1" xmlns="http://www.w3.org/2000/svg" xmlns:xlink="http://www.w3.org/1999/xlink" x="0px" y="0px"
	 width="162.832px" height="177.876px" viewBox="0 0 162.832 177.876" enable-background="new 0 0 162.832 177.876"
	 xml:space="preserve">
<g>
	<g>
		<circle fill="#FFFFFF" cx="84.729" cy="94.343" r="67.575"/>
		<path d="M153.973,94.354c-0.041,9.037-1.865,18.111-5.43,26.421c-3.531,8.329-8.725,15.905-15.092,22.29
			c-3.197,3.18-6.693,6.057-10.417,8.605c-3.735,2.53-7.714,4.707-11.86,6.512c-8.309,3.595-17.334,5.539-26.456,5.676
			c-4.521,0.066-9.108-0.291-13.585-1.152c-4.479-0.876-8.838-2.31-13.019-4.107c-8.346-3.663-15.868-8.997-22.219-15.421
			c-6.385-6.403-11.491-14.06-14.976-22.403c-3.507-8.334-5.323-17.38-5.358-26.431c-0.066-9.054,1.751-18.121,5.22-26.487
			c3.492-8.363,8.691-15.991,15.133-22.327c6.461-6.32,14.153-11.347,22.504-14.705c8.354-3.343,17.332-5.1,26.311-5.046
			c17.969-0.065,35.836,7.215,48.661,19.904c6.429,6.312,11.62,13.903,15.153,22.229c3.55,8.315,5.422,17.369,5.43,26.432V94.354z
			 M150.635,94.343c0.02-8.628-1.584-17.273-4.828-25.298c-3.236-8.024-8.086-15.41-14.174-21.606
			c-6.08-6.204-13.411-11.195-21.434-14.589c-8.034-3.363-16.749-5.119-25.471-5.089c-8.715,0.041-17.432,1.761-25.42,5.212
			c-7.998,3.411-15.283,8.426-21.33,14.622c-12.194,12.325-19.238,29.447-19.231,46.75c-0.047,8.643,1.612,17.296,4.899,25.3
			c3.286,8.007,8.222,15.328,14.353,21.432c6.156,6.091,13.612,10.799,21.616,13.905c3.991,1.593,8.141,2.735,12.339,3.575
			c4.202,0.856,8.464,1.354,12.788,1.423c8.572,0.149,17.242-1.383,25.275-4.583c4.025-1.582,7.883-3.604,11.498-5.995
			c3.627-2.373,6.998-5.14,10.057-8.214c6.15-6.123,10.998-13.524,14.236-21.545c3.229-8.031,4.879-16.654,4.826-25.31V94.343z"/>
	</g>
	
		<path fill="none" stroke="#000000" stroke-width="2.4883" stroke-linecap="round" stroke-linejoin="round" stroke-miterlimit="10" d="
		M93.944,67.916c0.031-1.624-0.408-3.225-0.406-4.81"/>
	
		<path fill="none" stroke="#000000" stroke-width="2.4883" stroke-linecap="round" stroke-linejoin="round" stroke-miterlimit="10" d="
		M100.203,64.784c-0.805,0.673-3.03,3.557-3.708,3.999"/>
	
		<path fill="none" stroke="#000000" stroke-width="2.4883" stroke-linecap="round" stroke-linejoin="round" stroke-miterlimit="10" d="
		M97.653,70.639c1.548-0.116,3.085-1.34,4.346-2.029"/>
	
		<ellipse transform="matrix(0.994 -0.1098 0.1098 0.994 -7.308 7.8854)" fill-rule="evenodd" clip-rule="evenodd" cx="67.953" cy="70.306" rx="4.501" ry="4.157"/>
	
		<path fill-rule="evenodd" clip-rule="evenodd" fill="none" stroke="#000000" stroke-width="2.4883" stroke-linecap="round" stroke-linejoin="round" stroke-miterlimit="10" d="
		M60.874,69.752c1.763,0.921,4.53,0.699,4.53,0.699"/>
	
		<path fill-rule="evenodd" clip-rule="evenodd" fill="none" stroke="#000000" stroke-width="2.4883" stroke-linecap="round" stroke-linejoin="round" stroke-miterlimit="10" d="
		M63.195,64.876c0.726,1.106,1.11,1.945,2.146,3.627"/>
	
		<path fill-rule="evenodd" clip-rule="evenodd" fill="none" stroke="#000000" stroke-width="2.4883" stroke-linecap="round" stroke-linejoin="round" stroke-miterlimit="10" d="
		M67.796,63.407c0.585,1.609,0.904,3.338,0.557,5.042"/>
	<path fill-rule="evenodd" clip-rule="evenodd" fill="#F5F5F5" d="M71.042,69.514c0.05,0.444-0.299,0.844-0.777,0.897
		s-0.908-0.261-0.958-0.706c-0.047-0.442,0.304-0.843,0.781-0.896C70.567,68.756,70.995,69.071,71.042,69.514z"/>
	<g>
		<path d="M74.443,73.673c-1.149,0.106-2.068,0.349-3.024,0.584l-2.826,0.739c-0.947,0.247-1.908,0.476-2.895,0.691
			c-0.995,0.215-1.986,0.39-3.125,0.578c0.545-1.047,1.443-1.793,2.365-2.391c0.938-0.592,1.961-1.024,3.033-1.298
			c1.07-0.274,2.199-0.393,3.338-0.274C72.426,72.428,73.645,72.792,74.443,73.673z"/>
	</g>
	<g>
		<path d="M96.534,74.694c1.014-0.826,1.664-2.083,1.664-3.493c0-2.488-2.017-4.504-4.504-4.504s-4.503,2.016-4.503,4.504
			c0,1.675,0.919,3.136,2.277,3.912C92.622,74.74,94.327,74.437,96.534,74.694z"/>
	</g>
	<circle fill="#FFFFFF" cx="95.625" cy="68.957" r="0.927"/>
	<g>
		<path fill="none" stroke="#000000" stroke-width="3" stroke-linecap="round" stroke-linejoin="round" stroke-miterlimit="10" d="
			M85.541,96.661c-1.171-1.277-5.923-5.43-5.911-12.75v0.348c0,4.211-1.738,10.273-6.03,12.18
			C76.658,97.888,80.325,99.443,85.541,96.661"/>
	</g>
	<g>
		<path d="M80.671,101.776c0.158,1.297,0.067,2.641-0.323,3.963c-0.391,1.321-1.182,2.523-1.432,3.465
			c-0.271,0.926-0.182,2.049,0.119,2.928c0.155,0.436,0.376,0.779,0.583,0.943c0.201,0.153,0.399,0.226,0.703,0.219l0.237-0.009
			c0.076-0.004,0.076-0.016,0.117-0.017c0.057,0.002,0.15-0.028,0.229-0.038c0.145-0.042,0.256-0.096,0.354-0.161
			c0.188-0.125,0.392-0.39,0.548-0.814c0.166-0.407,0.254-0.977,0.322-1.48c0.051-0.469,0.016-0.897-0.121-1.416
			c-0.286-1.02-0.885-2.301-1.188-3.611C80.529,104.421,80.452,103.071,80.671,101.776z M80.671,101.776
			c0.45,1.234,0.903,2.396,1.531,3.439c0.573,1.08,1.362,1.959,2.019,3.299c0.322,0.665,0.551,1.505,0.561,2.309
			c0.018,0.763-0.034,1.469-0.242,2.277c-0.219,0.781-0.65,1.685-1.484,2.335c-0.412,0.312-0.882,0.538-1.346,0.675
			c-0.233,0.054-0.447,0.113-0.708,0.139c-0.116,0.015-0.273,0.03-0.356,0.032l-0.238,0.004c-0.963,0.033-2.061-0.329-2.785-1.058
			c-0.725-0.707-1.09-1.547-1.279-2.327c-0.359-1.565-0.227-3.119,0.452-4.557c0.351-0.697,0.786-1.255,1.187-1.737
			c0.406-0.484,0.753-0.951,1.086-1.449C79.735,104.164,80.209,102.999,80.671,101.776z"/>
	</g>
	<g>
		<path fill="#FFFFFF" d="M35.553,76.264C33.031,77.92,18.252,87.562,14.95,91.647c-3.316,4.1-10.26,10.779-5.652,15.908
			c2.183,2.432,9.142,1.404,10.406-1.998c0.48-1.297,0.574-2.582-0.93-3.23c-1.71-0.736-4.375,0.527-5.216,1.674
			c-5.216,7.121-3.738,13.616-2.521,17.03c1.1,3.084,5.911,3.982,8.78,2.034c1.76-1.195,5.475-4.848,1.688-6.543
			c-4.154-1.861-7.789,12.662-0.208,14.42c5.998,1.391,11.736-9.217,17.646-39.729"/>
		<path d="M35.553,76.264c-2.559,2.459-5.309,4.604-8.08,6.705c-2.775,2.086-5.603,4.111-8.224,6.323
			c-1.306,1.117-2.581,2.21-3.55,3.483c-1.124,1.392-2.248,2.688-3.268,4.039c-1.021,1.338-1.967,2.714-2.59,4.14
			c-0.631,1.419-0.869,2.864-0.441,4.058c0.19,0.587,0.602,1.201,1.031,1.641c0.299,0.299,0.907,0.562,1.58,0.677
			c1.364,0.229,2.975,0.04,4.287-0.523c0.657-0.276,1.238-0.66,1.621-1.089c0.19-0.215,0.328-0.436,0.411-0.659l0.09-0.257
			l0.061-0.211c0.042-0.151,0.062-0.284,0.071-0.395c0.016-0.233-0.021-0.29-0.037-0.316c-0.008-0.028-0.138-0.144-0.357-0.228
			c-0.311-0.135-0.969-0.113-1.596,0.097c-0.625,0.195-1.292,0.568-1.682,0.944c-0.047,0.045-0.084,0.087-0.117,0.125l-0.031,0.039
			l-0.094,0.135l-0.375,0.531c-0.214,0.326-0.43,0.654-0.637,1.009c-0.824,1.395-1.463,2.882-1.85,4.429
			c-0.797,3.093-0.524,6.383,0.574,9.461c0.135,0.376,0.215,0.518,0.391,0.765c0.166,0.226,0.381,0.43,0.629,0.611
			c0.499,0.363,1.139,0.624,1.816,0.753c1.363,0.262,2.852,0.021,3.91-0.734c0.582-0.413,1.189-0.959,1.669-1.512
			c0.481-0.543,0.864-1.184,0.928-1.58c0.323-0.343-1.025-1.299-1.274-0.785c-0.373,0.257-0.805,0.858-1.112,1.512
			c-0.318,0.661-0.56,1.401-0.725,2.158c-0.327,1.514-0.374,3.125-0.036,4.551c0.328,1.435,1.076,2.598,2.221,3.136
			c1.227,0.595,2.415,0.517,3.578-0.301c1.167-0.8,2.166-2.124,3.04-3.507c0.874-1.401,1.628-2.921,2.313-4.479
			c1.367-3.125,2.474-6.404,3.479-9.714c2.027-6.622,3.744-13.37,5.765-20.082c-0.325,3.489-0.788,6.962-1.413,10.407
			c-0.605,3.451-1.363,6.875-2.26,10.273c-0.927,3.392-1.955,6.768-3.293,10.076c-0.672,1.652-1.423,3.289-2.35,4.877
			c-0.947,1.57-2.043,3.141-3.736,4.37c-0.844,0.601-1.9,1.081-3.057,1.194c-1.17,0.107-2.266-0.149-3.262-0.605
			c-1.007-0.465-1.896-1.228-2.524-2.117c-0.634-0.892-1.033-1.881-1.272-2.861c-0.462-1.979-0.383-3.938,0.017-5.828
			c0.207-0.945,0.503-1.877,0.938-2.789c0.453-0.904,0.984-1.827,2.03-2.605c0.518-0.376,1.26-0.701,2.082-0.676
			c0.87,0.027,1.454,0.372,1.935,0.647c0.505,0.313,1.057,0.768,1.426,1.465c0.381,0.691,0.447,1.546,0.312,2.199
			c-0.279,1.329-0.939,2.171-1.578,2.944c-0.668,0.761-1.363,1.394-2.2,1.992c-1.814,1.264-4.048,1.587-6.095,1.202
			c-1.031-0.199-2.055-0.589-2.971-1.251c-0.455-0.332-0.881-0.732-1.236-1.207c-0.352-0.449-0.664-1.098-0.809-1.548
			c-1.255-3.476-1.613-7.438-0.662-11.121c0.46-1.84,1.213-3.59,2.162-5.196c0.231-0.4,0.493-0.803,0.759-1.204l0.378-0.537
			l0.094-0.134l0.168-0.219c0.109-0.129,0.219-0.248,0.329-0.354c0.881-0.824,1.795-1.287,2.822-1.633
			c1.018-0.308,2.195-0.525,3.536-0.04c0.59,0.232,1.229,0.604,1.714,1.306c0.484,0.699,0.593,1.552,0.534,2.182
			c-0.027,0.323-0.082,0.622-0.154,0.893c-0.033,0.135-0.076,0.277-0.121,0.417l-0.125,0.358c-0.224,0.598-0.565,1.121-0.953,1.558
			c-0.784,0.874-1.718,1.438-2.66,1.845c-1.898,0.782-3.889,1.06-5.963,0.702c-1.027-0.206-2.135-0.57-3.091-1.503
			c-0.776-0.815-1.339-1.7-1.699-2.77c-0.354-1.053-0.418-2.187-0.272-3.223c0.143-1.043,0.468-2,0.865-2.883
			c0.805-1.766,1.877-3.269,2.99-4.683c1.121-1.404,2.32-2.712,3.422-4.005c1.197-1.473,2.631-2.623,4-3.733
			C23.309,83.083,29.011,79.026,35.553,76.264z"/>
	</g>
	<g>
		<path fill="#FFFFFF" d="M120.815,90.353c2.146,15.763,5.485,29.688,7.861,35.721c1.475,3.748,5.564,8.115,9.679,7.304
			c3.975-0.787,4.514-2.784,4.694-6.261c0.134-2.588-1.15-7.676-4.347-6.952c-3.071,0.694-2.38,4.713-1.261,6.642
			c3.175,5.48,10.09,4.381,13.027-1.126c1.325-2.485,2.549-5.919,1.97-8.825c-0.812-4.062-7.322-4.877-8.034-2.494
			c-0.603,2.02,3.106,5.337,6.483,4.543c1.419-0.332,6.764-2.811,6.416-8.479c-0.78-12.693-22.164-28.03-23.68-28.541
			c0.202,0.122,0.933,3.313,1.079,3.503"/>
		<path d="M120.815,90.353c1.836,6.891,3.24,13.793,4.855,20.65c0.816,3.423,1.706,6.829,2.75,10.162
			c0.525,1.648,1.087,3.342,1.749,4.836c0.648,1.395,1.62,2.761,2.755,3.84c1.131,1.078,2.486,1.904,3.797,2.091
			c0.326,0.051,0.646,0.052,0.959,0.021c0.162-0.01,0.301-0.041,0.475-0.076c0.236-0.051,0.393-0.092,0.566-0.14
			c0.723-0.2,1.338-0.491,1.723-0.847c0.386-0.349,0.631-0.814,0.797-1.508c0.162-0.671,0.23-1.53,0.271-2.326
			c0.053-1.451-0.303-3.133-0.949-4.327c-0.738-1.268-1.273-1.271-2.067-0.813c-0.235,0.179-0.425,0.594-0.452,1.23
			c-0.024,0.619,0.107,1.353,0.346,2.02c0.113,0.326,0.277,0.676,0.416,0.899c0.11,0.17,0.249,0.418,0.334,0.517
			c0.094,0.127,0.185,0.258,0.307,0.395c0.449,0.551,0.982,0.992,1.573,1.308c1.177,0.638,2.604,0.73,3.942,0.3
			c1.336-0.435,2.561-1.34,3.448-2.536c0.225-0.297,0.431-0.61,0.613-0.939c0.19-0.328,0.385-0.722,0.558-1.083
			c0.352-0.744,0.659-1.506,0.902-2.274c0.486-1.53,0.734-3.122,0.487-4.504c0.009,0.015-0.1-0.468-0.12-0.46
			c-0.021-0.073-0.088-0.223-0.15-0.341c-0.13-0.244-0.303-0.478-0.521-0.688c-0.435-0.425-1.033-0.766-1.684-0.979
			c-0.646-0.214-1.368-0.302-1.953-0.222c-0.287,0.038-0.539,0.124-0.648,0.196c-0.056,0.036-0.065,0.059-0.072,0.054
			c0.012,0.002,0-0.01,0.01-0.012c0.011-0.027-0.019,0.048,0.015-0.065l-0.035,0.154c0.032-0.142,0.009-0.009,0.028,0.043
			c0.009,0.074,0.053,0.182,0.1,0.292c0.108,0.228,0.278,0.488,0.5,0.728c0.438,0.486,1.026,0.913,1.648,1.2
			c0.623,0.291,1.285,0.448,1.899,0.428c0.153-0.005,0.306-0.018,0.452-0.047c0.094-0.018,0.111-0.017,0.236-0.051l0.199-0.062
			c0.329-0.113,0.684-0.268,1.021-0.442c1.364-0.708,2.567-1.748,3.288-3.008c0.739-1.275,0.948-2.693,0.733-4.312
			c-0.187-1.558-0.703-3.168-1.393-4.691c-1.398-3.066-3.432-5.91-5.668-8.562c-2.239-2.663-4.696-5.167-7.236-7.595
			c-1.275-1.208-2.572-2.4-3.9-3.56c-1.32-1.164-2.655-2.346-4.105-3.328l0.028-0.06c0.19,0.29,0.227,0.582,0.325,0.878l0.238,0.888
			l0.23,0.889c0.084,0.293,0.146,0.597,0.268,0.877c-0.127-0.278-0.194-0.582-0.283-0.874l-0.248-0.884l-0.254-0.882
			c-0.092-0.281-0.172-0.612-0.312-0.834l-0.009-0.015c-0.01-0.016-0.005-0.034,0.01-0.044c0.008-0.005,0.019-0.006,0.027-0.003
			c0.854,0.314,1.61,0.788,2.377,1.241c0.764,0.462,1.518,0.938,2.262,1.431c1.477,1,2.918,2.053,4.314,3.167
			c2.798,2.218,5.442,4.647,7.861,7.319c2.398,2.682,4.63,5.578,6.281,8.914c0.813,1.675,1.469,3.449,1.766,5.402
			c0.34,1.869,0.102,4.158-0.936,5.971c-1.015,1.842-2.59,3.221-4.334,4.178c-0.443,0.241-0.896,0.454-1.4,0.64
			c-0.12,0.044-0.266,0.093-0.433,0.142c-0.089,0.026-0.288,0.073-0.411,0.096c-0.287,0.061-0.576,0.095-0.864,0.109
			c-1.157,0.061-2.267-0.196-3.253-0.637c-0.984-0.451-1.866-1.073-2.621-1.894c-0.377-0.411-0.718-0.886-0.992-1.456
			c-0.132-0.294-0.254-0.6-0.324-0.963c-0.063-0.381-0.115-0.695-0.018-1.275l0.037-0.17c0.053-0.223,0.078-0.246,0.124-0.377
			c0.076-0.217,0.198-0.408,0.319-0.598c0.26-0.358,0.575-0.642,0.894-0.845c0.64-0.404,1.263-0.558,1.848-0.647
			c1.172-0.154,2.249-0.001,3.284,0.324c1.028,0.332,2.021,0.865,2.862,1.671c0.419,0.402,0.791,0.88,1.08,1.415
			c0.144,0.272,0.267,0.525,0.38,0.874c0.136,0.423,0.116,0.378,0.213,0.823c0.375,2.124,0.009,4.13-0.551,5.962
			c-0.286,0.921-0.64,1.806-1.039,2.663c-0.207,0.436-0.402,0.84-0.65,1.279c-0.244,0.445-0.522,0.875-0.829,1.286
			c-1.216,1.645-2.935,2.991-4.974,3.649c-2.025,0.664-4.411,0.538-6.357-0.529c-0.971-0.52-1.816-1.237-2.488-2.057
			c-0.17-0.195-0.337-0.425-0.5-0.657c-0.186-0.253-0.256-0.396-0.387-0.597c-0.322-0.533-0.521-0.995-0.703-1.503
			c-0.35-0.999-0.559-2.037-0.52-3.188c0.025-0.572,0.122-1.183,0.366-1.801c0.239-0.615,0.661-1.235,1.224-1.694
			c0.283-0.22,0.588-0.418,0.9-0.552c0.145-0.073,0.344-0.141,0.521-0.201c0.185-0.055,0.16-0.047,0.411-0.111
			c0.647-0.146,1.415-0.145,2.118,0.084c0.707,0.224,1.287,0.644,1.73,1.088c0.445,0.447,0.768,0.93,1.035,1.409
			c0.525,0.964,0.833,1.935,1.048,2.912c0.207,0.974,0.32,1.984,0.278,3.013c-0.055,0.971-0.115,1.885-0.359,2.939
			c-0.229,1.023-0.777,2.232-1.729,3.065c-0.938,0.839-2.012,1.232-2.986,1.496c-0.254,0.065-0.528,0.128-0.727,0.166
			c-0.26,0.05-0.557,0.104-0.836,0.121c-0.567,0.047-1.139,0.026-1.687-0.067c-2.214-0.381-3.958-1.604-5.355-2.961
			c-1.399-1.394-2.5-2.973-3.312-4.802c-0.717-1.767-1.216-3.459-1.717-5.194c-0.975-3.453-1.773-6.927-2.501-10.412
			C121.93,104.546,120.897,97.491,120.815,90.353z"/>
	</g>
	<g>
		<path fill="#FFFFFF" d="M96.901,26.011c0.51,0.1,0.886-0.124,1.333,0.288c0.752,0.696-0.064,3.9-0.714,5.215
			c-1.277,2.58-2.793,4.605-5.198,6.091L92.153,35.6"/>
		<path d="M97.219,24.036c0.02,0.007,0.117,0.029,0.072,0.022c-0.039-0.002-0.081,0-0.066,0.004
			c-0.002,0.009,0.033,0.017,0.104,0.023c0.135,0.017,0.496,0.003,0.98,0.139c0.488,0.139,0.93,0.443,1.183,0.707l0.114,0.116
			l0.002,0.002l0.005,0.006l0.009,0.011l0.018,0.023l0.081,0.105c0.109,0.136,0.249,0.367,0.276,0.441
			c0.104,0.218,0.16,0.405,0.2,0.573c0.142,0.667,0.087,1.086,0.046,1.502c-0.051,0.407-0.131,0.77-0.223,1.12
			c-0.184,0.7-0.416,1.345-0.689,1.984c-0.137,0.321-0.287,0.637-0.461,0.963c-0.195,0.363-0.361,0.601-0.539,0.876
			c-0.729,1.121-1.553,2.169-2.521,3.097c-0.964,0.926-2.066,1.692-3.231,2.264l-0.002,0.001c-0.165,0.159-0.428,0.153-0.586-0.012
			c-0.047-0.049-0.08-0.108-0.098-0.169l-0.055-0.189l-0.57-1.971c-0.139-0.48,0.138-0.982,0.618-1.121
			c0.48-0.139,0.983,0.138,1.122,0.619c0.033,0.117,0.042,0.24,0.029,0.354l-0.232,2.038l-0.738-0.373l0.001-0.001
			c1.931-1.47,3.206-3.49,4.056-5.677c0.108-0.279,0.238-0.592,0.292-0.797c0.071-0.248,0.138-0.516,0.192-0.789
			c0.111-0.545,0.189-1.11,0.216-1.64c0.014-0.264,0.013-0.521-0.009-0.735c-0.016-0.206-0.078-0.417-0.102-0.354
			c-0.002,0.019,0,0.059,0.032,0.139c-0.003,0,0.085,0.171,0.154,0.242c0.063,0.07,0.013,0.018,0.007,0.014l-0.021-0.021
			l-0.012-0.01l-0.005-0.005l-0.003-0.001c0.049,0.049-0.113-0.114,0.109,0.109c0.025,0.052,0.191,0.192,0.379,0.25
			c0.18,0.059,0.227,0.053,0.051,0.076c-0.086,0.009-0.206,0.02-0.365,0.02c-0.062,0.003-0.182-0.002-0.299-0.014l-0.158-0.011
			l-0.174-0.013c-1.117-0.084-1.954-1.055-1.871-2.171c0.082-1.116,1.055-1.954,2.17-1.871
			C96.883,23.943,97.061,23.982,97.219,24.036z"/>
	</g>
	<g>
		<g>
			<path d="M94.284,155.038c0.537,0.659,0.738,1.544,0.918,2.343c0.148,0.808,0.318,1.573,0.424,2.401
				c0.237,1.62,0.338,3.223,0.475,4.782c0.137,1.642,0.08,3.312-0.174,4.936c-0.125,0.814-0.295,1.624-0.49,2.425
				c-0.229,0.79-0.217,1.642-1.225,2.278c-0.713-0.941-0.473-1.679-0.516-2.481l-0.06-2.369c-0.048-1.578-0.044-3.121-0.048-4.687
				c0.008-1.646,0.125-3.254,0.291-4.842c0.08-0.776,0.155-1.613,0.273-2.41C94.274,156.619,94.391,155.863,94.284,155.038z"/>
		</g>
	</g>
	<g>
		<path fill="#FFFFFF" d="M92.147,18.013c1.074-1.199,2.822-1.066,3.895,0.266c2.337,2.903,1.076,7.841-0.271,10.774
			c-1.479,3.219-4.362,7.744-4.362,7.744l-1.085-1.614"/>
		<path d="M90.733,16.598l0.144-0.129l0.226-0.193l0.33-0.253l0.301-0.181c0.406-0.227,0.857-0.398,1.323-0.478
			c0.932-0.179,1.892-0.005,2.664,0.382c0.78,0.379,1.401,0.979,1.819,1.59l0.107,0.16l0.152,0.243
			c0.107,0.171,0.185,0.322,0.26,0.471c0.154,0.302,0.277,0.613,0.387,0.924c0.809,2.534,0.395,4.896-0.21,7.01
			c-0.618,2.134-1.688,4.085-2.771,5.843c-1.093,1.786-2.238,3.502-3.434,5.206l0,0l-0.034,0.049
			c-0.226,0.326-0.673,0.407-0.999,0.182c-0.084-0.058-0.154-0.133-0.204-0.214l-1.019-1.658c-0.189-0.31-0.093-0.716,0.217-0.906
			c0.295-0.181,0.676-0.101,0.877,0.172l1.151,1.568l-1.236,0.015h0.001c0.992-1.777,1.951-3.594,2.826-5.417
			c0.887-1.843,1.626-3.624,1.967-5.501c0.355-1.843,0.361-3.777-0.278-5.137c-0.081-0.167-0.165-0.328-0.263-0.473
			c-0.05-0.075-0.098-0.149-0.136-0.19l-0.06-0.08l-0.123-0.147c-0.191-0.216-0.367-0.312-0.527-0.357
			c-0.156-0.041-0.271-0.021-0.343,0.026c-0.039,0.016-0.069,0.049-0.103,0.083c-0.008,0.009-0.018,0.018-0.026,0.024
			c0.013,0,0.022-0.004,0.03-0.011c0.002-0.001,0.012-0.014,0.004-0.007l-0.064,0.071l-0.129,0.144
			c-0.741,0.821-2.008,0.886-2.828,0.146c-0.822-0.742-0.887-2.008-0.146-2.83C90.632,16.694,90.684,16.642,90.733,16.598z"/>
	</g>
	<g>
		<path fill="#FFFFFF" d="M89.974,36.271c0.231,0.463-3.831-5.086-5.243-7.465c-1.674-2.822-6.311-15.221-2.669-20.27
			c0.799-1.104,5.356-2.535,7.465,0.911c1.838,3.001,2.793,7.695,2.273,13.782C91.328,28.743,90.661,34.927,89.974,36.271z"/>
		<path d="M90.184,36.417c-0.254,0.296-0.494-0.032-0.396,0.062l-0.02-0.017l-0.064-0.059l-0.102-0.096l-0.191-0.186l-0.367-0.378
			l-0.721-0.762l-1.392-1.562c-0.919-1.053-1.794-2.132-2.664-3.255c-0.218-0.283-0.422-0.575-0.632-0.887
			c-0.223-0.345-0.401-0.651-0.582-0.976c-0.355-0.638-0.679-1.28-0.986-1.929c-0.615-1.295-1.117-2.63-1.588-3.985
			c-0.938-2.713-1.578-5.551-1.682-8.614c-0.023-1.534,0.142-3.152,0.801-4.804c0.17-0.411,0.369-0.821,0.619-1.217l0.194-0.295
			l0.05-0.073l0.112-0.145l0.04-0.05l0.121-0.134c0.375-0.382,0.544-0.479,0.797-0.651c0.918-0.574,1.756-0.829,2.66-1.005
			c0.897-0.147,1.836-0.154,2.788,0.042c0.947,0.189,1.906,0.615,2.694,1.253c0.398,0.313,0.744,0.679,1.044,1.063
			c0.293,0.358,0.575,0.862,0.712,1.111c0.158,0.275,0.384,0.738,0.541,1.083c0.16,0.357,0.305,0.722,0.428,1.089
			c0.992,2.934,1.287,5.909,1.154,8.803c-0.111,2.933-0.655,5.645-1.111,8.389c-0.271,1.368-0.531,2.739-0.868,4.102
			c-0.366,1.362-0.635,2.721-1.372,4.054L90.184,36.417z M89.747,36.155c0.16-0.598,0.213-1.301,0.258-1.976
			c0.052-0.679,0.084-1.366,0.109-2.053c0.047-1.374,0.102-2.748,0.121-4.126l0.108-4.132c0.028-1.384,0.065-2.681-0.019-4.007
			c-0.18-2.616-0.54-5.22-1.49-7.474c-0.465-1.099-1.047-2.263-1.589-2.619c-0.562-0.445-1.43-0.602-2.374-0.427
			c-0.453,0.066-0.957,0.241-1.212,0.402L83.59,9.785c-0.002,0.002-0.034,0.033,0.053-0.058c0.01-0.011,0.033-0.046,0.029-0.042
			l-0.041,0.05L83.61,9.76L83.6,9.773c0.028-0.039-0.08,0.103,0.061-0.083l-0.022,0.034L83.543,9.86
			c-0.123,0.185-0.232,0.396-0.33,0.622c-0.405,0.908-0.561,2.092-0.606,3.312c-0.097,2.472,0.396,5.104,0.973,7.694
			c0.3,1.299,0.685,2.583,1.085,3.857c0.2,0.637,0.418,1.268,0.654,1.877c0.116,0.299,0.248,0.609,0.365,0.866l0.453,0.879
			c0.623,1.202,1.324,2.392,1.998,3.598l1.025,1.803l0.51,0.905l0.259,0.447l0.128,0.222l0.062,0.105l0.021,0.038l0.003,0.008
			c0.109,0.106-0.155-0.262-0.413,0.126c-0.014,0.179-0.004,0.058-0.008,0.086l-0.004-0.015c-0.002-0.014-0.002-0.027,0.002-0.04
			L89.747,36.155z"/>
	</g>
	<g>
		<path d="M88.365,75.002c0.664-0.987,1.817-1.52,2.905-1.805c1.111-0.281,2.244-0.325,3.344-0.206
			c1.1,0.119,2.174,0.401,3.186,0.852c0.998,0.46,1.994,1.071,2.684,2.029c-1.154-0.024-2.16-0.054-3.176-0.126
			c-1.007-0.072-1.99-0.162-2.963-0.272l-2.903-0.326C90.461,75.051,89.518,74.943,88.365,75.002z"/>
	</g>
	<g>
		<path d="M94.65,165.174c0.233,0.557,0.388,1.091,0.548,1.632c0.072,0.271,0.139,0.539,0.197,0.808l0.084,0.403
			c0.012,0.24,0.055,0.248,0.041,0.502c-0.025,1.559-0.934,2.756-1.912,3.537c-1.002,0.799-2.166,1.258-3.355,1.445
			c-1.182,0.167-2.457,0.072-3.496-0.565c1.12-0.409,2.027-0.845,2.91-1.312c0.871-0.469,1.688-0.969,2.383-1.521
			c0.696-0.545,1.254-1.166,1.521-1.785c0.037-0.012,0.07-0.277,0.101-0.307l0.087-0.409c0.062-0.272,0.136-0.546,0.219-0.816
			C94.159,166.244,94.333,165.696,94.65,165.174z"/>
	</g>
	<g>
		<path d="M94.582,167.72c0.532,0.767,1.024,1.213,1.526,1.583c0.499,0.365,1.004,0.65,1.533,0.907
			c0.532,0.253,1.08,0.477,1.688,0.654c0.615,0.18,1.275,0.316,2.207,0.332c-0.36,0.875-1.253,1.441-2.184,1.634
			c-0.939,0.196-1.938,0.05-2.798-0.37c-0.861-0.416-1.607-1.117-2.026-2C94.11,169.587,94.059,168.505,94.582,167.72z"/>
	</g>
	<g>
		<g>
			<path d="M71.329,154.444c0.537,0.66,0.738,1.545,0.917,2.344c0.149,0.806,0.319,1.574,0.425,2.402
				c0.236,1.617,0.337,3.221,0.473,4.783c0.137,1.639,0.08,3.311-0.173,4.934c-0.126,0.814-0.296,1.623-0.49,2.425
				c-0.229,0.79-0.218,1.642-1.226,2.278c-0.713-0.941-0.472-1.679-0.516-2.481l-0.059-2.368c-0.049-1.58-0.044-3.121-0.049-4.688
				c0.01-1.646,0.127-3.254,0.293-4.843c0.08-0.777,0.155-1.611,0.272-2.409C71.319,156.026,71.436,155.27,71.329,154.444z"/>
		</g>
	</g>
	<g>
		<path d="M71.693,164.58c0.234,0.558,0.388,1.093,0.549,1.633c0.073,0.27,0.14,0.538,0.198,0.807l0.084,0.403
			c0.012,0.242,0.055,0.25,0.041,0.503c-0.025,1.559-0.934,2.754-1.914,3.537c-1,0.798-2.165,1.259-3.354,1.444
			c-1.182,0.168-2.458,0.071-3.497-0.564c1.12-0.41,2.027-0.846,2.911-1.312c0.869-0.47,1.686-0.97,2.382-1.522
			c0.696-0.544,1.254-1.166,1.522-1.785c0.037-0.014,0.07-0.278,0.101-0.307l0.087-0.408c0.062-0.272,0.135-0.545,0.218-0.817
			C71.202,165.65,71.376,165.103,71.693,164.58z"/>
	</g>
	<g>
		<path d="M71.625,167.126c0.532,0.766,1.023,1.213,1.527,1.583c0.498,0.366,1.004,0.65,1.533,0.907
			c0.531,0.253,1.079,0.477,1.688,0.654c0.615,0.179,1.275,0.316,2.207,0.332c-0.36,0.873-1.253,1.441-2.184,1.634
			c-0.939,0.195-1.938,0.05-2.799-0.37c-0.861-0.416-1.607-1.117-2.025-2C71.154,168.994,71.104,167.911,71.625,167.126z"/>
	</g>
</g>
<g>
</g>
<g>
</g>
<g>
</g>
<g>
</g>
<g>
</g>
<g>
</g>
<g>
</g>
<g>
</g>
<g>
</g>
<g>
</g>
<g>
</g>
<g>
</g>
<g>
</g>
<g>
</g>
<g>
</g>
</svg>
