<?xml version="1.0" encoding="utf-8"?>
<!-- Generator: Adobe Illustrator 16.0.0, SVG Export Plug-In . SVG Version: 6.00 Build 0)  -->
<!DOCTYPE svg PUBLIC "-//W3C//DTD SVG 1.1//EN" "http://www.w3.org/Graphics/SVG/1.1/DTD/svg11.dtd">
<svg version="1.1" id="Layer_1" xmlns="http://www.w3.org/2000/svg" xmlns:xlink="http://www.w3.org/1999/xlink" x="0px" y="0px"
	 width="379px" height="154px" viewBox="0 0 379 154" enable-background="new 0 0 379 154" xml:space="preserve">
<g>
	<g>
		<path fill="#FCEE21" stroke="#FCEE21" stroke-width="1.1836" stroke-miterlimit="10" d="M14.354,67.546
			c-0.298-2.905-0.428-12.315-0.531-15.462c0.013-0.307,0.497-1.145,0.715-1.166c0.173-0.019,0.624,0.109,0.62,0.506
			c0.129,2.966,0.358,12.496,0.727,16.096c0.05,0.478-0.241,0.639-0.589,0.675c-0.39,0.04-0.898-0.215-0.938-0.604L14.354,67.546z
			 M13.86,46.033c-0.048-0.478,0.333-1.041,1.069-1.117c0.738-0.074,1.104,0.501,1.147,0.935c0.067,0.65-0.409,1.137-1.19,1.217
			c-0.39,0.04-0.964-0.427-1.021-0.99L13.86,46.033z"/>
		<path fill="#FCEE21" stroke="#FCEE21" stroke-width="1.1836" stroke-miterlimit="10" d="M43.16,56.931
			c0.026,0.26-0.312,0.821-0.528,0.844c-0.086,0.008-0.616-0.464-0.855-0.657c-3.685-3.043-7.41-6.037-7.931-5.983
			c-0.26,0.025-0.377,0.171-0.354,0.388c-0.011,1.184,0.048,4.333-0.279,4.98c-0.113,0.188-0.381,0.563-0.684,0.595
			c-0.218,0.022-0.491-0.081-0.466-0.258c0.26-2.175,0.277-5.857-0.237-10.89c-0.56-5.465-1.229-10.305-1.593-13.423
			c-0.021-0.216,0.472-0.53,0.776-0.562c0.216-0.021,0.568,0.424,0.595,0.686c0.566,4.237,1.36,12.001,1.835,16.643
			c0.027,0.26,0.078,0.341,0.295,0.318c0.564-0.058,7.363-6.845,8.708-6.982c0.217-0.021,0.829-0.041,0.869,0.35
			c0.014,0.131-0.216,0.462-0.338,0.562c-2.329,1.64-7.703,6.089-7.654,6.566s4.494,3.661,7.284,6.093
			c0.1,0.121,0.535,0.516,0.553,0.688L43.16,56.931z"/>
		<path fill="#FCEE21" stroke="#FCEE21" stroke-width="1.1836" stroke-miterlimit="10" d="M47.575,31.104
			c0.075,0.736-0.548,1.063-1.198,1.13c-0.564,0.058-0.743-0.404-0.797-0.925c-0.071-0.694,0.192-1.116,0.8-1.179
			c0.564-0.059,1.119,0.236,1.19,0.93L47.575,31.104z M47.183,37.105c0.154,1.519,0.51,13.139,0.202,14.836
			c-0.025,0.178-0.397,0.391-0.741,0.471c-0.342,0.078-0.748-0.451-0.726-0.672c0.4-2.934-0.013-13.409-0.155-14.797
			c-0.026-0.26,0.207-0.547,0.381-0.564c0.26-0.026,0.985,0.206,1.034,0.684L47.183,37.105z"/>
		<path fill="#FCEE21" stroke="#FCEE21" stroke-width="1.1836" stroke-miterlimit="10" d="M64.371,54.762
			c0.027,0.261-0.31,0.822-0.526,0.844c-0.087,0.009-0.617-0.463-0.856-0.657c-3.686-3.042-7.41-6.037-7.931-5.983
			c-0.261,0.025-0.376,0.172-0.354,0.388c-0.011,1.184,0.048,4.332-0.28,4.98c-0.111,0.187-0.379,0.564-0.682,0.596
			c-0.218,0.021-0.491-0.081-0.466-0.258c0.259-2.176,0.277-5.858-0.237-10.89c-0.56-5.465-1.231-10.305-1.593-13.423
			c-0.022-0.217,0.472-0.531,0.774-0.562c0.217-0.022,0.569,0.424,0.597,0.685c0.564,4.236,1.359,12.002,1.834,16.642
			c0.026,0.261,0.079,0.342,0.296,0.318c0.563-0.057,7.363-6.844,8.707-6.98c0.218-0.022,0.829-0.041,0.869,0.35
			c0.013,0.131-0.216,0.461-0.337,0.56c-2.33,1.642-7.704,6.091-7.655,6.567c0.05,0.478,4.495,3.662,7.284,6.093
			c0.101,0.12,0.535,0.516,0.553,0.688L64.371,54.762z"/>
		<path fill="#FCEE21" stroke="#FCEE21" stroke-width="1.1836" stroke-miterlimit="10" d="M68.788,28.937
			c0.076,0.736-0.548,1.063-1.198,1.129c-0.564,0.058-0.742-0.404-0.797-0.925c-0.07-0.694,0.191-1.116,0.8-1.179
			c0.564-0.058,1.12,0.237,1.191,0.931L68.788,28.937z M68.395,34.937c0.155,1.518,0.512,13.139,0.203,14.836
			c-0.025,0.178-0.398,0.392-0.741,0.472c-0.342,0.078-0.747-0.451-0.726-0.672c0.4-2.934-0.013-13.409-0.155-14.798
			c-0.026-0.26,0.207-0.546,0.38-0.563c0.261-0.027,0.986,0.204,1.035,0.682L68.395,34.937z"/>
		<path fill="#FCEE21" stroke="#FCEE21" stroke-width="1.1836" stroke-miterlimit="10" d="M81.737,36.421
			c0.031,0.304-0.223,0.812-0.826,0.917c-1.417,0.277-3.447,0.572-4.415,0.978c-0.632,0.24-0.882,0.792-0.959,1.325
			c-0.112,0.626-0.098,2.465-0.021,4.517c0.03,1.136,0.218,4.272,0.408,5.261c0.069,0.256-0.188,0.325-0.491,0.356
			c-0.52,0.054-0.997-0.336-1.019-0.554c-0.201-4.098-0.369-10.874,0.034-15.078c0.02-0.223,0.441-0.396,0.615-0.414
			c0.307,0.013,0.712,0.104,0.738,0.361c0.036,0.349-0.299,1.786-0.211,2.653c0.019,0.173,0.134,0.467,0.396,0.44
			c0.391-0.041,3.608-0.718,5.134-1.225c0.256-0.07,0.58,0.116,0.611,0.419L81.737,36.421z"/>
		<path fill="#FCEE21" stroke="#FCEE21" stroke-width="1.1836" stroke-miterlimit="10" d="M86.875,27.087
			c0.076,0.736-0.547,1.063-1.197,1.13c-0.565,0.057-0.743-0.405-0.798-0.926c-0.07-0.694,0.194-1.116,0.8-1.179
			c0.564-0.058,1.12,0.237,1.192,0.931L86.875,27.087z M86.482,33.088c0.154,1.518,0.511,13.139,0.202,14.836
			c-0.024,0.177-0.397,0.391-0.741,0.471c-0.342,0.078-0.746-0.451-0.725-0.672c0.401-2.934-0.013-13.409-0.154-14.797
			c-0.027-0.261,0.206-0.547,0.38-0.564c0.26-0.026,0.984,0.205,1.033,0.684L86.482,33.088z"/>
		<path fill="#FCEE21" stroke="#FCEE21" stroke-width="1.1836" stroke-miterlimit="10" d="M103.673,50.744
			c0.026,0.26-0.311,0.822-0.527,0.844c-0.087,0.008-0.617-0.463-0.856-0.657c-3.686-3.042-7.41-6.037-7.931-5.984
			c-0.26,0.026-0.377,0.173-0.354,0.389c-0.012,1.184,0.047,4.333-0.28,4.98c-0.111,0.188-0.381,0.564-0.684,0.595
			c-0.218,0.022-0.49-0.08-0.466-0.257c0.26-2.176,0.277-5.858-0.237-10.89c-0.56-5.465-1.229-10.305-1.593-13.424
			c-0.022-0.216,0.472-0.53,0.776-0.562c0.216-0.021,0.568,0.425,0.595,0.686c0.566,4.237,1.36,12.001,1.835,16.643
			c0.027,0.26,0.079,0.341,0.296,0.319c0.563-0.059,7.363-6.846,8.708-6.983c0.217-0.021,0.828-0.04,0.867,0.351
			c0.015,0.131-0.215,0.461-0.335,0.56c-2.331,1.642-7.705,6.09-7.656,6.567s4.494,3.662,7.284,6.093
			c0.102,0.121,0.535,0.516,0.553,0.688L103.673,50.744z"/>
		<path fill="#FCEE21" stroke="#FCEE21" stroke-width="1.1836" stroke-miterlimit="10" d="M108.088,24.918
			c0.076,0.736-0.547,1.064-1.197,1.13c-0.564,0.058-0.743-0.404-0.798-0.925c-0.07-0.694,0.194-1.116,0.8-1.179
			c0.566-0.058,1.12,0.237,1.191,0.931L108.088,24.918z M107.696,30.919c0.154,1.518,0.511,13.139,0.202,14.837
			c-0.025,0.177-0.397,0.391-0.742,0.471c-0.341,0.078-0.747-0.451-0.725-0.672c0.401-2.934-0.013-13.41-0.155-14.798
			c-0.026-0.26,0.207-0.547,0.381-0.563c0.26-0.027,0.984,0.204,1.034,0.682L107.696,30.919z"/>
		<path fill="#FCEE21" stroke="#FCEE21" stroke-width="1.1836" stroke-miterlimit="10" d="M126.521,42.712
			c0.049,0.477-0.332,1.042-1.07,1.116c-0.736,0.076-1.102-0.5-1.146-0.934c-0.065-0.65,0.41-1.137,1.189-1.217
			c0.392-0.041,0.966,0.427,1.023,0.99L126.521,42.712z M126.032,21.199c0.297,2.905,0.425,12.315,0.526,15.462
			c-0.012,0.307-0.495,1.145-0.712,1.166c-0.173,0.019-0.624-0.109-0.622-0.506c-0.128-2.966-0.357-12.496-0.727-16.096
			c-0.049-0.478,0.241-0.64,0.588-0.675c0.393-0.039,0.9,0.216,0.941,0.604L126.032,21.199z"/>
	</g>
</g>
<g>
	<g>
		<path fill="#FCEE21" stroke="#FCEE21" stroke-width="1.1836" stroke-miterlimit="10" d="M306.955,62.88
			c0.354-2.898,2.305-12.105,2.9-15.195c0.08-0.298,0.737-1.007,0.953-0.98c0.174,0.021,0.585,0.245,0.494,0.63
			c-0.529,2.923-2.412,12.267-2.848,15.859c-0.059,0.478-0.377,0.569-0.724,0.527c-0.389-0.047-0.828-0.408-0.781-0.796
			L306.955,62.88z M311.231,41.792c0.057-0.477,0.552-0.942,1.288-0.854s0.966,0.732,0.913,1.165
			c-0.079,0.649-0.65,1.019-1.43,0.923c-0.39-0.047-0.846-0.629-0.778-1.191L311.231,41.792z"/>
		<path fill="#FCEE21" stroke="#FCEE21" stroke-width="1.1836" stroke-miterlimit="10" d="M341.55,51.45
			c-0.32,2.641-1.69,6.69-2.158,7.643c-0.294,0.623-0.829,1.041-1.219,0.994c-0.217-0.025-0.411-0.226-0.292-0.474
			c0.647-1.372,2.006-5.685,2.243-7.634c0.368-3.03-0.089-3.963-0.546-4.547c-0.265-0.339-0.889-0.633-1.407-0.696
			c-1.56-0.188-5.562,2.046-8.006,5.524c-0.376,0.57-0.748,1.096-1.056,1.455c-0.21,0.281-1.108,0.082-1.01-0.738
			c0.569-4.675,2.646-16.72,4.204-23.381c0.095-0.428,0.634-0.89,1.159-0.869c0.221-0.017,0.476,0.408,0.339,0.83
			c-1.348,4.58-3.672,17.562-4.071,20.85c-0.025,0.218,0.094,0.32,0.299,0.081c2.277-2.489,6.265-5.298,8.731-4.999
			c1.126,0.138,2.242,1.062,2.548,1.803c0.268,0.691,0.473,2.252,0.246,4.114L341.55,51.45z"/>
		<path fill="#FCEE21" stroke="#FCEE21" stroke-width="1.1836" stroke-miterlimit="10" d="M350.418,41.021
			c-0.184,1.515-2.405,12.927-3.081,14.513c-0.063,0.168-0.475,0.295-0.827,0.295c-0.351,0.002-0.629-0.603-0.559-0.814
			c1.039-2.771,2.95-13.08,3.118-14.465c0.031-0.261,0.323-0.488,0.495-0.468c0.261,0.032,0.917,0.419,0.859,0.896L350.418,41.021z
			 M352.128,35.257c-0.09,0.735-0.77,0.914-1.419,0.835c-0.563-0.067-0.636-0.558-0.572-1.078c0.084-0.692,0.436-1.044,1.041-0.972
			c0.563,0.068,1.039,0.478,0.955,1.171L352.128,35.257z"/>
		<path fill="#FCEE21" stroke="#FCEE21" stroke-width="1.1836" stroke-miterlimit="10" d="M366.173,56.683
			c-0.059,0.477-0.555,0.942-1.29,0.853c-0.734-0.089-0.965-0.731-0.912-1.164c0.078-0.649,0.651-1.019,1.43-0.925
			c0.39,0.049,0.846,0.631,0.777,1.193L366.173,56.683z M370.447,35.594c-0.352,2.899-2.305,12.104-2.9,15.195
			c-0.08,0.299-0.737,1.007-0.953,0.981c-0.173-0.021-0.585-0.246-0.495-0.631c0.53-2.923,2.413-12.268,2.85-15.859
			c0.058-0.477,0.376-0.569,0.724-0.526c0.389,0.047,0.828,0.408,0.781,0.796L370.447,35.594z"/>
	</g>
</g>
<g>
	<g>
		<path fill="#0F7EDC" stroke="#0F7EDC" stroke-width="1.1836" stroke-miterlimit="10" d="M169.146,141.211
			c-0.193-2.914,0.009-12.321,0.019-15.469c0.023-0.309,0.536-1.126,0.754-1.141c0.174-0.012,0.62,0.131,0.604,0.526
			c0.021,2.971-0.085,12.502,0.155,16.113c0.031,0.478-0.265,0.63-0.612,0.652c-0.391,0.024-0.89-0.246-0.915-0.638L169.146,141.211
			z M169.418,119.695c-0.031-0.479,0.367-1.029,1.106-1.076c0.74-0.051,1.086,0.537,1.114,0.972
			c0.043,0.652-0.449,1.122-1.231,1.175c-0.392,0.026-0.949-0.461-0.986-1.026L169.418,119.695z"/>
		<path fill="#0F7EDC" stroke="#0F7EDC" stroke-width="1.1836" stroke-miterlimit="10" d="M201.005,123.534
			c0.178,2.654-0.415,6.889-0.695,7.912c-0.174,0.667-0.62,1.177-1.013,1.204c-0.216,0.015-0.447-0.146-0.377-0.411
			c0.383-1.468,0.914-5.961,0.784-7.919c-0.203-3.045-0.827-3.877-1.384-4.364c-0.325-0.284-0.992-0.458-1.514-0.423
			c-1.565,0.105-5.083,3.047-6.836,6.921c-0.263,0.63-0.529,1.214-0.767,1.625c-0.153,0.315-1.073,0.289-1.127-0.536
			c-0.313-4.698-0.516-16.921-0.229-23.756c0.015-0.438,0.457-0.992,0.977-1.07c0.214-0.057,0.546,0.314,0.488,0.755
			c-0.47,4.75-0.334,17.936-0.112,21.242c0.014,0.218,0.148,0.297,0.306,0.024c1.775-2.871,5.169-6.374,7.647-6.539
			c1.131-0.076,2.402,0.626,2.839,1.296c0.393,0.629,0.885,2.126,1.01,3.996L201.005,123.534z"/>
		<path fill="#0F7EDC" stroke="#0F7EDC" stroke-width="1.1836" stroke-miterlimit="10" d="M219.313,122.186
			c0.308,4.61-3.66,8.021-6.357,8.201c-5.437,0.361-7.858-3.191-8.079-6.498c-0.075-1.131,0.369-2.995,1.073-4.222
			c0.939-1.636,3.892-3.887,6.545-4.063c1.307-0.087,3.278,0.656,4.16,1.428c1.479,1.214,2.518,3.023,2.655,5.109L219.313,122.186z
			 M218.002,122.184c-0.102-1.522-0.77-3.05-1.831-3.896c-1.198-0.926-2.926-1.291-4.623-1.178
			c-1.218,0.081-2.771,1.057-3.788,2.176c-1.097,1.252-1.677,3.038-1.572,4.604c0.128,1.914,1.146,3.42,2.787,4.445
			c0.774,0.475,1.63,0.854,2.806,0.776c2.044-0.136,3.531-0.76,4.592-1.878c1.064-1.078,1.776-2.873,1.633-5.005L218.002,122.184z"
			/>
		<path fill="#0F7EDC" stroke="#0F7EDC" stroke-width="1.1836" stroke-miterlimit="10" d="M224.961,128.844
			c0.021,0.305-0.156,0.929-0.635,0.961c-0.216,0.016-0.632-0.309-0.641-0.438c-0.261-3.26-0.519-7.132-0.857-11.565
			c-0.543-6.824-1.336-12.801-1.633-15.315c-0.081-0.563,0.547-0.954,0.808-0.972c0.304-0.021,0.587,0.266,0.599,0.44
			c0.341,2.512,0.881,7.981,1.481,15.019c0.405,4.78,0.76,10.089,0.875,11.828L224.961,128.844z"/>
		<path fill="#0F7EDC" stroke="#0F7EDC" stroke-width="1.1836" stroke-miterlimit="10" d="M242.824,126.737
			c-0.159,0.229-0.505,0.296-0.598,0.214c-0.846-0.902-3.062-3.99-3.715-3.947c-1.044,0.069-4.628,2.668-8.239,2.908
			c-0.869,0.059-1.873-1.23-1.907-1.751c-0.175-2.612,4.97-7.365,4.873-8.802c-0.049-0.74-1.508-2.958-2.737-4.362
			c-0.237-0.29,0.332-0.938,0.854-0.974c0.218-0.015,0.351,0.02,0.495,0.229c0.885,1.47,2.396,4.473,5.279,8.387
			c2.113,2.875,4.536,5.773,5.746,6.872C243.245,125.836,243.062,126.371,242.824,126.737z M237.729,121.745
			c-0.033-0.479-3.295-4.851-3.468-4.837c-0.437,0.028-4.604,5.025-4.512,6.418c0.038,0.564,0.566,1.273,1.22,1.229
			c2.653-0.176,6.797-2.244,6.762-2.766L237.729,121.745z"/>
		<path fill="#0F7EDC" stroke="#0F7EDC" stroke-width="1.1836" stroke-miterlimit="10" d="M257.935,121.973
			c0.031,0.479-0.369,1.03-1.109,1.08c-0.738,0.049-1.083-0.54-1.112-0.977c-0.043-0.651,0.451-1.12,1.232-1.174
			c0.393-0.025,0.949,0.462,0.986,1.027L257.935,121.973z M258.206,100.457c0.193,2.915-0.01,12.324-0.02,15.471
			c-0.021,0.307-0.537,1.127-0.753,1.141c-0.175,0.012-0.62-0.133-0.604-0.527c-0.022-2.971,0.085-12.501-0.156-16.112
			c-0.031-0.479,0.265-0.63,0.612-0.653c0.393-0.025,0.891,0.247,0.917,0.639L258.206,100.457z"/>
	</g>
</g>
<g>
	<g>
		<path stroke="#000000" stroke-width="1.1836" stroke-miterlimit="10" d="M304.891,60.243c0.353-2.897,2.307-12.104,2.9-15.194
			c0.08-0.298,0.737-1.007,0.953-0.979c0.174,0.021,0.586,0.244,0.494,0.63c-0.53,2.921-2.411,12.267-2.848,15.859
			c-0.059,0.478-0.377,0.568-0.724,0.526c-0.39-0.047-0.829-0.407-0.782-0.797L304.891,60.243z M309.167,39.155
			c0.057-0.475,0.552-0.941,1.288-0.853c0.736,0.09,0.966,0.733,0.913,1.165c-0.079,0.648-0.65,1.018-1.43,0.924
			c-0.39-0.047-0.846-0.631-0.777-1.192L309.167,39.155z"/>
		<path stroke="#000000" stroke-width="1.1836" stroke-miterlimit="10" d="M339.485,48.815c-0.32,2.64-1.69,6.689-2.158,7.643
			c-0.294,0.623-0.829,1.041-1.219,0.993c-0.217-0.026-0.411-0.226-0.292-0.475c0.647-1.371,2.006-5.685,2.243-7.632
			c0.368-3.03-0.089-3.963-0.546-4.547c-0.265-0.339-0.889-0.635-1.407-0.698c-1.56-0.189-5.562,2.046-8.006,5.526
			c-0.376,0.569-0.748,1.095-1.056,1.453c-0.21,0.282-1.108,0.084-1.01-0.736c0.569-4.676,2.646-16.721,4.204-23.383
			c0.096-0.426,0.634-0.888,1.159-0.869c0.221-0.017,0.476,0.409,0.339,0.831c-1.348,4.581-3.672,17.562-4.071,20.851
			c-0.025,0.217,0.094,0.32,0.299,0.08c2.277-2.489,6.265-5.297,8.731-4.998c1.126,0.137,2.242,1.062,2.548,1.802
			c0.268,0.691,0.473,2.253,0.246,4.115L339.485,48.815z"/>
		<path stroke="#000000" stroke-width="1.1836" stroke-miterlimit="10" d="M348.354,38.386c-0.184,1.515-2.405,12.926-3.081,14.513
			c-0.063,0.169-0.475,0.294-0.827,0.296c-0.351,0.002-0.629-0.604-0.559-0.814c1.039-2.773,2.95-13.08,3.118-14.465
			c0.031-0.261,0.323-0.489,0.495-0.468c0.261,0.032,0.917,0.418,0.859,0.896L348.354,38.386z M350.063,32.62
			c-0.09,0.736-0.77,0.916-1.419,0.837c-0.563-0.067-0.636-0.56-0.572-1.078c0.084-0.693,0.436-1.047,1.041-0.973
			c0.563,0.068,1.039,0.479,0.955,1.171L350.063,32.62z"/>
		<path stroke="#000000" stroke-width="1.1836" stroke-miterlimit="10" d="M364.108,54.048c-0.059,0.477-0.555,0.941-1.29,0.853
			c-0.736-0.09-0.965-0.731-0.912-1.165c0.078-0.648,0.651-1.02,1.43-0.925c0.39,0.047,0.846,0.631,0.777,1.193L364.108,54.048z
			 M368.383,32.958c-0.352,2.9-2.305,12.105-2.9,15.196c-0.08,0.298-0.737,1.007-0.953,0.98c-0.173-0.021-0.585-0.246-0.495-0.63
			c0.53-2.923,2.413-12.268,2.85-15.861c0.058-0.475,0.376-0.567,0.724-0.525c0.389,0.047,0.828,0.407,0.781,0.797L368.383,32.958z"
			/>
	</g>
</g>
<g>
	<g>
		<path stroke="#000000" stroke-width="1.1836" stroke-miterlimit="10" d="M11.757,65.432c-0.297-2.905-0.428-12.315-0.53-15.462
			c0.013-0.306,0.497-1.145,0.714-1.166c0.174-0.019,0.624,0.109,0.621,0.506c0.128,2.966,0.358,12.496,0.726,16.096
			c0.05,0.478-0.24,0.64-0.588,0.675c-0.39,0.04-0.898-0.215-0.938-0.604L11.757,65.432z M11.265,43.919
			c-0.049-0.478,0.333-1.04,1.069-1.116c0.738-0.076,1.104,0.5,1.147,0.934c0.067,0.65-0.409,1.137-1.19,1.217
			c-0.39,0.041-0.964-0.426-1.021-0.99L11.265,43.919z"/>
		<path stroke="#000000" stroke-width="1.1836" stroke-miterlimit="10" d="M40.563,54.816c0.026,0.26-0.311,0.822-0.528,0.844
			c-0.085,0.008-0.615-0.463-0.855-0.658c-3.685-3.042-7.41-6.037-7.93-5.982c-0.261,0.025-0.377,0.171-0.355,0.388
			c-0.01,1.184,0.049,4.333-0.278,4.98c-0.113,0.188-0.382,0.563-0.685,0.595c-0.217,0.022-0.491-0.08-0.466-0.258
			c0.261-2.175,0.277-5.857-0.236-10.889c-0.56-5.465-1.23-10.305-1.593-13.424c-0.022-0.216,0.472-0.53,0.776-0.562
			c0.215-0.022,0.567,0.425,0.594,0.686c0.566,4.237,1.361,12.001,1.836,16.643c0.026,0.26,0.077,0.341,0.295,0.318
			c0.563-0.058,7.362-6.845,8.707-6.982c0.218-0.022,0.83-0.04,0.869,0.351c0.014,0.131-0.215,0.461-0.337,0.561
			c-2.329,1.64-7.703,6.089-7.654,6.566c0.048,0.478,4.494,3.662,7.284,6.093c0.1,0.121,0.535,0.516,0.553,0.688L40.563,54.816z"/>
		<path stroke="#000000" stroke-width="1.1836" stroke-miterlimit="10" d="M44.979,28.99c0.075,0.736-0.548,1.063-1.199,1.13
			c-0.563,0.058-0.743-0.405-0.796-0.925c-0.072-0.695,0.191-1.117,0.8-1.179c0.563-0.058,1.119,0.236,1.19,0.931L44.979,28.99z
			 M44.586,34.992c0.155,1.518,0.51,13.138,0.202,14.836c-0.025,0.177-0.397,0.391-0.74,0.47s-0.748-0.45-0.727-0.671
			c0.401-2.934-0.013-13.41-0.154-14.798c-0.026-0.261,0.207-0.547,0.38-0.564c0.26-0.026,0.986,0.206,1.035,0.684L44.586,34.992z"
			/>
		<path stroke="#000000" stroke-width="1.1836" stroke-miterlimit="10" d="M61.775,52.648c0.026,0.26-0.31,0.821-0.527,0.844
			c-0.087,0.008-0.617-0.464-0.856-0.658c-3.685-3.042-7.409-6.037-7.931-5.984c-0.26,0.027-0.375,0.173-0.354,0.389
			c-0.012,1.184,0.048,4.332-0.281,4.98c-0.11,0.187-0.379,0.564-0.682,0.596c-0.217,0.021-0.491-0.081-0.466-0.258
			c0.259-2.176,0.277-5.857-0.237-10.89c-0.559-5.465-1.23-10.305-1.592-13.423c-0.022-0.217,0.471-0.531,0.773-0.562
			c0.218-0.021,0.57,0.425,0.597,0.686c0.565,4.236,1.359,12.002,1.835,16.642c0.026,0.261,0.078,0.343,0.296,0.319
			c0.562-0.057,7.362-6.844,8.707-6.981c0.217-0.022,0.829-0.041,0.869,0.35c0.013,0.131-0.216,0.462-0.338,0.56
			c-2.33,1.642-7.704,6.091-7.655,6.568c0.05,0.477,4.495,3.661,7.284,6.092c0.101,0.121,0.535,0.516,0.553,0.688L61.775,52.648z"/>
		<path stroke="#000000" stroke-width="1.1836" stroke-miterlimit="10" d="M66.191,26.822c0.077,0.736-0.547,1.063-1.198,1.129
			c-0.563,0.059-0.742-0.404-0.796-0.924c-0.071-0.695,0.191-1.117,0.8-1.18c0.563-0.058,1.12,0.237,1.191,0.931L66.191,26.822z
			 M65.799,32.822c0.155,1.518,0.511,13.139,0.202,14.836c-0.025,0.178-0.397,0.392-0.741,0.472
			c-0.342,0.078-0.746-0.451-0.726-0.672c0.401-2.934-0.013-13.409-0.154-14.798c-0.027-0.26,0.206-0.547,0.38-0.563
			c0.26-0.026,0.986,0.204,1.034,0.682L65.799,32.822z"/>
		<path stroke="#000000" stroke-width="1.1836" stroke-miterlimit="10" d="M79.142,34.307c0.031,0.304-0.224,0.812-0.827,0.918
			c-1.417,0.275-3.446,0.572-4.414,0.977c-0.632,0.24-0.882,0.792-0.959,1.326c-0.112,0.625-0.099,2.464-0.021,4.516
			c0.03,1.137,0.219,4.271,0.408,5.262c0.069,0.255-0.188,0.324-0.491,0.355c-0.519,0.054-0.996-0.336-1.019-0.554
			c-0.201-4.097-0.368-10.874,0.035-15.078c0.02-0.222,0.441-0.396,0.615-0.414c0.306,0.013,0.712,0.103,0.738,0.362
			c0.036,0.348-0.3,1.785-0.212,2.652c0.019,0.174,0.135,0.467,0.396,0.44c0.391-0.04,3.608-0.718,5.135-1.224
			c0.255-0.07,0.58,0.115,0.611,0.418L79.142,34.307z"/>
		<path stroke="#000000" stroke-width="1.1836" stroke-miterlimit="10" d="M84.279,24.973c0.076,0.736-0.547,1.063-1.197,1.129
			c-0.565,0.059-0.743-0.404-0.798-0.924c-0.07-0.695,0.194-1.117,0.8-1.18c0.564-0.058,1.12,0.237,1.191,0.931L84.279,24.973z
			 M83.886,30.975c0.155,1.518,0.512,13.137,0.203,14.835c-0.024,0.177-0.398,0.391-0.741,0.471
			c-0.342,0.079-0.747-0.45-0.725-0.672c0.4-2.934-0.013-13.409-0.155-14.797c-0.026-0.261,0.207-0.547,0.38-0.564
			c0.261-0.026,0.985,0.206,1.034,0.683L83.886,30.975z"/>
		<path stroke="#000000" stroke-width="1.1836" stroke-miterlimit="10" d="M101.076,48.63c0.026,0.261-0.31,0.822-0.527,0.845
			c-0.086,0.008-0.617-0.464-0.856-0.658c-3.685-3.043-7.41-6.037-7.93-5.984c-0.261,0.027-0.377,0.173-0.354,0.389
			c-0.011,1.184,0.048,4.334-0.279,4.98c-0.112,0.188-0.382,0.564-0.685,0.596c-0.217,0.021-0.49-0.081-0.466-0.258
			c0.261-2.176,0.277-5.858-0.236-10.89c-0.56-5.465-1.23-10.305-1.593-13.423c-0.022-0.217,0.472-0.531,0.776-0.562
			c0.215-0.021,0.567,0.425,0.594,0.686c0.566,4.237,1.361,12.002,1.836,16.643c0.026,0.26,0.078,0.341,0.296,0.319
			c0.562-0.058,7.363-6.846,8.707-6.983c0.218-0.021,0.829-0.04,0.868,0.351c0.014,0.131-0.215,0.461-0.335,0.56
			c-2.331,1.642-7.705,6.09-7.656,6.567c0.048,0.478,4.493,3.662,7.284,6.093c0.102,0.121,0.535,0.516,0.553,0.688L101.076,48.63z"
			/>
		<path stroke="#000000" stroke-width="1.1836" stroke-miterlimit="10" d="M105.492,22.805c0.076,0.736-0.547,1.063-1.198,1.129
			c-0.563,0.058-0.743-0.404-0.797-0.925c-0.071-0.694,0.194-1.116,0.8-1.179c0.566-0.058,1.12,0.236,1.191,0.931L105.492,22.805z
			 M105.1,28.805c0.155,1.518,0.512,13.139,0.203,14.837c-0.025,0.177-0.398,0.391-0.742,0.47c-0.342,0.079-0.747-0.45-0.725-0.671
			c0.4-2.934-0.014-13.409-0.155-14.798c-0.026-0.26,0.207-0.547,0.38-0.564c0.261-0.026,0.985,0.205,1.035,0.683L105.1,28.805z"/>
		<path stroke="#000000" stroke-width="1.1836" stroke-miterlimit="10" d="M123.926,40.598c0.049,0.477-0.333,1.042-1.07,1.117
			c-0.736,0.075-1.102-0.501-1.146-0.934c-0.066-0.651,0.41-1.138,1.189-1.218c0.392-0.04,0.965,0.427,1.022,0.991L123.926,40.598z
			 M123.436,19.085c0.297,2.905,0.426,12.315,0.527,15.462c-0.012,0.307-0.496,1.145-0.712,1.166
			c-0.174,0.019-0.624-0.109-0.622-0.506c-0.128-2.966-0.358-12.496-0.727-16.096c-0.049-0.478,0.241-0.639,0.588-0.675
			c0.392-0.04,0.9,0.216,0.94,0.604L123.436,19.085z"/>
	</g>
</g>
<g>
	<g>
		<path stroke="#000000" stroke-width="1.1836" stroke-miterlimit="10" d="M166.627,139.007c-0.193-2.915,0.009-12.322,0.019-15.469
			c0.023-0.309,0.536-1.127,0.754-1.142c0.174-0.012,0.62,0.131,0.604,0.526c0.021,2.971-0.085,12.503,0.155,16.114
			c0.031,0.478-0.264,0.629-0.612,0.651c-0.392,0.025-0.89-0.246-0.915-0.637L166.627,139.007z M166.898,117.491
			c-0.032-0.479,0.367-1.029,1.106-1.077c0.74-0.05,1.086,0.537,1.114,0.973c0.043,0.651-0.449,1.121-1.232,1.174
			c-0.391,0.027-0.948-0.461-0.985-1.025L166.898,117.491z"/>
		<path stroke="#000000" stroke-width="1.1836" stroke-miterlimit="10" d="M198.485,121.33c0.177,2.654-0.414,6.888-0.695,7.911
			c-0.174,0.667-0.62,1.178-1.013,1.204c-0.217,0.016-0.447-0.146-0.376-0.411c0.382-1.468,0.913-5.961,0.783-7.918
			c-0.203-3.046-0.827-3.878-1.384-4.364c-0.325-0.285-0.992-0.459-1.514-0.424c-1.565,0.105-5.083,3.047-6.836,6.922
			c-0.263,0.63-0.529,1.214-0.767,1.624c-0.153,0.315-1.073,0.29-1.127-0.536c-0.313-4.698-0.517-16.92-0.229-23.756
			c0.015-0.438,0.457-0.991,0.977-1.069c0.214-0.057,0.546,0.313,0.488,0.754c-0.47,4.75-0.334,17.937-0.113,21.242
			c0.015,0.218,0.149,0.298,0.307,0.024c1.775-2.871,5.169-6.373,7.647-6.539c1.131-0.076,2.402,0.626,2.839,1.297
			c0.393,0.628,0.885,2.126,1.01,3.996L198.485,121.33z"/>
		<path stroke="#000000" stroke-width="1.1836" stroke-miterlimit="10" d="M216.795,119.98c0.307,4.611-3.66,8.021-6.358,8.201
			c-5.438,0.362-7.858-3.19-8.079-6.498c-0.075-1.131,0.368-2.994,1.073-4.222c0.939-1.636,3.892-3.887,6.545-4.062
			c1.307-0.088,3.278,0.656,4.16,1.427c1.479,1.215,2.517,3.023,2.655,5.11L216.795,119.98z M215.482,119.979
			c-0.102-1.522-0.77-3.05-1.832-3.896c-1.197-0.926-2.925-1.292-4.622-1.178c-1.218,0.08-2.77,1.056-3.788,2.175
			c-1.097,1.253-1.677,3.039-1.572,4.604c0.128,1.913,1.146,3.42,2.787,4.445c0.774,0.474,1.63,0.854,2.806,0.776
			c2.044-0.137,3.531-0.761,4.592-1.879c1.064-1.078,1.775-2.872,1.633-5.004L215.482,119.979z"/>
		<path stroke="#000000" stroke-width="1.1836" stroke-miterlimit="10" d="M222.441,126.64c0.021,0.305-0.156,0.929-0.635,0.96
			c-0.217,0.016-0.632-0.309-0.641-0.438c-0.261-3.26-0.52-7.132-0.857-11.564c-0.543-6.825-1.336-12.801-1.633-15.315
			c-0.082-0.563,0.548-0.955,0.808-0.973c0.304-0.021,0.587,0.266,0.599,0.441c0.341,2.511,0.881,7.98,1.481,15.019
			c0.405,4.779,0.759,10.088,0.875,11.828L222.441,126.64z"/>
		<path stroke="#000000" stroke-width="1.1836" stroke-miterlimit="10" d="M240.305,124.533c-0.159,0.228-0.505,0.295-0.598,0.213
			c-0.846-0.902-3.062-3.99-3.715-3.946c-1.043,0.069-4.628,2.668-8.239,2.907c-0.869,0.059-1.873-1.23-1.907-1.75
			c-0.175-2.612,4.97-7.365,4.873-8.802c-0.049-0.741-1.507-2.958-2.737-4.363c-0.237-0.289,0.332-0.938,0.854-0.973
			c0.218-0.015,0.351,0.019,0.495,0.228c0.885,1.47,2.396,4.473,5.279,8.387c2.113,2.876,4.535,5.773,5.745,6.872
			C240.726,123.631,240.542,124.167,240.305,124.533z M235.209,119.541c-0.033-0.479-3.295-4.852-3.468-4.838
			c-0.437,0.029-4.604,5.026-4.512,6.419c0.038,0.564,0.566,1.272,1.22,1.229c2.653-0.176,6.797-2.244,6.762-2.767L235.209,119.541z
			"/>
		<path stroke="#000000" stroke-width="1.1836" stroke-miterlimit="10" d="M255.415,119.769c0.032,0.479-0.369,1.029-1.108,1.079
			c-0.739,0.049-1.084-0.539-1.113-0.975c-0.043-0.652,0.451-1.122,1.232-1.175c0.393-0.026,0.949,0.462,0.986,1.026
			L255.415,119.769z M255.686,98.253c0.194,2.914-0.009,12.323-0.019,15.47c-0.021,0.307-0.537,1.127-0.753,1.143
			c-0.176,0.01-0.62-0.135-0.604-0.528c-0.022-2.971,0.085-12.502-0.156-16.112c-0.032-0.479,0.264-0.631,0.613-0.654
			c0.392-0.025,0.89,0.248,0.916,0.64L255.686,98.253z"/>
	</g>
</g>
<g>
</g>
<g>
</g>
<g>
</g>
<g>
</g>
<g>
</g>
<g>
</g>
<g>
</g>
<g>
</g>
<g>
</g>
<g>
</g>
<g>
</g>
<g>
</g>
<g>
</g>
<g>
</g>
<g>
</g>
</svg>
