<?xml version="1.0" encoding="utf-8"?>
<!-- Generator: Adobe Illustrator 16.0.0, SVG Export Plug-In . SVG Version: 6.00 Build 0)  -->
<!DOCTYPE svg PUBLIC "-//W3C//DTD SVG 1.1//EN" "http://www.w3.org/Graphics/SVG/1.1/DTD/svg11.dtd">
<svg version="1.1" id="Layer_1" xmlns="http://www.w3.org/2000/svg" xmlns:xlink="http://www.w3.org/1999/xlink" x="0px" y="0px"
	 width="376px" height="214px" viewBox="0 0 376 214" enable-background="new 0 0 376 214" xml:space="preserve">
<g>
	<path d="M118,91.334c0,0-0.243,0.016-0.699,0.044c-0.45,0.001-1.159-0.097-1.965-0.442c-1.6-0.721-3.564-2.464-5.025-5.104
		c-0.736-1.313-1.398-2.834-1.673-4.625c-0.043-0.221-0.067-0.45-0.071-0.689c-0.003-0.248-0.042-0.446-0.011-0.741l0.047-0.645
		c0.021-0.221,0.081-0.484,0.123-0.728c0.197-0.976,0.538-1.876,1.008-2.742c0.457-0.867,1.017-1.689,1.664-2.445
		c0.634-0.769,1.355-1.475,2.146-2.105c0.78-0.644,1.628-1.215,2.528-1.711c0.906-0.497,1.827-0.939,2.883-1.217l1.405-0.382
		c0.457-0.138,1.029-0.166,1.538-0.249c1.053-0.197,2.073-0.134,3.091-0.128c0.509,0.004,1.01,0.129,1.511,0.19
		c0.501,0.074,0.997,0.156,1.47,0.332c0.477,0.153,0.956,0.294,1.42,0.459c0.445,0.217,0.888,0.432,1.326,0.645
		c1.691,0.948,3.201,2.171,4.172,3.685c0.13,0.181,0.268,0.354,0.388,0.538l0.299,0.584c0.19,0.389,0.403,0.76,0.56,1.146
		c0.119,0.4,0.236,0.795,0.35,1.182c0.055,0.192,0.11,0.383,0.164,0.572c0.022,0.195,0.045,0.389,0.067,0.581
		c0.042,0.381,0.083,0.754,0.124,1.119c0.044,0.362-0.023,0.722-0.036,1.067c-0.026,0.345-0.052,0.68-0.077,1.007
		c-0.044,0.322-0.146,0.626-0.212,0.924c-0.222,1.21-0.737,2.148-1.077,2.938c-0.379,0.772-0.82,1.301-1.051,1.692
		c-0.251,0.38-0.386,0.582-0.386,0.582s0.102-0.222,0.292-0.638c0.174-0.422,0.502-1.005,0.78-1.796
		c0.23-0.81,0.595-1.76,0.688-2.913c0.032-0.284,0.099-0.573,0.107-0.876c-0.01-0.302-0.02-0.612-0.03-0.932
		c-0.026-0.316,0.019-0.645-0.053-0.97c-0.064-0.324-0.13-0.656-0.197-0.995c-0.033-0.168-0.066-0.338-0.099-0.51l-0.191-0.496
		c-0.128-0.331-0.259-0.668-0.392-1.011c-0.17-0.325-0.374-0.641-0.56-0.969l-0.287-0.492c-0.115-0.152-0.247-0.296-0.37-0.446
		c-0.914-1.266-2.301-2.224-3.779-3.008c-1.499-0.812-3.271-1.094-5.031-1.264c-0.893,0.012-1.807-0.038-2.663,0.141
		c-0.443,0.081-0.854,0.073-1.326,0.221l-1.401,0.396c-0.829,0.197-1.684,0.588-2.474,1.013c-0.798,0.428-1.562,0.928-2.263,1.493
		c-1.407,1.116-2.646,2.432-3.478,3.894c-0.434,0.715-0.737,1.506-0.941,2.232c-0.042,0.187-0.103,0.345-0.135,0.554l-0.085,0.641
		c-0.031,0.131-0.01,0.359-0.02,0.533c-0.011,0.186-0.002,0.374,0.024,0.565c0.15,1.525,0.631,3.003,1.214,4.277
		c1.166,2.577,2.79,4.4,4.19,5.272c0.718,0.408,1.33,0.619,1.784,0.685C117.757,91.312,118,91.334,118,91.334z"/>
</g>
<g>
	<path d="M194,82c0,0,0.034-0.174,0.097-0.501c0.045-0.324,0.209-0.809,0.188-1.413c-0.004-0.302,0.046-0.623,0.002-0.981
		c-0.045-0.356-0.093-0.741-0.145-1.152c-0.111-0.396-0.229-0.817-0.354-1.263c-0.192-0.422-0.355-0.876-0.575-1.325
		c-0.492-0.879-1.073-1.802-1.862-2.636c-0.745-0.871-1.717-1.604-2.734-2.286c-1.046-0.658-2.231-1.104-3.446-1.408
		c-1.209-0.247-2.542-0.184-3.634,0.104l-1.003,0.336c-0.339,0.109-0.68,0.219-0.924,0.372l-0.812,0.411
		c-0.271,0.14-0.503,0.357-0.757,0.528c-0.256,0.176-0.505,0.357-0.694,0.592c-0.205,0.219-0.436,0.417-0.625,0.646l-0.496,0.732
		c-0.183,0.234-0.25,0.528-0.383,0.786c-0.439,1.072-0.644,2.241-0.568,3.365c0.022,1.127,0.289,2.193,0.567,3.167
		c0.184,0.473,0.338,0.938,0.526,1.366c0.204,0.419,0.381,0.831,0.579,1.201c0.215,0.363,0.415,0.703,0.601,1.018
		c0.194,0.311,0.402,0.576,0.575,0.829c0.341,0.512,0.677,0.859,0.884,1.119c0.214,0.256,0.329,0.392,0.329,0.392
		s-0.14-0.108-0.403-0.312c-0.253-0.214-0.681-0.479-1.108-0.938c-0.22-0.223-0.482-0.457-0.737-0.739
		c-0.242-0.295-0.504-0.614-0.783-0.955c-0.264-0.354-0.512-0.755-0.793-1.169c-0.265-0.424-0.479-0.906-0.739-1.395
		c-0.204-0.512-0.435-1.046-0.611-1.621c-0.145-0.586-0.33-1.188-0.375-1.842c-0.191-1.282-0.096-2.73,0.413-4.121
		c0.147-0.339,0.232-0.714,0.441-1.03c0.197-0.324,0.396-0.65,0.595-0.979c0.492-0.573,0.973-1.217,1.619-1.64
		c0.315-0.225,0.602-0.486,0.947-0.678l1.057-0.554c0.365-0.207,0.694-0.315,1.025-0.429l0.998-0.351
		c1.643-0.431,3.184-0.417,4.704-0.101c1.482,0.372,2.831,1.025,3.998,1.826c1.147,0.826,2.153,1.762,2.91,2.801
		c0.813,0.995,1.347,2.103,1.767,3.129c0.184,0.525,0.32,1.045,0.455,1.529c0.064,0.501,0.126,0.978,0.184,1.424
		c-0.013,0.448-0.024,0.867-0.036,1.256c-0.021,0.384-0.136,0.738-0.189,1.05c-0.09,0.64-0.363,1.051-0.472,1.367
		C194.069,81.837,194,82,194,82z"/>
</g>
<g>
	<path d="M356,98c0,0,0.033-0.174,0.097-0.501c0.045-0.324,0.209-0.809,0.188-1.413c-0.004-0.302,0.046-0.623,0.002-0.981
		c-0.045-0.356-0.093-0.741-0.145-1.152c-0.111-0.396-0.229-0.817-0.354-1.263c-0.192-0.422-0.355-0.876-0.575-1.325
		c-0.492-0.879-1.073-1.802-1.862-2.636c-0.745-0.871-1.717-1.604-2.734-2.286c-1.046-0.658-2.231-1.104-3.446-1.408
		c-1.208-0.247-2.542-0.184-3.634,0.104l-1.003,0.336c-0.339,0.109-0.681,0.219-0.924,0.372l-0.812,0.411
		c-0.271,0.14-0.503,0.357-0.758,0.528c-0.255,0.176-0.504,0.357-0.693,0.592c-0.205,0.219-0.437,0.417-0.624,0.646l-0.497,0.732
		c-0.182,0.234-0.249,0.528-0.383,0.786c-0.438,1.072-0.644,2.241-0.567,3.365c0.023,1.127,0.289,2.193,0.567,3.167
		c0.184,0.473,0.338,0.938,0.526,1.366c0.203,0.419,0.381,0.831,0.579,1.201c0.214,0.363,0.415,0.703,0.601,1.018
		c0.193,0.311,0.401,0.576,0.574,0.829c0.341,0.512,0.677,0.859,0.884,1.119c0.215,0.256,0.329,0.392,0.329,0.392
		s-0.14-0.108-0.402-0.312c-0.253-0.214-0.682-0.479-1.109-0.938c-0.22-0.223-0.481-0.457-0.736-0.739
		c-0.242-0.295-0.504-0.614-0.783-0.955c-0.264-0.354-0.512-0.755-0.793-1.169c-0.265-0.424-0.479-0.906-0.739-1.395
		c-0.204-0.512-0.434-1.045-0.61-1.621c-0.146-0.586-0.329-1.188-0.375-1.842c-0.19-1.282-0.096-2.73,0.413-4.121
		c0.147-0.339,0.232-0.713,0.441-1.03c0.197-0.323,0.396-0.649,0.596-0.979c0.491-0.573,0.972-1.217,1.619-1.64
		c0.314-0.225,0.601-0.486,0.946-0.678l1.057-0.554c0.365-0.207,0.694-0.315,1.025-0.429l0.998-0.351
		c1.643-0.431,3.185-0.417,4.703-0.101c1.482,0.372,2.831,1.025,3.998,1.826c1.147,0.826,2.153,1.762,2.91,2.801
		c0.813,0.995,1.347,2.103,1.767,3.129c0.184,0.525,0.32,1.045,0.455,1.529c0.064,0.501,0.126,0.978,0.184,1.424
		c-0.013,0.448-0.024,0.867-0.036,1.256c-0.021,0.384-0.136,0.738-0.189,1.05c-0.09,0.64-0.363,1.051-0.472,1.367
		C356.069,97.837,356,98,356,98z"/>
</g>
<g>
	<path d="M230,56c0,0-0.274,0.044-0.789,0.128c-0.509,0.097-1.275,0.182-2.267,0.174c-0.983-0.029-2.194-0.163-3.526-0.623
		c-1.322-0.462-2.75-1.321-3.9-2.665c-1.154-1.325-2.091-3.064-2.522-5.033c-0.453-1.96-0.54-4.123-0.113-6.278
		c0.392-2.157,1.246-4.32,2.575-6.234c1.346-1.892,3.147-3.556,5.276-4.631c0.534-0.263,1.071-0.52,1.636-0.703
		c0.295-0.099,0.523-0.207,0.871-0.295l0.801-0.214c0.534-0.142,1.05-0.297,1.662-0.375c0.591-0.073,1.17-0.242,1.766-0.223
		c2.35-0.213,4.819,0.53,6.621,1.876c0.434,0.352,0.871,0.695,1.285,1.049c0.365,0.394,0.728,0.784,1.085,1.17
		c0.358,0.35,0.697,0.852,0.963,1.317c0.265,0.455,0.479,0.907,0.688,1.356c0.81,1.794,1.359,3.542,1.777,5.182
		c0.427,1.636,0.681,3.172,0.778,4.549c0.095,1.373,0.049,2.604-0.271,3.574c-0.273,0.997-1.057,1.566-1.592,1.591
		c-0.268,0.038-0.467,0.023-0.602-0.001c-0.134-0.016-0.203-0.023-0.203-0.023s0.069-0.002,0.204-0.005
		c0.135,0.007,0.332-0.007,0.577-0.077c0.507-0.104,1.067-0.672,1.24-1.589c0.2-0.907,0.131-2.078-0.094-3.38
		c-0.231-1.307-0.628-2.76-1.141-4.314c-0.522-1.55-1.185-3.209-2.02-4.854c-0.215-0.404-0.438-0.814-0.686-1.191
		c-0.241-0.369-0.467-0.691-0.842-1.027c-0.337-0.334-0.678-0.672-1.021-1.013c-0.376-0.287-0.755-0.577-1.138-0.869
		c-1.577-1.092-3.479-1.56-5.487-1.393c-0.502-0.02-0.99,0.143-1.488,0.202c-0.481,0.055-1.022,0.22-1.555,0.368l-0.799,0.222
		c-0.19,0.046-0.468,0.169-0.697,0.25c-0.491,0.16-0.949,0.394-1.41,0.62c-1.847,0.906-3.415,2.325-4.613,3.967
		c-1.166,1.669-2.028,3.541-2.428,5.468c-0.428,1.917-0.466,3.853-0.152,5.624c0.305,1.775,1.018,3.359,1.95,4.613
		c0.941,1.253,2.125,2.153,3.302,2.707c1.183,0.548,2.322,0.797,3.269,0.921c0.945,0.089,1.708,0.141,2.229,0.104
		C229.723,56.007,230,56,230,56z"/>
</g>
<g>
	<path d="M146.667,47.667c0,0-0.246,0.056-0.706,0.16c-0.228,0.067-0.518,0.092-0.869,0.113c-0.353,0.052-0.753,0.012-1.207-0.036
		c-0.892-0.132-1.994-0.504-3.003-1.32c-1.016-0.799-1.93-1.974-2.617-3.389c-1.389-2.826-2.017-6.55-1.562-10.445
		c0.248-1.939,0.691-3.962,1.634-5.853c0.912-1.888,2.259-3.697,4.122-4.939c0.444-0.335,0.969-0.549,1.458-0.811l0.781-0.295
		c0.152-0.052,0.21-0.089,0.44-0.153l0.364-0.09l0.728-0.18c0.263-0.05,0.562-0.082,0.842-0.12c0.574-0.101,1.118-0.058,1.67-0.066
		c2.228,0.114,4.291,1.165,5.764,2.551c1.524,1.366,2.521,3.044,3.307,4.646c0.784,1.614,1.271,3.231,1.604,4.736
		c0.662,3.012,0.658,5.63,0.229,7.388c-0.206,0.879-0.58,1.534-0.968,1.839c-0.104,0.063-0.195,0.12-0.274,0.169
		c-0.083,0.039-0.166,0.041-0.224,0.058c-0.12,0.024-0.181,0.037-0.181,0.037s0.059-0.021,0.174-0.063
		c0.054-0.025,0.13-0.037,0.202-0.086c0.066-0.056,0.143-0.121,0.23-0.195c0.317-0.332,0.55-0.982,0.649-1.831
		c0.193-1.704-0.093-4.205-0.948-7.022c-0.438-1.403-1.022-2.893-1.823-4.349c-0.812-1.439-1.821-2.889-3.146-4.007
		c-0.644-0.584-1.4-1.019-2.182-1.371c-0.791-0.347-1.647-0.495-2.513-0.57c-0.435,0.018-0.89-0.019-1.299,0.066
		c-0.213,0.033-0.412,0.045-0.637,0.089l-0.726,0.188l-0.363,0.094l-0.265,0.104l-0.625,0.242c-0.387,0.222-0.807,0.387-1.163,0.666
		c-1.51,0.976-2.678,2.474-3.499,4.126c-0.836,1.649-1.347,3.458-1.625,5.237c-0.558,3.568-0.182,7.061,0.865,9.745
		c0.533,1.336,1.242,2.471,2.074,3.28c0.831,0.812,1.764,1.278,2.581,1.506c0.415,0.093,0.79,0.184,1.123,0.187
		c0.332,0.03,0.623,0.05,0.858,0.017C146.416,47.686,146.667,47.667,146.667,47.667z"/>
</g>
<g>
	<path d="M282.667,62.667c0,0-0.214-0.138-0.614-0.396c-0.204-0.126-0.449-0.284-0.712-0.522c-0.275-0.221-0.589-0.484-0.872-0.846
		c-0.592-0.677-1.236-1.703-1.324-3.053c-0.109-1.336,0.335-2.852,1.192-4.212c0.864-1.36,2.079-2.619,3.524-3.714
		c1.44-1.103,3.107-2.068,4.955-2.783c1.844-0.711,3.85-1.28,5.979-1.365c2.112-0.118,4.378,0.217,6.387,1.312
		c1.959,1.166,3.428,2.854,4.497,4.702c1.069,1.854,1.661,3.886,1.937,5.87c0.254,1.99,0.149,3.958-0.316,5.745
		c-0.427,1.796-1.28,3.388-2.336,4.615c-1.064,1.23-2.377,2.021-3.591,2.45c-1.222,0.426-2.342,0.563-3.246,0.534
		c-0.904-0.002-1.605-0.106-2.074-0.201c-0.469-0.089-0.719-0.137-0.719-0.137s0.254,0.01,0.73,0.028
		c0.473,0.031,1.173,0.009,2.039-0.088c0.87-0.076,1.904-0.353,2.976-0.843c1.064-0.51,2.139-1.324,2.993-2.467
		c0.832-1.157,1.471-2.601,1.771-4.221c0.324-1.615,0.304-3.384,0.031-5.16c-0.157-0.886-0.382-1.773-0.689-2.643
		c-0.328-0.86-0.705-1.712-1.176-2.516c-0.938-1.596-2.26-3.029-3.811-3.932c-1.562-0.875-3.452-1.211-5.319-1.124
		c-1.869,0.063-3.727,0.473-5.443,1.082c-1.718,0.614-3.321,1.404-4.707,2.347c-1.381,0.943-2.577,2.002-3.447,3.149
		c-0.845,1.156-1.347,2.398-1.375,3.544c-0.038,1.149,0.398,2.133,0.878,2.839c0.226,0.371,0.486,0.654,0.714,0.906
		c0.215,0.265,0.438,0.46,0.62,0.614C282.476,62.499,282.667,62.667,282.667,62.667z"/>
</g>
<g>
	<path d="M76,67.667c0,0-0.253,0.03-0.727,0.088c-0.236,0.052-0.529,0.032-0.886-0.012c-0.175-0.024-0.377-0.02-0.574-0.074
		c-0.194-0.064-0.401-0.133-0.619-0.204c-0.854-0.323-1.847-0.93-2.71-1.883c-0.883-0.933-1.71-2.143-2.369-3.573
		c-0.666-1.427-1.212-3.058-1.475-4.87c-0.146-0.902-0.189-1.858-0.124-2.863c0.089-0.562,0.095-0.905,0.25-1.453l0.21-0.772
		l0.283-0.726c0.796-1.933,2.256-3.635,4.012-4.849c1.755-1.229,3.752-2.075,5.796-2.636c0.528-0.147,0.992-0.243,1.586-0.359
		c0.499-0.078,0.986-0.164,1.583-0.186c1.132-0.072,2.206,0.009,3.271,0.237c1.062,0.205,2.081,0.561,3.019,1.034
		c0.948,0.454,1.823,1.019,2.61,1.656c1.599,1.251,2.82,2.825,3.686,4.45c0.86,1.635,1.336,3.356,1.395,4.97
		c0.089,1.611-0.236,3.094-0.78,4.266c-0.525,1.186-1.238,2.065-1.871,2.708c-0.309,0.333-0.615,0.595-0.898,0.804
		c-0.268,0.224-0.51,0.394-0.718,0.518c-0.401,0.259-0.616,0.396-0.616,0.396s0.191-0.168,0.549-0.482
		c0.184-0.15,0.396-0.352,0.624-0.609c0.239-0.244,0.504-0.532,0.766-0.883c0.538-0.682,1.112-1.584,1.47-2.721
		c0.373-1.127,0.508-2.474,0.33-3.899c-0.34-2.854-2.139-5.995-5.012-8.122c-1.419-1.076-3.131-1.845-4.93-2.191
		c-0.891-0.186-1.849-0.239-2.733-0.172c-0.417,0.01-0.928,0.1-1.431,0.186c-0.399,0.085-0.93,0.2-1.378,0.33
		c-1.874,0.49-3.68,1.24-5.214,2.29c-1.527,1.05-2.798,2.39-3.504,3.968l-0.256,0.591l-0.181,0.581
		c-0.129,0.345-0.205,0.934-0.286,1.269c-0.097,0.82-0.117,1.667-0.029,2.495c0.156,1.654,0.54,3.225,1.052,4.604
		c0.523,1.377,1.16,2.58,1.876,3.533c0.703,0.974,1.545,1.62,2.303,2.01c0.195,0.09,0.38,0.175,0.555,0.255
		c0.176,0.075,0.353,0.096,0.513,0.144c0.322,0.091,0.609,0.156,0.852,0.14C75.746,67.66,76,67.667,76,67.667z"/>
</g>
<g>
	<path d="M296,187c0,0-0.084-0.194-0.242-0.559c-0.079-0.182-0.177-0.406-0.292-0.67c-0.057-0.132-0.118-0.274-0.184-0.426
		c-0.039-0.162-0.08-0.335-0.124-0.518c-0.085-0.373-0.179-0.786-0.281-1.236c-0.024-0.46-0.05-0.957-0.078-1.488
		c0.005-0.533,0.109-1.097,0.17-1.701c0.128-0.588,0.322-1.2,0.536-1.832c0.143-0.302,0.288-0.61,0.437-0.925l0.229-0.478
		l0.297-0.447c0.204-0.3,0.412-0.605,0.622-0.915c0.252-0.276,0.508-0.558,0.767-0.843l0.397-0.429l0.454-0.377
		c0.309-0.249,0.608-0.521,0.939-0.757c0.69-0.429,1.389-0.896,2.188-1.19c0.765-0.382,1.618-0.558,2.464-0.795
		c0.868-0.104,1.754-0.292,2.654-0.203c0.905-0.02,1.793,0.173,2.687,0.346c0.447,0.084,0.863,0.277,1.298,0.413l0.645,0.226
		l0.161,0.058l0.21,0.106l0.28,0.147l1.111,0.603c0.367,0.178,0.758,0.538,1.13,0.803c0.802,0.54,1.37,1.25,1.99,1.91
		c1.101,1.442,1.876,3.099,2.181,4.792c0.266,1.686,0.269,3.372-0.183,4.862l-0.133,0.56l-0.205,0.529
		c-0.138,0.348-0.273,0.69-0.407,1.027c-0.373,0.621-0.681,1.251-1.095,1.773c-0.799,1.069-1.706,1.896-2.587,2.491
		c-0.457,0.275-0.859,0.569-1.271,0.767c-0.422,0.172-0.81,0.331-1.16,0.474c-0.34,0.162-0.67,0.231-0.957,0.287
		c-0.283,0.061-0.524,0.112-0.72,0.154c-0.388,0.083-0.594,0.127-0.594,0.127s0.196-0.08,0.564-0.231
		c0.182-0.075,0.407-0.167,0.671-0.275c0.264-0.105,0.567-0.22,0.873-0.425c0.312-0.185,0.655-0.389,1.03-0.61
		c0.355-0.248,0.705-0.564,1.094-0.87c0.745-0.653,1.471-1.509,2.103-2.527c0.327-0.5,0.542-1.097,0.821-1.668
		c0.094-0.306,0.189-0.617,0.286-0.934l0.15-0.474l0.078-0.499c0.053-0.333,0.105-0.67,0.159-1.012
		c0.002-0.345,0.005-0.693,0.007-1.046c0.024-0.353-0.028-0.704-0.079-1.058c-0.062-0.351-0.055-0.718-0.17-1.062
		c-0.305-1.428-1.056-2.738-1.955-3.934c-0.529-0.534-1.021-1.142-1.636-1.53c-0.316-0.211-0.528-0.466-0.925-0.654l-1.118-0.589
		l-0.278-0.151l-0.069-0.038l-0.035-0.019l-0.017-0.01c-0.068-0.033,0.073,0.035,0.052,0.026l-0.137-0.049l-0.547-0.197
		c-0.367-0.117-0.72-0.297-1.098-0.369c-0.755-0.15-1.504-0.335-2.27-0.322c-0.761-0.087-1.511,0.06-2.259,0.103
		c-0.725,0.181-1.467,0.288-2.136,0.596c-0.706,0.217-1.311,0.615-1.946,0.933c-0.301,0.186-0.574,0.406-0.86,0.604l-0.423,0.301
		l-0.37,0.352c-0.246,0.234-0.488,0.466-0.728,0.693c-0.206,0.258-0.408,0.512-0.608,0.762l-0.304,0.37l-0.238,0.401
		c-0.16,0.268-0.316,0.529-0.47,0.786c-0.244,0.541-0.461,1.078-0.646,1.594c-0.115,0.533-0.28,1.04-0.344,1.528
		c-0.038,0.497-0.074,0.961-0.107,1.391c0.033,0.43,0.063,0.823,0.091,1.18c0.015,0.182,0.029,0.354,0.042,0.515
		c0.039,0.16,0.074,0.311,0.107,0.45c0.066,0.28,0.123,0.519,0.169,0.712C295.951,186.794,296,187,296,187z"/>
</g>
<g>
	<path d="M294.667,133.334c0,0-0.013-0.201-0.037-0.579c-0.018-0.376-0.042-0.939-0.005-1.65c0.068-1.419,0.316-3.466,1.096-5.816
		c0.388-1.174,0.896-2.429,1.617-3.678c0.73-1.237,1.628-2.519,2.887-3.577c1.234-1.056,2.855-1.932,4.663-2.099
		c1.803-0.199,3.609,0.271,5.168,1.023c0.769,0.391,1.522,0.81,2.217,1.423c0.724,0.641,1.263,1.32,1.726,2.068
		c0.916,1.485,1.392,3.108,1.672,4.672c0.522,3.143,0.11,6.161-0.875,8.492c-0.49,1.168-1.143,2.153-1.849,2.901
		c-0.7,0.758-1.463,1.25-2.112,1.571c-0.665,0.299-1.216,0.433-1.591,0.496c-0.376,0.056-0.576,0.085-0.576,0.085
		s0.19-0.065,0.547-0.189c0.354-0.124,0.847-0.373,1.423-0.737c0.561-0.396,1.172-0.957,1.721-1.714
		c0.546-0.759,1.013-1.715,1.359-2.81c0.337-1.1,0.528-2.343,0.59-3.658c0.055-1.317-0.082-2.711-0.365-4.104
		c-0.298-1.392-0.83-2.769-1.582-3.982c-0.372-0.596-0.859-1.161-1.339-1.576c-0.507-0.45-1.179-0.813-1.842-1.143
		c-1.317-0.657-2.739-1.032-4.104-0.899c-1.361,0.118-2.656,0.684-3.738,1.539c-1.084,0.85-1.986,1.916-2.735,3.003
		c-0.732,1.104-1.331,2.229-1.813,3.303c-0.958,2.157-1.483,4.088-1.77,5.455C294.734,132.521,294.667,133.334,294.667,133.334z"/>
</g>
<g>
	<path d="M242.667,107c0,0-0.208-0.129-0.598-0.059c-0.192,0.049-0.437-0.027-0.734-0.028c-0.302,0.026-0.635-0.074-1.014-0.146
		c-0.743-0.172-1.64-0.591-2.44-1.332c-0.808-0.728-1.533-1.747-2.089-2.946c-0.562-1.197-0.999-2.579-1.172-4.104
		c-0.148-1.467-0.18-3.211,0.49-4.867c0.31-0.836,0.822-1.616,1.427-2.312c0.623-0.685,1.371-1.235,2.159-1.691
		c1.597-0.865,3.317-1.375,5.016-1.717l0.64-0.118c0.306-0.058,0.444-0.059,0.675-0.091c0.381-0.062,0.937-0.064,1.397-0.069
		c0.927,0.023,1.837,0.182,2.709,0.423c1.749,0.495,3.278,1.439,4.558,2.529c2.547,2.216,4.023,5.2,4.276,7.867
		c0.153,1.331-0.014,2.574-0.35,3.595c-0.317,1.032-0.828,1.829-1.284,2.425c-0.224,0.305-0.446,0.555-0.66,0.754
		c-0.2,0.211-0.38,0.378-0.538,0.5c-0.305,0.254-0.468,0.389-0.468,0.389s0.136-0.161,0.39-0.464
		c0.132-0.146,0.277-0.34,0.433-0.578c0.167-0.229,0.342-0.5,0.512-0.819c0.348-0.628,0.696-1.434,0.875-2.396
		c0.186-0.96,0.194-2.071-0.045-3.235c-0.241-1.162-0.716-2.376-1.44-3.526c-0.713-1.157-1.69-2.228-2.826-3.156
		c-1.15-0.915-2.51-1.616-3.954-2.023c-0.726-0.188-1.472-0.308-2.222-0.316c-0.376,0.019-0.664-0.003-1.113,0.071
		c-0.186,0.028-0.468,0.055-0.574,0.085l-0.6,0.117c-1.599,0.295-3.143,0.748-4.473,1.443c-0.644,0.373-1.244,0.782-1.742,1.277
		c-0.473,0.511-0.889,1.068-1.153,1.707c-0.561,1.271-0.675,2.674-0.631,4.069c0.07,1.357,0.343,2.654,0.745,3.785
		c0.409,1.13,0.942,2.108,1.576,2.841c0.633,0.733,1.354,1.205,2.011,1.466c0.335,0.112,0.638,0.386,0.912,0.413
		c0.272,0.051,0.514,0.24,0.714,0.24C242.456,107,242.667,107,242.667,107z"/>
</g>
<g>
	<path d="M28.667,139c0,0-0.208-0.129-0.598-0.059c-0.193,0.049-0.437-0.027-0.734-0.028c-0.302,0.026-0.636-0.074-1.015-0.146
		c-0.743-0.172-1.639-0.591-2.44-1.332c-0.808-0.727-1.533-1.746-2.089-2.945c-0.562-1.197-1-2.58-1.172-4.104
		c-0.149-1.468-0.179-3.212,0.49-4.868c0.31-0.836,0.823-1.616,1.426-2.312c0.624-0.685,1.372-1.235,2.16-1.691
		c1.596-0.865,3.316-1.375,5.016-1.717l0.64-0.118c0.305-0.058,0.444-0.059,0.674-0.091c0.381-0.062,0.937-0.064,1.397-0.069
		c0.927,0.023,1.837,0.182,2.709,0.423c1.749,0.495,3.278,1.439,4.558,2.529c2.547,2.216,4.023,5.2,4.276,7.866
		c0.154,1.332-0.014,2.575-0.35,3.596c-0.317,1.032-0.828,1.829-1.284,2.425c-0.224,0.305-0.446,0.555-0.66,0.754
		c-0.2,0.211-0.379,0.378-0.539,0.5C40.83,137.865,40.667,138,40.667,138s0.136-0.161,0.39-0.464
		c0.132-0.146,0.277-0.34,0.433-0.578c0.167-0.229,0.342-0.5,0.511-0.819c0.348-0.628,0.696-1.434,0.875-2.396
		c0.186-0.96,0.194-2.072-0.045-3.235c-0.242-1.162-0.716-2.376-1.44-3.526c-0.713-1.157-1.69-2.228-2.827-3.156
		c-1.15-0.915-2.509-1.616-3.954-2.023c-0.726-0.188-1.472-0.308-2.222-0.316c-0.375,0.019-0.664-0.003-1.113,0.071
		c-0.186,0.028-0.467,0.055-0.574,0.085l-0.6,0.117c-1.599,0.295-3.143,0.748-4.473,1.443c-0.643,0.373-1.244,0.782-1.741,1.277
		c-0.474,0.511-0.889,1.068-1.154,1.707c-0.561,1.271-0.675,2.675-0.631,4.069c0.071,1.357,0.343,2.654,0.746,3.786
		c0.409,1.129,0.942,2.107,1.576,2.84c0.633,0.733,1.355,1.206,2.011,1.466c0.335,0.112,0.637,0.386,0.913,0.413
		c0.272,0.051,0.514,0.24,0.713,0.24C28.456,139,28.667,139,28.667,139z"/>
</g>
<g>
	<path d="M140.667,140.667c0,0-0.099-0.194-0.285-0.559c-0.171-0.373-0.493-0.881-0.76-1.604c-0.145-0.358-0.306-0.755-0.48-1.187
		c-0.141-0.444-0.293-0.924-0.456-1.437c-0.292-1.037-0.561-2.231-0.705-3.567c-0.073-0.667-0.085-1.372-0.113-2.101
		c0.022-0.366,0.044-0.738,0.067-1.116c0.011-0.38,0.06-0.763,0.141-1.149c0.197-1.559,0.788-3.184,1.717-4.681
		c0.905-1.528,2.343-2.791,3.947-3.698l1.242-0.634l1.312-0.447l0.66-0.222l0.675-0.136l1.354-0.265
		c0.57-0.085,0.861-0.099,1.399-0.103l0.764,0.024l0.719,0.093c0.949,0.162,1.871,0.441,2.719,0.842
		c1.706,0.797,3.102,2.014,4.219,3.329c1.133,1.312,1.938,2.788,2.532,4.234c0.583,1.456,0.9,2.917,1.002,4.276
		c0.112,1.358-0.019,2.618-0.297,3.685c-0.27,1.072-0.707,1.936-1.117,2.596c-0.419,0.659-0.838,1.106-1.131,1.393
		c-0.298,0.281-0.457,0.432-0.457,0.432s0.13-0.175,0.375-0.502c0.241-0.325,0.551-0.837,0.864-1.512
		c0.298-0.682,0.577-1.542,0.716-2.554c0.136-1.012,0.115-2.17-0.092-3.4c-0.214-1.229-0.626-2.526-1.23-3.814
		c-0.628-1.275-1.451-2.543-2.486-3.67c-1.027-1.136-2.302-2.084-3.705-2.737c-0.705-0.321-1.453-0.533-2.21-0.653l-0.572-0.067
		l-0.538-0.012c-0.327-0.006-0.911,0.044-1.195,0.101l-1.208,0.221l-0.604,0.109l-0.574,0.188l-1.148,0.37l-1.059,0.526
		c-1.352,0.764-2.608,1.708-3.412,2.979c-0.814,1.239-1.453,2.593-1.72,3.991c-0.212,0.679-0.212,1.386-0.338,2.049
		c-0.034,0.675-0.086,1.333-0.076,1.966c0.031,1.268,0.147,2.437,0.307,3.47c0.095,0.515,0.185,0.997,0.267,1.443
		c0.108,0.44,0.208,0.845,0.298,1.21c0.167,0.737,0.379,1.306,0.489,1.698C140.603,140.458,140.667,140.667,140.667,140.667z"/>
</g>
<g>
	<path d="M83.333,120.334c0,0-0.253,0.027-0.728,0.079c-0.237,0.03-0.528,0.062-0.879,0.058c-0.349,0.007-0.758,0.025-1.205-0.031
		c-0.904-0.048-1.991-0.271-3.201-0.67c-1.206-0.406-2.524-1.053-3.779-2.023c-2.514-1.898-4.879-5.067-5.704-9.057
		c-0.381-1.979-0.431-4.158,0.203-6.243c0.574-2.097,1.822-4.024,3.396-5.542c1.643-1.467,3.468-2.588,5.551-3.274
		c2.056-0.69,4.403-0.673,6.359,0.118c1.976,0.765,3.489,2.138,4.639,3.55c1.152,1.427,1.98,2.932,2.598,4.364
		c1.255,2.866,1.688,5.433,1.929,7.2c0.113,0.89,0.131,1.595,0.146,2.072c0.004,0.478,0.007,0.732,0.007,0.732
		s-0.04-0.251-0.115-0.722c-0.077-0.471-0.227-1.152-0.42-2.014c-0.404-1.716-1.187-4.135-2.58-6.769
		c-0.699-1.312-1.592-2.654-2.698-3.893c-1.117-1.222-2.507-2.3-4.119-2.871c-1.611-0.592-3.422-0.504-5.15,0.067
		c-1.711,0.572-3.416,1.644-4.778,2.894c-1.352,1.281-2.413,2.871-2.917,4.635c-0.543,1.748-0.611,3.615-0.325,5.373
		c0.321,1.752,0.909,3.422,1.758,4.852c0.842,1.431,1.856,2.665,2.945,3.644c1.094,0.973,2.241,1.71,3.331,2.22
		c1.093,0.499,2.111,0.832,2.975,0.973c0.859,0.157,1.547,0.245,2.028,0.25C83.079,120.324,83.333,120.334,83.333,120.334z"/>
</g>
<g>
	<path d="M98,166.667c0,0-0.011-0.228-0.031-0.654c-0.004-0.213-0.021-0.478-0.078-0.777c-0.043-0.301-0.088-0.644-0.196-1.02
		c-0.174-0.756-0.517-1.642-1.104-2.518c-0.587-0.873-1.429-1.728-2.515-2.414c-1.092-0.678-2.406-1.195-3.846-1.522
		c-1.45-0.294-3.024-0.408-4.628-0.271c-1.606,0.128-3.229,0.543-4.737,1.21c-1.497,0.692-2.831,1.706-3.712,3.048
		c-1.006,1.443-1.753,2.967-2.308,4.586c-0.532,1.608-0.887,3.257-0.94,4.866c-0.066,1.605,0.112,3.166,0.558,4.557
		c0.448,1.39,1.136,2.613,1.999,3.563c0.855,0.954,1.836,1.664,2.788,2.148c0.957,0.476,1.854,0.796,2.616,0.984
		c0.762,0.184,1.375,0.312,1.796,0.358c0.422,0.06,0.648,0.091,0.648,0.091s-0.228,0.006-0.655,0.016
		c-0.428,0.016-1.059,0.011-1.861-0.08c-0.802-0.089-1.777-0.277-2.852-0.681c-1.07-0.401-2.241-1.047-3.29-2.044
		c-1.062-0.979-1.986-2.305-2.581-3.858c-0.6-1.546-0.938-3.294-0.915-5.089c0.001-1.796,0.291-3.644,0.858-5.434
		c0.573-1.771,1.426-3.544,2.479-5.093c1.126-1.711,2.83-2.925,4.577-3.704c1.766-0.779,3.627-1.129,5.417-1.212
		c3.581-0.168,6.961,0.845,9.253,2.612c1.153,0.869,1.992,1.938,2.517,2.972c0.54,1.032,0.762,2.03,0.832,2.839
		c0.058,0.402,0.054,0.768,0.042,1.083c0.004,0.315-0.023,0.576-0.055,0.787C98.027,166.441,98,166.667,98,166.667z"/>
</g>
<g>
	<path d="M212,175.334c0,0-0.192-0.089-0.553-0.256c-0.185-0.074-0.398-0.191-0.646-0.354c-0.125-0.079-0.26-0.164-0.403-0.255
		c-0.13-0.11-0.268-0.227-0.413-0.35c-0.563-0.504-1.198-1.255-1.553-2.306c-0.367-1.04-0.456-2.324-0.214-3.647
		c0.225-1.33,0.763-2.695,1.53-4.008c0.765-1.314,1.74-2.604,2.951-3.742c1.201-1.143,2.585-2.209,4.202-2.965
		c1.596-0.767,3.439-1.274,5.351-1.151c0.247,0.025,0.456,0.021,0.733,0.079l0.629,0.12c0.478,0.116,0.941,0.248,1.359,0.405
		c0.853,0.316,1.668,0.696,2.424,1.148c1.523,0.888,2.847,2.009,3.979,3.222c1.143,1.205,2.06,2.55,2.716,3.941
		c0.679,1.379,1.014,2.857,1.008,4.227c-0.013,1.377-0.464,2.612-1.072,3.514c-0.61,0.908-1.323,1.533-1.951,1.952
		c-0.624,0.428-1.153,0.688-1.521,0.844C230.193,175.914,230,176,230,176s0.175-0.119,0.504-0.342
		c0.332-0.211,0.788-0.574,1.323-1.06c0.537-0.483,1.096-1.17,1.54-2.026c0.432-0.864,0.675-1.937,0.585-3.097
		c-0.116-1.158-0.512-2.393-1.188-3.579c-0.666-1.191-1.581-2.337-2.65-3.396c-1.062-1.067-2.332-1.991-3.679-2.775
		c-0.676-0.393-1.392-0.709-2.116-0.968c-0.372-0.135-0.722-0.223-1.062-0.309l-0.615-0.108c-0.136-0.032-0.354-0.027-0.525-0.048
		c-1.464-0.118-3.005,0.257-4.396,0.906c-1.4,0.645-2.705,1.508-3.828,2.509c-1.127,0.995-2.107,2.095-2.88,3.239
		c-0.765,1.146-1.365,2.321-1.676,3.469c-0.312,1.146-0.374,2.248-0.17,3.188c0.201,0.94,0.649,1.693,1.104,2.24
		c0.229,0.277,0.452,0.508,0.669,0.686c0.203,0.195,0.394,0.35,0.562,0.456C211.826,175.213,212,175.334,212,175.334z"/>
</g>
<g>
</g>
<g>
</g>
<g>
</g>
<g>
</g>
<g>
</g>
<g>
</g>
<g>
</g>
<g>
</g>
<g>
</g>
<g>
</g>
<g>
</g>
<g>
</g>
<g>
</g>
<g>
</g>
<g>
</g>
</svg>
