<?xml version="1.0" encoding="utf-8"?>
<!-- Generator: Adobe Illustrator 16.0.0, SVG Export Plug-In . SVG Version: 6.00 Build 0)  -->
<!DOCTYPE svg PUBLIC "-//W3C//DTD SVG 1.1//EN" "http://www.w3.org/Graphics/SVG/1.1/DTD/svg11.dtd">
<svg version="1.1" id="Layer_1" xmlns="http://www.w3.org/2000/svg" xmlns:xlink="http://www.w3.org/1999/xlink" x="0px" y="0px"
	 width="194px" height="187px" viewBox="0 0 194 187" enable-background="new 0 0 194 187" xml:space="preserve">
<path fill-rule="evenodd" clip-rule="evenodd" fill="#FCEE21" d="M46,166c0,0,0-0.472,0-0.625c0,2.57,1.146,2.051,3.135,2.941
	c0.924-1.728-1.653-1.604-2.718-1.566"/>
<path fill-rule="evenodd" clip-rule="evenodd" fill="#FCEE21" d="M52.501,166.666c-2.709,3.957,4.586,0.873,0.666,0"/>
<path fill-rule="evenodd" clip-rule="evenodd" fill="#FCEE21" d="M56.001,170c-1.015,1.398,0.433,2.679,1.836,1.661
	c1.108-0.804-0.278-2.842-1.503-1.495"/>
<path fill-rule="evenodd" clip-rule="evenodd" fill="#FCEE21" d="M44.334,171.666c-0.005,0.281-0.217,1.107-0.179,1.68
	c1.213,0.379,2.531,0.275,3.802,0.654c0.78,0.234,1.558,0.619,2.352,0.641c0.401-1.696-4.207-3.254-5.308-2.641"/>
<path fill-rule="evenodd" clip-rule="evenodd" fill="#FCEE21" d="M72.334,170.5c-0.2-0.102-0.159,0.521-0.146,1.142
	c0.659,0.138,1.443,0.071,1.795-0.476c-0.333-0.2-0.774-0.55-1.149-0.666"/>
<path fill-rule="evenodd" clip-rule="evenodd" fill="#FCEE21" d="M88.834,169.166c0.124-0.116,0.19-0.26,0.196-0.43
	c-0.228,0.664-0.394,1.385-0.341,2.071c0.696,0.036,1.423,0.039,2.119,0.001c0.227-1.396-0.321-2.598-1.975-1.809"/>
<path fill-rule="evenodd" clip-rule="evenodd" fill="#FCEE21" d="M103.501,166.5c0-0.432,0-0.513,0-0.244
	c-0.048,1.666,0.023,2.84,1.949,1.914c-0.426-0.473-0.831-0.874-1.449-1.004"/>
<path fill-rule="evenodd" clip-rule="evenodd" fill="#FCEE21" d="M111.834,169.334c0.199-0.154,0.084-0.292,0.337-0.329
	c0.16,0.526,0.332,1.115,0.484,1.657c0.786,0.012,2.303,0.366,2.482-0.492c0.193-0.924-1.052-1.318-1.637-1.004"/>
<path fill-rule="evenodd" clip-rule="evenodd" fill="#FCEE21" d="M111.001,171.834c-0.329,1.691,2.395,0.943,3.511,1.037
	c0.914-1.881-2.565-1.407-3.511-1.205"/>
<path fill-rule="evenodd" clip-rule="evenodd" fill="#FCEE21" d="M128.667,170.666c0.943-0.372,2.4-0.405,2.142,0.976
	c-1.203,0.128-2.589-0.089-2.642-1.476"/>
<path fill-rule="evenodd" clip-rule="evenodd" fill="#FCEE21" d="M142.834,169.334c0.131,0.867-0.059,1.75,0.614,2.178
	c0.611,0.391,2.713-0.082,3.385-0.174c2.344-0.316,1.846-1.098,1.476-3.146c-1.521-0.198-3.673,0.304-5.142,0.643"/>
<path fill-rule="evenodd" clip-rule="evenodd" fill="#FCEE21" d="M36.375,176.586c1.402,0.131,2.918-0.588,4.328-0.69
	c1.611-0.118,3.138-0.429,4.755-0.503c3.214-0.148,6.382,0.175,9.542,0.511c6.773,0.722,13.799,0.534,20.623,0.511
	c5.458-0.016,10.908-0.51,16.417-0.51c5.842,0,11.744-0.006,17.626-0.342c5.843-0.332,11.811-0.518,17.673-0.17
	c5.95,0.353,11.685-0.227,17.566-0.511c1.49-0.072,5.824-1.263,6.948,0.337c2.121,3.02-7.594,1.643-8.303,1.543
	c-4.012-0.571-7.411-0.169-11.334,0.511c-4.079,0.705-5.694,2.612-9.884,2.395c-8.2-0.426-16.769-0.07-25,0.5
	c-3.798,0.263-9.336-0.563-13.13-0.344c-3.77,0.218-7.601,0.216-11.363,0.17c-2.835-0.034-5.815-0.286-8.549-0.984
	c-2.865-0.729-6.235-0.438-9.15-0.549c-3.023-0.114-6.004-0.2-8.965-0.341c-1.232-0.059-2.432-0.305-3.673-0.379
	c-0.918-0.054-2.498,0.151-3.269-0.473"/>
<path fill-rule="evenodd" clip-rule="evenodd" fill="#0F7EDC" d="M184,24.244c-0.208-4.419-1.124-8.82-5.25-11.312
	c-5.905-3.567-14.189-2.167-20.743-2.487c-9.054-0.442-17.834,0.389-26.817,0.806c-5.78,0.269-11.65,1.234-17.44,1.5
	c-6.626,0.305-13.676-0.614-20.256-1.244c-7.506-0.719-14.947-0.737-22.306,0.487c-5.927,0.986-12.353,1.257-18.375,1.257
	c-7.463,0-14.942-0.111-22.325-0.444L14.75,13c-3.439,2.712-3.112,8.446-3.501,12.501C10.688,31.358,10.5,37.323,10.5,43.25
	c0,11.013-0.25,21.966-0.25,33c0,6.248,0.5,12.257,0.5,18.5c0,6.786-1.057,13.43-0.712,20.207c2.431,0.777,3.725,1.546,6.456,1.543
	c3.402-0.003,6.678,0.361,10.037,0.513c7.516,0.339,15.3,1.662,22.719,1.485c4.297-0.1,8.543-1.502,12.98-1.498
	c4.475,0.004,8.85,0.25,13.296,0.25c10.048,0,19.855,1.25,29.89,1.25c8.723,0,17.447,1.09,26.085-0.056
	c6.207-0.823,12.422-1.437,18.711-1.444c4.094-0.005,8.001,0.891,12.038,1.305c2.764,0.283,5.219-0.23,7.938-0.567
	c4.036-0.501,8.68-0.177,12.524-1.53C183.319,105.163,183,93.844,183,82.8c0-13.274,1.25-26.253,1.25-39.606
	C184.25,36.865,184.296,30.535,184,24.244z M174.5,63.251c0.458,11.063,0.606,21.789,0.5,32.74
	c-0.028,2.905,1.477,11.609-1.488,13.029c-1.67,0.801-6.011,0.215-7.955,0.502c-2.861,0.423-5.897,0.26-8.826,0.26
	c-6.975,0-13.888-0.425-20.786-0.719c-6.646-0.283-13.022,0.917-19.682,0.575C108.616,109.245,101.198,107,93.5,107
	c-8.428,0-16.855,0-25.283,0c-7.884,0-15.699,0.378-23.522,0.379c-5.997,0.001-12.811,1.501-18.7,0.642
	c-1.355-0.198-5.563-0.579-6.5-1.305c-1.152-0.894-1.169-5.186-1.244-6.71c-0.248-5.039-0.05-10.149,0-15.194
	c0.06-5.965,1.059-11.767,0.513-17.736C18.247,61.435,18.5,55.452,18.5,49.738C18.5,39.938,17.256,30,18.25,21h2.5
	c7.251-2,15.287-0.744,22.811-0.75c8.521-0.007,16.977,0.794,25.625,0.501c17.646-0.601,35.409-2.25,53.071-2.25
	c17.784,0,35.32,2.36,52.954,3.289C175.932,35.674,173.929,49.435,174.5,63.251z"/>
<path fill-rule="evenodd" clip-rule="evenodd" fill="#FCEE21" d="M68.25,166.75c-0.031,0.912-1.049,1.678-0.357,2.51
	c0.418,0.504,2.436,0.902,2.885,0.399c0.33-0.37,0.196-1.526-0.149-1.912c-0.6-0.67-1.875-0.52-2.753-0.497"/>
<path fill-rule="evenodd" clip-rule="evenodd" fill="#FCEE21" d="M79.25,167.875c0.571,0.126-0.043,1.365,0.488,1.884
	c0.485,0.474,2.008,0.249,2.62,0.229c0.177-2.181-1.216-2.428-3.108-1.737"/>
<path fill-rule="evenodd" clip-rule="evenodd" fill="#FCEE21" d="M93.625,166.875c0.623,0.044-0.122,0.965,0.267,1.353
	c0.198,0.197,1.912,0.34,2.113,0.129c0.78-0.82-0.896-1.364-1.505-1.356"/>
<path fill-rule="evenodd" clip-rule="evenodd" fill="#FCEE21" d="M101.625,170c0.816-0.139,0.133,1.93,0.132,2.512
	c0.958,0.324,2.081,0.275,3.099,0.219c0.054-0.695,0.162-2.031-0.388-2.58c-0.583-0.584-1.722-0.337-2.468-0.65"/>
<path fill-rule="evenodd" clip-rule="evenodd" fill="#FCEE21" d="M107.75,166.625c-0.183-0.32-0.136,0.262-0.219,0.653
	c-0.062,0.296-0.357,1.198-0.168,1.483c0.273,0.411,2.533,0.747,3.018,0.49c0.391-0.207,1.043-1.497,0.63-1.982
	c-0.25-0.294-2.831-0.196-3.261-0.395"/>
<path fill-rule="evenodd" clip-rule="evenodd" fill="#FCEE21" d="M125.625,166.25c0.189-0.168,0.176-0.351,0.481-0.239
	c0.112,1.206-0.655,2.2,0.479,2.843c0.464,0.262,2.261,0.338,2.692,0.036c0.672-0.468,0.799-1.71,0.228-2.149
	c-0.398-0.305-2.414-0.377-3.005-0.365"/>
<path fill-rule="evenodd" clip-rule="evenodd" fill="#FCEE21" d="M137.375,164.75c0.497,0.811-1.761,2.113-0.005,3.034
	c1.653,0.867,4.078,0.362,5.863,0.828c-0.054-0.924-0.44-2.667-1.318-2.989c-0.624-0.229-2.005,0.127-2.693,0.127
	c-0.849,0-2.21-0.19-2.722-0.25"/>
<path fill-rule="evenodd" clip-rule="evenodd" fill="#FCEE21" d="M146,172.25c-0.085,0.453-0.143,0.908-0.09,1.355
	c1.61,0.402,3.563,1.056,5.217,1.007c-0.002-1.04,0.017-2.076-0.145-3.094c-0.877-0.049-5.729-0.044-5.607-0.394"/>
<path fill-rule="evenodd" clip-rule="evenodd" fill="#FCEE21" d="M67,167.375c0.636,0.079-0.113,1.833,0.392,2.377
	c0.707,0.762,2.803,0.281,3.107-0.402c1.355-3.033-3.479-2.927-3.874-1.475"/>
<path fill-rule="evenodd" clip-rule="evenodd" fill="#FCEE21" d="M65.375,172.25c-0.246,0.176-0.648,0.841-0.587,1.356
	c1.05,0.188,2.936,1.233,2.965-0.132c0.034-1.579-2.256-1.053-3.128-0.725"/>
<g>
	<path fill-rule="evenodd" clip-rule="evenodd" d="M116.819,136.053c-1.398,10.5,1.97,16.358,7.475,20.412
		c1.036,0.764,2.058,1.432,2.012,2.588c-0.08,2.016-3.022,2.543-5.894,2.587c-3.036,0.046-5.629,0.45-7.762,0.575
		c-2.863,0.168-5.374-0.262-7.906-0.432c-2.692-0.181-5.42,0.129-8.193,0.144c-5.072,0.027-10.542,0.166-16.099-0.144
		c-2.089-0.116-5.275-0.332-8.05-0.287c-2.715,0.043-5.971,0.692-6.324-1.438c-0.397-2.393,3.419-3.686,4.6-5.031
		c1.105-1.26,2.125-2.66,2.587-3.881c0.447-1.18,0.385-2.467,0.575-3.737c0.5-3.345,1.797-6.784,1.868-10.925
		c-7.229,0.227-15.358,0.287-23.43,0.287c-2.583,0-5.346,0.344-7.906,0.145c-2.403-0.188-4.811-0.682-7.475-0.575
		c-5.151,0.206-10.35,0.258-15.812,0c-4.68-0.222-8.462,0.349-10.35-2.587c-2.704-4.205-0.299-12.113-1.438-17.394
		c0.357-8.602,0.242-17.042,0.288-25.442c0.022-4.215,0.298-8.324,0-12.505c-0.299-4.194-0.386-8.334-0.145-12.506
		c0.697-12.02-0.729-26.083,0.288-38.522c0.297-3.635-0.768-8.511,0.431-11.644c0.753-1.968,2.766-3.716,5.175-4.168
		c3.517-0.661,7.893,0.437,12.219,0.287c4.289-0.148,8.178-0.582,12.218-0.432c18.339,0.687,37.279,0.889,55.629,0.289
		c12.316-0.404,24.793-0.432,38.092-0.432c3.209,0,6.476-0.139,9.631,0c3.19,0.141,6.312-0.186,9.343,0
		c1.613,0.099,2.688,0.662,4.601,0.719c3.688,0.109,8.662-0.288,13.224-0.431c5.82-0.183,11.191,0.147,12.506,4.312
		c0.564,1.788,0.166,4.454,0,6.899c-0.446,6.573-0.056,15.357,0.144,21.705c0.313,9.993-0.287,19.552-0.287,29.467
		c0,4.963,0.575,9.599,0.575,14.375c0,4.739,0.151,9.507-0.145,14.661c-0.121,2.118-0.384,4.393-0.431,6.756
		c-0.047,2.349,0.235,4.708,0.287,7.188c0.044,2.113-0.431,4.389-0.431,7.043c0,5.213-0.235,9.205-3.45,10.925
		c-3.649,1.953-9.666,1.071-14.949,1.294c-5.881,0.248-10.591,0.685-15.524,0.431C138.573,136.115,127.894,136.39,116.819,136.053z
		 M182.51,90.774c0-8.425-0.967-16.964-0.575-25.587c0.574-12.641,0.144-25.446,0.144-38.523c0-4.383,1.092-9.809-0.719-12.505
		c-5.917-3.43-15.334-1.915-23.286-1.725c-2.745,0.065-5.38-0.55-7.906-0.432c-11.093,0.524-22.787-0.67-33.923-0.144
		c-8.045,0.38-17.057,0.169-25.73,0.431c-17.423,0.526-33.546,0.631-51.172-0.144c-4.184-0.184-7.559,0.288-12.506,0.288
		c-4.38,0-9.288-0.871-12.506,0.144c-5.754,1.813-3.333,8.051-3.881,14.662c-1.027,12.395,0.504,26.297-0.288,38.379
		c-0.275,4.208-0.148,8.396,0.145,12.506c0.888,12.458-0.837,24.777,0,38.092c28.545-1.198,57.605,0,86.39,0
		c10.821,0,21.898,0.365,31.91-0.575c3.641-0.341,7.313-0.182,10.925-0.144c14.297,0.15,28.47,1.181,42.691,0.431
		C181.816,107.856,182.51,99.466,182.51,90.774z M125.73,116.36c-8.336,0.568-16.699,1.197-25.442,0.432
		c-4.344-0.381-9.005,0.034-13.224-0.144c-8.7-0.367-17.708,0-26.593,0c-10.04,0-20.769-0.568-29.755,0
		c-6.815,0.431-13.627-0.328-20.411,0.144c0.291,5.137-1.206,12.958,1.006,16.674c1.659,2.788,7.974,2.3,13.225,2.3
		c5.473,0,10.823-0.338,15.236-0.144c1.797,0.079,3.592,0.528,5.175,0.575c8.182,0.241,15.447-0.287,22.855-0.287
		c2.594-0.001,5.14-0.373,7.618-0.288c1.376,0.048,1.92,0.401,3.019,0.431c2.163,0.059,4.572-0.338,6.899-0.431
		c2.346-0.094,4.558-0.073,7.044,0.144c8.968,0.787,17.413-0.287,25.729-0.287c7.94,0,15.81,0.144,23.431,0.144
		c3.858,0,7.71,0.567,11.355,0.431c3.828-0.143,8.56-0.572,13.225-0.719c4.524-0.142,10.449,0.375,12.937-1.148
		c2.808-1.722,2.731-5.746,2.731-10.494c0-2.681,0.566-5.203,0.431-7.188C163.49,117.994,144.542,115.078,125.73,116.36z
		 M90.37,136.197c-4.981-0.35-10.413,0.98-14.087,0.144c0.089,2.743-0.562,5.086-1.006,7.475c-0.459,2.468-0.501,5.142-1.294,7.474
		c-0.542,1.596-2.318,3.793-3.306,4.744c-0.792,0.764-4.195,2.228-4.025,3.737c0.204,1.807,3.242,1.259,4.744,1.15
		c5.061-0.366,11.627,0.635,16.387,0.719c3.979,0.07,9.456-0.366,13.224-0.575c3.303-0.183,6.588,0.575,9.631,0.575
		c1.65,0,3.52-0.423,5.463-0.575c2.069-0.16,4.211,0.076,6.181-0.144c0.771-0.086,3.458-0.783,3.449-2.013
		c-0.006-1.031-2.539-2.163-3.449-3.019c-4.659-4.374-7.352-10.124-6.181-19.692C108.001,136.873,98.982,136.801,90.37,136.197z"/>
	<path fill-rule="evenodd" clip-rule="evenodd" d="M18.786,19.621c19.179,0.402,38.969,0.144,58.935,0.144
		c3.293,0,6.636-0.149,9.918,0c3.202,0.146,6.333,0.597,9.487,0.431c3.145-0.165,6.297-0.431,9.631-0.431
		c3.119,0,6.264,0.296,9.487,0.431c13.661,0.576,25.979-0.469,38.954,0.144c2.926,0.138,6.312,0,9.918,0
		c2.748,0,8.51-0.542,9.487,0.431c0.535,0.532,0.206-0.073,0.144,0.719c-0.809,10.276-0.144,20.73-0.144,32.054
		c0,3.904-0.53,7.859-0.144,10.924c1.777,14.1,0.18,29.176,0.144,43.698c-6.617,0.555-13.197,0.576-19.836,0.576
		c-3.261,0-6.432-0.576-9.631-0.576c-9.677,0-19.671,1.309-29.468,0.719c-3.192-0.192-6.333-0.67-9.487-0.719
		c-3.286-0.05-6.577,0.144-9.918,0.144c-6.565,0-13.045-0.332-19.692,0.144c-6.524,0.467-13.049-0.282-19.55,0.144
		c-6.522,0.427-12.82-0.06-19.405-0.288c-6.578-0.227-13.258,0.435-19.836-0.431c-0.167-6.623,0.274-13.199-0.288-19.98
		c-0.544-6.569,1.021-12.98,0.575-19.405c-0.451-6.506,0-13.268,0-19.98c0-5.014,0.562-10.118,0.144-15.236
		c-0.119-1.467-0.693-2.853-0.719-4.313c-0.052-3.029,1.142-6.048,0.862-9.056C18.46,19.775,18.616,19.691,18.786,19.621z
		 M18.211,29.108c0.06,1.525,0.605,2.986,0.719,4.456c0.134,1.736,0.078,3.537,0,5.319c-0.31,7.044-0.115,14.052-0.431,20.842
		c-0.16,3.429,0.442,6.781,0.431,10.206c-0.02,6.164-1.222,12.182-0.719,18.4c0.522,6.458,0.282,12.772,0.144,19.117
		c13.218-0.285,26.208,1.165,39.099,0.432c6.473-0.368,12.906,0.405,19.405-0.144c6.488-0.549,12.924-0.144,19.405-0.144
		c3.332,0,6.628-0.223,9.918-0.144c3.118,0.075,6.214,0.53,9.344,0.719c9.786,0.59,19.823-0.719,29.18-0.719
		c3.123,0,6.266,0.512,9.487,0.575c6.537,0.129,13.109-0.2,19.692-0.431c0.04-14.227,1.658-29.065-0.144-42.979
		c-0.434-3.351,0.144-7.119,0.144-10.781c0-11.557-0.799-22.679,0.432-32.773c-6.609-0.068-13.129,0.154-19.693-0.144
		c-12.511-0.568-25.549,0.617-38.811,0c-3.234-0.149-6.348-0.431-9.486-0.431c-3.181,0-6.25,0.289-9.487,0.431
		c-3.153,0.139-6.27-0.302-9.487-0.431C64.05,19.553,41.443,21.387,18.93,20.34C19.407,22.815,18.101,26.268,18.211,29.108z"/>
	<path fill-rule="evenodd" clip-rule="evenodd" d="M104.17,148.414c-0.624,0.811-2.018,0.561-3.019,0.576
		c-5.899,0.09-11.846-0.86-17.824-0.719c0-0.144,0-0.287,0-0.432c0.116-0.027,0.143-0.144,0.287-0.144
		C90.753,147.487,97.438,148.302,104.17,148.414z"/>
	<path fill-rule="evenodd" clip-rule="evenodd" d="M35.892,176.014c0.147-3.467,3.613-4.828,5.462-7.043
		c1.083-1.298,1.938-3.797,3.307-4.312c1.539-0.58,4.492,0.048,6.612,0.287c6.346,0.718,13.708,1.074,20.843,0.719
		c2.96-0.146,5.984-0.723,9.199-0.862c3.131-0.136,6.324-0.286,9.631-0.286c6.405,0,13.08,0.667,19.405,0.43
		c4.595-0.172,9.461-0.707,14.374-1.006c5.064-0.309,10.689,0.133,15.381-0.432c1.218-0.146,4.641-0.162,6.037,0.288
		c1.116,0.359,1.795,1.135,2.731,2.3c0.805,1.002,1.688,1.763,2.443,2.587c1.296,1.416,4.318,3.893,4.168,5.894
		c-0.117,1.569-2.124,2.578-4.024,2.875c-2.433,0.381-4.252-0.39-5.894-0.575c-3.146-0.354-6.839-0.033-10.35-0.144
		c-11.636-0.365-20.72,1.328-32.342,1.15c-15.03-0.229-30.791,0.144-45.854,0.144c-3.731,0-7.51-0.15-11.212-0.432
		C42.376,177.334,38.305,178.367,35.892,176.014z M42.935,176.732c7.27,0.32,15.325,1.214,22.855,0.575
		c4.706-0.399,10.572-0.288,16.243-0.288c9.944,0,19.758,0.264,29.18,0c8.549-0.236,15.213-1.34,24.148-1.006
		c3.587,0.135,7.212-0.195,10.206,0.145c1.802,0.204,5.293,1.508,7.763,0.144c0.488-0.271,1.376-1.2,1.438-1.726
		c0.204-1.762-2.672-4.021-3.882-5.318c-0.715-0.767-1.611-1.48-2.3-2.3c-0.823-0.98-1.328-2.046-2.3-2.442
		c-1.731-0.709-4.602-0.238-6.612-0.145c-4.876,0.227-9.898-0.021-14.949,0.287c-4.75,0.29-9.582,0.783-14.23,1.006
		c-3.186,0.154-6.444-0.287-9.631-0.287c-3.352,0-6.632-0.143-9.918-0.143c-10.812,0-20.259,1.673-31.192,1.005
		c0.258,0.129,0.916,1.093,0.719,2.156c-1.163-0.013-2.459,0.881-3.306,0.287c-0.002-1.198,0.058-2.337,1.149-2.443
		c-4.62-0.077-8.801-1.354-13.512-0.862c-1.529,0.886-1.735,2.444-2.731,3.738c-1.727,2.24-5.168,3.321-5.462,6.898
		C38.492,177.261,40.782,176.638,42.935,176.732z M57.74,168.252c0.848-0.016,1.466-0.26,2.156-0.432
		c0.004-0.338-0.247-0.422-0.144-0.862c-0.623,0-1.246,0-1.868,0C57.644,167.196,57.77,167.802,57.74,168.252z"/>
	<path fill-rule="evenodd" clip-rule="evenodd" d="M142.549,165.234c0.115,0.872,0.88,1.598,0.432,2.586
		c-1.659,0.002-4.743,0.26-6.182-0.431c0.019-0.845,0.391-1.335,1.15-1.438c0.069,0.645-0.508,0.642-0.575,1.149
		c1.759-0.034,3.444,0.006,5.031,0.145c0.151-0.728-0.328-0.823-0.288-1.438c-1.549-0.21-2.874,0.415-4.024,0.144
		C138.74,164.938,141.182,165.06,142.549,165.234z"/>
	<path fill-rule="evenodd" clip-rule="evenodd" d="M147.148,165.377c0.215,0.574,0.215,1.726,0,2.3
		c-0.643,0.268-1.321,0.5-2.3,0.431c0.19-1.474-0.356-1.432-0.575-2.587C144.881,165.108,146.457,164.838,147.148,165.377z
		 M146.286,167.39c0.521-0.103,0.198-1.048,0.288-1.581c-0.438,0.09-1.238-0.186-1.438,0.144
		C145.674,166.276,145.718,167.095,146.286,167.39z"/>
	<path fill-rule="evenodd" clip-rule="evenodd" d="M124.149,168.683c-0.742,0.241-2.164,0.236-2.73-0.144
		c-0.41-0.57-0.326-1.699,0-2.3c0.99-0.261,2.342-1.458,2.875-0.144C124.252,166.964,124.408,168.031,124.149,168.683z
		 M123.287,166.096c-0.34,0.475-1.346,0.283-1.581,0.862c0.324,0.108,0.057,0.808,0.144,1.149c0.575,0,1.15,0,1.726,0
		C123.416,167.5,123.913,166.236,123.287,166.096z"/>
	<path fill-rule="evenodd" clip-rule="evenodd" d="M45.522,165.521c1.221,0.36,3.336-0.174,4.169,0.575
		c0.254,0.818-0.154,1.604-0.432,2.3c-1.846,0.168-3.129-0.226-4.312-0.719C44.842,166.661,45.537,166.445,45.522,165.521z
		 M45.522,167.39c1.083,0.21,1.856,0.731,3.306,0.575c0.286-0.338,0.331-0.915,0.288-1.582
		C47.801,166.602,45.385,165.719,45.522,167.39z"/>
	<path fill-rule="evenodd" clip-rule="evenodd" d="M118.688,165.809c0.837,0.237,0.868,1.816,0.575,2.73
		c-0.795,0.143-1.685,0.367-2.443,0.144c-0.372-0.396-0.613-0.92-0.575-1.725C116.82,166.336,117.74,166.059,118.688,165.809z
		 M116.963,166.958c0,0.336,0,0.671,0,1.007c0.309,0.266,1.053,0.097,1.581,0.143c0.267-0.309,0.097-1.053,0.144-1.58
		C117.935,166.492,117.6,166.877,116.963,166.958z"/>
	<path fill-rule="evenodd" clip-rule="evenodd" d="M130.188,165.952c0.271,0.95,0.426,2.267-0.145,3.019
		c-1.201-0.093-2.477-0.111-3.449-0.432c-0.218-0.729-0.516-1.857-0.288-2.587C127.595,165.99,129.009,165.564,130.188,165.952z
		 M126.881,166.671c0.117,0.457,0.092,1.058,0.287,1.437c0.964-0.101,1.578,0.148,2.444,0.145c0.274-0.38,0.149-1.32,0-1.725
		C128.664,166.537,127.628,166.459,126.881,166.671z"/>
	<path fill-rule="evenodd" clip-rule="evenodd" d="M91.376,166.096c0.37,0.457,0.851,1.2,0.575,1.869
		c-1.021,0.229-2.911,0.179-3.737,0.143c-0.201-0.561,0.204-1.306,0.288-2.012C89.292,166.545,90.162,165.688,91.376,166.096z
		 M88.789,167.533c0.837-0.074,1.608-0.213,2.587-0.144C91.415,166.194,88.686,166.498,88.789,167.533z"/>
	<path fill-rule="evenodd" clip-rule="evenodd" d="M74.127,168.971c0.965,0.007,1.735-0.182,2.588-0.288
		c0.081-0.767-0.334-1.259,0-1.868c-0.775,0.166-1.93,0.616-2.588,0.432c0.361-0.979,2.295-0.996,3.162-1.007
		c0.06,0.774,0.019,1.825,0.145,2.876c-1.086,0.299-2.685,0.705-3.881,0.431c-0.127-0.591-0.411-2.236,0.144-2.588
		C74.43,167.039,74.019,168.266,74.127,168.971z"/>
	<path fill-rule="evenodd" clip-rule="evenodd" d="M104.889,166.383c0.377,0.633,0.776,1.503,0.431,2.444
		c-0.854,0.191-2.362,0.288-3.019-0.145c-0.18-0.688,0.086-1.454,0.287-2.155C103.413,166.286,104.132,165.989,104.889,166.383z
		 M103.02,166.958c-0.055,0.427-0.354,1.042-0.144,1.294c0.623,0,1.245,0,1.868,0c0.06-0.635-0.039-1.111-0.287-1.438
		C103.845,166.729,103.506,166.918,103.02,166.958z"/>
	<path fill-rule="evenodd" clip-rule="evenodd" d="M111.788,166.096c1.104,0.573,2.845,0.509,3.162,1.869
		c-0.194,0.283-0.399,0.559-1.006,0.431c0.858,0.259,1.613,1.173,1.149,2.3c-1.203-0.09-2.521-0.065-3.594-0.287
		c-0.222-0.209-0.126-0.736-0.144-1.15c0.443-0.563,1.617-0.396,2.444-0.575c-0.543-0.396-1.246,0.218-1.869-0.144
		C111.743,167.865,111.784,166.962,111.788,166.096z M112.507,167.965c0.664-0.007,1.422,0.08,1.725-0.288
		c-0.601-0.166-0.894-0.64-1.725-0.575C112.507,167.39,112.507,167.677,112.507,167.965z M111.788,169.546
		c0.083,1.019,1.795,0.409,2.731,0.574c0-0.239,0-0.479,0-0.718C113.62,168.932,112.858,169.72,111.788,169.546z"/>
	<path fill-rule="evenodd" clip-rule="evenodd" d="M86.489,166.383c0.125,0.881,0.24,1.772,0.575,2.444
		c-0.385,0.142-0.758,0.296-1.294,0.288c0.543,0.361,0.774,1.492,0.575,2.155c-1.194,0.175-2.105,0.46-3.307,0.287
		c-0.179-0.491-0.049-1.292-0.287-1.725c-0.875,0.53-2.728,0.798-3.594,0.862c0.06,0.729,0.714,1.227,0.432,1.868
		c-0.572,0.243-1.517,0.113-2.301,0.145c-0.071,0.184,0.047,1.116-0.287,1.438c-0.745,0.144-1.465,0.106-2.587-0.144
		c-0.248-1.063,0.418-1.213,0.719-1.726c0.494-0.062,0.806,0.057,1.149,0.144c0.222-0.736,0.393-1.524,0.575-2.3
		c0.491-0.062,1.293-0.326,1.725,0c0.31-0.456,0.035-1.498,0.288-2.013c0.891,0.08,2.071-0.416,3.162-0.574
		c0.218,0.692,0.336,1.484,0.575,2.156c0.53-0.777,1.412-0.473,2.73-0.574c-0.503-0.312-1.338-0.291-1.868-0.576
		c0.059-0.682,0.001-1.247-0.288-1.581C83.738,166.264,85.581,166.266,86.489,166.383z M84.189,167.102
		c-0.046,0.338-0.228,0.54-0.144,1.006c0.569,0.105,1.551,0.552,2.155,0.145c-0.279-0.247-0.31-0.744-0.287-1.294
		C85.233,166.9,84.925,167.215,84.189,167.102z M79.445,168.683c0,0.479,0,0.959,0,1.438c0.937-0.069,1.361-0.65,2.444-0.574
		c0.044-0.572-0.332-0.723-0.288-1.294C80.822,168.335,80.418,168.792,79.445,168.683z M83.614,170.982
		c0.883,0.07,1.484-0.144,2.156-0.287c0.104-0.439-0.248-0.423-0.144-0.862c-0.671,0-1.342,0-2.013,0
		C83.614,170.217,83.614,170.6,83.614,170.982z M77.002,171.989c0.626-0.093,1.625,0.188,2.013-0.144
		c-0.274-0.301-0.464-0.687-0.575-1.15C77.258,170.425,77.035,171.111,77.002,171.989z M74.846,173.57
		c0.389,0.049,0.937,0.148,1.726,0.144c0.146-0.961-1.026-0.604-1.438-1.006C75.086,173.044,74.961,173.302,74.846,173.57z"/>
	<path fill-rule="evenodd" clip-rule="evenodd" d="M52.278,166.383c0.85,0.156,1.944,0.068,2.731,0.288
		c0.413,0.452,0.359,1.8,0.144,2.444c-1.587,0.053-2.906-0.162-4.169-0.433c0.212-0.89,0.291-1.913,1.15-2.155
		c0.064,0.735-0.394,0.947-0.432,1.58c0.53,0.572,1.955,0.25,2.731,0.575c0.327-0.199,0.054-1,0.144-1.437
		C53.648,167.121,52.355,167.36,52.278,166.383z"/>
	<path fill-rule="evenodd" clip-rule="evenodd" d="M96.12,166.814c0.299,0.49,0.618,1.321,0.287,2.013
		c-0.686,0.359-2.212,0.438-2.875,0c-0.181-0.63-0.181-1.384,0-2.013C94.255,166.554,95.449,166.332,96.12,166.814z M94.107,168.396
		c0.575,0,1.15,0,1.725,0c0-0.335,0-0.671,0-1.006c-0.329-0.341-1.395,0.054-1.725-0.288
		C94.107,167.533,94.107,167.965,94.107,168.396z"/>
	<path fill-rule="evenodd" clip-rule="evenodd" d="M110.207,167.102c0.098,0.525,0.2,1.045,0.144,1.726
		c-0.948,0.274-2.142,0.379-3.019,0c0-0.575,0-1.15,0-1.726C108.104,166.521,109.517,166.329,110.207,167.102z M107.907,168.396
		c0.828,0.091,0.946,0.003,1.868,0c-0.15-0.329-0.091-0.867-0.287-1.149C108.345,166.953,107.553,167.656,107.907,168.396z"/>
	<path fill-rule="evenodd" clip-rule="evenodd" d="M135.074,169.115c-0.781,0.263-2.413,0.236-3.019-0.145
		c-0.243-0.709-0.012-1.329,0.144-2.013C133.71,166.016,135.546,166.844,135.074,169.115z M132.631,167.39c0,0.383,0,0.767,0,1.149
		c0.575,0,1.149,0,1.725,0c-0.018-0.414,0.078-0.94-0.144-1.149C133.808,167.057,133.103,167.345,132.631,167.39z"/>
	<path fill-rule="evenodd" clip-rule="evenodd" d="M101.007,168.827c-0.371,0.929-2.293,0.814-3.162,0.431
		c-0.287-0.752,0.058-1.26,0-2.156C99.495,165.854,101.112,167.558,101.007,168.827z M98.42,168.827c0.623,0,1.246,0,1.868,0
		c0.3-0.44-0.427-0.849-0.431-1.438c-0.432,0-0.862,0-1.294,0C98.309,167.661,98.459,168.339,98.42,168.827z"/>
	<path fill-rule="evenodd" clip-rule="evenodd" d="M70.533,166.958c0.37,0.924,0.868,1.72,1.294,2.588
		c-1.271,0.15-3.004,0.334-4.024,0.287c-0.436-0.512-0.353-2.021-0.144-2.731C68.371,166.767,69.661,166.713,70.533,166.958z
		 M68.233,169.258c0.98,0.069,1.562-0.26,2.444-0.287c-0.089-0.534-0.343-0.903-0.432-1.438c-0.656-0.062-1.583,0.146-2.013-0.144
		C68.233,168.012,68.233,168.635,68.233,169.258z"/>
	<path fill-rule="evenodd" clip-rule="evenodd" d="M65.79,167.533c0.242,0.476,0.562,1.148,0.288,1.725
		c-1.113,0.222-2.912,0.222-4.025,0C61.229,166.381,64.236,167.379,65.79,167.533z M62.628,168.683
		c0.87-0.231,2.701,0.498,2.875-0.431c-0.822-0.232-1.842-0.266-2.731-0.432C62.876,168.261,62.523,168.243,62.628,168.683z"/>
	<path fill-rule="evenodd" clip-rule="evenodd" d="M148.299,167.82c0.275,0.875,0.012,2.288,0.287,3.162
		c-2.841-0.122-3.239-0.052-5.605-0.144c-0.13-0.697-0.435-1.616-0.288-2.156C144.31,169.186,146.224,167.788,148.299,167.82z
		 M143.268,169.402c-0.094,0.524,0.097,0.765,0.287,1.006c1.67-0.194,2.247-0.045,4.169,0c-0.093-0.625,0.188-1.625-0.144-2.013
		C146.247,168.836,144.855,169.217,143.268,169.402z"/>
	<path fill-rule="evenodd" clip-rule="evenodd" d="M140.968,168.539c0.377,0.582,0.793,1.124,0.719,2.156
		c-0.854,0.191-2.363,0.287-3.019-0.143c0.143-0.896-0.312-1.516,0-2.157C139.574,168.252,140.174,168.285,140.968,168.539z
		 M139.243,170.12c0.578-0.092,1.528,0.188,1.868-0.144c-0.234-0.293-0.302-0.752-0.575-1.006
		C139.507,168.703,138.658,169.236,139.243,170.12z"/>
	<path fill-rule="evenodd" clip-rule="evenodd" d="M50.409,169.258c0.283,0.501,0.189,1.669-0.144,2.013
		c-1.854-0.012-4.748-0.106-6.612-0.575C43.716,167.732,48.191,168.853,50.409,169.258z M44.372,170.266
		c1.868,0.095,3.664,0.264,5.463,0.43c0-0.335,0-0.671,0-1.006C47.895,169.891,44.835,168.553,44.372,170.266z"/>
	<path fill-rule="evenodd" clip-rule="evenodd" d="M91.808,171.127c-1.344,0.381-2.78,0.669-4.6,0.576
		c-0.009-1.064,0.432-1.678,0.575-2.588C89.868,168.221,91.764,168.869,91.808,171.127z M88.214,169.546
		c0.015,0.685-0.268,1.073-0.431,1.581c0.979-0.218,2.416,0.021,3.162-0.432c-0.047-0.527-0.165-0.985-0.432-1.293
		C89.592,169.295,89.053,169.569,88.214,169.546z"/>
	<path fill-rule="evenodd" clip-rule="evenodd" d="M125.013,169.402c0.274,0.514,0.563,1.376,0.287,2.012
		c-0.88,0.295-2.187,0.429-3.019,0c-0.059-0.777,0.005-1.432,0.287-1.868C123.31,169.35,124.199,169.125,125.013,169.402z
		 M122.713,170.839c0.429,0.289,1.355,0.081,2.012,0.144c0-0.334,0-0.671,0-1.006C123.756,169.966,122.593,169.762,122.713,170.839z
		"/>
	<path fill-rule="evenodd" clip-rule="evenodd" d="M64.065,171.989c-1.036,0.061-2.222,0.154-3.594-0.144
		c-0.097-0.959,0.249-1.477,0.575-2.013C62.781,168.945,65.142,170.108,64.065,171.989z M61.047,171.414
		c0.967,0.322,1.74-0.034,2.587,0c0-0.287,0-0.575,0-0.861C62.905,169.992,60.751,170.039,61.047,171.414z"/>
	<path fill-rule="evenodd" clip-rule="evenodd" d="M92.813,169.546c0.67,0.435,1.356-0.077,2.444,0
		c0.253,0.616,0.372,1.441,0.144,2.157c-0.883-0.077-2.081,0.164-2.731-0.146C92.252,170.922,92.732,170.141,92.813,169.546z
		 M93.102,170.266c0.046,0.332-0.023,0.551-0.144,0.717c0.288,0.431,1.18,0.258,1.868,0.288c0-0.384,0-0.767,0-1.15
		C94.153,170.133,93.696,170.582,93.102,170.266z"/>
	<path fill-rule="evenodd" clip-rule="evenodd" d="M101.582,172.133c-0.107-0.922,0.168-1.461,0.144-2.3
		c1.021-0.315,2.589-0.156,3.163,0.433C105.597,172.125,103.06,172.934,101.582,172.133z M102.014,171.703
		c0.713,0.369,1.818,0.036,2.3-0.289c0-0.287,0-0.575,0-0.861c-0.43-0.29-1.356-0.082-2.013-0.145
		C102.346,170.979,101.969,171.13,102.014,171.703z"/>
	<path fill-rule="evenodd" clip-rule="evenodd" d="M58.172,169.977c0.337,0.489,0.397,1.654,0.144,2.3
		c-1.365,0.091-2.493,0.036-3.594-0.431c-0.12-0.936,0.483-1.146,0.575-1.869C56.047,170.183,57.478,169.801,58.172,169.977z
		 M55.297,171.558c0.917,0.021,1.728,0.324,2.443,0.146c0-0.385,0-0.769,0-1.15c-0.658,0.058-1.414,0.297-2.012,0
		C55.608,170.911,55.334,171.116,55.297,171.558z"/>
	<path fill-rule="evenodd" clip-rule="evenodd" d="M72.115,169.833c0.681,0.27,1.662,0.018,2.155,0.144
		c0.22,0.644,0.77,0.957,0.719,1.869c-0.14,0.004-0.111,0.176-0.144,0.287c-0.62,0.434-1.855,0.252-2.875,0.287
		c-0.085,0.174,0.393,1.335,0,1.869c-0.584,0.255-1.547,0.145-2.156,0c-0.196-0.626,0.002-0.965,0.145-1.581
		c0.489-0.104,1.046-0.683,1.581-0.288C71.931,171.757,71.929,170.7,72.115,169.833z M72.689,170.695
		c-0.076,0.403-0.211,0.747-0.287,1.15c0.55-0.121,1.154-0.188,1.868-0.143C74.303,170.537,73.736,170.539,72.689,170.695z
		 M70.39,173.714c0.336,0,0.671,0,1.007,0c0-0.239,0-0.479,0-0.719c-0.354,0.021-0.693,0.022-0.863-0.144
		C70.537,173.19,70.286,173.274,70.39,173.714z"/>
	<path fill-rule="evenodd" clip-rule="evenodd" d="M96.551,169.833c1.112-0.106,1.793,0.22,2.588,0.433
		c1.058,1.57-0.941,2.467-2.443,1.867C96.648,171.046,96.899,170.543,96.551,169.833z M97.27,171.703
		c0.556,0.026,1.06,0.004,1.438-0.146c0-0.287,0-0.575,0-0.862c-0.486-0.04-0.825-0.229-1.438-0.143
		C97.27,170.935,97.27,171.318,97.27,171.703z"/>
	<path fill-rule="evenodd" clip-rule="evenodd" d="M119.838,169.977c0.293,0.549,0.029,1.1,0,1.727
		c-0.765,0.223-2.254,0.223-3.019,0c-0.276-0.349-0.091-1.156-0.145-1.727C117.495,170.174,118.333,169.942,119.838,169.977z
		 M117.106,170.982c0.18,0.687,1.717,0.443,2.3,0.288C119.821,169.863,117.431,170.562,117.106,170.982z"/>
	<path fill-rule="evenodd" clip-rule="evenodd" d="M130.475,169.833c0.599,0.41,1.347,1.43,1.294,2.013
		c-0.767,0.967-3.497,0.546-4.888,0.431c-0.258-0.768-0.012-1.553,0.144-2.3C128.079,170.259,129.08,169.646,130.475,169.833z
		 M127.456,170.839c0,0.288,0,0.575,0,0.864c1.197,0,2.396,0,3.594,0c0.034-0.61-0.42-0.732-0.575-1.15
		C129.365,170.545,128.211,170.492,127.456,170.839z"/>
	<path fill-rule="evenodd" clip-rule="evenodd" d="M150.455,171.989c0.258,0.568,0.688,1.362,0.431,2.013
		c-1.662,0.07-3.719,0.85-5.03,0c-0.142-0.578-0.177-1.262-0.145-2.013c1.854-0.206,3.777-0.344,5.463-0.719
		c0.122-0.458-0.126-0.546-0.288-0.718c-0.729-0.251-0.334,0.623-0.862,0.574c-1.082-1.69,2.807-1.254,1.725,0.576
		C151.429,171.909,151.056,172.062,150.455,171.989z M146.286,172.563c0.087,0.345,0.207,0.656,0.144,1.15
		c1.524,0.136,2.608-0.171,3.881-0.287c-0.023-0.407-0.263-0.6-0.287-1.007C148.719,172.409,147.402,172.387,146.286,172.563z"/>
	<path fill-rule="evenodd" clip-rule="evenodd" d="M69.384,170.266c0.846,1.514-0.406,2.275-2.013,2.154
		c0.148,0.589,0.344,0.811,0.144,1.438c-0.824,0.162-2.359,0.285-3.162,0c0.017-0.702,0.298-1.14,0.862-1.294
		c0.085,0.517-0.167,0.696-0.287,1.007c0.737-0.029,1.661,0.129,2.013-0.287c-0.027-0.74-1.202-0.332-1.581-0.72
		c0.076-0.402,0.692-0.265,1.006-0.431C66.143,170.312,68.043,170.066,69.384,170.266z M66.94,171.989
		c0.749-0.065,1.418-0.211,2.012-0.432c0-0.239,0-0.479,0-0.719c-0.772-0.117-1.228,0.241-1.725,0
		C67.22,171.311,66.818,171.389,66.94,171.989z"/>
	<path fill-rule="evenodd" clip-rule="evenodd" d="M106.182,172.133c0.273-0.35,0.099-1.146,0.288-1.58
		c0.632-0.38,1.454-0.479,2.3-0.287c0.26,0.609,0.485,1.327,0.287,2.011c-0.533-0.102-0.617,0.246-1.149,0.144
		c0.04,0.487,0.229,0.826,0.144,1.438c-1.086,0.294-2.995,0.501-4.025,0C103.148,172.326,104.513,171.894,106.182,172.133z
		 M106.9,170.982c0,0.288,0,0.575,0,0.863c0.527,0,1.055,0,1.581,0c0-0.336,0-0.671,0-1.007
		C107.953,170.886,107.209,170.717,106.9,170.982z M107.476,173.139c-0.531-0.618-2.167-0.133-3.162-0.287
		C104.416,174.092,106.983,173.84,107.476,173.139z"/>
	<path fill-rule="evenodd" clip-rule="evenodd" d="M135.361,170.839c0.254,0.647,0.194,1.812-0.144,2.3
		c-0.679,0.303-1.653,0.371-2.3,0c-0.516-0.655,0.028-1.479-0.287-2.3C133.315,170.619,134.677,170.619,135.361,170.839z
		 M133.35,172.708c0.479,0,0.958,0,1.438,0c0-0.432,0-0.862,0-1.294c-0.527,0-1.055,0-1.581,0
		C133.129,171.971,133.462,172.115,133.35,172.708z"/>
	<path fill-rule="evenodd" clip-rule="evenodd" d="M110.638,171.127c0.743,0.296-0.087,1.292,0,1.868
		c1.268,0.403,2.887-0.082,4.169-0.144c0-0.288,0-0.575,0-0.862c-0.817-0.429-2.633,0.142-3.45-0.286
		c0.405-0.975,2.706-0.533,3.737-0.433c0.303,0.537,0.517,1.175,0.288,1.868c-1.313,0.6-3.817,0.895-5.319,0.432
		C110.012,172.513,110.306,171.801,110.638,171.127z"/>
	<path fill-rule="evenodd" clip-rule="evenodd" d="M144.562,171.271c0.208,0.51,0.208,1.503,0,2.013
		c-1.026,0.059-3.707,0.682-3.881-0.575c0.675-0.112,2.197,0.075,3.306,0c0-0.239,0-0.479,0-0.719
		c-1.007-0.382-2.163,0.326-3.306,0.287c-0.371,0.108,0.104,1.063-0.432,1.007c-0.745,0.059-0.386-1.207-0.287-1.58
		C141.576,171.701,143.113,170.971,144.562,171.271z"/>
	<path fill-rule="evenodd" clip-rule="evenodd" d="M49.979,172.133c0.097,0.374,0.054,1.237-0.144,1.725
		c-2.833-0.139-5.464-0.478-8.193-0.719c0.299-0.946,0.997-1.493,2.012-1.725c-0.065,0.605-0.68,0.662-0.862,1.149
		c0.959-0.034,2.134,0.347,3.307,0.432c1.223,0.089,2.65,0.308,3.306-0.287c-1.706-0.306-3.896-0.13-5.175-0.862
		c0-0.143,0-0.288,0-0.432C45.532,171.703,48.312,171.73,49.979,172.133z"/>
	<path fill-rule="evenodd" clip-rule="evenodd" d="M121.275,173.427c-1.166,0.192-3.16,0.268-4.312,0
		c-0.165-0.182-0.289-1.134,0-1.294c0.537-0.01,0.15,0.903,0.574,1.006c1.176-0.022,2.302-0.094,3.163-0.431
		c-0.839-0.569-2.353,0.537-2.875-0.145C118.67,171.712,122.099,171.35,121.275,173.427z"/>
	<path fill-rule="evenodd" clip-rule="evenodd" d="M122.713,172.133c1.783-0.107,3.344,0.01,3.449,1.581
		c-0.892,0.258-1.778,0.521-3.019,0.432C122.732,173.729,122.511,172.728,122.713,172.133z M125.3,173.427
		c0.002-0.913-1.349-0.473-2.156-0.575C123.256,174.07,124.327,173.514,125.3,173.427z"/>
	<path fill-rule="evenodd" clip-rule="evenodd" d="M59.466,172.276c1.521-0.036,2.683,0.288,2.587,1.869
		c-0.92,0.209-2.632,0.573-3.45,0c-0.011-0.634,0.011-1.235,0.432-1.438c0.666,0.011,0.031,0.651,0.144,1.006
		c0.719,0,1.438,0,2.156,0C61.496,172.451,59.362,173.482,59.466,172.276z"/>
	<path fill-rule="evenodd" clip-rule="evenodd" d="M100.863,172.852c0.172,0.402,0.158,0.992,0.144,1.582
		c-6.264,1.035-14.564,0.302-20.843,0.143c-0.46-2.265,0.818-2.16,2.588-2.013C87.919,172.996,95.832,173.236,100.863,172.852z
		 M81.171,172.995c0.09,0.617-0.128,0.927-0.432,1.15c5.425-0.254,11.968,0.28,17.249,0c0.721-0.038,1.884,0.1,2.3-0.575
		C94.157,173.975,87.173,173.76,81.171,172.995z"/>
	<path fill-rule="evenodd" clip-rule="evenodd" d="M145.711,175.295c-0.96,0.892-2.413-0.168-3.594-0.287
		c-2.821-0.286-5.916-0.032-8.911,0.144c-8.667,0.509-17.908-0.129-26.593,0.287c-21.849,1.049-43.832,0.951-64.685-0.144
		c5.063-0.988,10.344,0,15.668,0c16.033,0,32.771,0.419,49.16-0.574c9.303-0.564,19.525,0.004,28.749-0.432
		C139.244,174.112,143.025,174.123,145.711,175.295z"/>
</g>
<g>
	<rect x="26" y="32" fill="none" width="265" height="191"/>
	<path d="M27.303,41.94l0.364-2.746h-1.148v-0.827h1.274l0.267-2.031h-1.205v-0.826h1.331l0.364-2.676h0.812l-0.35,2.676h1.457
		l0.364-2.676h0.826l-0.351,2.676h1.148v0.826h-1.274l-0.252,2.031h1.205v0.827h-1.331L30.44,41.94H29.6l0.364-2.746h-1.456
		l-0.364,2.746H27.303z M30.09,38.368l0.267-2.031h-1.457l-0.266,2.031H30.09z"/>
	<path d="M38.813,41.688c-0.322,0.168-1.037,0.392-1.947,0.392c-2.045,0-3.376-1.387-3.376-3.46c0-2.087,1.429-3.6,3.642-3.6
		c0.729,0,1.373,0.182,1.709,0.35l-0.28,0.953c-0.294-0.168-0.756-0.322-1.429-0.322c-1.555,0-2.395,1.148-2.395,2.563
		c0,1.569,1.008,2.535,2.353,2.535c0.701,0,1.163-0.182,1.514-0.336L38.813,41.688z"/>
	<path d="M46.305,38.494c0,2.508-1.737,3.6-3.376,3.6c-1.835,0-3.25-1.345-3.25-3.488c0-2.27,1.485-3.6,3.362-3.6
		C44.987,35.006,46.305,36.421,46.305,38.494z M40.926,38.564c0,1.484,0.854,2.605,2.059,2.605c1.177,0,2.06-1.106,2.06-2.634
		c0-1.148-0.574-2.605-2.031-2.605S40.926,37.275,40.926,38.564z"/>
	<path d="M47.854,37.275c0-0.798-0.014-1.484-0.056-2.115h1.078l0.042,1.331h0.057c0.308-0.91,1.05-1.485,1.877-1.485
		c0.14,0,0.237,0.014,0.35,0.042v1.163c-0.126-0.028-0.252-0.042-0.42-0.042c-0.868,0-1.485,0.658-1.653,1.583
		c-0.027,0.168-0.056,0.364-0.056,0.574v3.614h-1.219V37.275z"/>
	<path d="M56.116,41.94l-0.098-0.854h-0.042c-0.379,0.532-1.106,1.008-2.073,1.008c-1.373,0-2.073-0.966-2.073-1.947
		c0-1.639,1.457-2.536,4.076-2.521v-0.14c0-0.56-0.154-1.569-1.541-1.569c-0.63,0-1.288,0.196-1.765,0.504l-0.28-0.812
		c0.561-0.364,1.373-0.603,2.228-0.603c2.073,0,2.577,1.415,2.577,2.774v2.535c0,0.588,0.028,1.163,0.112,1.625H56.116z
		 M55.935,38.48c-1.345-0.028-2.872,0.21-2.872,1.526c0,0.799,0.532,1.177,1.163,1.177c0.882,0,1.442-0.56,1.639-1.135
		c0.042-0.126,0.07-0.266,0.07-0.392V38.48z"/>
	<path d="M58.34,41.226l3.067-3.992c0.295-0.364,0.575-0.686,0.883-1.05v-0.028h-3.67v-0.995h5.169l-0.014,0.77l-3.026,3.937
		c-0.28,0.378-0.56,0.714-0.868,1.064v0.028h3.964v0.98H58.34V41.226z"/>
	<path d="M71.141,38.494c0,2.508-1.737,3.6-3.376,3.6c-1.835,0-3.25-1.345-3.25-3.488c0-2.27,1.485-3.6,3.362-3.6
		C69.823,35.006,71.141,36.421,71.141,38.494z M65.762,38.564c0,1.484,0.854,2.605,2.059,2.605c1.177,0,2.06-1.106,2.06-2.634
		c0-1.148-0.574-2.605-2.031-2.605S65.762,37.275,65.762,38.564z"/>
	<path d="M72.69,36.996c0-0.701-0.014-1.275-0.056-1.835h1.093l0.069,1.121h0.028c0.336-0.645,1.12-1.275,2.241-1.275
		c0.938,0,2.396,0.56,2.396,2.886v4.048h-1.233v-3.908c0-1.093-0.406-2.003-1.568-2.003c-0.812,0-1.442,0.574-1.653,1.26
		c-0.056,0.154-0.084,0.364-0.084,0.575v4.076H72.69V36.996z"/>
	<path d="M79.83,37.556c0.994,0,1.134-0.546,1.134-1.036c0-0.393-0.056-0.785-0.111-1.177c-0.057-0.393-0.112-0.771-0.112-1.163
		c0-1.288,0.841-1.835,2.031-1.835h0.294v0.771h-0.252c-0.826,0-1.106,0.448-1.106,1.205c0,0.322,0.042,0.658,0.098,0.994
		c0.056,0.351,0.098,0.687,0.098,1.064c0.015,0.896-0.378,1.345-1.008,1.513v0.028c0.63,0.154,1.022,0.63,1.008,1.527
		c0,0.378-0.042,0.729-0.098,1.065c-0.056,0.35-0.098,0.672-0.098,1.008c0,0.785,0.322,1.218,1.106,1.218h0.252v0.771h-0.294
		c-1.163,0-2.031-0.504-2.031-1.919c0-0.378,0.056-0.771,0.112-1.148c0.056-0.378,0.111-0.756,0.111-1.135
		c0-0.434-0.14-1.036-1.134-1.036V37.556z"/>
	<path d="M33.448,52.161l0.896,3.446c0.196,0.756,0.378,1.457,0.505,2.157h0.042c0.153-0.687,0.378-1.415,0.602-2.144l1.106-3.459
		h1.037l1.051,3.39c0.252,0.812,0.448,1.527,0.602,2.213h0.043c0.111-0.687,0.294-1.401,0.518-2.199l0.967-3.404h1.219l-2.186,6.78
		h-1.12l-1.037-3.236c-0.238-0.756-0.434-1.429-0.603-2.227h-0.027c-0.168,0.812-0.378,1.513-0.616,2.241l-1.093,3.222h-1.121
		l-2.045-6.78H33.448z"/>
	<path d="M44.635,50.255c0.014,0.42-0.294,0.756-0.784,0.756c-0.435,0-0.743-0.336-0.743-0.756c0-0.434,0.322-0.77,0.771-0.77
		C44.341,49.485,44.635,49.821,44.635,50.255z M43.262,58.94v-6.78h1.232v6.78H43.262z"/>
	<path d="M52.394,48.995v8.194c0,0.602,0.014,1.289,0.056,1.751h-1.106l-0.056-1.177h-0.028c-0.378,0.756-1.205,1.331-2.312,1.331
		c-1.639,0-2.899-1.387-2.899-3.446c-0.014-2.255,1.387-3.642,3.04-3.642c1.036,0,1.736,0.49,2.045,1.037h0.028v-4.048H52.394z
		 M51.161,54.92c0-0.154-0.015-0.364-0.057-0.518c-0.182-0.785-0.854-1.429-1.778-1.429c-1.275,0-2.031,1.121-2.031,2.62
		c0,1.373,0.672,2.507,2.003,2.507c0.826,0,1.583-0.546,1.807-1.471c0.042-0.168,0.057-0.336,0.057-0.532V54.92z"/>
	<path d="M55.919,50.213v1.947h1.765v0.938h-1.765v3.656c0,0.841,0.237,1.317,0.924,1.317c0.322,0,0.561-0.042,0.715-0.084
		l0.056,0.924c-0.238,0.098-0.616,0.168-1.093,0.168c-0.574,0-1.036-0.182-1.33-0.518c-0.351-0.364-0.477-0.966-0.477-1.765v-3.698
		h-1.051v-0.938h1.051v-1.625L55.919,50.213z"/>
	<path d="M59.067,48.995H60.3v4.23h0.028c0.196-0.35,0.504-0.659,0.883-0.869c0.364-0.21,0.798-0.35,1.261-0.35
		c0.91,0,2.367,0.56,2.367,2.9v4.034h-1.233v-3.895c0-1.092-0.406-2.017-1.568-2.017c-0.799,0-1.429,0.56-1.653,1.232
		c-0.069,0.168-0.084,0.35-0.084,0.588v4.09h-1.232V48.995z"/>
	<path d="M66.543,53.281c0-0.519,0.35-0.883,0.84-0.883c0.491,0,0.812,0.364,0.827,0.883c0,0.49-0.322,0.868-0.841,0.868
		C66.879,54.149,66.543,53.771,66.543,53.281z M66.543,58.226c0-0.518,0.35-0.882,0.84-0.882c0.491,0,0.812,0.364,0.827,0.882
		c0,0.49-0.322,0.869-0.841,0.869C66.879,59.094,66.543,58.716,66.543,58.226z"/>
	<path d="M72.018,50.984h-0.028l-1.582,0.854L70.169,50.9l1.989-1.065h1.05v9.105h-1.19V50.984z"/>
	<path d="M82.575,54.29c0,3.096-1.148,4.805-3.166,4.805c-1.778,0-2.983-1.667-3.012-4.678c0-3.054,1.317-4.735,3.166-4.735
		C81.482,49.681,82.575,51.39,82.575,54.29z M77.631,54.43c0,2.367,0.729,3.712,1.849,3.712c1.261,0,1.863-1.471,1.863-3.796
		c0-2.241-0.574-3.712-1.85-3.712C78.415,50.634,77.631,51.95,77.631,54.43z"/>
	<path d="M89.757,54.29c0,3.096-1.148,4.805-3.166,4.805c-1.778,0-2.983-1.667-3.012-4.678c0-3.054,1.317-4.735,3.166-4.735
		C88.664,49.681,89.757,51.39,89.757,54.29z M84.812,54.43c0,2.367,0.729,3.712,1.849,3.712c1.261,0,1.863-1.471,1.863-3.796
		c0-2.241-0.574-3.712-1.85-3.712C85.597,50.634,84.812,51.95,84.812,54.43z"/>
	<path d="M94.991,52.398c0,1.919-1.009,2.872-2.185,2.872c-1.135,0-2.115-0.911-2.13-2.746c0-1.821,0.995-2.843,2.199-2.843
		C94.151,49.681,94.991,50.662,94.991,52.398z M91.657,52.482c-0.027,1.163,0.406,2.045,1.177,2.045
		c0.812,0,1.177-0.869,1.177-2.073c0-1.106-0.322-2.031-1.177-2.031C92.063,50.424,91.657,51.334,91.657,52.482z M92.723,59.094
		l5.351-9.413h0.784l-5.351,9.413H92.723z M100.917,56.167c0,1.919-1.009,2.871-2.172,2.871c-1.135,0-2.115-0.91-2.129-2.731
		c0-1.835,0.994-2.857,2.199-2.857C100.09,53.449,100.917,54.43,100.917,56.167z M97.583,56.251
		c-0.015,1.162,0.434,2.045,1.19,2.045c0.812,0,1.177-0.869,1.177-2.073c0-1.106-0.322-2.031-1.177-2.031
		C98.003,54.191,97.583,55.102,97.583,56.251z"/>
	<path d="M104.551,60.663c0.308-0.826,0.687-2.325,0.84-3.348l1.359-0.14c-0.336,1.191-0.953,2.746-1.345,3.404L104.551,60.663z
		 M105.153,53.281c0-0.519,0.35-0.883,0.826-0.883c0.504,0,0.826,0.364,0.826,0.883c0,0.49-0.322,0.868-0.826,0.868
		C105.489,54.149,105.153,53.771,105.153,53.281z"/>
	<path d="M32.958,65.995h1.232v4.23h0.028c0.196-0.35,0.504-0.659,0.883-0.869c0.364-0.21,0.798-0.35,1.261-0.35
		c0.91,0,2.367,0.56,2.367,2.9v4.034h-1.233v-3.895c0-1.092-0.406-2.017-1.568-2.017c-0.799,0-1.429,0.56-1.653,1.232
		c-0.069,0.168-0.084,0.35-0.084,0.588v4.09h-1.232V65.995z"/>
	<path d="M41.414,72.774c0.028,1.667,1.093,2.354,2.325,2.354c0.883,0,1.415-0.154,1.877-0.351l0.21,0.883
		c-0.434,0.196-1.177,0.42-2.255,0.42c-2.087,0-3.334-1.373-3.334-3.418c0-2.045,1.205-3.656,3.18-3.656
		c2.213,0,2.802,1.947,2.802,3.194c0,0.252-0.028,0.448-0.042,0.574H41.414z M45.028,71.892c0.014-0.785-0.322-2.003-1.709-2.003
		c-1.247,0-1.793,1.149-1.892,2.003H45.028z"/>
	<path d="M49.114,67.255c0.014,0.42-0.294,0.756-0.784,0.756c-0.435,0-0.743-0.336-0.743-0.756c0-0.434,0.322-0.77,0.771-0.77
		C48.82,66.485,49.114,66.821,49.114,67.255z M47.741,75.94v-6.78h1.232v6.78H47.741z"/>
	<path d="M56.858,69.161c-0.027,0.49-0.056,1.037-0.056,1.863v3.937c0,1.555-0.309,2.507-0.967,3.096
		c-0.658,0.616-1.61,0.812-2.465,0.812c-0.812,0-1.709-0.196-2.256-0.56l0.309-0.938c0.448,0.28,1.148,0.532,1.989,0.532
		c1.261,0,2.185-0.658,2.185-2.367v-0.757H55.57c-0.378,0.631-1.106,1.135-2.157,1.135c-1.681,0-2.886-1.429-2.886-3.306
		c0-2.297,1.499-3.6,3.054-3.6c1.177,0,1.821,0.617,2.115,1.177h0.028l0.056-1.022H56.858z M55.584,71.836
		c0-0.21-0.014-0.392-0.07-0.561c-0.224-0.714-0.826-1.303-1.723-1.303c-1.177,0-2.017,0.995-2.017,2.563
		c0,1.331,0.672,2.438,2.003,2.438c0.756,0,1.442-0.477,1.709-1.261c0.069-0.21,0.098-0.448,0.098-0.658V71.836z"/>
	<path d="M58.844,65.995h1.232v4.23h0.028c0.196-0.35,0.504-0.659,0.883-0.869c0.364-0.21,0.798-0.35,1.261-0.35
		c0.91,0,2.367,0.56,2.367,2.9v4.034h-1.233v-3.895c0-1.092-0.405-2.017-1.568-2.017c-0.799,0-1.429,0.56-1.653,1.232
		c-0.069,0.168-0.084,0.35-0.084,0.588v4.09h-1.232V65.995z"/>
	<path d="M68.043,67.213v1.947h1.765v0.938h-1.765v3.656c0,0.841,0.237,1.317,0.924,1.317c0.322,0,0.561-0.042,0.715-0.084
		l0.056,0.924c-0.238,0.098-0.616,0.168-1.093,0.168c-0.574,0-1.036-0.182-1.33-0.518c-0.351-0.364-0.477-0.966-0.477-1.765v-3.698
		h-1.051v-0.938h1.051v-1.625L68.043,67.213z"/>
	<path d="M70.897,70.281c0-0.519,0.35-0.883,0.841-0.883c0.49,0,0.812,0.364,0.826,0.883c0,0.49-0.322,0.868-0.841,0.868
		C71.233,71.149,70.897,70.771,70.897,70.281z M70.897,75.226c0-0.518,0.35-0.882,0.841-0.882c0.49,0,0.812,0.364,0.826,0.882
		c0,0.49-0.322,0.869-0.841,0.869C71.233,76.094,70.897,75.716,70.897,75.226z"/>
	<path d="M76.372,67.984h-0.028l-1.582,0.854L74.523,67.9l1.989-1.065h1.05v9.105h-1.19V67.984z"/>
	<path d="M86.93,71.29c0,3.096-1.148,4.805-3.166,4.805c-1.778,0-2.983-1.667-3.012-4.678c0-3.054,1.317-4.735,3.166-4.735
		C85.837,66.681,86.93,68.39,86.93,71.29z M81.985,71.43c0,2.367,0.728,3.712,1.849,3.712c1.261,0,1.863-1.471,1.863-3.796
		c0-2.241-0.574-3.712-1.85-3.712C82.77,67.634,81.985,68.95,81.985,71.43z"/>
	<path d="M94.111,71.29c0,3.096-1.148,4.805-3.166,4.805c-1.778,0-2.983-1.667-3.012-4.678c0-3.054,1.317-4.735,3.166-4.735
		C93.019,66.681,94.111,68.39,94.111,71.29z M89.167,71.43c0,2.367,0.728,3.712,1.849,3.712c1.261,0,1.863-1.471,1.863-3.796
		c0-2.241-0.574-3.712-1.85-3.712C89.951,67.634,89.167,68.95,89.167,71.43z"/>
	<path d="M99.346,69.398c0,1.919-1.009,2.872-2.185,2.872c-1.135,0-2.115-0.911-2.13-2.746c0-1.821,0.995-2.843,2.199-2.843
		C98.506,66.681,99.346,67.662,99.346,69.398z M96.012,69.482c-0.027,1.163,0.406,2.045,1.177,2.045
		c0.812,0,1.177-0.869,1.177-2.073c0-1.106-0.322-2.031-1.177-2.031C96.418,67.424,96.012,68.334,96.012,69.482z M97.076,76.094
		l5.352-9.413h0.784l-5.351,9.413H97.076z M105.271,73.167c0,1.919-1.009,2.871-2.172,2.871c-1.135,0-2.115-0.91-2.129-2.731
		c0-1.835,0.994-2.857,2.199-2.857C104.444,70.449,105.271,71.43,105.271,73.167z M101.938,73.251
		c-0.015,1.162,0.434,2.045,1.19,2.045c0.812,0,1.177-0.869,1.177-2.073c0-1.106-0.322-2.031-1.177-2.031
		C102.357,71.191,101.938,72.102,101.938,73.251z"/>
	<path d="M108.905,77.663c0.308-0.826,0.687-2.325,0.84-3.348l1.359-0.14c-0.336,1.191-0.953,2.746-1.345,3.404L108.905,77.663z
		 M109.508,70.281c0-0.519,0.35-0.883,0.826-0.883c0.504,0,0.826,0.364,0.826,0.883c0,0.49-0.322,0.868-0.826,0.868
		C109.844,71.149,109.508,70.771,109.508,70.281z"/>
	<path d="M37.791,92.688c-0.322,0.168-1.037,0.392-1.947,0.392c-2.045,0-3.376-1.387-3.376-3.46c0-2.087,1.429-3.6,3.642-3.6
		c0.729,0,1.373,0.182,1.709,0.35l-0.279,0.953c-0.295-0.168-0.757-0.322-1.43-0.322c-1.555,0-2.395,1.148-2.395,2.563
		c0,1.569,1.008,2.535,2.353,2.535c0.701,0,1.163-0.182,1.514-0.336L37.791,92.688z"/>
	<path d="M45.281,89.494c0,2.508-1.737,3.6-3.376,3.6c-1.835,0-3.25-1.345-3.25-3.488c0-2.27,1.485-3.6,3.362-3.6
		C43.964,86.006,45.281,87.421,45.281,89.494z M39.902,89.564c0,1.484,0.854,2.605,2.059,2.605c1.177,0,2.06-1.106,2.06-2.634
		c0-1.148-0.574-2.605-2.031-2.605S39.902,88.275,39.902,89.564z"/>
	<path d="M46.831,87.996c0-0.701-0.014-1.275-0.056-1.835h1.093l0.069,1.121h0.028c0.336-0.645,1.12-1.275,2.241-1.275
		c0.938,0,2.396,0.56,2.396,2.886v4.048h-1.233v-3.908c0-1.093-0.406-2.003-1.568-2.003c-0.812,0-1.442,0.574-1.653,1.26
		c-0.056,0.154-0.084,0.364-0.084,0.575v4.076h-1.232V87.996z"/>
	<path d="M56.03,84.213v1.947h1.765v0.938H56.03v3.656c0,0.841,0.237,1.317,0.924,1.317c0.322,0,0.561-0.042,0.715-0.084
		l0.056,0.924c-0.238,0.098-0.616,0.168-1.093,0.168c-0.574,0-1.036-0.182-1.33-0.518c-0.351-0.364-0.477-0.966-0.477-1.765v-3.698
		h-1.051v-0.938h1.051v-1.625L56.03,84.213z"/>
	<path d="M59.781,89.774c0.028,1.667,1.093,2.354,2.325,2.354c0.883,0,1.415-0.154,1.877-0.351l0.21,0.883
		c-0.434,0.196-1.177,0.42-2.255,0.42c-2.087,0-3.334-1.373-3.334-3.418c0-2.045,1.205-3.656,3.18-3.656
		c2.213,0,2.802,1.947,2.802,3.194c0,0.252-0.028,0.448-0.042,0.574H59.781z M63.396,88.892c0.014-0.785-0.322-2.003-1.709-2.003
		c-1.247,0-1.793,1.149-1.892,2.003H63.396z"/>
	<path d="M66.108,87.996c0-0.701-0.014-1.275-0.056-1.835h1.093l0.069,1.121h0.028c0.336-0.645,1.12-1.275,2.241-1.275
		c0.938,0,2.396,0.56,2.396,2.886v4.048h-1.233v-3.908c0-1.093-0.406-2.003-1.568-2.003c-0.812,0-1.442,0.574-1.653,1.26
		c-0.056,0.154-0.084,0.364-0.084,0.575v4.076h-1.232V87.996z"/>
	<path d="M75.307,84.213v1.947h1.765v0.938h-1.765v3.656c0,0.841,0.237,1.317,0.924,1.317c0.322,0,0.561-0.042,0.715-0.084
		l0.056,0.924c-0.238,0.098-0.616,0.168-1.093,0.168c-0.574,0-1.036-0.182-1.33-0.518c-0.351-0.364-0.477-0.966-0.477-1.765v-3.698
		h-1.051v-0.938h1.051v-1.625L75.307,84.213z"/>
	<path d="M78.161,87.281c0-0.519,0.35-0.883,0.841-0.883c0.49,0,0.812,0.364,0.826,0.883c0,0.49-0.322,0.868-0.841,0.868
		C78.497,88.149,78.161,87.771,78.161,87.281z M78.161,92.226c0-0.518,0.35-0.882,0.841-0.882c0.49,0,0.812,0.364,0.826,0.882
		c0,0.49-0.322,0.869-0.841,0.869C78.497,93.094,78.161,92.716,78.161,92.226z"/>
	<path d="M80.807,86.763c0.322-1.177,0.924-2.689,1.316-3.334l0.784-0.084c-0.308,0.827-0.672,2.27-0.826,3.278L80.807,86.763z
		 M82.894,86.763c0.308-1.177,0.925-2.689,1.303-3.334l0.784-0.084c-0.308,0.827-0.672,2.27-0.826,3.278L82.894,86.763z"/>
	<path d="M86.309,87.996c0-0.701-0.014-1.275-0.056-1.835h1.078l0.057,1.092h0.042c0.378-0.644,1.008-1.247,2.129-1.247
		c0.925,0,1.625,0.56,1.919,1.359h0.028c0.21-0.378,0.476-0.672,0.756-0.883c0.406-0.308,0.854-0.476,1.499-0.476
		c0.896,0,2.228,0.588,2.228,2.942v3.992h-1.205v-3.838c0-1.303-0.477-2.087-1.471-2.087c-0.7,0-1.247,0.519-1.457,1.121
		c-0.056,0.168-0.098,0.392-0.098,0.616v4.188h-1.205v-4.062c0-1.079-0.476-1.863-1.414-1.863c-0.771,0-1.331,0.617-1.527,1.233
		c-0.07,0.182-0.098,0.392-0.098,0.603v4.09h-1.205V87.996z"/>
	<path d="M101.738,92.94l-0.098-0.854h-0.042c-0.378,0.532-1.106,1.008-2.073,1.008c-1.373,0-2.073-0.966-2.073-1.947
		c0-1.639,1.457-2.536,4.076-2.521v-0.14c0-0.56-0.154-1.569-1.541-1.569c-0.63,0-1.288,0.196-1.765,0.504l-0.28-0.812
		c0.561-0.364,1.373-0.603,2.228-0.603c2.073,0,2.577,1.415,2.577,2.774v2.535c0,0.588,0.028,1.163,0.112,1.625H101.738z
		 M101.557,89.48c-1.345-0.028-2.872,0.21-2.872,1.526c0,0.799,0.532,1.177,1.163,1.177c0.882,0,1.442-0.56,1.639-1.135
		c0.042-0.126,0.07-0.266,0.07-0.392V89.48z"/>
	<path d="M104.858,92.94v-5.841h-0.952v-0.938h0.952v-0.322c0-0.953,0.21-1.821,0.784-2.367c0.463-0.448,1.079-0.63,1.653-0.63
		c0.435,0,0.812,0.098,1.051,0.196l-0.168,0.952c-0.183-0.084-0.435-0.154-0.785-0.154c-1.05,0-1.316,0.925-1.316,1.961v0.364h1.639
		v0.938h-1.639v5.841H104.858z"/>
	<path d="M109.325,89.774c0.028,1.667,1.093,2.354,2.325,2.354c0.883,0,1.415-0.154,1.877-0.351l0.21,0.883
		c-0.434,0.196-1.177,0.42-2.255,0.42c-2.087,0-3.334-1.373-3.334-3.418c0-2.045,1.205-3.656,3.18-3.656
		c2.213,0,2.802,1.947,2.802,3.194c0,0.252-0.028,0.448-0.042,0.574H109.325z M112.939,88.892c0.014-0.785-0.322-2.003-1.709-2.003
		c-1.247,0-1.793,1.149-1.892,2.003H112.939z"/>
	<path d="M117.193,83.345c-0.322,1.177-0.925,2.676-1.303,3.32l-0.784,0.098c0.294-0.826,0.672-2.283,0.826-3.292L117.193,83.345z
		 M119.267,83.345c-0.322,1.177-0.925,2.676-1.303,3.32l-0.784,0.098c0.308-0.826,0.672-2.283,0.826-3.292L119.267,83.345z"/>
	<path d="M119.824,94.663c0.308-0.826,0.687-2.325,0.84-3.348l1.359-0.14c-0.336,1.191-0.953,2.746-1.345,3.404L119.824,94.663z
		 M120.427,87.281c0-0.519,0.35-0.883,0.826-0.883c0.504,0,0.826,0.364,0.826,0.883c0,0.49-0.322,0.868-0.826,0.868
		C120.763,88.149,120.427,87.771,120.427,87.281z"/>
</g>
<g>
</g>
<g>
</g>
<g>
</g>
<g>
</g>
<g>
</g>
<g>
</g>
<g>
</g>
<g>
</g>
<g>
</g>
<g>
</g>
<g>
</g>
<g>
</g>
<g>
</g>
<g>
</g>
<g>
</g>
</svg>
