<?xml version="1.0" encoding="utf-8"?>
<!-- Generator: Adobe Illustrator 16.0.0, SVG Export Plug-In . SVG Version: 6.00 Build 0)  -->
<!DOCTYPE svg PUBLIC "-//W3C//DTD SVG 1.1//EN" "http://www.w3.org/Graphics/SVG/1.1/DTD/svg11.dtd">
<svg version="1.1" id="Layer_1" xmlns="http://www.w3.org/2000/svg" xmlns:xlink="http://www.w3.org/1999/xlink" x="0px" y="0px"
	 width="311px" height="167px" viewBox="0 0 311 167" enable-background="new 0 0 311 167" xml:space="preserve">
<g>
	<path fill-rule="evenodd" clip-rule="evenodd" fill="#FFFFFF" d="M214.755,19.66c1.011,12.533,2.713,25.244,1.567,36.438
		c-1.074,10.489-8.099,25.133-18.023,30.953c-12.569,7.371-44.681,8.983-66.608,7.054c-8.394-0.739-12.075-3.383-18.024-6.662
		c-2.713-1.495-5.469-2.523-7.052-3.918C90.349,69.203,95.96,39.262,97.602,13.782c0.696,0.104,3.468-1.247,3.526,0.392
		c0.044,1.245-0.925,0.227-1.175,0.784c-1.515,3.375,0.169,10.904,0.391,14.497c0.659,10.596-0.009,21.42,1.177,30.17
		c2.253,16.647,14.138,29.54,33.696,27.818c9.586-0.844,19.709-3.64,29.386-2.742c4.926,0.457,9.459,2.992,13.714,3.135
		c11.138,0.372,21.735-5.133,25.86-12.146c1.333-2.268,2.332-6.209,3.917-9.795C213.207,54.325,215.06,36.908,214.755,19.66z"/>
	<path fill-rule="evenodd" clip-rule="evenodd" fill="#FFFFFF" d="M101.128,16.525c2.024,3.835,1.609,8.847,3.526,12.93
		c2.803,5.967,9.184,15.848,14.497,18.416c4.708,2.275,14.374,3.729,21.55,4.31c19.79,1.602,44.478,1.879,55.638-6.661
		c6.623-5.067,10.911-14.555,13.714-22.334c-1.075,7.544-4.43,16.182-9.795,22.726c-4.797,5.851-11.757,10.571-21.55,11.363
		c-3.602,0.291-7.132,1.591-10.187,1.958c-15.554,1.871-35.486,0.373-46.235-5.877c-2.498-1.452-4.262-4.037-6.661-6.66
		c-4.701-5.143-7.06-7.087-10.578-14.105C102.704,27.916,100.504,23.978,101.128,16.525z"/>
	<path fill-rule="evenodd" clip-rule="evenodd" fill="#FFFFFF" d="M212.404,21.619c0.996,7.456,0.588,20.134-0.784,27.819
		C209.589,40.796,209.799,28.829,212.404,21.619z"/>
	<path fill-rule="evenodd" clip-rule="evenodd" fill="#FFFFFF" d="M101.521,29.063c4.505,5.622,2.423,20.022,2.742,29.386
		c-2.217-2.297-2.036-6.997-2.352-10.971C101.49,42.15,101.544,35.293,101.521,29.063z"/>
	<path fill-rule="evenodd" clip-rule="evenodd" fill="#FFFFFF" d="M208.486,34.156c0.771,8.488,2.463,18.803,0.784,25.469
		C206.055,53.577,207.507,41.693,208.486,34.156z"/>
	<path fill-rule="evenodd" clip-rule="evenodd" fill="#FFFFFF" d="M105.438,37.291c1.836,2.213,2.927,5.171,5.485,6.661
		c-0.632,5.61,0.238,14.089-1.175,19.983C102.865,60.5,106.908,46.141,105.438,37.291z"/>
	<path fill-rule="evenodd" clip-rule="evenodd" fill="#FFFFFF" d="M206.135,39.25c1.298,1.329-0.162,4.222-0.391,8.229
		c-0.557,9.685,5.092,15.475-3.919,16.848C200.092,55.562,201.321,43.973,206.135,39.25z"/>
	<path fill-rule="evenodd" clip-rule="evenodd" fill="#FFFFFF" d="M112.099,45.52c2.936,2.55,5.167,5.805,7.837,8.619
		c-0.827,4.268-1.209,8.979-1.176,14.106c-2.705-0.43-4.607-1.661-6.661-2.743C111.039,59.325,112.655,52.493,112.099,45.52z"/>
	<path fill-rule="evenodd" clip-rule="evenodd" fill="#FFFFFF" d="M199.474,48.262c1.892,4.533-0.595,11.399-0.391,16.849
		c-1.747,1.388-3.493,2.776-7.053,2.351c0.025-4.676,0.426-8.978,0.782-13.322C195.154,52.301,197.785,50.753,199.474,48.262z"/>
	<path fill-rule="evenodd" clip-rule="evenodd" fill="#FFFFFF" d="M121.11,54.923c3.471,0.71,6.095,2.265,9.403,3.135
		c-0.213,4.228-0.22,8.661-1.566,11.754C118.342,73.144,119.789,62.488,121.11,54.923z"/>
	<path fill-rule="evenodd" clip-rule="evenodd" fill="#FFFFFF" d="M190.463,55.707c0.728,2.338,0.797,10.691-0.393,13.713
		c-2.533,0.602-4.852,1.418-8.228,1.176c-0.978-3.734,0.034-8.479,0.392-12.146C185.921,58.479,187.904,56.806,190.463,55.707z"/>
	<path fill-rule="evenodd" clip-rule="evenodd" fill="#FFFFFF" d="M132.081,58.842c3.482,0.697,7.258,1.101,10.972,1.566
		c0.008,3.273-1.07,5.461-0.784,9.012c-3.013,1.206-8.698,1.902-10.971-0.391C130.924,66.494,131.912,62.118,132.081,58.842z"/>
	<path fill-rule="evenodd" clip-rule="evenodd" fill="#FFFFFF" d="M180.666,58.842c-0.718,3.852-0.459,8.682-1.175,12.537
		c-3.593-0.455-7.646-0.451-10.578-1.567c-0.074-3.469,0.274-6.515,0.783-9.403C173.364,59.898,176.468,58.821,180.666,58.842z"/>
	<path fill-rule="evenodd" clip-rule="evenodd" fill="#FFFFFF" d="M103.086,60.017c4.783,3.865,9.359,9.935,17.242,9.403
		c0.933,2.918,8.13,2.905,10.186,1.176c2.803,1.689,9.659,1.612,12.539,0c2.957,5.256,11.592-0.959,15.281,2.743
		c2.875-1.304,7.416-0.942,10.188-2.352c6.92,2.378,18.312,2.399,23.9-1.958c3.795,0.007,6.567-1.008,7.836-3.527
		c2.698,0.893,4.843-0.815,6.661-1.959c0.917,1.585-1.384,3.308-1.567,5.094c-5.888,2.789-12.277,4.799-20.767,5.094
		c-4.492,0.156-12.594,3.279-17.24,0c-9.006,0.129-19.862,1.59-29.386,0.783c-0.787-0.066-2.047-0.857-2.742-0.783
		c-0.27,0.028-2.041,1.595-2.352,1.566c-1.103-0.098-1.704-1.688-2.742-1.958c-4.119-1.073-8.927,1.143-13.714-0.784
		c-0.721-0.29-0.897-1.322-1.567-1.567c-3.27-1.197-6.29-1.185-9.403-3.134C104.729,65.166,103.547,62.953,103.086,60.017z"/>
	<path fill-rule="evenodd" clip-rule="evenodd" fill="#FFFFFF" d="M144.62,60.408c3.75,0.299,7.067,1.03,11.362,0.784
		c0.337,3.995-0.651,6.661-1.567,9.403c-3.073-0.199-4.767,0.979-7.445,1.176c-1.106-0.982-2.327-1.853-3.134-3.135
		C143.39,65.186,144.667,63.46,144.62,60.408z"/>
	<path fill-rule="evenodd" clip-rule="evenodd" fill="#FFFFFF" d="M168.129,60.8c-0.884,2.382,0.066,6.597-0.784,9.012
		c-3.104,0.745-8.162,2.616-10.97,1.176c0.04-3.616,1.676-5.637,1.175-9.795C160.936,60.921,164.321,60.649,168.129,60.8z"/>
	<path fill-rule="evenodd" clip-rule="evenodd" fill="#FFFFFF" d="M106.614,69.812c1.729,0.229,2.746,1.919,1.958,3.527
		C107.612,72.471,107.062,71.192,106.614,69.812z"/>
	<path fill-rule="evenodd" clip-rule="evenodd" fill="#FFFFFF" d="M204.567,70.203c-0.272,1.947-1.06,3.381-1.958,4.703
		c-0.705-0.863-0.343-2.793-0.784-3.919C203.064,71.053,203.135,69.946,204.567,70.203z"/>
	<path fill-rule="evenodd" clip-rule="evenodd" fill="#FFFFFF" d="M110.141,71.771c1.288,0.016,1.949,0.661,3.525,0.392
		c0.939,2.194,1.415,4.854,1.176,8.228c-2.277-0.986-3.456-3.074-5.093-4.701C109.858,74.362,110.371,73.439,110.141,71.771z"/>
	<path fill-rule="evenodd" clip-rule="evenodd" fill="#FFFFFF" d="M200.65,72.555c0.515,1.183,0.268,3.127,0.783,4.311
		c-1.593,1.803-3.073,3.719-5.486,4.701c0-2.48,0-4.963,0-7.443C197.562,73.646,198.793,72.787,200.65,72.555z"/>
	<path fill-rule="evenodd" clip-rule="evenodd" fill="#FFFFFF" d="M116.017,74.123c2.239,0.242,4.754,0.208,6.661,0.783
		c0.415,3.373,1.021,6.553,1.176,10.187c-2.833-0.692-5.326-1.726-7.444-3.134C116.364,79.262,116.619,76.263,116.017,74.123z"/>
	<path fill-rule="evenodd" clip-rule="evenodd" fill="#FFFFFF" d="M193.597,74.123c1.692,1.442,0.297,5.972,1.176,8.228
		c-2.086,1.048-4.057,2.211-7.053,2.351c0-3.135,0-6.27,0-9.404C189.75,74.977,191.682,74.558,193.597,74.123z"/>
	<path fill-rule="evenodd" clip-rule="evenodd" fill="#FFFFFF" d="M131.69,86.268c-2.449,0.099-4.504-0.197-6.269-0.783
		c-0.091-3.828-1.031-6.807-1.177-10.578C132.585,72.129,132.888,79.881,131.69,86.268z"/>
	<path fill-rule="evenodd" clip-rule="evenodd" fill="#FFFFFF" d="M186.545,85.093c-2.49,0.122-4.127,1.099-7.054,0.783
		c0.204-3.468-0.224-6.306-0.393-9.403c2.019-0.727,4.386-1.102,6.661-1.566C187.482,76.842,186.1,81.881,186.545,85.093z"/>
	<path fill-rule="evenodd" clip-rule="evenodd" fill="#FFFFFF" d="M155.199,76.473c-0.374,2.238-0.224,5.001-0.784,7.053
		c-3.362-1.089-6.925,0.518-10.188,0.783c0.075-2.947-0.685-5.061-0.392-8.228C147.656,75.709,152.307,74.744,155.199,76.473z"/>
	<path fill-rule="evenodd" clip-rule="evenodd" fill="#FFFFFF" d="M167.345,75.297c0.853,2.022,0.177,5.571,0.392,8.229
		c-3.727-0.462-7.366,0.339-11.361-0.392c0-2.221,0-4.44,0-6.661C159.079,75.129,163.2,75.201,167.345,75.297z"/>
	<path fill-rule="evenodd" clip-rule="evenodd" fill="#FFFFFF" d="M142.269,75.689c-0.096,3.23,0.69,5.578,0.393,9.012
		c-3.626-0.1-5.643,1.41-9.013,1.566c0.222-3.484-0.689-5.839-0.392-9.402C134.63,74.842,139.164,75.98,142.269,75.689z"/>
	<path fill-rule="evenodd" clip-rule="evenodd" fill="#FFFFFF" d="M177.532,76.473c0.292,2.9,1.331,6.949,0.392,9.795
		c-3.022-0.633-5.464-1.85-9.011-1.959c0.29-2.451,0.533-4.951,0.391-7.836C172.386,75.949,174.137,76.512,177.532,76.473z"/>
	<path fill-rule="evenodd" clip-rule="evenodd" fill="#FFFFFF" d="M212.404,14.174c0.914,0,1.829,0,2.742,0c0,0.653,0,1.306,0,1.959
		c-1.3,0.528-3.339,0.318-3.134,2.352C211.072,18.866,212.617,15.609,212.404,14.174z"/>
	<path fill-rule="evenodd" clip-rule="evenodd" d="M105.83,11.823c0.363,2.061-2.819,0.577-3.526,1.567
		c1.122,9.653,4.124,17.07,9.012,23.9c2.813,3.933,5.419,8.173,9.403,9.796c9.075,3.696,31.295,4.543,45.059,3.918
		c12.463-0.565,21.904-0.986,29.779-7.053c8.963-6.906,12.719-18.196,15.279-29.778c-0.637-1.191-4.343,0.687-3.917-1.567
		c3.495-0.317,9.768-0.137,13.714,0.392c0.425,2.254-3.281,0.376-3.919,1.567c-0.866,11.63,2.428,27.312,1.177,40.749
		c-1.107,11.885-9.424,27.197-18.024,32.521c-10.019,6.201-25.46,7.484-41.141,7.443c-12.196-0.03-27.437,2.042-38.397-1.958
		c-1.91-0.696-3.97-2.438-5.878-3.526c-2.05-1.168-4.545-2.012-6.269-3.135c-9.865-6.424-13.48-20.494-14.498-34.479
		c-0.895-12.288,2.666-25.086,2.352-38.007c-1.149-1.203-4.937,0.235-5.094-1.959C95.599,12.425,102.049,11.607,105.83,11.823z
		 M208.094,65.895c-1.585,3.586-2.584,7.527-3.917,9.795c-4.125,7.014-14.723,12.519-25.86,12.146
		c-4.255-0.143-8.788-2.678-13.714-3.135c-9.677-0.897-19.8,1.898-29.386,2.742c-19.559,1.722-31.443-11.171-33.696-27.818
		c-1.186-8.75-0.518-19.574-1.177-30.17c-0.222-3.593-1.905-11.123-0.391-14.497c0.25-0.558,1.219,0.461,1.175-0.784
		c-0.059-1.639-2.83-0.288-3.526-0.392c-1.642,25.479-7.253,55.421,9.013,69.743c1.583,1.395,4.339,2.423,7.052,3.918
		c5.949,3.279,9.631,5.923,18.024,6.662c21.928,1.93,54.039,0.317,66.608-7.054c9.925-5.82,16.949-20.464,18.023-30.953
		c1.146-11.194-0.557-23.905-1.567-36.438C215.06,36.908,213.207,54.325,208.094,65.895z M212.013,18.484
		c-0.205-2.034,1.834-1.823,3.134-2.352c0-0.653,0-1.306,0-1.959c-0.913,0-1.828,0-2.742,0
		C212.617,15.609,211.072,18.866,212.013,18.484z M105.047,32.59c3.519,7.019,5.877,8.963,10.578,14.105
		c2.399,2.623,4.163,5.208,6.661,6.66c10.749,6.25,30.682,7.748,46.235,5.877c3.055-0.367,6.585-1.667,10.187-1.958
		c9.793-0.792,16.753-5.513,21.55-11.363c5.365-6.544,8.72-15.182,9.795-22.726c-2.803,7.779-7.091,17.267-13.714,22.334
		c-11.16,8.54-35.848,8.263-55.638,6.661c-7.176-0.581-16.842-2.034-21.55-4.31c-5.313-2.568-11.694-12.449-14.497-18.416
		c-1.917-4.083-1.502-9.095-3.526-12.93C100.504,23.978,102.704,27.916,105.047,32.59z M211.62,49.438
		c1.372-7.685,1.78-20.363,0.784-27.819C209.799,28.829,209.589,40.796,211.62,49.438z M101.911,47.479
		c0.315,3.974,0.135,8.674,2.352,10.971c-0.319-9.364,1.763-23.765-2.742-29.386C101.544,35.293,101.49,42.15,101.911,47.479z
		 M209.271,59.625c1.679-6.666-0.013-16.98-0.784-25.469C207.507,41.693,206.055,53.577,209.271,59.625z M109.749,63.936
		c1.413-5.895,0.543-14.373,1.175-19.983c-2.559-1.49-3.649-4.448-5.485-6.661C106.908,46.141,102.865,60.5,109.749,63.936z
		 M201.825,64.326c9.011-1.373,3.362-7.163,3.919-16.848c0.229-4.007,1.688-6.899,0.391-8.229
		C201.321,43.973,200.092,55.562,201.825,64.326z M112.099,65.502c2.054,1.082,3.956,2.313,6.661,2.743
		c-0.033-5.128,0.349-9.839,1.176-14.106c-2.67-2.814-4.901-6.069-7.837-8.619C112.655,52.493,111.039,59.325,112.099,65.502z
		 M192.812,54.139c-0.356,4.345-0.757,8.646-0.782,13.322c3.56,0.426,5.306-0.963,7.053-2.351
		c-0.204-5.449,2.282-12.315,0.391-16.849C197.785,50.753,195.154,52.301,192.812,54.139z M128.947,69.812
		c1.347-3.093,1.354-7.526,1.566-11.754c-3.309-0.87-5.933-2.425-9.403-3.135C119.789,62.488,118.342,73.144,128.947,69.812z
		 M182.234,58.449c-0.357,3.668-1.369,8.412-0.392,12.146c3.376,0.242,5.694-0.574,8.228-1.176
		c1.189-3.021,1.12-11.375,0.393-13.713C187.904,56.806,185.921,58.479,182.234,58.449z M131.298,69.029
		c2.272,2.293,7.958,1.597,10.971,0.391c-0.286-3.551,0.792-5.738,0.784-9.012c-3.714-0.466-7.489-0.869-10.972-1.566
		C131.912,62.118,130.924,66.494,131.298,69.029z M169.696,60.408c-0.509,2.889-0.857,5.935-0.783,9.403
		c2.933,1.116,6.985,1.112,10.578,1.567c0.716-3.855,0.457-8.686,1.175-12.537C176.468,58.821,173.364,59.898,169.696,60.408z
		 M105.438,67.854c3.113,1.949,6.134,1.937,9.403,3.134c0.67,0.245,0.847,1.277,1.567,1.567c4.787,1.927,9.595-0.289,13.714,0.784
		c1.038,0.27,1.64,1.86,2.742,1.958c0.311,0.028,2.082-1.538,2.352-1.566c0.695-0.074,1.955,0.717,2.742,0.783
		c9.523,0.807,20.38-0.654,29.386-0.783c4.646,3.279,12.748,0.156,17.24,0c8.489-0.295,14.879-2.305,20.767-5.094
		c0.184-1.786,2.484-3.509,1.567-5.094c-1.818,1.144-3.963,2.852-6.661,1.959c-1.269,2.52-4.041,3.534-7.836,3.527
		c-5.589,4.357-16.98,4.336-23.9,1.958c-2.771,1.409-7.312,1.048-10.188,2.352c-3.689-3.702-12.324,2.513-15.281-2.743
		c-2.88,1.612-9.736,1.689-12.539,0c-2.056,1.729-9.253,1.742-10.186-1.176c-7.883,0.531-12.459-5.538-17.242-9.403
		C103.547,62.953,104.729,65.166,105.438,67.854z M143.836,68.637c0.807,1.282,2.027,2.152,3.134,3.135
		c2.679-0.197,4.372-1.375,7.445-1.176c0.916-2.742,1.904-5.408,1.567-9.403c-4.295,0.246-7.612-0.485-11.362-0.784
		C144.667,63.46,143.39,65.186,143.836,68.637z M157.55,61.192c0.501,4.158-1.135,6.179-1.175,9.795
		c2.808,1.44,7.865-0.431,10.97-1.176c0.851-2.415-0.1-6.63,0.784-9.012C164.321,60.649,160.936,60.921,157.55,61.192z
		 M108.572,73.339c0.788-1.608-0.229-3.299-1.958-3.527C107.062,71.192,107.612,72.471,108.572,73.339z M201.825,70.987
		c0.441,1.126,0.079,3.056,0.784,3.919c0.898-1.322,1.686-2.756,1.958-4.703C203.135,69.946,203.064,71.053,201.825,70.987z
		 M109.749,75.689c1.637,1.627,2.815,3.715,5.093,4.701c0.239-3.373-0.236-6.033-1.176-8.228c-1.576,0.27-2.237-0.376-3.525-0.392
		C110.371,73.439,109.858,74.362,109.749,75.689z M195.947,74.123c0,2.48,0,4.963,0,7.443c2.413-0.982,3.894-2.898,5.486-4.701
		c-0.516-1.184-0.269-3.128-0.783-4.311C198.793,72.787,197.562,73.646,195.947,74.123z M116.409,81.959
		c2.118,1.408,4.611,2.441,7.444,3.134c-0.154-3.634-0.761-6.813-1.176-10.187c-1.907-0.575-4.422-0.541-6.661-0.783
		C116.619,76.263,116.364,79.262,116.409,81.959z M187.72,75.297c0,3.135,0,6.27,0,9.404c2.996-0.14,4.967-1.303,7.053-2.351
		c-0.879-2.256,0.517-6.785-1.176-8.228C191.682,74.558,189.75,74.977,187.72,75.297z M124.245,74.906
		c0.146,3.771,1.086,6.75,1.177,10.578c1.765,0.586,3.819,0.882,6.269,0.783C132.888,79.881,132.585,72.129,124.245,74.906z
		 M185.76,74.906c-2.275,0.465-4.643,0.84-6.661,1.566c0.169,3.098,0.597,5.936,0.393,9.403c2.927,0.315,4.563-0.661,7.054-0.783
		C186.1,81.881,187.482,76.842,185.76,74.906z M143.836,76.081c-0.293,3.167,0.467,5.28,0.392,8.228
		c3.263-0.266,6.825-1.872,10.188-0.783c0.561-2.052,0.41-4.814,0.784-7.053C152.307,74.744,147.656,75.709,143.836,76.081z
		 M156.375,76.473c0,2.221,0,4.44,0,6.661c3.995,0.73,7.635-0.07,11.361,0.392c-0.215-2.657,0.461-6.206-0.392-8.229
		C163.2,75.201,159.079,75.129,156.375,76.473z M133.257,76.865c-0.298,3.563,0.613,5.918,0.392,9.402
		c3.37-0.156,5.387-1.666,9.013-1.566c0.298-3.434-0.488-5.781-0.393-9.012C139.164,75.98,134.63,74.842,133.257,76.865z
		 M169.304,76.473c0.143,2.885-0.101,5.385-0.391,7.836c3.547,0.109,5.988,1.326,9.011,1.959c0.939-2.846-0.1-6.895-0.392-9.795
		C174.137,76.512,172.386,75.949,169.304,76.473z"/>
</g>
<g>
	<path fill-rule="evenodd" clip-rule="evenodd" fill="#FCEE21" d="M22.524,38.794c0.665-3.124,0.809-7.258,1.465-9.868
		c0.337,1.305,4.374,8.613,5.259,9.43c0.742,0.687,6.916-0.003,10.192,0.001c-1.616,1.3-5.167,3.486-8.161,4.861
		c1.111,1.425,3.471,5.689,5.171,7.769c-2.162-1.396-9.92-5.484-9.92-5.484s-5.559,4.921-8.359,6.077
		c1.684-2.316,2.077-6.539,3.876-8.709c-3.828-1.287-7.372-2.057-11.725-4.549C13.599,38.402,22.524,38.794,22.524,38.794z"/>
	<g>
		<path d="M25.246,26.555c0.336,1.305,4.374,8.612,5.259,9.43c0.247,0.229,1.097,0.312,2.241,0.312c2.282,0,5.736-0.296,7.923-0.296
			c0.009,0,0.019,0,0.028,0c-1.616,1-5.168,3.479-8.161,4.854c1.111,1.425,3.471,5.686,5.17,7.766
			c-2.161-1.396-9.919-5.486-9.919-5.486s-5.559,4.921-8.359,6.076c1.684-2.315,2.077-6.54,3.876-8.709
			c-3.828-1.287-7.372-2.058-11.725-4.549c3.276,0.08,12.202,0.471,12.202,0.471C24.446,33.299,24.59,29.165,25.246,26.555
			 M25.219,21.051l-1.303,5.169c-0.363,1.442-0.568,3.228-0.785,5.118c-0.142,1.235-0.287,2.501-0.479,3.662
			c-2.548-0.108-8.505-0.358-11.04-0.42L6.19,34.447l4.708,2.694c3.5,2.004,6.519,2.942,9.438,3.85
			c0.292,0.091,0.583,0.182,0.876,0.273c-0.507,1.029-0.886,2.179-1.257,3.304c-0.47,1.424-0.955,2.896-1.636,3.833l-2.854,3.925
			l4.486-1.851c2.406-0.992,6.364-4.266,8.026-5.692c2.05,1.09,7.311,3.903,8.985,4.984l7.321,4.728l-5.515-6.748
			c-0.919-1.124-2.084-2.993-3.113-4.643c-0.39-0.625-0.754-1.209-1.084-1.721c2.768-1.411,5.583-3.201,6.986-4.328l3.032-2.437
			l-3.891-0.005c-1.147,0-2.588,0.077-3.982,0.151c-1.403,0.074-2.854,0.151-3.97,0.151c-0.827,0-1.237-0.044-1.425-0.075
			c-0.958-1.228-4.47-7.576-4.747-8.629L25.219,21.051L25.219,21.051z"/>
	</g>
</g>
<g>
	<path fill-rule="evenodd" clip-rule="evenodd" fill="#0F7EDC" d="M58.88,133.348c1.558-0.964,3.365-2.516,4.701-3.283
		c-0.439,0.635-2.164,4.988-2.208,5.639c-0.038,0.545,2.372,2.596,3.494,3.828c-1.107-0.102-3.255-0.586-4.866-1.177
		c-0.226,0.971-1.23,3.513-1.532,4.959c-0.147-1.354-1.068-5.854-1.068-5.854s-4-0.177-5.452-0.779
		c1.562-0.268,3.494-1.76,5.034-1.928c-0.766-1.938-1.652-3.567-2.085-6.17C55.986,129.844,58.88,133.348,58.88,133.348z"/>
	<g>
		<path d="M56.338,128.133c1.088,1.262,3.983,4.766,3.983,4.766c1.556-0.963,3.364-2.516,4.7-3.283
			c-0.44,0.634-2.165,4.988-2.209,5.639c-0.037,0.545,2.372,2.596,3.494,3.828c-1.107-0.102-3.255-0.587-4.866-1.177
			c-0.226,0.971-1.23,3.513-1.532,4.959c-0.147-1.354-1.067-5.855-1.067-5.855s-4-0.176-5.452-0.778
			c1.562-0.268,3.493-1.76,5.034-1.928C57.656,132.365,56.77,130.735,56.338,128.133 M55.173,125.645l0.433,2.609
			c0.35,2.107,0.989,3.612,1.607,5.068c0.064,0.151,0.128,0.302,0.192,0.454c-0.64,0.207-1.29,0.526-1.925,0.839
			c-0.773,0.38-1.573,0.773-2.216,0.884l-2.531,0.433l2.372,0.984c1.232,0.512,3.909,0.729,5.123,0.803
			c0.25,1.244,0.832,4.202,0.943,5.226l0.508,4.659l0.957-4.588c0.164-0.786,0.561-1.953,0.911-2.982
			c0.146-0.43,0.281-0.827,0.392-1.174c1.57,0.503,3.33,0.873,4.301,0.962l1.904,0.175l-1.287-1.414
			c-0.387-0.426-0.921-0.943-1.437-1.444c-0.647-0.628-1.602-1.555-1.845-1.939c0.204-0.865,1.702-4.647,2.058-5.159l1.886-2.714
			l-2.866,1.646c-0.731,0.42-1.558,1.035-2.434,1.686c-0.582,0.432-1.178,0.875-1.746,1.259c-0.846-1.022-2.741-3.305-3.571-4.268
			L55.173,125.645L55.173,125.645z"/>
	</g>
</g>
<g>
	<path fill-rule="evenodd" clip-rule="evenodd" fill="#FCEE21" d="M163.039,142.922c2.113,0.496,4.931,0.709,6.695,1.187
		c-0.9,0.162-5.997,2.37-6.579,2.878c-0.489,0.426-0.186,4.166-0.278,6.141c-0.843-1.015-2.238-3.221-3.096-5.066
		c-1.002,0.625-3.977,1.915-5.442,2.875c1.011-1.259,4.013-5.807,4.013-5.807s-3.207-3.501-3.921-5.225
		c1.535,1.086,4.407,1.453,5.839,2.604c0.982-2.266,1.604-4.377,3.424-6.923C163.549,137.557,163.039,142.922,163.039,142.922z"/>
	<g>
		<path d="M165.277,136.415c-0.145,1.972-0.653,7.337-0.653,7.337c2.113,0.497,4.931,0.71,6.694,1.186
			c-0.899,0.163-5.998,2.37-6.579,2.879c-0.487,0.426-0.187,4.166-0.278,6.141c-0.843-1.014-2.238-3.222-3.095-5.066
			c-1.003,0.625-3.978,1.915-5.442,2.875c1.011-1.259,4.013-5.807,4.013-5.807s-3.208-3.501-3.921-5.224
			c1.535,1.086,4.406,1.452,5.838,2.604C162.836,141.071,163.458,138.961,165.277,136.415 M166.385,133.352l-1.824,2.552
			c-1.47,2.058-2.195,3.854-2.896,5.591c-0.074,0.183-0.147,0.366-0.223,0.549c-0.71-0.362-1.523-0.639-2.318-0.909
			c-0.967-0.33-1.967-0.67-2.599-1.117l-2.486-1.759l1.165,2.814c0.605,1.462,2.668,3.888,3.624,4.968
			c-0.834,1.253-2.824,4.222-3.589,5.175l-3.48,4.334l4.649-3.047c0.796-0.521,2.108-1.168,3.266-1.739
			c0.481-0.237,0.928-0.457,1.311-0.655c0.894,1.735,2.06,3.521,2.801,4.412l1.451,1.746l0.105-2.268
			c0.031-0.682,0.019-1.562,0.005-2.415c-0.016-1.07-0.039-2.648,0.079-3.176c0.896-0.554,5.322-2.472,6.051-2.604l3.849-0.698
			l-3.776-1.018c-0.965-0.261-2.172-0.438-3.45-0.626c-0.852-0.125-1.725-0.253-2.523-0.408c0.146-1.566,0.471-5.069,0.581-6.574
			L166.385,133.352L166.385,133.352z"/>
	</g>
</g>
<g>
	<path fill-rule="evenodd" clip-rule="evenodd" fill="#0F7EDC" d="M271.645,131.246c0.583,2.579,1.852,5.777,2.269,7.963
		c-0.656-0.9-5.79-5.302-6.656-5.668c-0.728-0.309-4.659,2.017-6.87,2.968c0.661-1.464,2.332-4.166,3.896-6.089
		c-1.218-0.765-4.215-3.332-6.048-4.426c1.917,0.436,8.496,1.299,8.496,1.299s2.122-5.377,3.629-7.077
		c-0.371,2.259,0.759,5.599,0.262,7.778c3.004-0.133,5.647-0.576,9.403,0.059C277.789,128.945,271.645,131.246,271.645,131.246z"/>
	<g>
		<path d="M270.295,122.394c-0.371,2.259,0.759,5.598,0.262,7.778c1.82-0.081,3.508-0.276,5.391-0.276
			c1.225,0,2.531,0.083,4.012,0.333c-2.233,0.893-8.38,3.196-8.38,3.196c0.584,2.578,1.852,5.775,2.271,7.96
			c-0.658-0.898-5.791-5.302-6.658-5.668c-0.044-0.019-0.101-0.027-0.168-0.027c-1.032,0-4.627,2.104-6.702,2.996
			c0.661-1.463,2.333-4.168,3.896-6.089c-1.22-0.764-4.217-3.333-6.05-4.425c1.918,0.436,8.497,1.297,8.497,1.297
			S268.788,124.092,270.295,122.394 M271.954,118.909l-2.461,2.772c-1.279,1.441-2.835,4.993-3.508,6.615
			c-1.815-0.245-6.128-0.841-7.579-1.17l-6.605-1.501l5.819,3.467c0.995,0.593,2.4,1.683,3.64,2.644c0.519,0.402,1,0.775,1.422,1.09
			c-1.42,1.9-2.754,4.129-3.336,5.418l-1.139,2.519l2.539-1.093c0.764-0.328,1.723-0.813,2.65-1.282
			c1.162-0.588,2.875-1.454,3.515-1.605c1.084,0.686,5.542,4.51,6.075,5.236l2.816,3.846l-0.899-4.682
			c-0.229-1.196-0.68-2.615-1.156-4.116c-0.316-0.996-0.641-2.019-0.897-2.974c1.794-0.675,5.803-2.188,7.507-2.869l3.544-1.416
			l-3.763-0.636c-1.384-0.234-2.755-0.348-4.19-0.348c-1.221,0-2.367,0.079-3.475,0.156c-0.239,0.017-0.478,0.033-0.718,0.05
			c0.019-0.971-0.112-2.008-0.239-3.022c-0.155-1.234-0.315-2.511-0.163-3.44L271.954,118.909L271.954,118.909z"/>
	</g>
</g>
<g>
	<path fill-rule="evenodd" clip-rule="evenodd" fill="#FCEE21" d="M285.895,61.252c-0.479,2.117-1.521,4.744-1.863,6.539
		c0.539-0.738,4.756-4.354,5.467-4.655c0.598-0.253,3.827,1.657,5.643,2.438c-0.543-1.203-1.915-3.422-3.199-5.002
		c1-0.627,3.462-2.736,4.967-3.635c-1.574,0.358-6.978,1.066-6.978,1.066s-1.743-4.416-2.98-5.812
		c0.305,1.855-0.623,4.598-0.215,6.389c-2.468-0.108-4.639-0.473-7.724,0.049C280.848,59.361,285.895,61.252,285.895,61.252z"/>
	<g>
		<path d="M287.003,53.98c1.237,1.395,2.98,5.812,2.98,5.812s5.403-0.708,6.979-1.065c-1.505,0.896-3.967,3.007-4.969,3.634
			c1.284,1.578,2.657,3.8,3.2,5.001c-1.703-0.733-4.656-2.46-5.505-2.46c-0.055,0-0.102,0.007-0.138,0.022
			c-0.712,0.3-4.928,3.917-5.468,4.654c0.345-1.794,1.386-4.42,1.865-6.537c0,0-5.048-1.893-6.883-2.625
			c1.216-0.205,2.289-0.273,3.295-0.273c1.546,0,2.933,0.16,4.428,0.227C286.38,58.578,287.308,55.836,287.003,53.98
			 M285.641,51.118l0.493,3.005c0.126,0.764-0.006,1.812-0.133,2.826c-0.104,0.833-0.212,1.686-0.197,2.482
			c-0.198-0.014-0.395-0.027-0.592-0.041c-0.909-0.062-1.85-0.128-2.852-0.128c-1.179,0-2.305,0.093-3.441,0.285l-3.093,0.523
			l2.913,1.162c1.4,0.56,4.692,1.802,6.165,2.356c-0.21,0.784-0.477,1.623-0.736,2.441c-0.392,1.233-0.761,2.398-0.949,3.381
			l-0.739,3.846l2.313-3.159c0.437-0.597,4.088-3.728,4.993-4.301c0.513,0.12,1.928,0.836,2.886,1.32
			c0.761,0.385,1.547,0.782,2.173,1.052l2.086,0.898l-0.935-2.069c-0.479-1.059-1.574-2.889-2.74-4.45
			c0.347-0.259,0.743-0.565,1.17-0.896c1.018-0.789,2.171-1.684,2.986-2.169l4.776-2.846l-5.421,1.23
			c-1.192,0.271-4.733,0.76-6.225,0.961c-0.553-1.332-1.831-4.249-2.882-5.433L285.641,51.118L285.641,51.118z"/>
	</g>
</g>
<g>
</g>
<g>
</g>
<g>
</g>
<g>
</g>
<g>
</g>
<g>
</g>
<g>
</g>
<g>
</g>
<g>
</g>
<g>
</g>
<g>
</g>
<g>
</g>
<g>
</g>
<g>
</g>
<g>
</g>
</svg>
