<?xml version="1.0" encoding="utf-8"?>
<!-- Generator: Adobe Illustrator 16.0.0, SVG Export Plug-In . SVG Version: 6.00 Build 0)  -->
<!DOCTYPE svg PUBLIC "-//W3C//DTD SVG 1.1//EN" "http://www.w3.org/Graphics/SVG/1.1/DTD/svg11.dtd">
<svg version="1.1" id="Layer_1" xmlns="http://www.w3.org/2000/svg" xmlns:xlink="http://www.w3.org/1999/xlink" x="0px" y="0px"
	 width="1354px" height="1657.439px" viewBox="0 0 1354 1657.439" enable-background="new 0 0 1354 1657.439" xml:space="preserve">
<path fill-rule="evenodd" clip-rule="evenodd" fill="#0F7EDC" d="M1042.411,549.143c0.079-0.98-0.137-1.559,0.414-2.322
	c-4.076,11.996,1.001,21.579,8.074,30.712c5.742,7.415,15.596,13.874,18.398,22.958c0.299-5.074,1.601-10.309,1.613-15.348
	c0.016-6.08-4.846-8.542-8.914-13.052c-4.757-5.273-18.312-16.808-18.586-22.948"/>
<path fill-rule="evenodd" clip-rule="evenodd" fill="#0F7EDC" d="M1041.411,625.643c0.036,4.387-3.035,10.314-1.9,14.388
	c1.262,4.534,7.169,9.591,9.525,13.988c5.271,9.837,12.789,18.788,17.361,28.935c2.016-4.181,2.153-11.429,2.525-16.176
	c0.526-6.716-0.885-7.974-4.984-12.125c-8.307-8.41-15.541-16.96-22.527-26.511"/>
<path fill-rule="evenodd" clip-rule="evenodd" fill="#0F7EDC" d="M1037.411,714.143c-0.864,1.532-1.525,7.002-1.5,9.926
	c0.048,5.373,0.857,5.29,4.506,8.668c4.566,4.228,7.344,9.851,10.117,15.294c4.789,9.404,10.263,19.287,14.404,29.185
	c1.413-4.165,1.227-11.013,1.473-16.073c0.383-7.869-1.305-8.928-6.025-15c-7-9.004-14.962-24.439-25.475-29.5"/>
<path fill-rule="evenodd" clip-rule="evenodd" fill="#0F7EDC" d="M1034.911,804.143c0,5.052-0.576,10.485,0,15.5
	c0.635,5.521,3.927,10.163,7.475,14.51c6.574,8.06,16.625,16.574,21.412,25.449c0.932-5.054,0.613-10.604,0.613-15.959
	c0-6.972-0.5-10.053-5-15.401c-8.08-9.604-17.672-17.382-27.462-24.912c0.39,0.183,0.71,0.454,0.962,0.812"/>
<path fill-rule="evenodd" clip-rule="evenodd" fill="#0F7EDC" d="M1032.411,891.643c-5.25,12.647,3.789,27.273,11.137,37
	c3.684,4.873,7.131,9.633,10.229,14.976c3.547,6.121,9.015,11.484,11.521,17.872c0.934-6.454-0.467-14.146-0.387-20.848
	c0.078-6.531,1.814-10.08-3.502-14.5c-5.959-4.956-11.16-11.209-17.01-16.39c-4.017-3.558-9.936-9.972-11.988-14.11"/>
<path fill-rule="evenodd" clip-rule="evenodd" fill="#0F7EDC" d="M1031.911,997.143c0.152,5.454-2.631,14.949-0.4,21.61
	c1.96,5.854,7.727,13.514,11.426,18.39c2.871,3.78,6.111,6.941,8.852,10.635c2.438,3.291,3.645,7.969,7.125,10.312
	c3.138-3.786,3.191-11.797,3.889-16.56c0.516-3.521,0.885-4.664-0.893-7.363c-1.779-2.702-4.994-4.499-6.984-7.015
	c-7.717-9.752-19.129-19.293-24.514-30.51"/>
<path fill-rule="evenodd" clip-rule="evenodd" fill="#FCEE21" d="M986.579,1097.309c3.229-2.19,5.916-7.991,10.065-10.582
	c4.493-2.807,10.226-5.076,15.267-6.075c11.825-2.342,24.383-2.328,36.668-2.343c11.119-0.014,20.961,3.615,30.314,9.084
	c1.671,0.976,6.618,2.982,5.709,5.582c-1.11,3.172-5.533,0.664-7.099-0.574c-5.845-4.625-9.382-5.765-16.675-6.092
	c-5.93-0.266-11.17-2.509-17.309-2c-3.315,0.274-6.156,1.885-9.351,1.741c-3.357-0.149-6.379-1.289-9.917-1.091
	c-6.465,0.359-14.516,1.096-20.34,4.091c-2.5,1.285-5.195,3.09-7.409,4.834c-1.991,1.57-3.456,4.83-5.919,5.433
	c-1.206,0.295-2.446-0.015-3.341-0.674"/>
<path fill-rule="evenodd" clip-rule="evenodd" fill="#0F7EDC" d="M840.579,1583.643c5.095-1.059,11.68-6.812,17.332-9.184
	c5.321-2.23,11.704-3.395,17.368-4.166c11.964-1.629,24.249-1.395,36.114-3.17c30.325-4.538,60.461-11.48,91.385-11.48
	c34.671,0,74.99-5.946,107.099,8.633c16.438,7.462,25.862,21.626,39.402,32.566c10.711,8.654,22.919,16.557,34.669,23.484
	c8.313,4.9,18.561,10.36,24.561,17.847c-4.324-0.49-10.406-5.254-14.614-7.181c-4.274-1.959-8.54-4.113-13.315-5.869
	c-11.543-4.242-23.66-7.125-34.52-12.963c-22.355-12.018-51.043-20.14-76.148-24.37c-25.531-4.302-48.186-13.252-74.65-12.147
	c-14.203,0.591-27.768,3.81-41.836,5.332c-15.467,1.674-31.496,1.991-46.994,0.668c-11.242-0.962-22.939-2.106-33.887-2.148
	c-9.721-0.039-18.82,1.48-28.633,1.48"/>
<path fill-rule="evenodd" clip-rule="evenodd" fill="#0F7EDC" d="M113.911,1640.643c17.212-5.325,29.041-14.891,48-16
	c16.914-0.991,34.517,0.055,51-3.053c33.688-6.351,72.312-5.3,107-1.972c18.673,1.792,36.788,4.836,56,4.024
	c18.82-0.795,37.516-4.158,56.526-5.997c40.331-3.905,83.388-21.038,124.474-14.781c7.91,1.204,16.643,3.519,24.697,2.781
	c-8.959,2.109-18.232,0.098-27.475-0.003c-10.467-0.115-19.237,2.245-29.219,5c-21.91,6.044-43.607,11.549-65.755,16.776
	c-46.671,11.018-92.301,1.628-139.245-0.776c-20.059-1.028-35.319,5.471-54.031,8.217c-19.846,2.915-36.832-4.352-55.773-7.272
	c-17.188-2.651-31.764,1.604-47.948,5.832c-18.753,4.898-31.672,7.463-50.251,5.224"/>
<path fill-rule="evenodd" clip-rule="evenodd" fill="#FCEE21" d="M985.411,1305.643c0.723-6.115-2.625-11.449,3.125-15.876
	c3.55-2.73,11.271-4.405,14.398-0.301c-1.135-4.806,3.762-6.69,7.5-7.352c4.08-0.722,6.043,0.453,9.377,2.976
	c-1.312-8.333,18.338-6.693,22.088-2.625c5.051-7.089,22.43-11.025,27.539-2c1.37-15.92,29.857-11.488,24.549,3.101
	c10.83-6.138,16.551,6.009,18.348,14.526c-10.587-5.056-17.166,5.08-25.721,9.5c2.512-4.403,4.703-8.259,4.297-13.449
	c-0.543-6.938-3.566-5.299-8.5-1.624c-7.236,5.392-12.639,12.75-18.9,19.071c-0.24-7.115-1.875-19.843-6.488-25.42
	c-2.707,8.724-2.881,19.398-9.599,26.309c-3.019-3.005-3.685-8.369-6.487-11.833c-2.464-3.045-5.943-5.359-8-8.577
	c-3.766,3.169-2.612,13.937-5.051,18.783c0.07-7.871-0.816-14.559-5.1-21.133c-4.758,3.691-6.676,13.975-9.762,18.885
	c-1.393-6.599-0.977-12.214-5.602-17.535c-4.068,4.281-2.613,13.259-6.639,16.571c-2.787,2.294-10.029-1.708-14.373-1.997"/>
<g>
	<path fill-rule="evenodd" clip-rule="evenodd" fill="#FCFCFC" d="M1165.098,531.781c11.402,6.784,30.975,30.411,52.369,16.626
		c7.41,15.406,43.164,16.68,42.395-6.65c22.545,6.568,53.81-1.547,40.732-24.938c20.166-7.267,34.541-20.322,32.419-49.876
		c-0.067-4.088-5.753-2.56-5.819-6.649c9.224-7.187,21.158-21.409,16.625-39.9c-2.294-9.362-12.18-12.489-24.106-13.3
		c7.153-8.82,17.082-24.157,14.132-45.72c-1.387-10.144-6.849-18.073-17.457-19.95c6.016-27.005,0.737-56.314-25.769-58.188
		c3.389-13.485,18.144-15.621,22.444-29.094c1.86-5.827-0.242-12.931,0.831-19.95c2.646-17.301,18.965-40.115,1.662-54.863
		c-3.204-1.506-7.702-1.719-10.806-3.325c-2.462-12.925,4.326-23.021,2.493-33.25c-0.976-5.449-9.087-17.145-14.963-20.782
		c-9.862-6.106-27.264-5.236-35.744-0.831c3.169-28.471-15.3-49.925-40.731-39.07c-2.103-11.871-6.795-23.574-15.794-32.418
		c-15.419-15.153-59.422-19.58-73.151-1.664c-16.905-9.894-38.624-22.548-64.007-19.948c-21.914,2.244-36.129,17.902-48.213,29.925
		c-41.066-3.384-67.074,8.293-65.67,47.381c-14.12-4.294-36.976-8.115-55.694-5.818c-10.021,1.229-16.125,6.862-22.443,9.975
		c-0.708-25.903-16.327-41.293-45.72-35.745C814.413,61.065,789.63,41.93,767.756,56.3c-21.014-19.76-79.789-21.867-88.945,9.976
		c-11.685-5.309-26.195-14.543-42.394-11.638c-9.016,1.618-28.372,12.716-29.095,23.275c-7.926-2.992-18.232-10.83-29.094-12.469
		c-15.181-2.289-25.882,3.777-34.913,10.808c-19.799-13.918-52.163-14.662-73.15-4.157c-16.709,8.363-26.533,14.627-32.42,30.756
		c-30.147-3.27-41.438,12.317-47.381,33.25c-4.925-1.009-6.006-6.949-10.807-8.312c-16.931-4.81-49.314-15.107-52.391-3.326
		c-14.176,13.248-52.688,28.451-70.656,8.312c-18.759,5.626-35.855,12.913-35.744,37.407c-18.891-2.667-36.233,0.135-38.238,13.299
		c3.098-1.073,13.193-0.914,15.794,3.325c3.463,19.521-22.604,13.881-25.769,4.156c-12.67-2.216-28.678-10.763-41.563-4.987
		c-9.489,4.254-15.193,17.372-11.638,29.925c-7.586,6.344-8.701,17.832-18.288,22.443c-3.493,1.681-7.911,1.121-11.638,2.494
		c-12.543,4.625-25.375,13.552-25.77,30.756c-31.035-3.827-50.84,25.308-37.406,52.369c-8.338,8.1-6.472,41.143-3.305,56.528
		c2.32,11.268,14.842,14.836,26.601,18.287c0.384,9.388-4.155,14.629-2.493,22.444c2.891,13.604,36.033,27.32,45.719,12.469
		c1.82,34.409,68.24,30.612,79.801,7.481c17.785,10.483,41.838-0.887,44.889-19.95c27.761,1.439,37.585-15.061,42.395-36.575
		c11.306-8.738,25.314-18.89,44.887-16.626c4.974,14.35,15.744,30.137,36.576,23.275c7.636,12.262,48.494,25.639,55.694,3.326
		c1.085,6.938-2.145,14.596-0.831,20.781c4.926,23.202,56.111,21.166,67.332,5.819c12.764,15.731,42.3,6.812,53.201-4.988
		c2.103,18.992,44.185,18.141,57.356,9.976c3.228-2,5.369-6.857,9.144-9.976c2.335-1.928,5.391-2.33,7.481-4.156
		c12.41-10.841,15.422-25.941,39.9-22.444c8.099,1.156,21.547,7.294,22.444,19.95c22.237,0.071,38.852-5.481,37.406-29.093
		c6.766,13.108,45.229,18.192,53.2,3.325c5.143,28.77,58.642,38.879,82.295,19.119c8.748,5.717,12.89,12.074,22.444,13.299
		c17.216,2.208,25.704-13.907,45.72-11.637c5.201,5.928,16.381,9.94,16.625,19.95c0.121,4.999-7.584,15.302-5.819,24.106
		c1.565,7.801,16.197,16.646,27.432,17.458c-5.093,7.285-16.209,13.905-10.806,26.6c3.02,3.076,5.951,6.241,9.975,8.312
		c-2.786-3.846,2.63-4.636,2.494-7.48c-0.124-2.6-5.311-3.275-4.156-9.144c0.605-3.075,3.955-5.907,9.975-5.819
		c0.282-0.607-1.703-6.02-0.831-9.975c2.959-2.309,5.328-5.204,10.807-4.988c0.086-2.58-2.616-2.372-1.663-5.818
		c-0.823-1.65-6.506,1.619-8.312-0.832c-2.146-10.76,5.727-10.544,2.494-18.288c2.771-4.987,5.723-9.795,12.469-10.807
		c-0.247-8.835,4.395-12.785,12.469-13.301c4.429-6.381,11.549-14.491,20.781-13.3c5.268-5.817,12.674-9.494,24.938-8.312
		c3.214,2.882,2.52,9.673,2.493,15.794c7.852-0.769,2.65-4.448,5.819-9.146c2.849-2.49,11.486-4.962,14.962-1.662
		c4.148-6.707,21.17-12.41,29.095-4.987c4.232-6.249,25.678-11.573,28.263,0c6.925-5.892,18.796-0.151,16.625,10.806
		c4.319-0.44,6.662,1.096,9.976,1.663c1.682,2.475,3.446,4.866,3.325,9.144c3.047-0.277,3.355-3.294,7.48-2.493
		c9.607,2.645,5.77,15.941,9.145,23.274c1.018,0.693,5.854-1.869,9.975-0.83c2.511,2.477,3.688,6.289,3.325,11.637
		c7.966-2.418,14.937,0.357,14.132,9.145c7.953-1.293,12.221,5.5,9.975,11.637c-2.786,4.973-11.694,3.822-16.625,6.65
		c-0.618,2.575,2.541,4.943,3.325,8.312c0.399,1.716-1.691,2.1-1.663,4.157c0.063,4.374,7.8,9.4,0.832,14.132
		c1.535,1.905,5.505,6.5,3.325,11.637c-0.156,0.367-2.484,1.392-2.494,1.662c-0.13,3.828,3.466,6.992,3.325,9.145
		c-0.263,4.039-3.621,6.338-4.988,9.975L1165.098,531.781z"/>
	<path fill-rule="evenodd" clip-rule="evenodd" d="M1224.117,1639.02c-31.536-11.773-55.647-39.922-84.788-57.357
		c-4.871-2.914-10.831-5.111-15.794-8.312c-6.422-4.141-10.997-8.222-18.288-10.807c-30.534-10.822-74.89-10.04-113.052-7.48
		c-23.19,1.554-49.429,9.849-73.981,11.637c-32.317,2.354-52.162,5.629-77.308,15.795c68.023,2.445,141.697-15.374,202.827-0.832
		c27.963,6.652,54.768,15.18,81.464,22.443c35.891,9.766,65.781,30.952,100.582,37.407c-24.112,4.6-43.971-6.698-66.5-7.481
		c-14.551-0.506-28.706,1.49-43.226,0.832c-13.617-0.619-27.593-2.356-41.563-3.326c-42.48-2.946-82.805-11.104-132.17-8.312
		c-15.546,0.881-30.853,3.734-46.551,4.156c-22.769,0.613-45.619-0.592-67.332,0.832c-26.055,1.707-51.697,7.774-78.139,9.975
		c-6.197,0.517-12.8-0.35-19.119,0c-26.998,1.496-52.682,5.176-79.801,3.325c-54.824-3.741-107.888-4.876-158.771,4.156
		c-24.442,4.339-48.449,10.609-72.319,11.638c-22.696,0.978-46.327-3.799-69.825-4.156c-24.228-0.369-49.365,2.186-71.489,0
		c-13.868-1.37-27.374-9.387-41.563-10.807c-31.282-3.129-60.504,8.564-93.932,10.807c-24.199,1.623-48.973-2.42-70.657-0.832
		c-11.024,0.809-22.03,4.594-33.251,2.494c15.927-2.621,28.244-4.135,42.395-8.312c7.166-2.115,15.049-2.105,21.613-4.156
		c12.865-4.018,23.402-14.09,34.082-17.456c24.256-7.645,59.076-4.206,91.438-5.819c6.293-0.312,12.775-2.013,19.119-2.492
		c34.718-2.633,69.131,3.969,103.908,6.648c18.791,1.449,39.748,0.49,58.188-0.83c27.738-1.988,51.243-13.354,77.308-17.457
		c28.343-4.463,56.326-8.781,88.113-6.65c30.397,2.037,68.577,15.577,102.245,6.65c6.804-1.804,13.027-7.203,19.95-9.145
		c9.425-2.641,20.394-3.883,31.588-6.648c33.499-8.281,69.038,1.24,103.076-5.82c15.892-3.295,31.62-12.549,46.551-15.793
		c18.479-4.016,39.526-3.314,58.188-5.819c20.685-2.776,40.181-8.045,57.357-9.144c40.045-2.564,87.044-2.201,114.714,9.144
		c10.361,4.249,20.21,12.458,29.926,18.288c10.335,6.201,19.368,13.236,28.263,19.949
		C1185.771,1613.672,1203.904,1626.198,1224.117,1639.02z M1063.684,1589.145c-26.778-6.564-51.289-14.494-84.788-11.639
		c-16.911,1.441-39.027,3.033-59.851,4.156c-24.038,1.297-50.183,2.953-70.657,4.156c-58.03,3.41-116.188-3.057-161.265,18.287
		c65.3-4.328,129.763,4.363,192.021,0c120.253-8.426,223.966,24.191,328.348,34.914
		C1165.329,1621.432,1113.087,1601.253,1063.684,1589.145z M519.209,1601.613c-38.874,3.695-73.862,21.197-111.389,23.275
		c-17.794,0.985-36.704,2.294-55.694,0.831c-34.722-2.674-68.785-9.166-103.908-6.65c-6.703,0.48-13.084,2.152-19.949,2.494
		c-22.299,1.111-45.689-1.68-67.332,0.832c-19.268,2.234-34.699,9.422-49.877,19.118c28.769-4.048,59.306-10.229,91.439-13.3
		c12.465-1.191,25.805,1.641,39.9,2.494c23.846,1.444,49.447-4.1,71.488-2.494c14.145,1.029,27.34,5.941,41.562,6.65
		c16.633,0.828,34.776,1.424,52.37,0c12.644-1.023,25.516-5.393,38.237-7.482c13.128-2.154,25.11-6,37.407-9.144
		c26.341-6.731,52.898-8.28,78.97-14.132C549.115,1599.43,533.799,1600.227,519.209,1601.613z M609.816,1609.926
		c32.122,4.743,64.465,12.325,98.92,14.131c18.331,0.96,36.703,3.57,54.031,2.494c14.018-0.873,27.807-4.338,41.563-4.988
		c31.219-1.476,62.865,4.118,91.438,3.325c14.255-0.396,28.397-3.313,43.226-4.156c73.604-4.185,136.252,15.587,205.321,10.806
		c-32.038-3.328-65.127-9.764-98.92-15.793c-16.461-2.938-34.043-3.273-51.538-5.818c-37.523-5.46-74.028-6.832-115.546-3.326
		c-63.128,5.332-134.246-6.703-193.683-0.83c-11.854,1.17-23.241,4.186-34.913,4.156c-30.988-0.08-63.355-11.273-90.607-8.313
		C574.41,1605.907,592.042,1607.3,609.816,1609.926z M767.756,1628.213c-70.623,5.059-135.262-17.387-198.671-21.613
		c-1.528-0.102-1.884,0.698-3.325,0.832c-27.858,2.58-56.04,5.924-82.295,12.469c-12.405,3.092-24.426,7.707-37.407,9.975
		c-13.494,2.357-27.024,6.442-40.731,7.481c-16.016,1.214-32.328,0.663-47.382,0c-14.283-0.628-27.361-5.573-41.562-6.649
		c-24.941-1.893-49.938,4.32-73.982,2.493c-14.219-1.079-27.427-3.671-41.562-2.493c-24.477,2.037-50.674,6.299-71.488,9.975
		c-18.388,3.246-34.844,3.662-49.045,9.975c23.187-1.336,45.133,1.797,67.332,0c34.229-2.77,61.479-13.525,93.102-9.975
		c13.072,1.468,22.054,8.226,35.744,9.975c19.955,2.551,42.42,0,63.176,0c21.503,0,41.346,2.916,59.85,4.156
		c38.883,2.607,68.27-6.887,102.246-13.3c24.32-4.59,49.924-6.419,73.981-5.819c29.714,0.742,58.544,3.857,87.282,4.156
		c66.874,0.697,129.469-12.25,191.189-14.962C823.585,1619.694,797.095,1626.112,767.756,1628.213z"/>
	<path fill-rule="evenodd" clip-rule="evenodd" stroke="#000000" stroke-miterlimit="10" d="M1059.527,1314.829
		c-1.302-7.564-1.068-16.664-2.493-24.107c-5.061,7.963-8.499,17.549-14.963,24.107c-4.783-3.25-5.161-10.91-8.312-15.795
		c-3.901,5.797-4.886,14.511-11.638,17.457c-0.627-6.578-2.122-12.287-1.662-19.95c-5.263,4.437-5.275,14.122-10.807,18.288
		c-1.809-4.564-2.347-10.399-4.155-14.963c-2.115,4.535-2.954,10.346-4.989,14.963c-6.557-1.644-16.185-10.396-27.432-7.482
		c31.021,32.951,36.337,92.469,39.069,154.615c0.809,18.377-0.005,39.145,0.832,58.188c0.294,6.666,3.346,14.377-1.663,19.951
		c0.653-87.939,1.543-187.742-39.9-233.584c2.244-1.637,7.264-0.496,10.807-0.832c0.48-10.472,6.083-19.764,18.287-15.794
		c2.354-2.079,3.879-4.989,6.65-6.649c1.6-33.117-7.183-57.15-14.131-85.621c-4.205-17.229-5.855-34.732-12.47-44.887
		c-11.266-17.301-42.717-23.885-44.888-51.539c3.853-8.338,14.541-9.844,27.432-9.144c5.455,1.588,8.847,9.285,13.3,9.144
		c1.259-5.123-5.764-7.453-5.818-14.131c-0.057-6.844,4.448-11.922,14.132-11.637c1.636-9.215,15.342-17.63,24.938-10.808
		c4.196-3.285,9.384-5.579,15.794-6.649c2.289-31.548,4.279-65.869,5.818-99.752c1.163-25.594-1.193-52.639,0-79.801
		c1.314-29.866,3.068-59.912,1.663-88.113c-0.598-11.982-2.438-23.338-1.663-34.915c1.848-27.565,1.264-55.125,3.325-82.293
		c3.898-51.378,2.296-99.937,7.481-151.291c-29.617-17.487-77.088,4.818-81.464,35.745c-2.857,0.364-4.659-0.328-6.649-0.83
		c-2.114-2.34-2.47-10.803-0.831-14.132c-3.337-1.374-6.074-3.349-7.481-6.649c-0.265-3.314-0.046-6.143,1.662-7.482
		c-6.936-3.698-4.012-11.477-6.65-17.456c-3.738-8.474-16.664-9.682-20.781-17.456c-3.729-12.504,3.142-21.108,9.976-25.77
		c-17.347-5.459-31.073-12.772-24.938-34.914c0.82-2.959,4.224-4.973,4.156-8.312c-0.18-9.05-11.167-12.39-14.962-18.288
		c-17.694-2.463-27.96,12.597-44.058,11.639c-9.025-0.539-17.228-5.984-22.443-13.301c-23.969,18.781-76.291,10.352-83.958-16.625
		c-8.645,9.692-42.834,6.804-52.369-2.494c0.262,21.875-17.934,25.293-39.068,25.77c-1.247-2.355-0.929-6.275-2.494-8.312
		c-7.137-9.482-21.252-15.062-35.744-10.807c-9.197,2.699-14.341,15.459-24.938,23.275c-1.268,0.935-3.778,0.647-4.988,1.663
		c-3.024,2.541-4.13,7.606-7.48,9.974c-15.512,10.965-51.058,9.066-61.514-7.48c-11.233,10.727-39.884,18.389-51.538,3.324
		c-14.793,17.172-76.33,18.137-68.994-19.119c-13.721,8.744-45.523,2.787-52.37-10.806c-23.978,6.181-32.837-9.788-39.069-24.106
		c-19.352-0.232-29.926,8.313-41.562,15.794c-5.107,21.493-14.613,38.587-41.563,38.237c-5.067,16.301-27.46,30.691-46.55,19.951
		c-12.57,22.639-76.605,26.37-81.464-5.819c-18.415,13.026-57.884-5.413-43.226-35.744c-10.913-5.601-24.9-8.27-27.432-20.781
		c-3.039-15.02-5.413-48.59,3.305-56.528c-12.09-27.858,5.878-56.483,37.406-54.031c1.939-15.465,12.793-25.493,26.601-30.756
		c3.249-1.239,6.999-0.519,9.976-1.663c10.58-4.07,11.374-15.093,19.119-21.612c-3.576-12.604,4.08-28.229,13.3-31.588
		c12.331-4.494,27.862,1.621,40.731,4.986c3.574-0.582,1.967-6.346,7.481-4.986c0.396-4.19-0.188-9.564,3.325-12.47
		c3.982,0.965-2.956,3.827-1.662,7.482c4.263-1.012,8.58-9.146,14.131-11.638c8.455-0.142,15.176,1.45,24.106,0.831
		c1.595-9.788,3.288-17.476,8.312-23.275c7.071-8.16,18.384-8.565,28.263-14.131c6.097,2.479,9.243,7.456,14.963,9.144
		c21.762,6.425,42.916-9.04,55.695-16.625c4.451-14.943,33.141,0.978,54.052,2.494c3.792,2.026,5.699,5.938,9.144,8.312
		c5.938-20.939,17.711-36.043,47.382-33.25c3.316-3.168,2.887-8.303,5.819-12.469c5.924-8.418,29.729-22.693,44.888-24.938
		c20.997-3.111,40.752,1.469,54.863,10.806c9.15-6.184,20.092-12.835,34.913-10.806c10.847,1.483,21.546,7.827,28.263,12.469
		c2.224-2.21,2.059-6.809,4.156-9.145c7.993-2.518,16.083-12.211,25.77-14.131c17.304-3.431,30.49,5.491,41.562,11.637
		c3.607-1.657,3.51-7.018,5.818-9.975c17.612-20.127,65.72-18.32,83.957,0c22.243-12.227,48.579,2.851,57.357,17.457
		c29.765-5.62,45.618,9.769,48.213,34.082c12.927-11.505,55.829-10.665,74.813-2.494c0.135-32.41,18.697-48.987,53.2-47.383
		c3.389,0.158,7.719,1.938,11.638,0.832c3.753-1.059,5.896-6.105,8.313-8.313c12.173-11.114,29.101-24.021,53.2-22.443
		c21.122,1.382,37.097,9.667,52.369,19.95c7.885-10.509,37.486-16.052,57.357-9.144c17.328,6.026,30.003,23.843,33.25,42.394
		c22.386-7.844,45.536,8.988,40.731,39.07c12.01-3.712,27.364-3.78,36.576,2.493c5.005,3.407,13.842,15.138,14.963,20.782
		c2.011,10.125-4.908,19.924-2.493,32.418c1.516,2.64,6.524,1.789,9.143,3.326c3.34,3.587,5.786,8.069,8.312,12.469
		c4.715,16.457-6.265,30.974-8.312,42.394c-1.708,9.524,1.257,17.27-1.662,24.106c-4.925,11.535-16.208,13.979-22.444,24.937
		c24.952,2.227,33.475,31.282,25.77,58.19c26.344,4.241,21.142,54.84,4.156,65.669c11.955,0.513,18.936,6.003,24.106,13.3
		c2.443,21.562-4.544,33.693-16.625,40.732c0.258,3.898,4.95,3.363,5.818,6.65c1.992,29.978-11.858,44.113-32.419,51.538
		c12.758,20.83-16.874,33.448-40.731,25.77c-1.915,23.336-34.999,22.519-44.889,6.649c-19.299,12.262-40.373-6.959-51.538-18.288
		c11.402,6.784,30.975,30.411,52.369,16.626c7.41,15.406,43.164,16.68,42.395-6.65c22.545,6.568,53.81-1.547,40.732-24.938
		c20.166-7.267,34.541-20.322,32.419-49.876c-0.067-4.088-5.753-2.56-5.819-6.649c9.224-7.187,21.158-21.409,16.625-39.9
		c-2.294-9.362-12.18-12.489-24.106-13.3c7.153-8.82,17.082-24.157,14.132-45.72c-1.387-10.144-6.849-18.073-17.457-19.95
		c6.016-27.005,0.737-56.314-25.769-58.188c3.389-13.485,18.144-15.621,22.444-29.094c1.86-5.827-0.242-12.931,0.831-19.95
		c2.646-17.301,18.965-40.115,1.662-54.863c-3.204-1.506-7.702-1.719-10.806-3.325c-2.462-12.925,4.326-23.021,2.493-33.25
		c-0.976-5.449-9.087-17.145-14.963-20.782c-9.862-6.106-27.264-5.236-35.744-0.831c3.169-28.471-15.3-49.925-40.731-39.07
		c-2.103-11.871-6.795-23.574-15.794-32.418c-15.419-15.153-59.422-19.58-73.151-1.664c-16.905-9.894-38.624-22.548-64.007-19.948
		c-21.914,2.244-36.129,17.902-48.213,29.925c-41.066-3.384-67.074,8.293-65.67,47.381c-14.12-4.294-36.976-8.115-55.694-5.818
		c-10.021,1.229-16.125,6.862-22.443,9.975c-0.708-25.903-16.327-41.293-45.72-35.745C814.413,61.065,789.63,41.93,767.756,56.3
		c-21.014-19.76-79.789-21.867-88.945,9.976c-11.685-5.309-26.195-14.543-42.394-11.638c-9.016,1.618-28.372,12.716-29.095,23.275
		c-7.926-2.992-18.232-10.83-29.094-12.469c-15.181-2.289-25.882,3.777-34.913,10.808c-19.799-13.918-52.163-14.662-73.15-4.157
		c-16.709,8.363-26.533,14.627-32.42,30.756c-30.147-3.27-41.438,12.317-47.381,33.25c-4.925-1.009-6.006-6.949-10.807-8.312
		c-16.931-4.81-49.314-15.107-52.391-3.326c-14.176,13.248-52.688,28.451-70.656,8.312c-18.759,5.626-35.855,12.913-35.744,37.407
		c-18.891-2.667-36.233,0.135-38.238,13.299c3.098-1.073,13.193-0.914,15.794,3.325c3.463,19.521-22.604,13.881-25.769,4.156
		c-12.67-2.216-28.678-10.763-41.563-4.987c-9.489,4.254-15.193,17.372-11.638,29.925c-7.586,6.344-8.701,17.832-18.288,22.443
		c-3.493,1.681-7.911,1.121-11.638,2.494c-12.543,4.625-25.375,13.552-25.77,30.756c-31.035-3.827-50.84,25.308-37.406,52.369
		c-8.338,8.1-6.472,41.143-3.305,56.528c2.32,11.268,14.842,14.836,26.601,18.287c0.384,9.388-4.155,14.629-2.493,22.444
		c2.891,13.604,36.033,27.32,45.719,12.469c1.82,34.409,68.24,30.612,79.801,7.481c17.785,10.483,41.838-0.887,44.889-19.95
		c27.761,1.439,37.585-15.061,42.395-36.575c11.306-8.738,25.314-18.89,44.887-16.626c4.974,14.35,15.744,30.137,36.576,23.275
		c7.636,12.262,48.494,25.639,55.694,3.326c1.085,6.938-2.145,14.596-0.831,20.781c4.926,23.202,56.111,21.166,67.332,5.819
		c12.764,15.731,42.3,6.812,53.201-4.988c2.103,18.992,44.185,18.141,57.356,9.976c3.228-2,5.369-6.857,9.144-9.976
		c2.335-1.928,5.391-2.33,7.481-4.156c12.41-10.841,15.422-25.941,39.9-22.444c8.099,1.156,21.547,7.294,22.444,19.95
		c22.237,0.071,38.852-5.481,37.406-29.093c6.766,13.108,45.229,18.192,53.2,3.325c5.143,28.77,58.642,38.879,82.295,19.119
		c8.748,5.717,12.89,12.074,22.444,13.299c17.216,2.208,25.704-13.907,45.72-11.637c5.201,5.928,16.381,9.94,16.625,19.95
		c0.121,4.999-7.584,15.302-5.819,24.106c1.565,7.801,16.197,16.646,27.432,17.458c-5.093,7.285-16.209,13.905-10.806,26.6
		c3.02,3.076,5.951,6.241,9.975,8.312c-2.786-3.846,2.63-4.636,2.494-7.48c-0.124-2.6-5.311-3.275-4.156-9.144
		c0.605-3.075,3.955-5.907,9.975-5.819c0.282-0.607-1.703-6.02-0.831-9.975c2.959-2.309,5.328-5.204,10.807-4.988
		c0.086-2.58-2.616-2.372-1.663-5.818c-0.823-1.65-6.506,1.619-8.312-0.832c-2.146-10.76,5.727-10.544,2.494-18.288
		c2.771-4.987,5.723-9.795,12.469-10.807c-0.247-8.835,4.395-12.785,12.469-13.301c4.429-6.381,11.549-14.491,20.781-13.3
		c5.268-5.817,12.674-9.494,24.938-8.312c3.214,2.882,2.52,9.673,2.493,15.794c7.852-0.769,2.65-4.448,5.819-9.146
		c2.849-2.49,11.486-4.962,14.962-1.662c4.148-6.707,21.17-12.41,29.095-4.987c4.232-6.249,25.678-11.573,28.263,0
		c6.925-5.892,18.796-0.151,16.625,10.806c4.319-0.44,6.662,1.096,9.976,1.663c1.682,2.475,3.446,4.866,3.325,9.144
		c3.047-0.277,3.355-3.294,7.48-2.493c9.607,2.645,5.77,15.941,9.145,23.274c1.018,0.693,5.854-1.869,9.975-0.83
		c2.511,2.477,3.688,6.289,3.325,11.637c7.966-2.418,14.937,0.357,14.132,9.145c7.953-1.293,12.221,5.5,9.975,11.637
		c-2.786,4.973-11.694,3.822-16.625,6.65c-0.618,2.575,2.541,4.943,3.325,8.312c0.399,1.716-1.691,2.1-1.663,4.157
		c0.063,4.374,7.8,9.4,0.832,14.132c1.535,1.905,5.505,6.5,3.325,11.637c-0.156,0.367-2.484,1.392-2.494,1.662
		c-0.13,3.828,3.466,6.992,3.325,9.145c-0.263,4.039-3.621,6.338-4.988,9.975c-8.325-26.896-67.289-33.779-89.774-14.131
		c-0.49,48.967-1.581,97.475-3.326,146.302c-1.622,45.383,0.287,93.464-3.325,137.157c-4.776,57.799,2.593,118.086,0,177.059
		c-1.027,23.398-4.054,52.092-2.494,79.801c7.174,1.695,17.244,0.49,16.626,9.977c4.134-2.152,13.126-4.338,16.625,0
		c1.565,4.157-0.646,6.305-2.494,9.143c4.928-1.663,10.355-0.187,9.976,5.818c15.724-5.541,34.201,4.664,29.925,20.783
		c-1.5,5.654-6.038,9.698-9.975,15.793c-3.354,5.193-5.835,11.709-9.144,15.794c-6.393,7.892-14.573,13.823-18.288,24.106
		c-4.874,13.492-7.671,34.488-9.976,50.707c-2.714,19.123-0.233,42.002-4.156,61.514c2.303,4.901,8.701,5.707,8.312,13.3
		c13.434-11.06,18.617,7.014,22.444,16.626c-44.26,46.355-40.178,145.459-40.73,232.752c-4.321-2.791-1.972-10.658-1.664-17.456
		c0.817-17.979-0.063-37.673,0.832-57.357c1.083-23.849,2.649-43.071,4.156-67.332c2.448-39.396,19.708-70.032,35.744-91.438
		c-14.052-5.352-26.674,4.832-34.082,11.638c0.522-6.405,3.215-10.64,4.987-15.794c0.159-0.673,0.835-0.828,0.832-1.662
		C1075.341,1301.825,1069.527,1310.419,1059.527,1314.829z M1003.833,444.499c17.997,13.529,38.324,27.002,47.382,46.551
		c2.732,5.896-0.334,14.988,0.832,21.613c1.655,2.743,3.55-2.061,4.157,0c-0.263,1.124-1.185,1.587-0.833,3.324
		c-6.132-4.95-5.851,2.284-12.469-0.831c1.852,9.611-2.463,21.562-0.831,29.925c1.374,7.036,9.751,15.286,14.133,21.613
		c5.375,7.764,8.891,15.571,14.13,21.614c-0.224-25.451,1.495-53.353,0.831-76.477c-4.27-1.5-2.546,2.996-4.987,3.325
		c-1.018-4.573-3.74-1.147-5.818,0c-0.08-2.135-3.244-1.188-3.325-3.325c2.615-0.416,3.25,1.812,4.987,0
		c-1.998-20.026,2.997-33.477,7.481-48.212c4.481-14.725,5.436-26.466,19.951-28.264c0.592-4.195-1.136-6.068-1.663-9.143
		c-2.822-0.227-6.74,0.643-8.312-0.832c3.015-2.25,2.591-7.938,2.493-13.3c-3.146-4.089-11.219-5.729-15.794-1.663
		c-2.073-6.148-13.024-4.532-16.625-0.832c-0.627-2.421-1.974-4.122-3.325-5.819c-8.579-1.375-11.444,2.964-14.132,7.482
		c-8.398-8.195-18.938,0.777-22.443,7.48c-6.194-7.516-13.752,2.783-16.625,6.65c-4.936,0.605-10.613,0.471-10.807,5.818
		C990.676,432.699,996.474,438.966,1003.833,444.499z M1042.071,477.749c-8.772-11.387-25.038-21.664-38.238-31.588
		c-8.398-6.313-15.376-11.768-23.275-14.963c-0.187-6.158,7.907-7.957,12.47-6.649c2.04-4.608,4.899-8.4,9.975-9.976
		c3.313-0.266,6.142-0.045,7.481,1.663c4.117-3.329,4.718-16.323,1.662-21.612c-11.501-0.972-18.724,2.332-23.274,8.313
		c-8.961-0.995-16.773,5.794-19.951,13.299c-8.989-0.4-13.07,4.108-12.469,13.3c-8.281,0.382-15.76,8.908-9.975,15.794
		c-4.887,0.376-5.506,5.024-4.988,10.806c6.704,0.886,7.616-4.021,13.301-4.155c-1.698-3.58-6.05-6.039-4.156-11.639
		c3.443-10.188,19.943,0.266,25.769,4.156c13.607,9.086,21.18,16.109,33.251,25.77c6.173,4.939,12.393,8.661,17.456,12.468
		c9.74,7.323,15.771,23.528,22.444,29.926C1054.657,497.818,1048.315,485.854,1042.071,477.749z M180.034,185.977
		c0,1.662,0,3.324,0,4.987c-1.461,0.478-4.883-1.004-4.987,0.832c3.383,8.742,27.454,10.067,20.781-5.818
		C189.064,181.688,183.423,188.145,180.034,185.977z M175.047,189.3c1.108,0,2.217,0,3.325,0c0-1.108,0-2.215,0-3.324
		C176.257,186.078,175.148,187.185,175.047,189.3z M1065.347,395.454c-7.131-8.776-25.719-2.75-29.095,4.988
		c-2.88-4.732-15.696-2.525-14.962,4.156c4.26,1.004,8.389,2.142,10.806,4.987c1.391-9.562,15.658-8.775,19.951-2.493
		c3.255-4.688,13.104-2.352,14.962,1.663c9.302-8.43,22.052,5.281,14.963,15.793c2.216,0,4.435,0,6.65,0
		c1.607,3.104,1.985,7.436,1.662,12.469c-13.954,1.548-15.892,13.135-19.95,26.601c-4.499,14.923-8.18,29.337-6.65,47.381
		c4.21,0.606,5.072-2.133,8.313-2.494c10.403-13.418,15.787-29.204,24.106-44.887c7.531-14.199,12.557-34.85,26.601-39.9
		c2.952,0.649,2.626,4.578,4.155,6.65c0.607-3.55,6.019-2.295,9.976-2.495c0.029-6.68-0.625-12.673-5.819-14.131
		c-4.794-0.916-4.497,3.261-9.144,2.493c1.771-10.083-6.082-10.543-13.3-11.637c2.97-11.864-9.155-15.144-15.794-9.975
		C1090.059,381.866,1069.87,388.649,1065.347,395.454z M1119.379,425.379c-9.485,7.038-12.07,21.001-17.457,32.42
		c-8.896,18.857-19.52,36.633-29.925,53.2c34.87-14.727,66.341-32.856,104.738-44.058c0.554-4.986-1.268-7.598-3.325-9.974
		c-3.018-1.012-6.562,1.662-7.481,0c0.573-4.175-0.495-6.709-1.662-9.144c-3.617-1.715-8.533-0.42-12.469,0
		c-0.012-4.422,0.521-9.388-1.663-11.638c-6.005-1.019-8.664,1.311-11.638,3.324c0.083-3.406,0.164-6.814-0.831-9.142
		c-4.635-2.164-10.378-0.424-12.469,2.492c-1.383-2.217,0.225-7.427-3.325-7.481C1121.041,425.379,1120.21,425.379,1119.379,425.379
		z M1005.497,470.269c-16.196-13.407-33.367-32.086-51.539-32.42c-5.403,6.022,3.341,12.748,2.493,16.625c-2.216,0-4.434,0-6.649,0
		c-1.164,5.599,1.479,7.389,3.325,9.976c-4.358,0.63-8.568,1.407-11.639,3.325c-2.415,4.888,0.163,9.793,2.494,12.469
		c-5.002-0.292-9.525-0.104-11.638,2.494c-2.84,5.11,1.26,8.091,3.325,10.807c-1.816,1.507-3.854,2.795-3.325,6.65
		c2.411,1.772,5.847,7.536,9.976,8.312c5.874,1.106,12.735-4.847,20.781-5.819c4.857-0.585,10.533-0.391,14.963,0
		c23.543,2.083,45.887,5,62.345,12.47c1.941-1.106,4.684-1.413,6.649-2.493C1039.61,491.917,1021.166,483.238,1005.497,470.269z
		 M1162.604,479.412c-5.195-7.622-19.333,0.034-28.263,4.156c-15.209,7.021-27.841,13.615-41.562,19.95
		c-7.077,3.267-16.455,4.47-19.119,11.638c5.928-2.055,13.401-7.971,21.612-9.144c28.98-4.141,58.036,5.617,67.332,23.275
		c5.004-3.202,3.376-12.085,0-15.795c6.102-2.93,1.561-11.801-2.493-14.131c6.425,0.645,5.161-11.904,0-11.637
		C1161.934,485.944,1163.277,483.688,1162.604,479.412z M977.233,504.349c-13.534-1.144-24.073,3.501-34.913,5.819
		c0.02,8.293,1.328,15.297,8.312,16.625c-7.731,7.04-0.205,14.416,4.987,14.131c-2.375,3.144-4.173,17.283,4.156,14.963
		c6.806-31.377,44.12-49.875,81.464-37.407C1026.809,508.704,1000.333,506.3,977.233,504.349z M1041.24,565.862
		c9.22,14.333,18.734,28.372,29.094,41.564c0-5.266,0-10.529,0-15.795c-9.525-14.857-18.754-30.013-29.094-44.057
		C1041.24,553.671,1041.24,559.767,1041.24,565.862z M1039.577,625.713c9.755,14.075,18.906,28.753,28.263,43.227
		c-1.316-19.941,6.235-39.536,1.663-58.189c-1.473-6.01-9.226-14-14.132-20.782c-5.948-8.223-11.342-17.879-14.962-22.444
		C1036.837,585.463,1040.446,605.524,1039.577,625.713z M1038.747,647.327c9.913,15.301,19.255,31.174,29.093,46.55
		c0-7.481,0-14.962,0-22.444c-9.854-13.698-17.564-29.539-28.263-42.394C1038.497,634.33,1038.719,640.924,1038.747,647.327z
		 M1067.84,760.377c-11.421-14.623-20.363-31.728-32.419-45.719c0.21,6.583-0.054,12.692-0.831,18.287
		c12.48,14.399,22.616,31.14,31.588,49.045C1067.104,775.159,1067.672,767.968,1067.84,760.377z M1066.178,784.484
		c-9.744-17.131-18.283-35.472-31.588-49.044c-4.267,31.021,1.562,60.995,0,92.27c6.573,9.582,15.476,20.807,22.444,29.926
		c2.047,2.679,4.804,7.607,7.481,6.65c3.854-32.949-21.897-36.292-29.095-58.189c8.605,13.562,19.923,24.412,29.095,37.407
		C1064.121,822.881,1064.631,803.164,1066.178,784.484z M1036.252,702.19c-0.858,15.001,7.831,21.694,14.963,32.418
		c5.955,8.956,11.362,16.913,16.625,23.276c0-20.504,0-41.009,0-61.513c-10.014-15.2-19.104-31.325-29.093-46.551
		C1035.629,665.762,1037.308,683.795,1036.252,702.19z M1032.928,892.547c6.414,10.4,15.839,22.309,23.276,31.588
		c2.519,3.146,4.817,8.513,8.312,7.482c0-21.059,0-42.117,0-63.176c-10.071-12.65-20.4-25.043-29.926-38.238
		C1033.443,850.393,1033.051,871.334,1032.928,892.547z M1032.928,920.811c10.741,13.643,18.975,29.793,31.588,41.562
		c0-8.59,0-17.18,0-25.77c-11.313-12.793-21.396-26.817-31.588-40.73C1032.928,904.186,1032.928,912.499,1032.928,920.811z
		 M1031.265,991.467c8.577,16.916,19.141,31.846,30.757,45.721c-1.176-26.114,2.979-46.898,2.494-72.32
		c-12.375-12.008-20.722-28.045-31.588-41.562C1033.692,947.344,1031.533,968.459,1031.265,991.467z M1039.577,1035.524
		c5.215,12.315,10.599,22.07,21.613,25.77c1.851-5.631,0.343-14.62,0.831-21.613c-11.116-14.374-22.472-28.511-30.757-45.719
		C1027.011,1013.762,1034.045,1022.457,1039.577,1035.524z M1058.696,1062.956c-15.76-8.622-19.374-29.393-29.094-44.057
		c-0.737,12.842-2.403,24.754-1.663,39.07c4.19-0.035,5.433,2.879,8.312,4.156
		C1040.75,1054.073,1056.288,1059.848,1058.696,1062.956z M1011.314,1080.413c5.582-0.816,16.39-2.215,23.275-1.662
		c5.323,0.427,11.873-1.104,17.457-0.832c15.302,0.746,28.066,9.38,37.407,14.963c3.511-1.754,6.41-4.119,8.312-7.48
		c-0.01-3.592-6.019-1.186-6.65-4.156c1.607-2.023,0.801-6.955,0-9.145c-7.911-1.804-12.93,3.678-15.794,4.156
		c2.597-16.539-16.566-12.105-19.117-3.325c0.538-14.753-21.499-10.901-22.445,0c0.309-5.296-3.034-6.94-4.987-9.976
		c-10.531-0.555-16.708,3.242-18.288,11.639c-0.953-3.48-1.976-6.891-4.986-8.312c-10.497-0.246-14.493,6.012-14.964,15.793
		c-2.384-4.451-10.48-3.797-14.132-0.83c-2.919,8.77,1.232,16.83,9.145,17.455C990.57,1089.825,998.334,1082.313,1011.314,1080.413z
		 M1032.928,1080.413c-20.092,1.232-40.04,2.23-44.889,17.457c-0.873,0.045-0.654,1.065,0.832,0.83
		c6.421-5.416,13.915-13.156,24.106-14.963c3.099-0.547,6.625-0.616,9.975,0.832c3.859-2.764,12.61-1.879,16.625,0
		c10.593-4.576,18.42,1.119,29.926,1.662c4.308,2.576,10.045,9.89,15.794,5.819
		C1073.211,1081.778,1053.06,1079.178,1032.928,1080.413z M989.702,1078.75c-0.721-12.307,14.414-17.598,21.612-9.975
		c2.832-7.521,20.269-9.725,23.275-0.832c3.639-8.296,21.553-7.607,23.275,1.662c3.218-10.123,20.817-7.646,19.119,4.988
		c2.922-3.174,7.675-4.518,14.131-4.156c2.478,0.848,0.729,5.92,2.494,7.48c0.515-3.087,3.401-3.802,2.494-8.312
		c-4.947-5.396-13.093-0.094-18.288,1.662c1.286-1.207,0.732-4.254,0.831-6.649c-4.581-4.998-17.932-4.274-21.612,0.831
		c-2.475-8.32-17.534-6.195-22.444-1.662c-4.98-7.281-21.426-2.232-24.938,2.494c-8.785-6.685-22.763,0.355-23.275,9.975
		c-18.097-3.842-16.187,21.834-5.819,22.443C969.581,1093.862,973.1,1071.592,989.702,1078.75z M1092.778,1081.245
		c3.933-0.33,5.487,1.715,6.649,4.156c2.004,0.34,1.808-1.519,4.157-0.832c-0.297-2.475-1.323-4.218-2.494-5.818
		C1097.354,1078.614,1093.702,1078.565,1092.778,1081.245z M1069.503,1087.894c-12.646-0.308-19.862-6.726-31.588-1.663
		c-18.033-3.945-38.871-0.54-46.551,14.131c2.884,1.828,4.999,4.423,5.819,8.314c10.585-0.732,16.949,9.536,17.456,21.611
		c1.387,0,2.771,0,4.156,0c12.535,12.127,17.791,31.531,22.444,51.539c1.138-19.09-4.499-44.955,14.964-45.72
		c-1.787-13.792,1.89-28.321,15.793-29.094c0.297-6.353,3.794-9.507,7.481-12.47C1076.38,1092.1,1071.329,1091.61,1069.503,1087.894
		z M1096.935,1097.87c5.843-8.119,22.252-11.857,32.419-8.312c-8.6-9.781-34.056-4.945-38.238,4.986
		c-9.785-2.352-17.285,4.161-18.286,13.301c-13.263,1.146-16.14,12.68-15.795,27.432c4.292-1.803,7.903-4.288,11.638-6.65
		c-2.266-10.029,3.198-19.518,13.3-19.949C1081.945,1100.059,1088.609,1098.133,1096.935,1097.87z M1016.303,1131.951
		c-3.371-1.403-6.977,0.626-9.976-3.325c-0.383-9.314-5.202-14.193-15.794-13.299c0.601-4.205-0.916-6.29-2.494-8.313
		c-6.745-2.425-14.217,0.425-18.287,3.325c-2.766-10.299-21.043-11.926-32.42-8.312c2.712,25.171,28.835,31.06,42.395,48.213
		c8.04,10.169,11.439,30.452,14.963,45.719c6.481,28.083,15.08,53.888,14.132,87.283c6.346-1.082,9.008,1.521,12.469,3.324
		c1.216-8.012,17.395-7.234,20.781-1.662c0.271-9.24,21.584-12.238,24.938-3.324c1.661-5.822,6.004-8.961,14.132-8.313
		c4.767-41.751,4.041-80.842,14.131-112.22c3.366-10.469,11.976-16.948,19.119-25.77c2.892-3.569,5.845-9.664,9.145-14.963
		c5.624-9.035,13.538-14.99,8.312-27.432c-11.919-7.494-28.902-0.867-35.744,6.65c-4.319-0.439-6.662,1.097-9.976,1.662
		c-2.776,1.658-1.704,7.162-4.156,9.145c-10.579,0.227-13.118,8.494-12.469,19.949c-22.266,6.62-23.549,41.922-27.432,61.514
		c-3.524-24.462-18.561-41.842-26.601-59.02c7.449,10.84,14.125,22.451,20.781,34.082
		C1031.36,1153.667,1028.37,1136.981,1016.303,1131.951z M938.995,1100.362c13.02-3.484,26.035-0.154,32.419,7.482
		c6.384-4.776,21.038-4.984,20.781,5.818c10.618-0.088,15.033,6.027,15.794,15.795c2.984-0.49,4.021,0.965,5.819,1.662
		c-1.104-11.204-5.931-22.723-17.457-20.781c-0.428-4.836-3.547-6.981-5.818-9.977c-6.805-0.154-13.922-0.621-15.794,4.158
		C973.002,1091.647,942.413,1089.975,938.995,1100.362z M1042.902,1176.008c3.838-12.514,7.685-29.443,11.638-39.07
		C1041.082,1136.628,1042.316,1164.823,1042.902,1176.008z M1080.31,1309.84c6.36-6.939,15.16-11.44,28.263-11.638
		c2.1-12.88-10.284-17.468-18.288-10.806c0.823-13.824-21.39-16.887-23.275-3.326c-1.532-1.793-2.555-4.094-4.156-5.818
		c-11.074-1.377-18.162,1.232-20.781,8.312c-5.116-7.041-18.533-4.074-22.444,1.662c-1.775-3.488-6.843-3.684-12.469-3.324
		c-2.628,1.527-4.086,4.227-5.818,6.65c-11.466-3.984-19.465,4.437-16.625,14.963c4.868,2.336,11.006,3.402,14.962,6.649
		c3.03-5.005,2.273-13.798,6.65-17.456c1.455,5.75,1.438,12.969,4.987,16.625c2.198-7.5,5.319-14.077,9.976-19.119
		c1.492,6.543,0.015,16.057,2.493,21.613c4.614-5.084,5.816-13.58,10.807-18.288c1.509,6.249,4.767,10.749,6.65,16.625
		c7.982-6.148,10.045-18.218,16.625-25.769c0.686,8.736,2.947,15.895,2.494,25.769c9.697-5.267,15.745-14.181,24.938-19.95
		C1084.511,1299.089,1079.695,1305.333,1080.31,1309.84z"/>
</g>
<path fill-rule="evenodd" clip-rule="evenodd" fill="#FCEE21" d="M431.979,129.938c-8.214-3.842-14.337,10.236-11.218,16.518
	c3.9,7.852,24.084,7.976,30.699,4.313c7.697-4.261,12.189-19.993-0.83-18.848c-4.154,0.366-6.481,3.476-11.318,3.365
	c-4.256-0.097-7.955-2.349-12-2.682"/>
<path fill-rule="evenodd" clip-rule="evenodd" fill="#FCEE21" d="M547.312,252.604c-3.622-3.786-11.241-0.416-14.814,2.484
	c-8.546,6.936-2.064,11.259,5.484,15.684c6.229,3.652,17.093,7.312,19.864-2.834c2.572-9.421-11.533-17.264-19.2-14.666"/>
<path fill-rule="evenodd" clip-rule="evenodd" fill="#FCEE21" d="M717.979,134.604c-5.261,2.253-12.548-1.769-16.483,3.518
	c-4.854,6.519-0.168,12.414,6.483,13.961c5.583,1.297,12.922-0.698,16.502-5.646c4.521-6.25-1.494-12.608-8.502-9.832"/>
<path fill-rule="evenodd" clip-rule="evenodd" fill="#FCEE21" d="M951.312,175.269c-7.317-4.612-16.347,0.281-10.646,9.333
	c5.025,7.981,19.646,8.818,26.497,3.167c5.498-4.535,10.087-16.052,1.514-20.496c-9.518-4.936-12.126,11.288-20.032,7.33"/>
<path fill-rule="evenodd" clip-rule="evenodd" fill="#FCEE21" d="M1134.646,282.604c-6.412-1.939-14.877-1.53-12.032,8.665
	c3.808,13.642,22.809,12.674,30.712,4.484c5.39-5.586,9.325-18.007-0.665-21.166c-7.281-2.301-12.597,4.438-16.682,8.682"/>
<path fill-rule="evenodd" clip-rule="evenodd" fill="#FCEE21" d="M416.646,401.27c-3.684-0.496-14.562-1.034-10.566,6.516
	c3.245,6.128,19.369,3.472,23.882,0.818c5.271-3.1,10.116-8.521,3.349-11.963c-6.037-3.072-10.704,2.308-15.331,4.629"/>
<path fill-rule="evenodd" clip-rule="evenodd" fill="#FCEE21" d="M325.979,302.604c-4.38,1.916-11.208,2.783-11.368,9.867
	c-0.196,8.665,11.138,7.958,16.833,5.479c14.934-6.502,0.662-22.664-7.465-16.68"/>
<path fill-rule="evenodd" clip-rule="evenodd" fill="#FCEE21" d="M101.979,375.938c-9.509-4.159-18.844,10.733-9.998,16.678
	c19.944,13.404,16.661-27.057,3.33-18.678"/>
<path fill-rule="evenodd" clip-rule="evenodd" fill="#FCEE21" d="M1127.979,67.938c-7.344-4.222-9.061,9.364-7.995,13.852
	c2.011,8.467,14.4,15.758,22.694,9.514c13.073-9.844-0.857-30.174-13.366-20.031"/>
<path fill-rule="evenodd" clip-rule="evenodd" fill="#FCEE21" d="M849.979,341.272c-5.721-1.542-13.298-1.942-14.78,5.229
	c-6.538-0.604-11.943-4.842-13.071,4.918c-1.149,9.944,10.479,19.05,19.982,19.23c9.363,0.177,12.151-7.861,12.536-15.394
	c0.529-10.38-2.166-14.177-14-13.317"/>
<path fill-rule="evenodd" clip-rule="evenodd" fill="#FCEE21" d="M179.479,184.938c-0.757-1.272-3.19,0.658-3.842,1.5
	c-1.397,1.805-1.812,5.066-1.995,7.278c-0.263,3.177,1.279,5.102,3.68,7.058c1.708,1.395,4.559,2.424,6.824,1.809
	c2.975-0.808,7.154-4.436,8.217-7.316c1.447-3.923-0.121-7.878-3.717-9.7c-2.771-1.407-7.838-3.327-10.834-1.463"/>
<path fill-rule="evenodd" clip-rule="evenodd" fill="#333333" stroke="#333333" stroke-miterlimit="10" d="M894.107,406.26"/>
<g>
	<path fill-rule="evenodd" clip-rule="evenodd" d="M602.905,783.27c-0.175,0.021-0.284-0.025-0.379-0.085
		c-0.013-0.155,0.008-0.274,0.042-0.38C602.954,782.537,603.18,783.01,602.905,783.27z"/>
	<path fill-rule="evenodd" clip-rule="evenodd" d="M601.769,781.416c0.443,0.132,0.578,0.382,0.842,0.505
		c0.126,0.059,0.293,0.026,0.465,0.127c0.65,0.377,1.162,1.47,0.968,2.231c-0.053,0.21-0.233,0.427-0.379,0.674
		c-0.135,0.229-0.243,0.487-0.379,0.632c-0.939,0.996-3.158,1.022-3.747-0.294c-0.06-0.13-0.037-0.305-0.086-0.463
		c-0.067-0.22-0.229-0.379-0.254-0.59c-0.07-0.633,0.286-1.11,0.507-1.558c-1.021-0.79-2.42-1.695-2.906-3.243
		c-0.233-0.743-0.51-1.956,0.168-2.274c0.732-0.344,1.832,0.18,2.231,0.547c0.519,0.475,0.626,1.118,0.844,1.77
		c-0.026-0.957-0.012-2.828,0.968-3.076c0.363-0.09,0.77,0.207,0.927,0.505C602.478,777.932,602.193,780.472,601.769,781.416z
		 M601.811,776.993c-0.08-0.155-0.465-0.525-0.674-0.464c-1.525,0.46-0.844,4.022-0.632,5.519c0.275-0.118,0.515-0.636,1.096-0.59
		C602.005,780.564,602.321,777.977,601.811,776.993z M597.852,777.246c-1.013-0.139-1.232,0.369-1.137,1.264
		c0.214,2.005,1.803,3.115,3.115,4.042c0.188-0.122,0.417-0.201,0.548-0.378C599.997,780.234,599.95,777.533,597.852,777.246z
		 M600.884,781.963c0.179-0.033,0.267-0.154,0.506-0.126c0.018-0.08,0.091-0.105,0.084-0.211
		C601.197,781.658,601.014,781.785,600.884,781.963z M601.601,781.836c0.263-0.063,0.525,0.218,0.673,0
		c-0.192-0.074-0.329-0.203-0.59-0.211C601.666,781.707,601.593,781.732,601.601,781.836z M603.327,782.468
		c-0.126-0.071-0.305-0.312-0.422-0.252C603.065,782.253,603.226,782.512,603.327,782.468z M602.695,782.552
		c-0.256,0.166-0.491,0.352-0.59,0.674c0.191,0.229,0.812,0.289,1.137,0.127C603.212,782.935,603.023,782.673,602.695,782.552z
		 M600.8,783.522c0.05-0.107,0.259-0.274,0.169-0.379C600.877,783.193,600.734,783.587,600.8,783.522z M601.811,783.943
		c0.217,0.074,0.257-0.247,0.168-0.339C601.917,783.712,601.83,783.795,601.811,783.943z M600.59,784.194
		c-0.026-0.1,0.052-0.305-0.043-0.336C600.505,783.968,600.473,784.14,600.59,784.194z M601.516,784.701
		c-0.199-0.096-0.472-0.343-0.632-0.338C601.072,784.469,601.234,784.828,601.516,784.701z M601.896,784.616
		c-0.411,0.025,0.223,0.093,0.21-0.083C602.001,784.525,601.975,784.598,601.896,784.616z M601.727,786.132
		c-0.848-0.004-1.569-0.525-2.063-1.053C599.957,785.825,600.652,786.167,601.727,786.132z M602.61,785.837
		c0.226-0.181,0.485-0.329,0.632-0.59C602.967,785.354,602.702,785.69,602.61,785.837z M601.559,785.879
		c0.438,0.111,1.063-0.165,1.01-0.378C602.204,785.601,601.879,785.735,601.559,785.879z"/>
</g>
<g>
	<path fill-rule="evenodd" clip-rule="evenodd" d="M765.896,880.161c-0.175,0.021-0.284-0.024-0.379-0.084
		c-0.013-0.155,0.008-0.275,0.042-0.381C765.944,879.428,766.17,879.901,765.896,880.161z"/>
	<path fill-rule="evenodd" clip-rule="evenodd" d="M764.759,878.307c0.443,0.133,0.578,0.383,0.842,0.506
		c0.126,0.058,0.293,0.025,0.465,0.127c0.65,0.376,1.162,1.469,0.968,2.23c-0.053,0.21-0.233,0.427-0.379,0.674
		c-0.135,0.229-0.243,0.487-0.379,0.633c-0.939,0.995-3.158,1.021-3.748-0.295c-0.059-0.131-0.036-0.305-0.085-0.463
		c-0.067-0.22-0.229-0.379-0.254-0.59c-0.07-0.635,0.286-1.111,0.507-1.559c-1.021-0.789-2.42-1.694-2.906-3.243
		c-0.233-0.743-0.51-1.956,0.168-2.274c0.732-0.342,1.832,0.18,2.231,0.548c0.519,0.476,0.626,1.118,0.844,1.769
		c-0.026-0.957-0.012-2.826,0.968-3.074c0.363-0.092,0.77,0.207,0.927,0.505C765.468,874.824,765.184,877.364,764.759,878.307z
		 M764.801,873.884c-0.08-0.155-0.465-0.524-0.674-0.464c-1.525,0.46-0.844,4.021-0.632,5.52c0.275-0.119,0.515-0.637,1.096-0.591
		C764.995,877.456,765.312,874.868,764.801,873.884z M760.842,874.137c-1.013-0.139-1.232,0.369-1.137,1.264
		c0.214,2.006,1.803,3.115,3.115,4.043c0.188-0.122,0.417-0.201,0.548-0.378C762.987,877.127,762.94,874.424,760.842,874.137z
		 M763.874,878.854c0.179-0.032,0.267-0.154,0.506-0.125c0.018-0.081,0.091-0.107,0.084-0.212
		C764.188,878.549,764.004,878.676,763.874,878.854z M764.591,878.729c0.263-0.064,0.525,0.217,0.673,0
		c-0.192-0.076-0.329-0.203-0.59-0.212C764.656,878.598,764.583,878.624,764.591,878.729z M766.317,879.36
		c-0.126-0.072-0.305-0.312-0.422-0.252C766.056,879.145,766.216,879.403,766.317,879.36z M765.686,879.444
		c-0.256,0.166-0.491,0.353-0.59,0.674c0.192,0.23,0.812,0.289,1.137,0.127C766.202,879.827,766.014,879.565,765.686,879.444z
		 M763.79,880.413c0.05-0.106,0.259-0.273,0.169-0.379C763.867,880.084,763.725,880.479,763.79,880.413z M764.801,880.834
		c0.217,0.074,0.257-0.246,0.168-0.339C764.907,880.604,764.82,880.686,764.801,880.834z M763.58,881.086
		c-0.026-0.102,0.052-0.306-0.042-0.337C763.495,880.86,763.463,881.032,763.58,881.086z M764.506,881.592
		c-0.199-0.097-0.472-0.343-0.632-0.338C764.062,881.36,764.225,881.719,764.506,881.592z M764.886,881.507
		c-0.411,0.025,0.223,0.094,0.21-0.083C764.991,881.417,764.965,881.49,764.886,881.507z M764.717,883.024
		c-0.848-0.004-1.569-0.525-2.064-1.053C762.947,882.716,763.643,883.059,764.717,883.024z M765.601,882.729
		c0.226-0.181,0.485-0.329,0.632-0.59C765.957,882.245,765.692,882.582,765.601,882.729z M764.549,882.772
		c0.438,0.11,1.063-0.166,1.01-0.379C765.194,882.493,764.869,882.627,764.549,882.772z"/>
</g>
<g>
	<path fill-rule="evenodd" clip-rule="evenodd" d="M662.846,541.705c-0.209,0.026-0.338-0.03-0.451-0.1
		c-0.016-0.186,0.008-0.329,0.049-0.455C662.904,540.83,663.174,541.394,662.846,541.705z"/>
	<path fill-rule="evenodd" clip-rule="evenodd" d="M661.49,539.493c0.529,0.157,0.689,0.456,1.004,0.603
		c0.15,0.07,0.35,0.031,0.555,0.151c0.775,0.45,1.387,1.753,1.154,2.662c-0.062,0.25-0.279,0.51-0.451,0.804
		c-0.162,0.273-0.291,0.581-0.453,0.754c-1.119,1.187-3.766,1.219-4.471-0.35c-0.07-0.157-0.043-0.364-0.102-0.553
		c-0.08-0.263-0.273-0.451-0.303-0.704c-0.084-0.757,0.342-1.325,0.605-1.858c-1.219-0.94-2.887-2.02-3.467-3.869
		c-0.277-0.886-0.609-2.334,0.199-2.713c0.875-0.409,2.186,0.215,2.662,0.653c0.619,0.567,0.748,1.334,1.006,2.111
		c-0.029-1.142-0.012-3.373,1.156-3.667c0.434-0.109,0.918,0.246,1.104,0.603C662.336,535.339,661.997,538.368,661.49,539.493z
		 M661.541,534.218c-0.096-0.186-0.555-0.627-0.805-0.554c-1.818,0.55-1.006,4.798-0.754,6.583c0.328-0.141,0.615-0.758,1.309-0.703
		C661.773,538.479,662.148,535.391,661.541,534.218z M656.818,534.521c-1.209-0.167-1.471,0.439-1.355,1.506
		c0.254,2.393,2.148,3.716,3.715,4.822c0.225-0.145,0.498-0.239,0.654-0.45C659.377,538.085,659.322,534.86,656.818,534.521z
		 M660.434,540.145c0.215-0.038,0.32-0.185,0.605-0.15c0.021-0.095,0.107-0.126,0.1-0.251
		C660.809,539.782,660.59,539.933,660.434,540.145z M661.291,539.995c0.312-0.075,0.625,0.261,0.801,0
		c-0.229-0.088-0.393-0.241-0.703-0.251C661.369,539.84,661.281,539.871,661.291,539.995z M663.35,540.749
		c-0.15-0.086-0.363-0.372-0.504-0.3C663.038,540.493,663.229,540.8,663.35,540.749z M662.596,540.848
		c-0.307,0.199-0.586,0.422-0.703,0.804c0.229,0.274,0.967,0.345,1.355,0.152C663.211,541.304,662.988,540.994,662.596,540.848z
		 M660.334,542.004c0.061-0.127,0.309-0.326,0.204-0.452C660.428,541.612,660.256,542.083,660.334,542.004z M661.541,542.508
		c0.258,0.088,0.305-0.293,0.199-0.403C661.668,542.233,661.564,542.331,661.541,542.508z M660.084,542.809
		c-0.031-0.119,0.062-0.365-0.051-0.402C659.982,542.537,659.945,542.744,660.084,542.809z M661.188,543.412
		c-0.236-0.115-0.562-0.409-0.754-0.403C660.66,543.136,660.854,543.563,661.188,543.412z M661.643,543.31
		c-0.492,0.032,0.266,0.112,0.25-0.099C661.768,543.202,661.736,543.29,661.643,543.31z M661.439,545.12
		c-1.01-0.006-1.871-0.627-2.461-1.256C659.33,544.752,660.158,545.162,661.439,545.12z M662.494,544.767
		c0.27-0.215,0.58-0.392,0.754-0.703C662.92,544.19,662.604,544.592,662.494,544.767z M661.24,544.818
		c0.521,0.133,1.268-0.197,1.203-0.45C662.01,544.484,661.623,544.647,661.24,544.818z"/>
</g>
<g>
	<path fill-rule="evenodd" clip-rule="evenodd" d="M956.854,854.135c-0.139,0.018-0.226-0.019-0.3-0.067
		c-0.011-0.124,0.006-0.219,0.032-0.302C956.894,853.554,957.072,853.929,956.854,854.135z"/>
	<path fill-rule="evenodd" clip-rule="evenodd" d="M955.95,852.663c0.353,0.104,0.46,0.303,0.669,0.4
		c0.101,0.047,0.233,0.021,0.37,0.101c0.517,0.3,0.924,1.17,0.77,1.774c-0.042,0.168-0.186,0.34-0.302,0.536
		c-0.106,0.185-0.193,0.388-0.3,0.503c-0.748,0.793-2.513,0.812-2.981-0.234c-0.047-0.103-0.029-0.242-0.068-0.367
		c-0.053-0.175-0.182-0.302-0.201-0.47c-0.057-0.505,0.228-0.883,0.401-1.239c-0.811-0.628-1.923-1.348-2.31-2.579
		c-0.186-0.591-0.405-1.556,0.133-1.81c0.583-0.272,1.456,0.144,1.775,0.437c0.412,0.378,0.497,0.89,0.671,1.406
		c-0.021-0.761-0.01-2.248,0.77-2.444c0.289-0.072,0.611,0.164,0.738,0.402C956.514,849.89,956.288,851.911,955.95,852.663z
		 M955.983,849.145c-0.062-0.123-0.37-0.418-0.536-0.369c-1.213,0.364-0.671,3.197-0.502,4.388c0.218-0.095,0.409-0.505,0.871-0.47
		C956.138,851.984,956.39,849.926,955.983,849.145z M952.835,849.345c-0.807-0.111-0.98,0.293-0.904,1.005
		c0.17,1.594,1.434,2.478,2.479,3.216c0.148-0.098,0.331-0.16,0.435-0.301C954.541,851.722,954.504,849.574,952.835,849.345z
		 M955.245,853.097c0.144-0.026,0.213-0.123,0.403-0.102c0.015-0.062,0.073-0.084,0.067-0.167
		C955.497,852.854,955.35,852.955,955.245,853.097z M955.816,852.996c0.21-0.05,0.418,0.174,0.535,0
		c-0.153-0.058-0.261-0.161-0.469-0.167C955.868,852.893,955.811,852.913,955.816,852.996z M957.189,853.499
		c-0.101-0.057-0.242-0.249-0.336-0.2C956.981,853.328,957.108,853.533,957.189,853.499z M956.687,853.566
		c-0.203,0.131-0.391,0.279-0.469,0.535c0.152,0.183,0.646,0.229,0.904,0.101C957.099,853.869,956.948,853.663,956.687,853.566z
		 M955.18,854.335c0.039-0.084,0.206-0.217,0.134-0.301C955.241,854.077,955.128,854.388,955.18,854.335z M955.983,854.671
		c0.172,0.06,0.204-0.196,0.134-0.27C956.068,854.487,955.999,854.553,955.983,854.671z M955.013,854.873
		c-0.021-0.081,0.041-0.244-0.034-0.269C954.945,854.692,954.919,854.828,955.013,854.873z M955.749,855.274
		c-0.159-0.077-0.375-0.272-0.504-0.269C955.396,855.089,955.525,855.375,955.749,855.274z M956.051,855.207
		c-0.327,0.021,0.177,0.074,0.167-0.066C956.135,855.134,956.114,855.192,956.051,855.207z M955.916,856.415
		c-0.674-0.004-1.247-0.42-1.642-0.838C954.51,856.167,955.062,856.44,955.916,856.415z M956.619,856.18
		c0.181-0.146,0.386-0.264,0.503-0.471C956.902,855.793,956.692,856.063,956.619,856.18z M955.783,856.211
		c0.349,0.088,0.847-0.132,0.803-0.301C956.296,855.989,956.038,856.097,955.783,856.211z"/>
</g>
<g>
	<path fill-rule="evenodd" clip-rule="evenodd" d="M677.33,980.108c-0.139,0.018-0.226-0.019-0.3-0.067
		c-0.011-0.123,0.006-0.219,0.032-0.302C677.37,979.526,677.549,979.902,677.33,980.108z"/>
	<path fill-rule="evenodd" clip-rule="evenodd" d="M676.427,978.634c0.353,0.104,0.46,0.304,0.669,0.401
		c0.101,0.047,0.233,0.021,0.37,0.101c0.517,0.3,0.924,1.17,0.77,1.774c-0.042,0.168-0.186,0.34-0.302,0.536
		c-0.106,0.185-0.193,0.389-0.3,0.503c-0.748,0.793-2.513,0.812-2.981-0.234c-0.047-0.104-0.029-0.242-0.068-0.367
		c-0.053-0.175-0.182-0.301-0.201-0.469c-0.057-0.506,0.228-0.884,0.401-1.24c-0.812-0.627-1.923-1.348-2.31-2.578
		c-0.186-0.592-0.405-1.557,0.133-1.81c0.583-0.272,1.456,0.143,1.775,0.437c0.412,0.376,0.497,0.889,0.671,1.405
		c-0.021-0.762-0.01-2.248,0.77-2.445c0.289-0.071,0.611,0.165,0.738,0.402C676.99,975.862,676.765,977.883,676.427,978.634z
		 M676.46,975.117c-0.062-0.122-0.37-0.418-0.536-0.369c-1.213,0.364-0.671,3.198-0.502,4.389c0.218-0.093,0.409-0.505,0.871-0.469
		C676.614,977.957,676.866,975.898,676.46,975.117z M673.312,975.318c-0.807-0.111-0.98,0.292-0.904,1.005
		c0.17,1.595,1.434,2.478,2.479,3.216c0.148-0.098,0.331-0.159,0.435-0.302C675.018,977.694,674.98,975.547,673.312,975.318z
		 M675.722,979.069c0.144-0.025,0.213-0.122,0.403-0.101c0.015-0.062,0.073-0.084,0.067-0.167
		C675.973,978.827,675.826,978.928,675.722,979.069z M676.293,978.968c0.21-0.05,0.418,0.175,0.535,0
		c-0.153-0.058-0.261-0.161-0.469-0.167C676.345,978.866,676.288,978.885,676.293,978.968z M677.666,979.471
		c-0.101-0.057-0.242-0.249-0.336-0.199C677.458,979.3,677.585,979.505,677.666,979.471z M677.163,979.539
		c-0.203,0.131-0.391,0.279-0.469,0.535c0.152,0.183,0.646,0.229,0.904,0.101C677.575,979.842,677.425,979.634,677.163,979.539z
		 M675.656,980.309c0.039-0.085,0.206-0.217,0.134-0.302C675.718,980.048,675.604,980.36,675.656,980.309z M676.46,980.645
		c0.172,0.058,0.204-0.197,0.134-0.27C676.545,980.46,676.476,980.526,676.46,980.645z M675.489,980.845
		c-0.021-0.081,0.041-0.244-0.034-0.269C675.422,980.664,675.396,980.8,675.489,980.845z M676.226,981.247
		c-0.159-0.077-0.375-0.272-0.504-0.268C675.873,981.063,676.002,981.348,676.226,981.247z M676.527,981.18
		c-0.327,0.019,0.177,0.073,0.167-0.068C676.611,981.107,676.591,981.165,676.527,981.18z M676.393,982.386
		c-0.674-0.004-1.247-0.419-1.642-0.838C674.986,982.14,675.539,982.413,676.393,982.386z M677.096,982.152
		c0.181-0.146,0.386-0.263,0.503-0.471C677.379,981.765,677.169,982.035,677.096,982.152z M676.26,982.184
		c0.349,0.088,0.847-0.132,0.803-0.301C676.772,981.961,676.515,982.069,676.26,982.184z"/>
</g>
<g>
	<path fill-rule="evenodd" clip-rule="evenodd" d="M915.887,965.656c-0.174,0.021-0.283-0.024-0.379-0.085
		c-0.011-0.154,0.008-0.274,0.043-0.379C915.936,964.923,916.163,965.397,915.887,965.656z"/>
	<path fill-rule="evenodd" clip-rule="evenodd" d="M914.75,963.802c0.443,0.132,0.579,0.382,0.842,0.505
		c0.127,0.059,0.293,0.026,0.465,0.127c0.65,0.377,1.162,1.469,0.969,2.231c-0.053,0.21-0.234,0.427-0.379,0.674
		c-0.135,0.229-0.244,0.487-0.379,0.632c-0.938,0.996-3.158,1.023-3.748-0.294c-0.059-0.13-0.037-0.305-0.086-0.463
		c-0.066-0.22-0.229-0.379-0.254-0.589c-0.07-0.636,0.287-1.112,0.508-1.56c-1.021-0.79-2.42-1.694-2.906-3.243
		c-0.234-0.743-0.51-1.956,0.168-2.274c0.732-0.343,1.832,0.181,2.23,0.548c0.52,0.475,0.627,1.118,0.844,1.769
		c-0.025-0.956-0.012-2.827,0.969-3.074c0.363-0.092,0.77,0.207,0.926,0.505C915.459,960.319,915.176,962.86,914.75,963.802z
		 M914.793,959.379c-0.08-0.155-0.464-0.525-0.674-0.464c-1.525,0.46-0.844,4.022-0.633,5.519c0.275-0.118,0.516-0.636,1.096-0.59
		C914.986,962.951,915.303,960.362,914.793,959.379z M910.834,959.632c-1.014-0.138-1.232,0.369-1.137,1.265
		c0.213,2.005,1.803,3.115,3.115,4.043c0.188-0.123,0.416-0.203,0.547-0.379C912.979,962.622,912.932,959.919,910.834,959.632z
		 M913.865,964.349c0.18-0.032,0.268-0.155,0.506-0.126c0.018-0.08,0.092-0.106,0.084-0.211
		C914.18,964.044,913.997,964.171,913.865,964.349z M914.582,964.223c0.264-0.062,0.525,0.219,0.674,0
		c-0.193-0.074-0.33-0.203-0.59-0.211C914.648,964.093,914.574,964.119,914.582,964.223z M916.309,964.856
		c-0.125-0.073-0.305-0.312-0.422-0.252C916.047,964.64,916.207,964.898,916.309,964.856z M915.678,964.94
		c-0.256,0.164-0.492,0.352-0.59,0.672c0.191,0.23,0.811,0.29,1.137,0.128C916.193,965.321,916.006,965.061,915.678,964.94z
		 M913.781,965.909c0.051-0.107,0.26-0.274,0.17-0.381C913.859,965.58,913.717,965.973,913.781,965.909z M914.793,966.331
		c0.217,0.072,0.256-0.247,0.168-0.34C914.898,966.099,914.812,966.181,914.793,966.331z M913.572,966.582
		c-0.027-0.101,0.051-0.306-0.043-0.337C913.486,966.354,913.455,966.526,913.572,966.582z M914.498,967.087
		c-0.199-0.097-0.473-0.343-0.633-0.338C914.055,966.856,914.217,967.214,914.498,967.087z M914.877,967.002
		c-0.41,0.025,0.223,0.094,0.211-0.083C914.982,966.912,914.957,966.985,914.877,967.002z M914.709,968.52
		c-0.848-0.005-1.57-0.525-2.064-1.054C912.939,968.211,913.635,968.554,914.709,968.52z M915.592,968.224
		c0.227-0.181,0.487-0.329,0.633-0.59C915.949,967.74,915.684,968.077,915.592,968.224z M914.541,968.266
		c0.438,0.111,1.062-0.165,1.01-0.378C915.186,967.987,914.861,968.123,914.541,968.266z"/>
</g>
<path fill-rule="evenodd" clip-rule="evenodd" d="M1131.016,50.481c3.55,1.673-3.088,6.636-0.831,12.469
	c18.509-6.352,26.292,24.013,8.312,27.431c-9.661,1.838-25.511-3.82-26.6-12.469c-1.034-8.221,7.953-18.112,16.625-13.3
	C1127.795,58.342,1129.295,54.302,1131.016,50.481z M1113.56,77.082c0.984,11.622,33.142,18.402,34.082,0.831
	c0.38-7.095-8.736-19.537-18.288-10.807c-1.402-1.921-4.239-2.411-7.481-2.494C1118.073,68.04,1113.062,71.206,1113.56,77.082z"/>
<path fill-rule="evenodd" clip-rule="evenodd" d="M437.745,120.307c2.937-0.463-0.334,5.219,0.832,8.312
	c19.073-13.277,25.581,18.75,10.807,24.107c-14.355-0.741-32.731-0.799-35.744-10.806c-4.443-14.758,14.501-20.724,23.274-10.807
	C437.251,127.57,436.108,122.55,437.745,120.307z M415.302,132.776c0,3.325,0,6.65,0,9.975c7.769,6.362,19.295,8.969,34.082,8.312
	c5.347-2.777,8.317-12.062,5.818-19.95c-3.782-6.126-15.468-2.867-18.288,1.663C432.323,126.143,419.577,125.302,415.302,132.776z"
	/>
<path fill-rule="evenodd" clip-rule="evenodd" d="M712.893,123.631c4.573,1.769-4.017,3.368-1.663,8.313
	c3.756,0.456,11.015,0.015,14.132,3.326c7.2,16.675-27.224,17.75-29.095,6.65c-0.974-5.785,6.199-13.653,13.301-9.145
	C708.769,127.82,711.109,126.006,712.893,123.631z M710.398,135.27c-5.356-5.855-13.958,0.937-12.469,6.65
	c2.229,8.549,31.723,7.992,25.769-5.819C720.203,134.079,714.038,132.625,710.398,135.27z"/>
<path fill-rule="evenodd" clip-rule="evenodd" d="M960.607,151.895c2.359,2.276-6.97,6.742-5.818,13.3
	c2.343-1.833,12.535-2.314,15.794,1.663c1.404,3.307,0.652,8.769,0.831,13.3c-8.041,9.735-39.371,10.799-35.744-9.976
	c2.752-4.494,11.649-3.674,16.625-1.662C953.992,161.904,955.233,154.833,960.607,151.895z M953.127,170.183
	c-4.861-1.896-14.125-3.084-16.626,1.663c-1.206,16.442,24.672,15.843,33.251,8.313c1.331-4.429,1.182-10.724-1.663-13.3
	C962.962,163.307,955.068,165.695,953.127,170.183z"/>
<path fill-rule="evenodd" clip-rule="evenodd" d="M539.159,238.346c3.367,1.741-4.113,6.188-1.662,12.469
	c6.631,1.429,12.339,1.014,14.962,4.987c12.417,18.812-32.327,21.546-28.263,0c0.809-0.023,0.645-1.018,0.832-1.662
	c2.309-2.126,6.001-2.866,10.806-2.493C535.316,245.587,536.579,241.307,539.159,238.346z M525.858,255.802
	c-1.636,13.192,16.656,16.251,25.77,10.807C557.222,251.205,534.113,250.956,525.858,255.802z"/>
<path fill-rule="evenodd" clip-rule="evenodd" d="M1134.341,274.921c3.531-0.491,14.273-1.91,17.457,2.493
	c4.74,18.537-16.244,23.891-30.757,16.626c-6.54-8.142-0.846-24.183,10.807-19.12c1.42-3.845,0.944-9.585,4.987-10.805
	C1140.258,265.665,1131.826,268.832,1134.341,274.921z M1134.341,278.247c-3.343-3.197-9.475-2.345-13.3,0
	c-1.247,3.719-1.561,11.516,0.831,14.131c12.667,5.859,30.552,3.92,29.095-13.299
	C1147.906,275.417,1137.933,274.411,1134.341,278.247z"/>
<path fill-rule="evenodd" clip-rule="evenodd" d="M326.356,289.053c3.365,0.791,3.438,4.875,3.325,9.143
	c4.423-1.821,10.159,0.439,10.807,4.158c1.786,10.268-27.394,20.638-30.757,7.481c-2.484-9.717,10.312-16.343,18.287-11.639
	C328.686,293.928,327.128,291.884,326.356,289.053z M311.394,310.666c9.197,7.856,24.887,2.236,27.432-8.312
	c-1.059-1.991-2.711-3.385-5.818-3.327c-2.766,0.284-2.947,3.149-4.988,4.157c-1.56-1.469,0.99-2.427-0.83-4.157
	C318.312,296.264,310.572,301.042,311.394,310.666z"/>
<path fill-rule="evenodd" clip-rule="evenodd" d="M833.425,325.628c4.16,1.187-3.771,7.244,0,10.806
	c10.615-0.954,22.449,6.921,19.119,18.289c-3.34,11.402-26.534,7.795-34.913,2.493c-5.054-9.756,1.132-24.042,13.301-19.119
	C830.907,334.975,831.22,328.844,833.425,325.628z M849.219,357.216c6.094-7.499-3.845-21.191-13.3-19.119
	c-0.94,0.207-1.938,2.438-3.325,2.493c-5.121,0.206-7.376-2.646-10.806-0.83c-4.452,2.356-4.814,8.533-3.326,15.793
	C825.13,359.293,843.418,364.356,849.219,357.216z"/>
<path fill-rule="evenodd" clip-rule="evenodd" d="M95.267,367.192c-1.139,2.187-3.499,3.15-4.156,5.818
	c0.158,0.674,0.834,0.829,0.831,1.662c0.618,1.875,4.663,0.325,6.649,0.832c4.438,2.775,3.775,11.006,0.832,14.963
	c-13.486,7-25.146-12.362-9.976-14.963C89.853,373.639,90.019,366.725,95.267,367.192z M83.628,383.817
	c0.712,5.221,7.736,7.21,14.963,4.987c2.291-3.17,2.153-9.419-0.83-11.637C89.966,376.853,82.519,375.672,83.628,383.817z"/>
<path fill-rule="evenodd" clip-rule="evenodd" d="M413.64,387.973c3.807-0.205,0.062,7.14,2.493,8.313
	c2.174-2.458,11.491-5.016,15.794,0c0.682,8.717-3.035,13.034-6.65,17.456c-10.538,0.009-22.002,0.943-27.432-4.157
	c-0.777-9.995,6.379-16.244,15.795-13.299C414.546,395.858,413.03,390.854,413.64,387.973z M416.133,398.779
	c-2.874-1.005-5.508-2.251-9.976-1.663c-3.5,2.597-6.727,5.465-7.48,10.806c4.535,5.439,15.918,4.032,25.769,4.157
	c3.169-3.759,6.452-7.401,5.819-14.963C425.651,393.18,419.276,394.948,416.133,398.779z"/>
<path fill-rule="evenodd" clip-rule="evenodd" fill="none" stroke="#000000" stroke-width="1.5" stroke-miterlimit="10" d="
	M180.229,185.729c-4.343-4.309-8.688,4.145-5.778,7.755c3.008,3.733,8.248,6.56,13.153,6.37c2.111-0.082,5.032-0.609,6.653-1.973
	c1.884-1.584,4.195-3.65,4.479-6.277c0.816-7.594-7.359-8.271-12.854-7.747c-1.123,0.106-2.261,0.114-3.279,0.586
	c-0.848,0.396-1.504,1.114-2.377,1.482c-0.934-3.803-2.041-11.274,3.003-12.947"/>
<g>
	<g>
		<path fill="#FFFFFF" d="M640.075,1572.27c-12.237,12.297-29.848,18.082-48.566,18.082c-37.32,0-67.574-30.255-67.574-67.574
			c0-37.32,30.254-67.576,67.574-67.576c18.006,0,36.448,5.189,46.479,18.525C673.922,1521.5,628.483,1547.233,640.075,1572.27z"/>
		<path d="M641.026,1573.247c-6.073,6.631-14.027,11.588-22.511,14.633c-8.497,3.116-17.546,4.432-26.515,4.514
			c-9.038,0.096-18.12-1.59-26.527-4.967c-8.408-3.371-16.164-8.391-22.639-14.734c-6.473-6.342-11.695-13.951-15.267-22.273
			c-3.581-8.319-5.491-17.346-5.614-26.385c-0.067-4.519,0.295-9.045,1.099-13.494c0.839-4.441,2.113-8.797,3.8-12.981
			c3.347-8.388,8.511-15.978,14.797-22.347c12.627-12.697,30-20.497,47.87-20.98c8.877-0.216,17.834,0.665,26.402,3.328
			c4.275,1.326,8.44,3.115,12.298,5.487c3.855,2.364,7.393,5.339,10.275,8.896c2.789,3.534,5.299,7.213,7.518,11.122
			c2.212,3.902,4.09,8.027,5.444,12.352c1.362,4.318,2.196,8.832,2.394,13.382c0.208,4.551-0.221,9.117-1.133,13.547
			c-1.832,8.892-5.614,17.067-8.804,25.13c-1.577,4.038-2.986,8.098-3.656,12.182c-0.328,2.04-0.47,4.083-0.305,6.104
			c0.173,2.018,0.624,4.006,1.359,5.938l0.333,0.875L641.026,1573.247z M638.391,1571.933c-1.892-3.936-2.403-8.552-1.807-12.809
			c0.61-4.627,2.178-8.908,3.787-13.04c1.631-4.133,3.379-8.146,4.914-12.201c1.543-4.051,2.865-8.146,3.761-12.313
			c0.911-4.161,1.362-8.401,1.224-12.634c-0.129-4.23-0.848-8.441-2.076-12.516c-2.454-8.152-6.844-15.77-12.036-22.608
			c-5.211-6.666-12.833-11.241-20.979-13.946c-8.186-2.695-16.937-3.787-25.603-3.635c-8.649,0.231-17.274,2.121-25.167,5.693
			c-7.907,3.539-15.015,8.778-20.828,15.131c-5.85,6.336-10.323,13.834-13.357,21.818c-1.509,4-2.621,8.143-3.319,12.35
			c-0.734,4.202-1.052,8.476-0.964,12.74c0.165,8.528,2.014,17.008,5.425,24.811c3.402,7.807,8.353,14.929,14.464,20.848
			c6.1,5.93,13.324,10.713,21.217,13.902c7.887,3.205,16.401,4.832,24.933,4.777c8.586-0.003,17.158-1.338,25.237-4.089
			c4.035-1.389,7.923-3.174,11.612-5.304C632.233,1576.906,635.414,1574.588,638.391,1571.933z"/>
	</g>
	<path fill-rule="evenodd" clip-rule="evenodd" d="M585.42,1494.434c-1.17-3.938,3.31-8.896,7.999-5.319
		c4.23,3.228-0.057,9.263-4,7.894C589.131,1495.77,586.927,1494.26,585.42,1494.434z"/>
	<g>
		<path d="M572.83,1491.776c-0.793,2.85-1.252,5.5-1.51,8.162c-0.129,1.33-0.153,2.654-0.301,4.002
			c-0.138,1.348-0.316,2.752-0.289,4.173l0.006,0.323c0.009,0.448-0.347,0.816-0.794,0.826c-0.165,0.003-0.317-0.043-0.446-0.125
			c-2.43-1.524-5.083-2.371-7.812-3.598c-1.352-0.629-2.695-1.425-3.841-2.443c-1.139-1.023-2.106-2.193-3.002-3.379
			c-0.637-0.844-0.469-2.045,0.376-2.682c0.264-0.199,0.562-0.318,0.867-0.365l0.264-0.037c1.385-0.203,2.731-0.527,4.082-0.811
			c1.348-0.301,2.691-0.635,4.031-1.047c2.688-0.805,5.342-1.88,8.064-3.258c0.106-0.055,0.236-0.012,0.291,0.095
			c0.025,0.051,0.029,0.104,0.016,0.155L572.83,1491.776z M572.818,1491.79c-0.747,1.43-1.816,2.613-2.985,3.693
			c-1.183,1.061-2.502,1.982-3.915,2.742c-1.412,0.756-2.918,1.355-4.473,1.764c-1.557,0.418-3.168,0.575-4.762,0.629l1.507-3.084
			c0.638,1.154,1.349,2.242,2.117,3.271c0.759,1.037,1.557,2.075,2.537,2.996c1.951,1.883,4.562,3.084,7.323,3.635l-1.234,1.025
			c-0.518-1.413-1.036-2.887-1.256-4.424c-0.234-1.535-0.088-3.107,0.223-4.629c0.316-1.523,0.849-3.004,1.602-4.36
			c0.781-1.341,1.71-2.608,3.012-3.518L572.818,1491.79z"/>
	</g>
	<circle fill-rule="evenodd" clip-rule="evenodd" fill="#F5F5F5" cx="589.271" cy="1491.999" r="1.047"/>
	<g>
		<path d="M584.647,1493.85c0.753-0.014,1.452,0.053,2.188,0.199c0.724,0.16,1.455,0.406,2.167,0.805
			c0.711,0.381,1.463,0.922,1.941,1.721c0.47,0.793,0.709,1.732,0.633,2.596c-0.07,0.801-0.778,1.394-1.58,1.322
			c-0.629-0.055-1.128-0.5-1.281-1.076l-0.045-0.176c-0.122-0.463-0.178-0.855-0.359-1.228c-0.152-0.376-0.349-0.814-0.711-1.212
			c-0.371-0.375-0.85-0.713-1.381-0.992c-0.535-0.234-1.146-0.461-1.706-0.535c-0.392-0.051-0.667-0.408-0.616-0.801
			c0.046-0.355,0.347-0.616,0.695-0.621L584.647,1493.85z"/>
	</g>
	<path fill-rule="evenodd" clip-rule="evenodd" d="M570.618,1483.254c4.074,0.547,8.278-4.647,4.018-8.727
		c-3.845-3.68-9.142,1.492-7.18,5.174C568.725,1479.796,570.558,1481.741,570.618,1483.254z"/>
	<path fill-rule="evenodd" clip-rule="evenodd" fill="#F5F5F5" d="M571.266,1478.209c-0.551,0.174-1.139-0.129-1.314-0.678
		c-0.175-0.553,0.127-1.141,0.677-1.316c0.55-0.178,1.139,0.129,1.316,0.68C572.12,1477.442,571.816,1478.034,571.266,1478.209z"/>
	<g>
		<path d="M570.515,1484.483c-0.496-0.527-0.896-1.059-1.338-1.518c-0.42-0.469-0.76-0.947-1.191-1.301
			c-0.459-0.328-0.949-0.49-1.373-0.613c-0.423-0.153-0.848-0.176-1.338-0.251l-0.164-0.026c-0.796-0.123-1.34-0.869-1.217-1.664
			c0.098-0.63,0.586-1.102,1.18-1.211c0.873-0.158,1.842-0.002,2.684,0.381c0.848,0.393,1.479,1.07,1.965,1.727
			c0.498,0.664,0.822,1.378,1.174,2.045c0.367,0.679,0.638,1.322,0.999,2.079c0.152,0.317,0.018,0.699-0.3,0.851
			c-0.257,0.123-0.555,0.059-0.74-0.137L570.515,1484.483z"/>
	</g>
	<g>
		<path d="M586.407,1533.036l1.99,4.473c0.645,1.486,1.296,2.973,2.007,4.434c0.705,1.461,1.443,2.908,2.22,4.326
			c0.39,0.707,0.784,1.412,1.204,2.088c0.404,0.641,0.869,1.293,1.354,1.902c1.953,2.445,4.377,4.562,7.096,5.924
			c1.357,0.67,2.795,1.141,4.219,1.289c1.549,0.17,3.074,0.192,4.455-0.078c1.386-0.268,2.516-0.867,3.126-1.771
			c0.315-0.441,0.53-1.02,0.639-1.6c0.103-0.568,0.063-1.102-0.099-1.667c-0.323-1.12-1.168-2.243-2.213-3.158
			c-0.521-0.462-1.1-0.876-1.693-1.217c-0.295-0.169-0.596-0.319-0.881-0.437c-0.275-0.115-0.578-0.197-0.678-0.199
			c-0.027-0.023-0.051,0.069,0.404-0.092c0.111-0.049,0.262-0.133,0.406-0.27c0.037-0.035,0.154-0.16,0.088-0.087l-0.025,0.028
			c-0.005,0.004-0.027,0.027-0.017,0.018l0.048-0.053c0.121-0.162,0.096-0.146,0.123-0.195c0.032-0.113-0.015,0.087,0.021,0.297
			c0.052,0.456,0.267,1.059,0.569,1.602c0.611,1.109,1.57,2.084,2.695,2.774c1.128,0.697,2.438,1.12,3.817,1.288
			c0.341,0.043,0.704,0.068,1.039,0.082c0.425,0.015,0.745,0.018,1.115,0.008c0.702-0.015,1.33-0.107,1.682-0.265
			c0.344-0.157,0.496-0.274,0.735-0.708c0.213-0.392,0.439-1.156,0.463-1.564c0.072-1.093-0.291-2.639-0.751-4.057
			c-0.117-0.359-0.244-0.723-0.378-1.082l-0.396-1.014c-0.233-0.568-0.484-0.789-0.673-0.895c-0.195-0.092-0.182-0.018-0.1-0.094
			c0.031-0.032,0.025-0.059,0.008,0.01c-0.017,0.066-0.014,0.229,0.038,0.432c0.081,0.395,0.246,0.686,0.679,1.075
			c0.417,0.368,0.986,0.71,1.598,0.976c0.612,0.266,1.276,0.467,1.924,0.576c0.637,0.112,1.3,0.111,1.674,0.011
			c1.328-0.356,2.382-1.024,2.92-1.956c0.541-0.926,0.614-2.197,0.195-3.424c-0.422-1.249-1.277-2.483-2.293-3.594
			c-1.02-1.117-2.212-2.131-3.479-3.049c-1.268-0.916-2.619-1.748-4.016-2.455c-1.453-0.738-2.901-1.418-4.389-2.105
			c-2.96-1.369-5.963-2.705-8.894-4.236c-1.47-0.766-2.903-1.605-4.283-2.471c-1.397-0.863-2.661-1.834-4.108-2.65
			c1.699,0.111,3.26,0.865,4.715,1.578c1.464,0.744,2.873,1.521,4.348,2.181c2.942,1.345,5.984,2.511,9.027,3.728
			c1.514,0.605,3.062,1.236,4.561,1.9c1.559,0.691,3.047,1.5,4.479,2.425c1.429,0.927,2.803,1.968,4.058,3.2
			c1.243,1.236,2.41,2.662,3.148,4.481c0.736,1.81,0.871,4.108-0.188,6.073c-1.048,1.98-3.014,3.139-4.796,3.68
			c-1.204,0.354-2.216,0.301-3.189,0.188c-0.971-0.129-1.891-0.374-2.791-0.726c-0.897-0.358-1.777-0.815-2.615-1.497
			c-0.826-0.645-1.67-1.744-1.957-2.957c-0.15-0.586-0.24-1.254-0.122-1.995c0.114-0.734,0.467-1.54,1.091-2.142
			c0.615-0.605,1.446-0.957,2.247-1.031c0.803-0.072,1.579,0.102,2.217,0.422c1.29,0.627,2.085,1.799,2.483,2.723l0.277,0.658
			l0.237,0.604c0.154,0.403,0.303,0.812,0.442,1.228c0.529,1.68,1.064,3.35,0.992,5.539c-0.031,0.599-0.162,1.149-0.291,1.615
			c-0.137,0.486-0.312,0.99-0.577,1.51c-0.478,1.033-1.56,2.143-2.746,2.584c-1.17,0.463-2.202,0.515-3.127,0.539
			c-0.447,0.008-0.944-0.006-1.336-0.025c-0.481-0.021-0.934-0.062-1.403-0.124c-1.857-0.247-3.729-0.86-5.373-1.905
			c-1.643-1.041-3.051-2.477-4.001-4.242c-0.469-0.895-0.849-1.846-0.981-3.02c-0.046-0.596-0.088-1.24,0.247-2.119
			c0.104-0.238,0.173-0.406,0.419-0.73l0.127-0.154l0.166-0.172c0.221-0.203,0.458-0.344,0.662-0.432
			c0.837-0.318,1.24-0.205,1.613-0.176c0.711,0.113,1.185,0.312,1.658,0.52c0.465,0.211,0.887,0.445,1.291,0.696
			c0.807,0.503,1.543,1.073,2.225,1.719c1.344,1.286,2.559,2.878,3.091,4.935c0.261,1.012,0.294,2.154,0.062,3.188
			c-0.227,1.018-0.628,1.994-1.288,2.869c-0.649,0.865-1.523,1.562-2.446,2.002c-0.924,0.445-1.877,0.697-2.801,0.826
			c-1.851,0.256-3.63,0.107-5.313-0.164c-1.819-0.29-3.501-0.959-5.028-1.816c-3.049-1.741-5.527-4.182-7.509-6.94
			c-0.495-0.698-0.944-1.403-1.374-2.169c-0.403-0.736-0.77-1.479-1.129-2.225c-0.717-1.489-1.387-2.994-2.023-4.512
			c-0.629-1.521-1.252-3.049-1.769-4.617C586.8,1536.357,586.391,1534.717,586.407,1533.036z"/>
	</g>
	<g>
		<path d="M572.878,1584.452c-0.23-0.596-0.457-1.18-0.662-1.771c-0.107-0.295-0.188-0.592-0.285-0.889
			c-0.089-0.323-0.19-0.54-0.268-0.967c-0.092-0.518,0.251-1.011,0.768-1.105c0.512-0.092,1,0.244,1.102,0.75l0.068,0.344
			c0.766,3.844,0.789,7.625,0.896,11.256c0.026,0.904,0.061,1.793,0.134,2.623c0.039,0.367,0.084,0.756,0.155,1.014
			c0.078,0.277,0.096,0.375,0.127,0.455c0.025,0.103,0.292,0.24,0.693,0.326c0.397,0.094,0.883,0.158,1.377,0.258
			c0.993,0.195,2.027,0.523,2.883,1.078l0.119,0.066c0.049,0.075,0.092,0.152,0.138,0.248c0.021,0.049,0.05,0.098,0.066,0.203
			c0.011,0.061-0.005,0.141-0.062,0.209c-0.046,0.043-0.097,0.064-0.124,0.066c-0.121,0.02-0.182-0.003-0.259-0.002
			c-0.073-0.004-0.147-0.001-0.215,0.05c0.032-0.177,0.281-0.267,0.347-0.341c0.01-0.009-0.01-0.012-0.027,0.004
			c-0.035,0.033-0.043,0.076-0.045,0.098c-0.003,0.031-0.021,0.016-0.048,0.006l-0.187-0.086l0.119,0.068
			c-0.956,0-1.824,0.134-2.719,0.326c-0.452,0.092-0.912,0.191-1.461,0.25c-0.535,0.049-1.241,0.072-2.045-0.297
			c-0.801-0.389-1.355-1.108-1.644-1.695c-0.305-0.611-0.483-1.148-0.612-1.713c-0.248-1.031-0.366-2.032-0.441-3.016
			c-0.27-3.93,0.174-7.713,0.896-11.432l1.938-0.012c-0.051,0.178-0.097,0.564-0.142,0.846c-0.049,0.309-0.083,0.615-0.144,0.924
			C573.197,1583.211,573.094,1583.834,572.878,1584.452z"/>
	</g>
	<g>
		<path d="M573.549,1597.786c-0.548-0.031-1.2,0.168-1.815,0.322c-0.621,0.164-1.243,0.33-1.861,0.479
			c-0.669,0.148-1.123,0.658-1.546,0.457c-0.217-0.07-0.415-0.191-0.682-0.367c-0.261-0.153-0.584-0.359-1.194-0.467l-0.036-0.006
			c-0.126-0.021-0.224-0.111-0.263-0.224c-0.213-0.616-0.014-1.226,0.299-1.671c0.311-0.465,0.736-0.77,1.15-0.965
			c0.846-0.453,1.69,0.062,2.309,0.227c0.67,0.166,1.338,0.379,2,0.66c0.33,0.149,0.66,0.3,0.984,0.49
			c0.313,0.195,0.67,0.396,0.901,0.779c0.055,0.09,0.026,0.207-0.064,0.263c-0.034,0.021-0.073,0.028-0.11,0.026L573.549,1597.786z"
			/>
	</g>
	<g>
		<path d="M557.936,1579.93c-0.229-0.596-0.457-1.18-0.661-1.771c-0.107-0.295-0.189-0.592-0.285-0.889
			c-0.09-0.322-0.191-0.54-0.268-0.967c-0.094-0.518,0.25-1.012,0.767-1.104c0.511-0.093,1,0.243,1.101,0.749l0.068,0.344
			c0.765,3.844,0.789,7.625,0.898,11.257c0.025,0.903,0.059,1.79,0.133,2.622c0.039,0.367,0.084,0.756,0.154,1.014
			c0.08,0.277,0.098,0.375,0.127,0.455c0.026,0.102,0.292,0.238,0.693,0.326c0.396,0.092,0.883,0.156,1.376,0.256
			c0.994,0.195,2.028,0.523,2.884,1.079l0.119,0.067c0.049,0.074,0.091,0.152,0.137,0.246c0.021,0.05,0.051,0.098,0.068,0.201
			c0.01,0.061-0.003,0.141-0.061,0.209c-0.046,0.045-0.097,0.066-0.124,0.068c-0.122,0.021-0.183-0.004-0.26-0.002
			c-0.072-0.004-0.147,0-0.215,0.051c0.032-0.177,0.281-0.266,0.347-0.34c0.01-0.01-0.011-0.014-0.029,0.004
			c-0.035,0.035-0.043,0.078-0.043,0.1c-0.004,0.028-0.022,0.014-0.049,0.002l-0.188-0.084l0.119,0.066
			c-0.956,0-1.824,0.133-2.719,0.328c-0.451,0.092-0.912,0.191-1.461,0.25c-0.535,0.05-1.241,0.072-2.045-0.299
			c-0.801-0.388-1.355-1.107-1.643-1.695c-0.305-0.61-0.484-1.148-0.613-1.71c-0.247-1.033-0.365-2.033-0.441-3.017
			c-0.27-3.93,0.173-7.713,0.898-11.433l1.936-0.011c-0.05,0.177-0.096,0.564-0.141,0.846c-0.049,0.309-0.082,0.615-0.143,0.924
			C558.253,1578.689,558.152,1579.314,557.936,1579.93z"/>
	</g>
	<g>
		<path d="M558.608,1593.264c-0.548-0.033-1.2,0.168-1.815,0.322c-0.621,0.164-1.243,0.33-1.861,0.479
			c-0.67,0.148-1.124,0.658-1.546,0.457c-0.218-0.071-0.415-0.191-0.682-0.367c-0.261-0.154-0.583-0.361-1.194-0.467l-0.036-0.006
			c-0.126-0.021-0.224-0.111-0.263-0.225c-0.213-0.615-0.016-1.225,0.298-1.672c0.311-0.463,0.737-0.768,1.151-0.965
			c0.846-0.453,1.689,0.063,2.309,0.228c0.67,0.165,1.338,0.378,2,0.659c0.33,0.15,0.66,0.301,0.984,0.491
			c0.313,0.196,0.67,0.397,0.901,0.78c0.055,0.09,0.026,0.207-0.064,0.262c-0.034,0.021-0.073,0.029-0.11,0.027L558.608,1593.264z"
			/>
	</g>
</g>
<g>
</g>
<g>
</g>
<g>
</g>
<g>
</g>
<g>
</g>
<g>
</g>
<g>
</g>
<g>
</g>
<g>
</g>
<g>
</g>
<g>
</g>
<g>
</g>
<g>
</g>
<g>
</g>
<g>
</g>
</svg>
